<svg height="14" viewBox="0 0 14 14" width="14" xmlns="http://www.w3.org/2000/svg"><path d="m13.7093083 2.21859849-1.5304826-1.92010324c-.1445522-.18138222-.3638625-.28704555-.595846-.28704555h-7.91024611c-.23193775 0-.45124806.10566333-.59582312.28702268l-1.53045972 1.92012611c-.15987897.2005979-.29070568.57459437-.29070568.85692751v1.40645c.12156201-.1912417.29923836-.33478735.51230357-.40821867.01191829-.16072538.06064375-.31660109.14398029-.45854543.14436918-.24591487.37596379-.42077749.65200608-.49258463.09896072-.02584965.18957177-.03756206.28015994-.03756206.3649834 0 .69572174.18566.88938827.47732646.05766989-.01004248.11586593-.01525816.17429073-.01525816.17920902 0 .34855858.04927448.49608462.13418945l.84775431-.22049985c.10623522-.02772547.21539854-.04165683.32479062-.04165683.58632966 0 1.09883911.39659776 1.24654815.96453528l1.66140081 6.38543674c.08667641.3331403.03831696.6800747-.13581364.9769797-.1743136.296905-.45390164.5080258-.78706481.5947251l-.74147334.1928658h6.22745643c.5260291 0 .9524569-.4264278.9524569-.9524339l-.0000229-8.53155291c0-.25652923-.1308038-.6305257-.2906828-.8311236zm-11.66272391-.01624182.50683625-.63587864h3.45804334l.34123833-.5610519h-3.35205976l.37417948-.46945719c.0726993-.09120582.18129072-.14352277.29791156-.14352277h7.91026901c.1166437 0 .2252351.05231695.2979115.14352277l.3741795.46945719h-3.41176558l.1904868.5610519h3.66850068l.5068134.63587864zm.15459467 2.34609641-.21377436.05561107c-.22768285.05924832-.36425138.29184947-.30502594.51953232l.00217321.00832679c.05924832.22770572.29184947.36425138.51955519.30502593l1.81295298-.47165327c.22770573-.05922545.36425138-.29182659.30502594-.51955519l-.00217321-.00832679c-.05924832-.22768285-.29184947-.36425138-.51953231-.30502593l-.21377436.05561107c-.11421888.02971566-.23093122-.03879736-.26064688-.15301624l-.00183007-.00695424c-.06901629-.26526779-.33998015-.42436898-.60524794-.35535269l-.01109476.00288235c-.26526779.06901629-.42434611.33998015-.3553527.60524794l.00183007.00695425c.02966991.1142875-.03884311.23097696-.15308486.26069263zm.58436233-.59662377c.11499666-.02992155.23248677.03907187.26238544.15404564.02992155.11499665-.03904899.23248677-.15406852.26238544-.11499665.02989867-.23246389-.03907187-.26238544-.15404564-.02989867-.11499666.03907187-.23248677.15406852-.26238544zm2.67184782 6.56729939c.01994769.0766796-.02603267.1549835-.10268948.1749312l-2.63755698.6861368c-.07665681.0199477-.15498355-.0260556-.17493125-.1027124l-.03612089-.1387875c-.0199477-.0767025.02603266-.1550064.10271235-.1749312l2.63753411-.6861368c.07667968-.0199477.15498355.0260556.17493125.1026895zm.32167951-2.7515014.03612089.13881036c.0199477.07667969-.02603266.15498356-.10271235.17490838l-3.60925238.938983c-.07667969.0199477-.15498356-.02605553-.17493125-.10268947l-.03612089-.13883323c-.0199477-.07667969.02603266-.15498356.10271234-.17490838l3.60925239-.93893725c.07667968-.01997058.15498355.02598691.17493125.10266659zm-.39161084-.93559738-3.60925238.93893725c-.07667969.01992482-.15498356-.02605554-.17493126-.10271235l-.03612089-.13881036c-.01994769-.07667968.02603267-.15496067.10271235-.17490837l3.60925239-.93893726c.07667968-.0199477.15498355.02603266.17493125.10268947l.03612089.13883324c.0199477.07663393-.02603266.15496068-.10271235.17490838zm-.08015681 2.54044921-2.9151777.75837857c-.07667969.0199248-.15498355-.0260556-.17493125-.1027124l-.03612089-.13881033c-.0199477-.07667968.02603266-.15498355.10271234-.17493125l2.91515484-.7583328c.07667968-.01997058.15498355.02603266.17493125.10268947l.03612089.13881036c.01997057.07665681-.02600979.15498355-.10268948.17490838zm2.62394589 1.54057077-1.66119492-6.38561969c-.09971562-.38332979-.49132646-.61323159-.87465626-.51351598l-.84649614.22022534c.02001633.04133657.03662416.0849836.04863396.13105546.10113391.38879712-.12782998.77880665-.5083003.87779024l-1.78630268.46469902c-.36464027.09486595-.75725764-.09289862-.87966605-.44923498-.02305881-.0671176-.03552612-.13457834-.03909475-.20103254l-.84736542.2204541c-.3833298.09971561-.6132316.49132645-.51351598.87463337l1.66119492 6.38561976c.09973849.3833527.49132645.6132545.87465625.513516l4.85863714-1.2639567c.38330692-.0997156.61320872-.4913036.51347023-.8746334zm-5.55268894 1.4445154-1.44451533-5.55268896 4.85861426-1.26395664 1.4445382 5.5526889z" fill="#fff" transform=""/></svg>