<svg height="13" viewBox="0 0 18 13" width="18" xmlns="http://www.w3.org/2000/svg"><path d="m173.631588 17.6616596v-7.86982331c0-.43730979.344971-.79183629.770559-.79183629h7.654412c.425559 0 .770529.3545265.770529.79183629v7.86985351c0 .1457699-.11497.2639454-.256853.2639454h-8.681794c-.141882 0-.256853-.1181755-.256853-.2639756zm6.181177 2.6960334c0 .9070197-.715559 1.642307-1.598177 1.642307-.882617 0-1.598176-.7352873-1.598176-1.642307 0-.9070498.715559-1.6423069 1.598176-1.6423069.882618 0 1.598177.7352571 1.598177 1.6423069zm-.799118 0c0-.4535098-.357765-.8211535-.799088-.8211535-.441324 0-.799118.3676437-.799118.8211535s.357794.8211837.799118.8211837c.441323 0 .799088-.3676739.799088-.8211837zm-2.175559-1.6423372h-3.581235c-.141853 0-.256853.1181755-.256853.2639455v.8007825c0 .14577.115.2639455.256853.2639455h2.870529c.074942-.5284349.3345-.995213.710706-1.3286735zm11.336559 1.6423372c0 .9070197-.715559 1.642307-1.598176 1.642307-.882647 0-1.598177-.7352873-1.598177-1.642307 0-.9070498.71553-1.6423069 1.598177-1.6423069.882617-.0000303 1.598176.7352571 1.598176 1.6423069zm-.799059 0c0-.4535098-.357794-.8211535-.799117-.8211535-.441353 0-.799089.3676437-.799089.8211535s.357765.8211837.799089.8211837c.441323 0 .799117-.3676739.799117-.8211837zm3.624412-1.3783917v.8007825c0 .14577-.115.2639455-.256853.2639455h-2.079529c-.148736-1.048256-1.026647-1.8565643-2.087089-1.8565643-1.060647 0-1.938588.8083385-2.087323 1.8565643h-4.187412c-.07497-.5284047-.3345-.995213-.710706-1.3286735h3.970412v-7.5496613c0-.2915399.23-.5278909.513706-.5278909h2.424853c.682765 0 1.320912.3485119 1.702941.9299898l1.563235 2.3792566c.229294.3489955.351824.7604639.351824 1.1815737v3.5867321h.625088c.141853 0 .256853.1181755.256853.2639455zm-2.605647-4.9713199-1.250029-1.8253127c-.048118-.0702404-.126471-.1120401-.210059-.1120401h-1.949853c-.141824 0-.256853.1181755-.256853.2639455v1.8253127c0 .1458002.115.2639455.256853.2639455h3.199941c.208059 0 .329765-.2409753.21-.4158509z" fill="#5c6979" opacity=".521003" transform="translate(-173 -9)"/></svg>