<svg height="13" viewBox="0 0 18 13" width="18" xmlns="http://www.w3.org/2000/svg"><path d="m88 206h16c.552285 0 1 .447715 1 1v11c0 .552285-.447715 1-1 1h-16c-.5522847 0-1-.447715-1-1v-11c0-.552285.4477153-1 1-1zm7.5 2h7.832157c.276142 0 .5.223858.5.5 0 .276142-.223858.5-.5.5h-7.832157c-.2761424 0-.5-.223858-.5-.5 0-.276142.2238576-.5.5-.5zm0 2h7.832157c.276142 0 .5.223858.5.5 0 .276142-.223858.5-.5.5h-7.832157c-.2761424 0-.5-.223858-.5-.5 0-.276142.2238576-.5.5-.5zm0 2h7.832157c.276142 0 .5.223858.5.5 0 .276142-.223858.5-.5.5h-7.832157c-.2761424 0-.5-.223858-.5-.5 0-.276142.2238576-.5.5-.5zm-3.5 3h7.0450218c.5522847 0 1.0000002.447715 1.0000002 1 0 .552285-.4477155 1-1.0000002 1h-7.0450218c-.5522847 0-1-.447715-1-1 0-.552285.4477153-1 1-1zm-3-7h4c.5522847 0 1 .447715 1 1v3c0 .552285-.4477153 1-1 1h-4c-.5522847 0-1-.447715-1-1v-3c0-.552285.4477153-1 1-1z" fill="#fff" fill-rule="evenodd" transform="translate(-87 -206)"/></svg>