<svg height="13" viewBox="0 0 14 13" width="14" xmlns="http://www.w3.org/2000/svg"><g fill="none"><path d="m13.8143974 6.3400624c.2535961-.26759701.2291075-.67774324-.0546775-.91585032l-6.2521629-5.24885662c-.28378501-.23810708-.73876221-.23311917-1.01657329.01124467l-6.27341368 5.51745997c-.27781107.24436384-.29144625.65398502-.03018892.9145377l.15728339.15716292c.26093811.26055268.68271661.29161773.94146579.06917444l.46884039-.40283937v5.89763501c0 .3618422.30558307.6547726.682443.6547726h2.44539414c.37685993 0 4.06579153-.0002626 4.44265146-.0002626h2.59150492c.3768599 0 .682443-.2929303.682443-.6547726v-5.81432808s.1295114.10885895.2892573.24357628c.1594723.1344548.4944234.02664594.7480195-.24121359z" fill="#adb4bc" transform=""/><g fill="#fff" transform="translate(4 5)"><path d="m1.71819861 1.00605426.11866275-.11866275c.07731821-.07731821.06099299-.20661082-.03229238-.26257981l-1.11409352-.56823211-.62983703.68203735.56415089 1.06581777c.05603612.09339727.18596652.10958821.26257981.03229238l.11883059-.11866275.90805818.90667071.71120445-.71127159z"/><path d="m5.61453289.66836054c-.04931134-.10344527-.18764492-.12920309-.27012141-.04639093l-.43419042.43419043c-.0636001.0636001-.17373659.0636001-.2373367 0-.06540158-.06540158-.06540158-.17193511 0-.2373367l.43419043-.43419042c.08167085-.08167086.05820685-.22026179-.04639093-.27012141-.44861346-.21438739-.9858911-.12210906-1.33731411.22962726-.3227336.32256575-.42697331.8019946-.27618602 1.22536495l-1.87778071 1.87771358c-.42304586-.15079849-.90263136-.04654758-1.22536496.27618602-.35157966.35157966-.443858.88902514-.22962725 1.33731411.0499827.10485513.18866315.127838.27012141.04639093l.43419042-.43419043c.06555823-.06523374.17210295-.06540158.23733669.00016784.06537921.06504353.06586035.17096164 0 .23716886l-.43419042.43419042c-.08167086.08167086-.05820685.22026179.04639093.27012141.16110385.07701609.33369913.11438843.50514191.11438843.30552442 0 .60694235-.11883059.83198198-.34403806.32289025-.32256576.42697331-.80199461.27618602-1.22536496l1.87781428-1.8776912c.42287802.15063065.90263136.04654758 1.22552161-.27618601.35157966-.35157967.44385799-.88902515.22962725-1.33731412z"/><path d="m5.48116737 4.30971256c-.56974905-.56765665-.88209896-.79318861-1.55000074-1.31260809l-.94920131.94930202c.46948154.60265684.75376863.99136268 1.28695098 1.52473525.17439676.17439676.40616117.25575431.63415478.25575431.16734749 0 .33256901-.03973328.47139492-.13954202.20242601-.14587518.32993952-.37059032.34977818-.61628544.01982748-.24601961-.06868005-.48697045-.24307681-.66135603zm-.48343463.68870273c-.06682263.06086991-.17093926.05502908-.23485266-.00888432l-.66470164-.66470163c-.0639134-.06391341-.06975423-.16803004-.00888432-.23485267.06497639-.07132073.17543737-.07325649.2428866-.00581845l.67135928.67135928c.06744923.06746042.06551347.1779214-.00580726.24289779z"/></g></g></svg>