<svg height="13" viewBox="0 0 14 13" width="14" xmlns="http://www.w3.org/2000/svg"><path d="m13.8143974 6.3400624-.1777134.18744041c-.2535961.26785953-.5885472.37566839-.7480195.24121359-.1597459-.13471733-.2892573-.24357628-.2892573-.24357628v5.81432808c0 .3618423-.3055831.6547726-.682443.6547726h-2.59150492c-.37685993 0-4.06579153.0002626-4.44265146.0002626h-2.44539414c-.37685993 0-.682443-.2929304-.682443-.6547726v-5.89763501l-.46884039.40283937c-.25874918.22244329-.68052768.19137824-.94146579-.06917444l-.15728339-.15716292c-.26125733-.26055268-.24762215-.67017386.03018892-.9145377l6.27341368-5.51745997c.27781108-.24436384.73278828-.24935175 1.01657329-.01124467l6.2521629 5.24885662c.283785.23810708.3082736.64825331.0546775.91585032zm-8.09619879-.33400814.11866275-.11866276c.07731821-.07731821.06099299-.20661081-.03229238-.2625798l-1.11409352-.56823211-.62983703.68203735.56415089 1.06581777c.05603612.09339727.18596652.10958821.26257981.03229238l.11883059-.11866275.90805818.90667071.71120445-.71127159zm3.89633428-.33769372c-.04931134-.10344528-.18764492-.12920309-.27012141-.04639093l-.43419042.43419043c-.0636001.0636001-.17373659.0636001-.2373367 0-.06540158-.06540158-.06540158-.17193511 0-.2373367l.43419043-.43419042c.08167085-.08167086.05820685-.22026179-.04639093-.27012141-.44861346-.21438739-.9858911-.12210906-1.33731411.22962726-.3227336.32256575-.42697331.8019946-.27618602 1.22536495l-1.87778071 1.87771358c-.42304586-.15079849-.90263136-.04654758-1.22536496.27618602-.35157966.35157966-.443858.88902514-.22962725 1.33731408.0499827.1048552.18866315.127838.27012141.046391l.43419042-.43419047c.06555823-.06523374.17210295-.06540158.23733669.00016784.06537921.06504353.06586035.17096164 0 .23716886l-.43419042.43419047c-.08167086.0816708-.05820685.2202617.04639093.2701214.16110384.0770161.33369913.1143884.50514191.1143884.30552442 0 .60694235-.1188306.83198198-.3440381.32289025-.3225657.42697331-.80199458.27618602-1.22536493l1.87781428-1.8776912c.42287802.15063065.90263136.04654758 1.22552161-.27618601.35157966-.35157967.44385799-.88902515.22962725-1.33731412zm-.13336552 3.64135202c-.56974905-.56765665-.88209896-.79318861-1.55000074-1.31260809l-.94920131.94930202c.46948154.60265684.75376863.99136268 1.28695098 1.52473521.17439676.1743968.40616117.2557544.63415478.2557544.16734749 0 .33256901-.0397333.47139492-.1395421.20242601-.1458752.32993952-.3705903.34977818-.61628541.01982748-.24601961-.06868005-.48697045-.24307681-.66135603zm-.48343463.68870273c-.06682263.06086991-.17093926.05502911-.23485266-.00888432l-.66470164-.66470163c-.0639134-.06391341-.06975423-.16803004-.00888432-.23485267.06497639-.07132073.17543737-.07325649.2428866-.00581845l.67135928.67135928c.06744923.06746042.06551347.1779214-.00580726.24289779z" fill="#fff" transform=""/></svg>