<svg height="13" viewBox="0 0 13 13" width="13" xmlns="http://www.w3.org/2000/svg"><g fill="#fff" transform=""><path d="m4.34174015 5.35294118c.2861953 0 .51846975-.23832225.51846975-.53196931v-2.07468031c0-.92748849.73544934-1.68235294 1.63966059-1.68235294.90395201 0 1.63966059.75486445 1.63966059 1.68235294v2.07468031c0 .29364706.23227445.53196931.51846976.53196931.2861953 0 .51846975-.23832225.51846975-.53196931v-2.07468031c0-1.51425064-1.20077595-2.74629156-2.6766001-2.74629156-1.47556491 0-2.67634086 1.23204092-2.67634086 2.74629156v2.07468031c-.00025924.29364706.23201521.53196931.51821052.53196931z"/><path d="m12.7839678 4.58823529h-2.90077709v.6481183c0 .57327545-.49015673 1.03948404-1.09288012 1.03948404-.60245016 0-1.09288011-.46620859-1.09288011-1.03948404v-.6481183h-2.36308003v.6481183c0 .57327545-.49015673 1.03948404-1.09288011 1.03948404-.60272339 0-1.09288012-.46620859-1.09288012-1.03948404v-.6481183h-2.93274379c-.15081745 0-.24398548.11304389-.20819366.25233475l1.91172054 7.40580406c.11557207.4163133.57594782.7536259 1.02867341.7536259h7.10372078c.4529988 0 .9131013-.3375724 1.0292198-.7536259l1.9114473-7.40580406c.0355186-.13955073-.0573762-.25233475-.2084668-.25233475z"/></g></svg>