<svg height="17" viewBox="0 0 16 17" width="16" xmlns="http://www.w3.org/2000/svg"><g fill="#fff" fill-rule="evenodd" transform=""><path d="m4.67572016 6.1092322c.30821032 0 .55835204-.2459175.55835204-.54892298v-2.14079961c0-.95704721.79202237-1.73596892 1.76578833-1.73596892.97348678 0 1.76578833.77892171 1.76578833 1.73596892v2.14079961c0 .30300548.25014171.54892298.55835204.54892298s.55835204-.2459175.55835204-.54892298v-2.14079961c0-1.56250926-1.29314333-2.83381487-2.88249241-2.83381487-1.58906991 0-2.88221324 1.27130561-2.88221324 2.83381487v2.14079961c-.00027917.30300548.24986254.54892298.55807287.54892298z" fill-rule="nonzero"/><path d="m13.7673499 5.32015542h-3.1239138v.66877359c0 .59154553-.527861 1.07261202-1.17694777 1.07261202-.64879248 0-1.17694781-.48106649-1.17694781-1.07261202v-.66877359h-2.54485542v.66877359c0 .59154553-.52786109 1.07261202-1.17694781 1.07261202s-1.17694782-.48106649-1.17694782-1.07261202v-.66877359h-3.15833946c-.1624188 0-.2627536.11664656-.22420856.26037657l2.05877596 7.64182431c.12446224.4295811.6202515.7776437 1.10780214.7776437h5.64144221c.29899814 0-.02867685-.8880247 0-1.545982.0094237-.2162159.15455603-.4341248.43539698-.6537267.48784487 0 2.09351276-.4343268 2.21856346-.8636397.7333281-.0523245 1.2061327-.4725187 1.4184138-1.26058249.2451592-.91011936.6128981-2.2752984 1.1032167-4.09553712.0382508-.14399817-.0617898-.26037657-.2245028-.26037657z" fill-rule="nonzero"/><path d="m11.5 16c-1.93299662 0-3.5-1.5670034-3.5-3.5s1.56700338-3.5 3.5-3.5c1.9329966 0 3.5 1.5670034 3.5 3.5s-1.5670034 3.5-3.5 3.5zm2.2511893-4.9996796c-1.4910637.8414886-2.5657763 1.904244-3.0021283 2.3765456l-1.1203812-.8080378c-.02966793-.0196409-.64469421.4830427-.62836018.498694l2.04042048 1.909768c.0150007.0156514.0356682.0227098.0580025.0227098.0040002 0 .0103338 0 .0156674-.0012276.0266678-.005524.0493354-.0220959.0593358-.046647.3286807-.7736663 1.4140604-2.3934245 2.8001197-3.5681942.0246677-.0214822.0333347-.05524.0196675-.0843944-.0003334-.0003069-.2216762-.3108782-.2423437-.2992164z" stroke="#5c6979" stroke-width=".3"/></g></svg>