<svg height="13" viewBox="0 0 13 13" width="13" xmlns="http://www.w3.org/2000/svg"><g fill="#fff" transform=""><path d="m3.72276366 2.17978422.25710263-.25710263c.16752279-.16752278.13215148-.44765677-.06996683-.5689229l-2.41386929-1.23116958-1.36464691 1.4777476 1.22232694 2.30927183c.1214116.20236074.40292746.23744113.56892291.06996683l.25746628-.25710263 1.96745939 1.96445319 1.54094298-1.54108844z"/><path d="m12.1648213 1.4481145c-.1068413-.22413143-.406564-.27994003-.5852631-.10051367l-.9407459.94074592c-.1378002.13780022-.3764293.13780022-.5142295 0-.14170344-.14170343-.14170344-.37252607 0-.5142295l.9407459-.94074592c.1769535-.17695352.1261148-.47723388-.1005137-.58526305-.97199579-.46450602-2.13609735-.26456964-2.89751388.49752571-.69925612.69889247-.92510884 1.73765498-.59840304 2.65495741l-4.06852488 4.06837941c-.91659936-.32673005-1.95570128-.10085308-2.6549574.59840304-.76175594.76175594-.96169233 1.92622115-.49752571 2.89751395.10829585.2271861.40877015.2769823.58526305.1005136l.94074591-.9407459c.14204284-.14133976.37288973-.14170341.51422951.0003637.14165494.1409276.14269741.3704169 0 .5138658l-.94074592.9407459c-.17695352.1769536-.12611484.4772339.10051367.5852631.34905834.1668682.72301478.2478416 1.09447414.2478416.66196957 0 1.31504177-.2574663 1.80262764-.7454158.69959553-.6988925.92510884-1.73765499.59840304-2.65495741l4.0685976-4.06833093c.91623571.32636639 1.95570127.10085308 2.65529677-.59840304.761756-.76175594.9616924-1.92622115.4975258-2.89751392z"/><path d="m11.8817451 9.33771055c-1.2357973-1.22992274-1.91329064-1.71857532-3.36198323-2.8439842l-2.05883701 2.05682104c1.01831504 1.3057565 1.63493953 2.14795251 2.79142292 3.30359301.37827014.3778597.88097192.5541344 1.37549472.5541344.3629801 0 .7213489-.0860888 1.0224651-.3023411.4390662-.3160629.7156456-.8029457.7586761-1.3352851.0430062-.5330425-.1489685-1.05510264-.5272386-1.43293805zm-1.0485796 1.49218925c-.1449396.1318848-.3707707.1192297-.5094002-.0192494l-1.4417514-1.44018684c-.13862948-.13847904-.15129835-.36406508-.01927028-.50884744.14093512-.15452826.38052723-.15872239.52682599-.01260663l1.45619199 1.45461181c.1462987.1461642.1421.3854963-.0125961.5262785z"/></g></svg>