<svg width="110" height="160" viewBox="0 0 110 160" fill="none" xmlns="http://www.w3.org/2000/svg">
<rect width="109.546" height="159.801" fill="black" fill-opacity="0"/>
<g filter="url(#filter0_ii)">
<rect width="101.772" height="154.03" fill="black" fill-opacity="0" transform="translate(3.30469 2.73022)"/>
<path fill-rule="evenodd" clip-rule="evenodd" d="M35.4217 11.0861C37.026 5.07903 43.1962 1.50993 49.2032 3.11424L96.7208 15.8049C102.728 17.4092 106.297 23.5795 104.693 29.5865L72.9597 148.404C71.3554 154.411 65.1852 157.98 59.1781 156.376L41.1934 151.572L41.1378 151.109L30.1783 148.182L29.8992 148.556L11.6606 143.685C5.65349 142.081 2.08438 135.91 3.6887 129.903L35.4217 11.0861Z" fill="#E3E8ED"/>
</g>
<g filter="url(#filter1_d)">
<rect width="93.2873" height="144.75" fill="black" fill-opacity="0" transform="translate(7.52344 7.46753)"/>
<path fill-rule="evenodd" clip-rule="evenodd" d="M39.7041 11.8383C40.5433 8.69613 43.7708 6.82922 46.9129 7.6684L96.4391 20.8955C99.5813 21.7347 101.449 24.9622 100.61 28.1043L68.6292 147.846C67.79 150.988 64.5625 152.855 61.4204 152.016L11.8941 138.789C8.75205 137.95 6.88513 134.722 7.72431 131.58L39.7041 11.8383Z" fill="#E3E8ED"/>
</g>
<g filter="url(#filter2_i)">
<rect width="3.11072" height="9.29302" fill="black" fill-opacity="0" transform="translate(25.6367 35.9285)"/>
<path fill-rule="evenodd" clip-rule="evenodd" d="M28.7474 36.0175L28.4805 35.9462C28.2032 35.8722 27.9185 36.0369 27.8444 36.3141L25.6544 44.5142C25.5804 44.7914 25.7451 45.0762 26.0223 45.1503L26.2892 45.2215L28.7474 36.0175Z" fill="#E3E7EC"/>
</g>
<g filter="url(#filter3_i)">
<rect width="6.66052" height="22.5843" fill="black" fill-opacity="0" transform="translate(18.8828 47.9258)"/>
<path fill-rule="evenodd" clip-rule="evenodd" d="M25.5433 48.0148L25.2764 47.9435C24.9991 47.8695 24.7143 48.0342 24.6403 48.3115L18.9005 69.8028C18.8265 70.08 18.9912 70.3648 19.2685 70.4388L19.5354 70.5101L25.5433 48.0148Z" fill="#E3E7EC"/>
</g>
<path fill-rule="evenodd" clip-rule="evenodd" d="M37.9051 18.5676C37.9791 18.2903 38.2639 18.1256 38.5412 18.1996L98.4462 34.1986C98.7234 34.2727 98.8882 34.5575 98.8141 34.8347L70.3017 141.593C70.2277 141.87 69.9429 142.035 69.6657 141.961L9.76061 125.962C9.48341 125.888 9.31868 125.603 9.39273 125.326L37.9051 18.5676Z" fill="#F2F2F4"/>
<g filter="url(#filter4_ii)">
<rect width="7.01788" height="7.0184" fill="black" fill-opacity="0" transform="translate(35.3867 137.193)"/>
<path fill-rule="evenodd" clip-rule="evenodd" d="M35.5235 139.764C36.0171 137.916 37.9156 136.817 39.7639 137.311L39.8336 137.33C41.6819 137.823 42.7801 139.722 42.2864 141.57L42.2678 141.64C41.7742 143.488 39.8757 144.586 38.0274 144.093L37.9577 144.074C36.1094 143.58 35.0112 141.682 35.5049 139.833L35.5235 139.764Z" fill="#E3E8ED"/>
</g>
<path d="M39.6993 137.553L39.769 137.571C41.4839 138.029 42.5028 139.791 42.0448 141.506L42.0262 141.575C41.5682 143.29 39.8067 144.309 38.0918 143.851L38.0222 143.832C36.3072 143.374 35.2883 141.613 35.7463 139.898L35.7649 139.828C36.2229 138.113 37.9844 137.095 39.6993 137.553Z" stroke="url(#paint0_linear)" stroke-width="0.5"/>
<path d="M39.6993 137.553L39.769 137.571C41.4839 138.029 42.5028 139.791 42.0448 141.506L42.0262 141.575C41.5682 143.29 39.8067 144.309 38.0918 143.851L38.0222 143.832C36.3072 143.374 35.2883 141.613 35.7463 139.898L35.7649 139.828C36.2229 138.113 37.9844 137.095 39.6993 137.553Z" stroke="url(#paint1_linear)" stroke-width="0.5"/>
<g filter="url(#filter5_ii)">
<rect width="2.07876" height="2.07906" fill="black" fill-opacity="0" transform="translate(58.0352 15.9141)"/>
<path fill-rule="evenodd" clip-rule="evenodd" d="M58.8064 17.9577C59.3608 18.1058 59.9303 17.7763 60.0784 17.2217C60.2265 16.6672 59.8971 16.0976 59.3427 15.9495C58.7882 15.8015 58.2187 16.131 58.0706 16.6855C57.9225 17.24 58.2519 17.8096 58.8064 17.9577Z" fill="#3A3A3A"/>
</g>
<g filter="url(#filter6_ii)">
<rect width="12.8196" height="5.30946" fill="black" fill-opacity="0" transform="translate(63.8711 17.2822)"/>
<path fill-rule="evenodd" clip-rule="evenodd" d="M63.9436 18.1821C64.1164 17.5352 64.7808 17.1508 65.4278 17.3236L75.7908 20.0913C76.4377 20.2641 76.8221 20.9285 76.6493 21.5755L76.6182 21.6918C76.4455 22.3387 75.781 22.7231 75.1341 22.5503L64.771 19.7826C64.1241 19.6098 63.7397 18.9454 63.9125 18.2984L63.9436 18.1821Z" fill="#3A3A3A"/>
</g>
<path d="M98.0073 34.9962L37.8039 17.9038L9.17685 125.329L69.3802 142.422L98.0073 34.9962Z" fill="white"/>
<path d="M53.653 90.2422C64.0224 93.1161 74.6884 86.7598 77.4762 76.0449C80.2641 65.3301 74.1181 54.3143 63.7487 51.4404C53.3794 48.5666 42.7134 54.9229 39.9255 65.6377C37.1377 76.3525 43.2837 87.3683 53.653 90.2422Z" fill="url(#paint2_linear)"/>
<path d="M46.707 79.5862L58.2167 70.8132L64.3562 84.2797L56.9143 75.8341L46.707 79.5862Z" fill="#F7F7F7"/>
<path d="M58.18 70.7727C58.18 70.7727 58.1358 70.8537 74.0154 68.684C66.2702 68.6823 62.6999 67.7403 59.2067 66.6804C55.7135 65.6204 48.7712 63.4205 45.4531 61.0579C58.18 70.7727 58.18 70.7727 58.18 70.7727Z" fill="white"/>
<path d="M31.7555 99.9942L31.0013 99.7852L32.2279 95.0565L29.4222 94.28L28.1956 99.0084L27.4453 98.8008L28.8212 93.4968L33.1314 94.6897L31.7555 99.9942ZM37.0814 99.4022C36.9258 100.002 36.6533 100.445 36.2638 100.73C35.8742 101.015 35.4281 101.088 34.9253 100.949C34.4121 100.807 34.0477 100.543 33.832 100.158L33.3397 102.056L32.6168 101.856L34.0324 96.3993L34.6928 96.5821L34.6145 97.029C34.9971 96.7704 35.4502 96.7136 35.9739 96.8586C36.4819 96.9992 36.8367 97.2887 37.0385 97.7272C37.2429 98.1664 37.2625 98.7041 37.0975 99.3402L37.0814 99.4022ZM36.3783 99.1258C36.4936 98.6813 36.4831 98.3023 36.3466 97.9886C36.2102 97.6749 35.9649 97.4691 35.6106 97.371C35.1729 97.2499 34.7977 97.34 34.485 97.6413L33.9965 99.5242C34.1195 99.9442 34.4037 100.215 34.8492 100.338C35.1956 100.434 35.5036 100.383 35.7729 100.184C36.0455 99.9842 36.2473 99.6312 36.3783 99.1258ZM37.833 99.5242C37.9331 99.1383 38.104 98.8134 38.3455 98.5496C38.5896 98.2866 38.878 98.1114 39.2107 98.0238C39.5459 97.937 39.8998 97.9452 40.2723 98.0483C40.8481 98.2076 41.2649 98.5221 41.5228 98.9917C41.7833 99.4622 41.8335 100.005 41.6735 100.622L41.6612 100.67C41.5617 101.053 41.3928 101.376 41.1545 101.638C40.9194 101.899 40.6327 102.073 40.2942 102.162C39.9583 102.251 39.6002 102.243 39.2199 102.138C38.6467 101.979 38.2299 101.664 37.9694 101.194C37.7115 100.724 37.6619 100.184 37.8207 99.5722L37.833 99.5242ZM38.539 99.8062C38.4256 100.243 38.4427 100.624 38.5902 100.948C38.7404 101.273 38.9978 101.487 39.3626 101.587C39.7299 101.689 40.0563 101.636 40.3418 101.429C40.628 101.219 40.8337 100.873 40.9591 100.389C41.0713 99.9572 41.0513 99.5772 40.8991 99.2482C40.7502 98.9185 40.4934 98.7029 40.1287 98.602C39.7718 98.5032 39.4496 98.5559 39.1621 98.76C38.8746 98.9642 38.6669 99.3132 38.539 99.8062ZM42.1344 102.866L43.1568 98.9247L44.8059 99.3812C45.3686 99.5372 45.7758 99.7482 46.0275 100.016C46.2825 100.282 46.3639 100.592 46.272 100.946C46.2247 101.128 46.1233 101.277 45.9676 101.393C45.8126 101.506 45.6104 101.57 45.3609 101.584C45.6018 101.711 45.7779 101.877 45.8894 102.082C46.0035 102.288 46.0313 102.504 45.9727 102.73C45.8788 103.092 45.6637 103.329 45.3274 103.441C44.9936 103.555 44.5663 103.539 44.0452 103.395L42.1344 102.866ZM43.3062 101.336L42.9981 102.523L44.1938 102.854C44.496 102.938 44.7349 102.948 44.9105 102.885C45.0887 102.822 45.2024 102.696 45.2515 102.507C45.3536 102.113 45.0946 101.831 44.4746 101.659L43.3062 101.336ZM43.446 100.797L44.38 101.055C45.0573 101.243 45.4438 101.152 45.5396 100.783C45.6354 100.414 45.3644 100.134 44.7267 99.9452L43.738 99.6712L43.446 100.797ZM48.3756 104.672C47.8025 104.513 47.3815 104.209 47.1127 103.76C46.8446 103.308 46.7867 102.788 46.9392 102.201L46.9713 102.077C47.0727 101.686 47.2426 101.359 47.4809 101.097C47.7224 100.834 48.0088 100.655 48.3401 100.562C48.6746 100.467 49.0099 100.466 49.346 100.559C49.8957 100.712 50.2791 100.999 50.4964 101.421C50.7136 101.842 50.7406 102.368 50.5775 102.997L50.5047 103.277L47.6404 102.485C47.55 102.876 47.5895 103.224 47.759 103.529C47.9317 103.832 48.1979 104.033 48.5574 104.132C48.8127 104.203 49.0415 104.214 49.2438 104.166C49.4462 104.118 49.6346 104.032 49.809 103.909L50.1674 104.351C49.6815 104.761 49.0842 104.868 48.3756 104.672ZM49.2024 101.113C48.9106 101.032 48.6399 101.064 48.3902 101.209C48.1412 101.35 47.9469 101.593 47.8074 101.937L49.9254 102.524L49.9386 102.473C50.0066 102.124 49.9763 101.832 49.8477 101.596C49.7197 101.358 49.5046 101.197 49.2024 101.113ZM54.9552 104.349C54.7996 104.949 54.5271 105.392 54.1376 105.677C53.7481 105.962 53.3019 106.035 52.7991 105.896C52.2859 105.754 51.9215 105.49 51.7058 105.105L51.2135 107.003L50.4906 106.803L51.9062 101.346L52.5666 101.529L52.4883 101.976C52.8709 101.717 53.324 101.66 53.8477 101.805C54.3557 101.946 54.7105 102.235 54.9123 102.674C55.1167 103.113 55.1364 103.651 54.9713 104.287L54.9552 104.349ZM54.2522 104.073C54.3674 103.628 54.3569 103.249 54.2205 102.935C54.084 102.622 53.8387 102.416 53.4844 102.318C53.0467 102.197 52.6715 102.287 52.3588 102.588L51.8703 104.471C51.9933 104.891 52.2775 105.162 52.723 105.285C53.0695 105.381 53.3774 105.33 53.6467 105.131C53.9193 104.93 54.1211 104.578 54.2522 104.073ZM57.1132 107.09C56.5401 106.931 56.1191 106.627 55.8503 106.178C55.5822 105.726 55.5243 105.207 55.6768 104.619L55.7089 104.495C55.8103 104.104 55.9802 103.778 56.2185 103.516C56.46 103.252 56.7464 103.074 57.0777 102.98C57.4122 102.886 57.7475 102.885 58.0836 102.978C58.6333 103.13 59.0167 103.417 59.234 103.839C59.4512 104.261 59.4782 104.786 59.3151 105.415L59.2423 105.696L56.378 104.903C56.2876 105.294 56.3271 105.642 56.4966 105.947C56.6694 106.25 56.9355 106.451 57.295 106.551C57.5503 106.621 57.7791 106.633 57.9815 106.584C58.1838 106.536 58.3722 106.451 58.5466 106.327L58.9051 106.77C58.4191 107.179 57.8218 107.286 57.1132 107.09ZM57.94 103.531C57.6482 103.451 57.3775 103.482 57.1278 103.627C56.8788 103.769 56.6846 104.012 56.5451 104.356L58.663 104.942L58.6763 104.891C58.7442 104.543 58.7139 104.251 58.5853 104.015C58.4573 103.776 58.2422 103.615 57.94 103.531ZM63.0757 108.662L62.3528 108.462L62.7894 106.779L60.8473 106.241L60.4107 107.924L59.6838 107.723L60.7063 103.782L61.4331 103.983L60.9899 105.691L62.9321 106.229L63.3753 104.52L64.0982 104.721L63.0757 108.662ZM64.5694 106.924C64.6696 106.538 64.8404 106.213 65.082 105.949C65.3261 105.686 65.6145 105.511 65.9471 105.424C66.2824 105.337 66.6363 105.345 67.0088 105.448C67.5845 105.607 68.0013 105.922 68.2593 106.391C68.5198 106.862 68.57 107.405 68.41 108.022L68.3977 108.07C68.2982 108.453 68.1293 108.776 67.891 109.038C67.6559 109.299 67.3691 109.473 67.0307 109.561C66.6948 109.651 66.3367 109.643 65.9563 109.537C65.3832 109.379 64.9664 109.064 64.7059 108.594C64.448 108.124 64.3984 107.584 64.5571 106.972L64.5694 106.924ZM65.2755 107.205C65.1621 107.643 65.1791 108.023 65.3267 108.348C65.4769 108.673 65.7343 108.886 66.099 108.987C66.4663 109.089 66.7928 109.036 67.0783 108.829C67.3645 108.619 67.5702 108.273 67.6956 107.789C67.8077 107.357 67.7877 106.977 67.6356 106.648C67.4867 106.318 67.2299 106.103 66.8651 106.002C66.5082 105.903 66.186 105.956 65.8985 106.16C65.611 106.364 65.4034 106.712 65.2755 107.205Z" fill="#5C6979"/>
<defs>
<filter id="filter0_ii" x="1.3995" y="-2.81214" width="105.063" height="159.572" filterUnits="userSpaceOnUse" color-interpolation-filters="sRGB">
<feFlood flood-opacity="0" result="BackgroundImageFix"/>
<feBlend mode="normal" in="SourceGraphic" in2="BackgroundImageFix" result="shape"/>
<feColorMatrix in="SourceAlpha" type="matrix" values="0 0 0 0 0 0 0 0 0 0 0 0 0 0 0 0 0 0 255 0" result="hardAlpha"/>
<feOffset dx="-1.90519" dy="-5.54236"/>
<feGaussianBlur stdDeviation="3.46397"/>
<feComposite in2="hardAlpha" operator="arithmetic" k2="-1" k3="1"/>
<feColorMatrix type="matrix" values="0 0 0 0 1 0 0 0 0 1 0 0 0 0 1 0 0 0 1 0"/>
<feBlend mode="normal" in2="shape" result="effect1_innerShadow"/>
<feColorMatrix in="SourceAlpha" type="matrix" values="0 0 0 0 0 0 0 0 0 0 0 0 0 0 0 0 0 0 255 0" result="hardAlpha"/>
<feOffset dx="1.38559" dy="-0.692795"/>
<feGaussianBlur stdDeviation="1.21239"/>
<feComposite in2="hardAlpha" operator="arithmetic" k2="-1" k3="1"/>
<feColorMatrix type="matrix" values="0 0 0 0 0.776471 0 0 0 0 0.811765 0 0 0 0 0.854902 0 0 0 1 0"/>
<feBlend mode="normal" in2="effect1_innerShadow" result="effect2_innerShadow"/>
</filter>
<filter id="filter1_d" x="4.23266" y="4.17675" width="99.8689" height="151.331" filterUnits="userSpaceOnUse" color-interpolation-filters="sRGB">
<feFlood flood-opacity="0" result="BackgroundImageFix"/>
<feColorMatrix in="SourceAlpha" type="matrix" values="0 0 0 0 0 0 0 0 0 0 0 0 0 0 0 0 0 0 255 0"/>
<feOffset/>
<feGaussianBlur stdDeviation="1.64539"/>
<feColorMatrix type="matrix" values="0 0 0 0 0.894118 0 0 0 0 0.909804 0 0 0 0 0.929412 0 0 0 1 0"/>
<feBlend mode="normal" in2="BackgroundImageFix" result="effect1_dropShadow"/>
<feBlend mode="normal" in="SourceGraphic" in2="effect1_dropShadow" result="shape"/>
</filter>
<filter id="filter2_i" x="25.6367" y="35.9285" width="3.11071" height="9.29301" filterUnits="userSpaceOnUse" color-interpolation-filters="sRGB">
<feFlood flood-opacity="0" result="BackgroundImageFix"/>
<feBlend mode="normal" in="SourceGraphic" in2="BackgroundImageFix" result="shape"/>
<feColorMatrix in="SourceAlpha" type="matrix" values="0 0 0 0 0 0 0 0 0 0 0 0 0 0 0 0 0 0 255 0" result="hardAlpha"/>
<feOffset/>
<feGaussianBlur stdDeviation="0.779394"/>
<feComposite in2="hardAlpha" operator="arithmetic" k2="-1" k3="1"/>
<feColorMatrix type="matrix" values="0 0 0 0 0.890196 0 0 0 0 0.909804 0 0 0 0 0.929412 0 0 0 1 0"/>
<feBlend mode="normal" in2="shape" result="effect1_innerShadow"/>
</filter>
<filter id="filter3_i" x="18.8828" y="47.9258" width="6.66051" height="22.5843" filterUnits="userSpaceOnUse" color-interpolation-filters="sRGB">
<feFlood flood-opacity="0" result="BackgroundImageFix"/>
<feBlend mode="normal" in="SourceGraphic" in2="BackgroundImageFix" result="shape"/>
<feColorMatrix in="SourceAlpha" type="matrix" values="0 0 0 0 0 0 0 0 0 0 0 0 0 0 0 0 0 0 255 0" result="hardAlpha"/>
<feOffset/>
<feGaussianBlur stdDeviation="1.64539"/>
<feComposite in2="hardAlpha" operator="arithmetic" k2="-1" k3="1"/>
<feColorMatrix type="matrix" values="0 0 0 0 0.890196 0 0 0 0 0.909804 0 0 0 0 0.929412 0 0 0 1 0"/>
<feBlend mode="normal" in2="shape" result="effect1_innerShadow"/>
</filter>
<filter id="filter4_ii" x="35.3867" y="137.02" width="7.01787" height="7.36456" filterUnits="userSpaceOnUse" color-interpolation-filters="sRGB">
<feFlood flood-opacity="0" result="BackgroundImageFix"/>
<feBlend mode="normal" in="SourceGraphic" in2="BackgroundImageFix" result="shape"/>
<feColorMatrix in="SourceAlpha" type="matrix" values="0 0 0 0 0 0 0 0 0 0 0 0 0 0 0 0 0 0 255 0" result="hardAlpha"/>
<feOffset dy="-0.173199"/>
<feGaussianBlur stdDeviation="0.0865994"/>
<feComposite in2="hardAlpha" operator="arithmetic" k2="-1" k3="1"/>
<feColorMatrix type="matrix" values="0 0 0 0 0.788235 0 0 0 0 0.819608 0 0 0 0 0.858824 0 0 0 1 0"/>
<feBlend mode="normal" in2="shape" result="effect1_innerShadow"/>
<feColorMatrix in="SourceAlpha" type="matrix" values="0 0 0 0 0 0 0 0 0 0 0 0 0 0 0 0 0 0 255 0" result="hardAlpha"/>
<feOffset dy="0.173199"/>
<feGaussianBlur stdDeviation="0.0865994"/>
<feComposite in2="hardAlpha" operator="arithmetic" k2="-1" k3="1"/>
<feColorMatrix type="matrix" values="0 0 0 0 1 0 0 0 0 1 0 0 0 0 1 0 0 0 1 0"/>
<feBlend mode="normal" in2="effect1_innerShadow" result="effect2_innerShadow"/>
</filter>
<filter id="filter5_ii" x="58.0352" y="15.7409" width="2.07871" height="2.42545" filterUnits="userSpaceOnUse" color-interpolation-filters="sRGB">
<feFlood flood-opacity="0" result="BackgroundImageFix"/>
<feBlend mode="normal" in="SourceGraphic" in2="BackgroundImageFix" result="shape"/>
<feColorMatrix in="SourceAlpha" type="matrix" values="0 0 0 0 0 0 0 0 0 0 0 0 0 0 0 0 0 0 255 0" result="hardAlpha"/>
<feOffset dy="-0.173199"/>
<feGaussianBlur stdDeviation="0.0865994"/>
<feComposite in2="hardAlpha" operator="arithmetic" k2="-1" k3="1"/>
<feColorMatrix type="matrix" values="0 0 0 0 1 0 0 0 0 1 0 0 0 0 1 0 0 0 1 0"/>
<feBlend mode="normal" in2="shape" result="effect1_innerShadow"/>
<feColorMatrix in="SourceAlpha" type="matrix" values="0 0 0 0 0 0 0 0 0 0 0 0 0 0 0 0 0 0 255 0" result="hardAlpha"/>
<feOffset dy="0.173199"/>
<feGaussianBlur stdDeviation="0.0865994"/>
<feComposite in2="hardAlpha" operator="arithmetic" k2="-1" k3="1"/>
<feColorMatrix type="matrix" values="0 0 0 0 0 0 0 0 0 0 0 0 0 0 0 0 0 0 0.5 0"/>
<feBlend mode="normal" in2="effect1_innerShadow" result="effect2_innerShadow"/>
</filter>
<filter id="filter6_ii" x="63.8711" y="17.109" width="12.8195" height="5.56923" filterUnits="userSpaceOnUse" color-interpolation-filters="sRGB">
<feFlood flood-opacity="0" result="BackgroundImageFix"/>
<feBlend mode="normal" in="SourceGraphic" in2="BackgroundImageFix" result="shape"/>
<feColorMatrix in="SourceAlpha" type="matrix" values="0 0 0 0 0 0 0 0 0 0 0 0 0 0 0 0 0 0 255 0" result="hardAlpha"/>
<feOffset dy="-0.173199"/>
<feGaussianBlur stdDeviation="0.0865994"/>
<feComposite in2="hardAlpha" operator="arithmetic" k2="-1" k3="1"/>
<feColorMatrix type="matrix" values="0 0 0 0 1 0 0 0 0 1 0 0 0 0 1 0 0 0 1 0"/>
<feBlend mode="normal" in2="shape" result="effect1_innerShadow"/>
<feColorMatrix in="SourceAlpha" type="matrix" values="0 0 0 0 0 0 0 0 0 0 0 0 0 0 0 0 0 0 255 0" result="hardAlpha"/>
<feOffset dy="0.173199"/>
<feGaussianBlur stdDeviation="0.0432997"/>
<feComposite in2="hardAlpha" operator="arithmetic" k2="-1" k3="1"/>
<feColorMatrix type="matrix" values="0 0 0 0 0 0 0 0 0 0 0 0 0 0 0 0 0 0 0.381058 0"/>
<feBlend mode="normal" in2="effect1_innerShadow" result="effect2_innerShadow"/>
</filter>
<linearGradient id="paint0_linear" x1="39.7987" y1="137.32" x2="37.9926" y2="144.083" gradientUnits="userSpaceOnUse">
<stop stop-color="white"/>
<stop offset="1" stop-color="white" stop-opacity="0"/>
</linearGradient>
<linearGradient id="paint1_linear" x1="39.7987" y1="137.32" x2="37.9926" y2="144.083" gradientUnits="userSpaceOnUse">
<stop stop-color="#666566"/>
<stop offset="1" stop-color="#E0E2E3"/>
</linearGradient>
<linearGradient id="paint2_linear" x1="63.7487" y1="51.4404" x2="53.0417" y2="90.0729" gradientUnits="userSpaceOnUse">
<stop stop-color="#F96476"/>
<stop offset="1" stop-color="#FFD391"/>
</linearGradient>
</defs>
</svg>
