<svg width="42" height="40" viewBox="0 0 42 40" fill="none" xmlns="http://www.w3.org/2000/svg">
<path fill-rule="evenodd" clip-rule="evenodd" d="M20.1111 0C9.02235 0 0 8.9725 0 20C0 31.0275 9.02235 40 20.1111 40C31.1999 40 40.2222 31.0275 40.2222 20C40.2222 8.9725 31.1999 0 20.1111 0ZM31.8428 25.0003C31.8428 25.9187 31.0912 26.667 30.1669 26.667H10.0558C9.13154 26.667 8.37988 25.9187 8.37988 25.0003V16.667C8.37988 15.7487 9.13154 15.0003 10.0558 15.0003H14.2456C14.4677 15.0003 14.6805 14.9128 14.8381 14.7562L17.9444 11.667H22.2783L25.3847 14.7562C25.5414 14.9128 25.755 15.0003 25.9771 15.0003H30.1669C31.0912 15.0003 31.8428 15.7487 31.8428 16.667V25.0003Z" transform="translate(0.878906)" fill="white"/>
<path fill-rule="evenodd" clip-rule="evenodd" d="M5.02778 0C2.25496 0 0 2.2425 0 5C0 7.7575 2.25496 10 5.02778 10C7.8006 10 10.0556 7.7575 10.0556 5C10.0556 2.2425 7.8006 0 5.02778 0ZM5.02763 8.33366C3.17909 8.33366 1.67578 6.83866 1.67578 5.00033C1.67578 3.16199 3.17909 1.66699 5.02763 1.66699C6.87618 1.66699 8.37948 3.16199 8.37948 5.00033C8.37948 6.83866 6.87618 8.33366 5.02763 8.33366Z" transform="translate(15.9619 15)" fill="white"/>
<path fill-rule="evenodd" clip-rule="evenodd" d="M0.837963 0C0.374569 0 0 0.3725 0 0.833333C0 1.29417 0.374569 1.66667 0.837963 1.66667C1.30052 1.66667 1.67593 1.29417 1.67593 0.833333C1.67593 0.3725 1.30052 0 0.837963 0Z" transform="translate(29.3691 15.8335)" fill="white"/>
</svg>
