<svg width="13" height="7" viewBox="0 0 13 7" fill="none" xmlns="http://www.w3.org/2000/svg">
<path fill-rule="evenodd" clip-rule="evenodd" d="M6.00391 0C3.71094 0 1.63281 1.22656 0.0976562 3.22266C-0.0273438 3.38281 -0.0273438 3.61328 0.0976562 3.77734C1.63281 5.77344 3.71094 7 6.00391 7C8.29688 7 10.375 5.77344 11.9102 3.77734C12.0352 3.61719 12.0352 3.38672 11.9102 3.22266C11.4258 2.58984 10.8867 2.03906 10.3047 1.57812C9.90234 1.25781 9.48047 0.980469 9.03906 0.753906C8.57031 0.511719 8.07812 0.324219 7.57031 0.195312C7.0625 0.0664062 6.53906 0 6.00391 0ZM6.16797 5.96484C4.64844 6.05859 3.39062 4.83203 3.48438 3.33984C3.5625 2.10938 4.58203 1.11328 5.83984 1.03516C6.76562 0.976562 7.58984 1.40625 8.07422 2.08984C8.29297 2.39844 8.44141 2.75781 8.5 3.14453C8.52734 3.3125 8.53516 3.48438 8.52344 3.66016C8.48047 4.28516 8.19531 4.85156 7.76172 5.26562C7.34375 5.66797 6.78516 5.92578 6.16797 5.96484ZM4.64844 3.41406C4.59375 4.21484 5.26953 4.875 6.08984 4.82422C6.49609 4.80078 6.85938 4.59766 7.09375 4.29297C7.24609 4.08984 7.34375 3.84766 7.35938 3.58203C7.39453 3.07812 7.14062 2.62891 6.74219 2.37891C6.50781 2.23047 6.22266 2.15234 5.91797 2.17188C5.23828 2.21484 4.6875 2.75 4.64844 3.41406Z" fill="#5C6979"/>
</svg>
