<?xml version="1.0" encoding="UTF-8"?>
<svg width="23px" height="21px" viewBox="0 0 23 21" version="1.1" xmlns="http://www.w3.org/2000/svg" xmlns:xlink="http://www.w3.org/1999/xlink">
    <!-- Generator: Sketch 49.2 (51160) - http://www.bohemiancoding.com/sketch -->
    <title>heart</title>
    <desc>Created with Sketch.</desc>
    <defs>
        <linearGradient x1="50%" y1="0%" x2="50%" y2="100%" id="linearGradient-1">
            <stop stop-color="#FFFFFF" stop-opacity="0.5" offset="0%"></stop>
            <stop stop-color="#000000" stop-opacity="0.5" offset="100%"></stop>
        </linearGradient>
    </defs>
    <g id="Symbols" stroke="none" stroke-width="1" fill="none" fill-rule="evenodd">
        <g id="карта-продукта-в-каталоге" transform="translate(-16.000000, -12.000000)">
            <g id="heart" transform="translate(16.000000, 13.000000)">
                <path d="M22.1794872,5.85 C22.1794872,7.69167588 21.2358153,9.56665713 19.3484432,11.475 L11.6465201,18.975 C11.4981678,19.1250007 11.3168509,19.2 11.1025641,19.2 C10.8882773,19.2 10.7069604,19.1250007 10.5586081,18.975 L2.84432234,11.45 C2.76190435,11.383333 2.64858131,11.2750007 2.50434982,11.125 C2.36011833,10.9749992 2.13141182,10.7020853 1.81822344,10.30625 C1.50503506,9.91041469 1.22481809,9.50416875 0.977564103,9.0875 C0.730310119,8.67083125 0.509845291,8.16666962 0.316163004,7.575 C0.122480717,6.98333038 0.0256410256,6.40833613 0.0256410256,5.85 C0.0256410256,4.0166575 0.54898744,2.5833385 1.59569597,1.55 C2.6424045,0.5166615 4.08881861,0 5.93498168,0 C6.44597325,0 6.96725925,0.0895824375 7.49885531,0.26875 C8.03045138,0.447917563 8.52495193,0.689581813 8.98237179,0.99375 C9.43979166,1.29791819 9.83333168,1.583332 10.1630037,1.85 C10.4926756,2.116668 10.8058593,2.3999985 11.1025641,2.7 C11.3992689,2.3999985 11.7124526,2.116668 12.0421245,1.85 C12.3717965,1.583332 12.7653365,1.29791819 13.2227564,0.99375 C13.6801763,0.689581813 14.1746768,0.447917563 14.7062729,0.26875 C15.237869,0.0895824375 15.759155,0 16.2701465,0 C18.1163096,0 19.5627237,0.5166615 20.6094322,1.55 C21.6561408,2.5833385 22.1794872,4.0166575 22.1794872,5.85 Z" id="Path-Copy" fill-opacity="0.5" fill="url(#linearGradient-1)"></path>
                <path d="M21.9333333,5.63333333 C21.9333333,7.40679899 21.0246123,9.21233649 19.2071429,11.05 L11.7904762,18.2722222 C11.6476183,18.4166674 11.4730169,18.4888889 11.2666667,18.4888889 C11.0603164,18.4888889 10.885715,18.4166674 10.7428571,18.2722222 L3.31428571,11.0259259 C3.23492024,10.9617281 3.12579435,10.8574081 2.98690476,10.712963 C2.84801518,10.5685178 2.62777929,10.3057118 2.32619048,9.92453704 C2.02460167,9.54336229 1.7547631,9.1521625 1.51666667,8.75092593 C1.27857024,8.34968935 1.06627077,7.86420038 0.879761905,7.29444444 C0.693253036,6.72468851 0.6,6.17099034 0.6,5.63333333 C0.6,3.86789241 1.10396321,2.4876593 2.11190476,1.49259259 C3.11984631,0.497525889 4.51268952,0 6.29047619,0 C6.78254214,0 7.28452125,0.0862645694 7.79642857,0.258796296 C8.30833589,0.431328023 8.78452161,0.664041745 9.225,0.956944444 C9.66547839,1.24984714 10.0444429,1.52469007 10.3619048,1.78148148 C10.6793667,2.03827289 10.980951,2.31110967 11.2666667,2.6 C11.5523824,2.31110967 11.8539667,2.03827289 12.1714286,1.78148148 C12.4888905,1.52469007 12.8678549,1.24984714 13.3083333,0.956944444 C13.7488117,0.664041745 14.2249974,0.431328023 14.7369048,0.258796296 C15.2488121,0.0862645694 15.7507912,0 16.2428571,0 C18.0206438,0 19.413487,0.497525889 20.4214286,1.49259259 C21.4293701,2.4876593 21.9333333,3.86789241 21.9333333,5.63333333 Z" id="Path" stroke="#FFFFFF"></path>
            </g>
        </g>
    </g>
</svg>