<?xml version="1.0" encoding="UTF-8" standalone="no"?>
<svg width="36px" height="31px" viewBox="0 0 36 31" version="1.1" xmlns="http://www.w3.org/2000/svg" xmlns:xlink="http://www.w3.org/1999/xlink">
    <!-- Generator: Sketch 48.2 (47327) - http://www.bohemiancoding.com/sketch -->
    <title>Artboard 3</title>
    <desc>Created with Sketch.</desc>
    <defs>
        <linearGradient x1="50%" y1="0%" x2="50%" y2="100%" id="linearGradient-1">
            <stop stop-color="#FFFFFF" stop-opacity="0.5" offset="0%"></stop>
            <stop stop-color="#000000" stop-opacity="0.5" offset="100%"></stop>
        </linearGradient>
    </defs>
    <g id="Pages" stroke="none" stroke-width="1" fill="none" fill-rule="evenodd">
        <g id="Artboard-3" fill="url(#linearGradient-1)" stroke="#979797">
            <path d="M35,9.53125 C35,12.2170273 33.5943221,14.951375 30.7829241,17.734375 L19.3102679,28.671875 C19.0892846,28.8906261 18.819198,29 18.5,29 C18.180802,29 17.9107154,28.8906261 17.6897321,28.671875 L6.19866071,17.6979167 C6.07589224,17.600694 5.90708813,17.4427094 5.6922433,17.2239583 C5.47739848,17.0052072 5.13672108,16.6072077 4.67020089,16.0299479 C4.2036807,15.4526881 3.78627416,14.8602461 3.41796875,14.2526042 C3.04966334,13.6449622 2.7212626,12.9097265 2.4327567,12.046875 C2.14425079,11.1840235 2,10.3454902 2,9.53125 C2,6.85762552 2.7795681,4.76736865 4.33872768,3.26041667 C5.89788726,1.75346469 8.05244161,1 10.8024554,1 C11.5636199,1 12.3401188,1.13064105 13.1319754,1.39192708 C13.9238321,1.65321311 14.6604319,2.00564014 15.3417969,2.44921875 C16.0231619,2.89279736 16.6093725,3.30902583 17.1004464,3.69791667 C17.5915203,4.0868075 18.0580335,4.49999781 18.5,4.9375 C18.9419665,4.49999781 19.4084797,4.0868075 19.8995536,3.69791667 C20.3906275,3.30902583 20.9768381,2.89279736 21.6582031,2.44921875 C22.3395681,2.00564014 23.0761679,1.65321311 23.8680246,1.39192708 C24.6598812,1.13064105 25.4363801,1 26.1975446,1 C28.9475584,1 31.1021127,1.75346469 32.6612723,3.26041667 C34.2204319,4.76736865 35,6.85762552 35,9.53125 Z" id=""></path>
        </g>
    </g>
</svg>