<?xml version="1.0" encoding="UTF-8" standalone="no"?>
<svg width="36px" height="31px" viewBox="0 0 36 31" version="1.1" xmlns="http://www.w3.org/2000/svg" xmlns:xlink="http://www.w3.org/1999/xlink">
    <!-- Generator: Sketch 48.2 (47327) - http://www.bohemiancoding.com/sketch -->
    <title>Artboard 3</title>
    <desc>Created with Sketch.</desc>
    <defs></defs>
    <g id="Pages" stroke="none" stroke-width="1" fill="none" fill-rule="evenodd">
        <g id="Artboard-3" fill="#FA2A00">
            <path d="M35,9.8359375 C35,12.6176354 33.5943221,15.4496384 30.7829241,18.3320312 L19.3102679,29.6601562 C19.0892846,29.8867199 18.819198,30 18.5,30 C18.180802,30 17.9107154,29.8867199 17.6897321,29.6601562 L6.19866071,18.2942708 C6.07589224,18.1935759 5.90708813,18.029949 5.6922433,17.8033854 C5.47739848,17.5768218 5.13672108,17.164608 4.67020089,16.5667318 C4.2036807,15.9688555 3.78627416,15.3552549 3.41796875,14.7259115 C3.04966334,14.096568 2.7212626,13.3350739 2.4327567,12.4414062 C2.14425079,11.5477386 2,10.6792577 2,9.8359375 C2,7.06682643 2.7795681,4.90191753 4.33872768,3.34114583 C5.89788726,1.78037414 8.05244161,1 10.8024554,1 C11.5636199,1 12.3401188,1.13530681 13.1319754,1.40592448 C13.9238321,1.67654215 14.6604319,2.04155586 15.3417969,2.50097656 C16.0231619,2.96039726 16.6093725,3.39149104 17.1004464,3.79427083 C17.5915203,4.19705063 18.0580335,4.62499773 18.5,5.078125 C18.9419665,4.62499773 19.4084797,4.19705063 19.8995536,3.79427083 C20.3906275,3.39149104 20.9768381,2.96039726 21.6582031,2.50097656 C22.3395681,2.04155586 23.0761679,1.67654215 23.8680246,1.40592448 C24.6598812,1.13530681 25.4363801,1 26.1975446,1 C28.9475584,1 31.1021127,1.78037414 32.6612723,3.34114583 C34.2204319,4.90191753 35,7.06682643 35,9.8359375 Z" id=""></path>
        </g>
    </g>
</svg>