<svg width="15" height="15" viewBox="0 0 15 15" fill="none" xmlns="http://www.w3.org/2000/svg">
<path d="M14.483 12.4582H8.27887C7.99347 12.4582 7.76186 12.6905 7.76186 12.9772C7.76186 13.2639 7.99347 13.4962 8.27887 13.4962L14.483 13.4812C14.7684 13.4812 15 13.2639 15 12.9772C15 12.6905 14.7689 12.4582 14.483 12.4582ZM7.24487 1.03806L14.483 1.03703C14.7684 1.03703 15 0.805781 15 0.519031C15 0.232281 14.7684 -5.81344e-09 14.483 -5.81344e-09H7.24487C6.95946 -5.81344e-09 6.72785 0.232281 6.72785 0.519031C6.72785 0.805781 6.95946 1.03806 7.24487 1.03806ZM8.11707 9.49025C7.91438 9.28594 7.58557 9.28594 7.3829 9.49025L4.65982 12.6329V-5.81344e-09H3.62581V12.6516L0.886156 9.49025C0.683492 9.28594 0.354656 9.28594 0.152016 9.49025C-0.0506722 9.69456 -0.0506722 10.0254 0.152016 10.2291L3.74108 14.3715C3.84914 14.4804 3.99286 14.5265 4.134 14.5193C4.27564 14.5265 4.41887 14.4804 4.5269 14.3715L8.11599 10.2291C8.31973 10.0254 8.31973 9.69456 8.11707 9.49025ZM14.483 3.11468H7.24487C6.95946 3.11468 6.72785 3.34698 6.72785 3.63371C6.72785 3.92046 6.95946 4.14807 7.24487 4.14807H14.483C14.7684 4.14807 15 3.92043 15 3.63371C15 3.34698 14.7689 3.11468 14.483 3.11468ZM14.483 6.22883H7.24487C6.95946 6.22883 6.72785 6.46114 6.72785 6.74786C6.72785 7.03461 6.95946 7.25859 7.24487 7.25859L14.483 7.2669C14.7684 7.2669 15 7.03459 15 6.74786C15 6.46166 14.7689 6.22883 14.483 6.22883ZM14.483 9.34351H10.3469C10.0615 9.34351 9.8299 9.57579 9.8299 9.86252C9.8299 10.1493 10.0615 10.3701 10.3469 10.3701H14.483C14.7684 10.3701 15 10.1493 15 9.86252C15 9.57582 14.7689 9.34351 14.483 9.34351Z" fill="#FA2A00"/>
</svg>
