<svg width="15" height="18" viewBox="0 0 15 18" fill="none" xmlns="http://www.w3.org/2000/svg">
<path fill-rule="evenodd" clip-rule="evenodd" d="M0.030202 2.41225C-0.0328057 4.37944 0.0223261 7.10635 0.0223261 9.15904C0.0223261 11.6201 1.05762 13.2582 2.32998 14.5968C2.95455 15.2558 3.61889 15.7879 4.50493 16.3614C4.96331 16.6589 6.73383 17.7399 7.24774 17.5677C8.77961 17.0509 10.9857 15.5057 11.9977 14.347C14.3759 11.5959 14.053 9.52016 14.053 6.21273V2.42005C13.2929 2.16239 7.24774 3.41184e-09 7.04139 3.41184e-09C6.82007 3.41184e-09 3.97409 1.04157 3.52359 1.19851C2.34692 1.59788 1.20845 2.02966 0.030202 2.42005V2.41225Z" transform="translate(0.0673828 0.206909)" fill="url(#paint0_linear)"/>
<path fill-rule="evenodd" clip-rule="evenodd" d="M-6.00888e-09 15.25C0.861631 14.9751 2.29978 13.9796 3.01964 13.3925C3.88876 12.6788 4.57672 11.9269 5.20877 10.7358C5.89634 9.44286 5.74552 8.14948 5.79317 6.6613C5.84082 5.14071 5.78568 3.52721 5.78568 1.99023C4.8134 1.73257 2.52149 0.808116 1.47084 0.494239C0.980164 0.344718 0.529265 0.134296 0.00787614 -6.08204e-09L-6.00888e-09 15.25Z" transform="translate(7.10938 1.37335)" fill="#F0F0F2"/>
<path fill-rule="evenodd" clip-rule="evenodd" d="M5.80549 15.25L5.81336 -6.08204e-09L0.0280729 1.99921L0.00326358 6.31658C0.0757225 7.03764 -0.0353286 7.80476 0.0123209 8.53363C0.0509132 9.18325 0.257263 9.95974 0.493936 10.5317C0.541586 10.6414 0.627827 10.7663 0.707769 10.8928C0.999967 11.4022 0.660119 10.9556 1.17403 11.6751L2.65983 13.3374C2.77836 13.4471 2.81813 13.4303 2.99967 13.5724C3.96448 14.3165 3.97984 14.2615 4.91944 14.8486C5.07814 14.9509 5.63182 15.1781 5.81336 15.2574L5.80549 15.25Z" transform="translate(1.30371 1.37335)" fill="white"/>
<path fill-rule="evenodd" clip-rule="evenodd" d="M8.91177 0.000657341C6.11499 1.72716 4.09916 3.90764 3.2807 4.87667L1.17921 3.2188C1.12356 3.17851 -0.0300381 4.20987 0.000599508 4.24199L3.8278 8.1603C3.85594 8.19241 3.8947 8.2069 3.9366 8.2069C3.9441 8.2069 3.95598 8.2069 3.96598 8.20438C4.016 8.19304 4.05852 8.15904 4.07728 8.10867C4.69378 6.52132 6.72962 3.19802 9.32944 0.787721C9.37571 0.743645 9.39197 0.674384 9.36633 0.614567C9.36571 0.613937 8.95054 -0.0232694 8.91177 0.000657341Z" transform="translate(2.41211 4.89655)" fill="#65BA67"/>
<defs>
<linearGradient id="paint0_linear" x2="1" gradientUnits="userSpaceOnUse" gradientTransform="translate(14.0677) scale(14.0677 17.5862) rotate(90)">
<stop stop-color="#DEE4EC"/>
<stop offset="1" stop-color="#BFC0C3"/>
</linearGradient>
</defs>
</svg>
