<svg width="18" height="13" viewBox="0 0 18 13" fill="none" xmlns="http://www.w3.org/2000/svg">
<rect width="18" height="13" rx="3" fill="#DCDEE2"/>
<path d="M16.56 -1.26508e-07H1.44C0.648367 -1.26508e-07 0 0.731664 0 1.625V11.375C0 12.2683 0.648367 13 1.44 13H16.56C17.3516 13 18 12.2683 18 11.375V1.625C18 0.731664 17.3516 -1.26508e-07 16.56 -1.26508e-07ZM16.2 0.8125L9 7.88042L1.8 0.8125H16.2V0.8125ZM17.28 11.375C17.28 11.8621 16.9916 12.1875 16.56 12.1875H1.44C1.00837 12.1875 0.72 11.7812 0.72 11.375V1.625C0.72 1.38042 0.791633 1.21875 0.936735 1.05708L9 8.9375L17.0633 1.05708C17.2065 1.21875 17.28 1.38249 17.28 1.625V11.375Z" fill="#5C6979"/>
</svg>
