<?xml version="1.0" encoding="UTF-8"?>
<svg width="69px" height="69px" viewBox="0 0 69 69" version="1.1" xmlns="http://www.w3.org/2000/svg" xmlns:xlink="http://www.w3.org/1999/xlink">
    <!-- Generator: Sketch 49.3 (51167) - http://www.bohemiancoding.com/sketch -->
    <title>Group 8</title>
    <desc>Created with Sketch.</desc>
    <defs></defs>
    <g id="Pages" stroke="none" stroke-width="1" fill="none" fill-rule="evenodd">
        <g id="no-data-desktop" transform="translate(-686.000000, -306.000000)">
            <g id="Group-9" transform="translate(556.000000, 306.000000)">
                <g id="Group-8" transform="translate(130.000000, 0.000000)">
                    <circle id="Oval-13" fill="#A8B6C8" opacity="0.525532156" cx="34.5" cy="34.5" r="34.5"></circle>
                    <g id="Group-7" transform="translate(13.000000, 13.000000)">
                        <path d="M31.4515723,16.3286262 L29.4540881,16.3286262 L28.7597484,17.0178949 C31.2125786,19.8781087 32.7044025,23.5860728 32.7044025,27.6487336 C32.7044025,36.6796638 25.3836478,44 16.3522013,44 C7.32075472,44 0,36.6796638 0,27.6487336 C0,18.6178034 7.32075472,11.2974673 16.3522013,11.2974673 C20.4150943,11.2974673 24.1207547,12.7866903 26.9811321,15.2368647 L27.6754717,14.5475959 L27.6754717,12.555257 L40.2490566,0 L44,3.75072895 L31.4515723,16.3286262 L31.4515723,16.3286262 Z M16.0769231,16.9230769 C10.0000342,16.9230769 5.07692308,21.846188 5.07692308,27.9230769 C5.07692308,33.9975214 10.0000342,38.9230769 16.0769231,38.9230769 C22.1513675,38.9230769 27.0769231,33.9975214 27.0769231,27.9230769 C27.0769231,21.846188 22.1513675,16.9230769 16.0769231,16.9230769 L16.0769231,16.9230769 Z" id="Shape" stroke="#D1D9E2" fill="#7B90A1" transform="translate(22.000000, 22.000000) scale(1, -1) translate(-22.000000, -22.000000) "></path>
                        <g id="Group-5" transform="translate(10.153846, 8.461538)">
                            <g id="14">
                                <g id="Group-2">
                                    <path d="M1.3962122,5.49230503 L10.1881008,5.49230503 C10.8759947,5.49230503 11.4409337,6.09065668 11.4409337,6.82652041 L11.4409337,14.9484369 L0.146647215,14.9484369 L0.146647215,6.82652041 C0.146647215,6.094138 0.709952255,5.49230503 1.39948011,5.49230503 L1.3962122,5.49230503 Z" id="Fill-3" fill="#7B90A1"></path>
                                    <path d="M2.22135809,2.92222151 L2.22135809,5.49230503 L3.62696552,5.49230503 L3.62696552,2.86086327 C3.62696552,1.49226986 7.95734748,1.21898635 7.95734748,2.86086327 L7.95734748,5.49230503 L9.36499735,5.49230503 L9.36499735,2.92222151 C9.36499735,-0.969022444 2.22135809,-0.969022444 2.22135809,2.92222151 Z" id="Fill-4" fill="#7B90A1"></path>
                                    <path d="M5.79236074,9.24560173 C6.43532095,9.24560173 6.95369231,9.79782591 6.95369231,10.4814699 C6.95369231,10.9775578 6.68245623,11.4027138 6.28867374,11.5998435 L6.28867374,14.2073512 L5.29604775,14.2073512 L5.29604775,11.5998435 C4.90349072,11.4027138 4.63225464,10.9775578 4.63225464,10.4814699 C4.63225464,9.79782591 5.15062599,9.24560173 5.79236074,9.24560173 Z" id="Fill-5" fill="#D1D9E2"></path>
                                </g>
                            </g>
                        </g>
                    </g>
                </g>
            </g>
        </g>
    </g>
</svg>