<svg width="12" height="12" viewBox="0 0 12 12" fill="none" xmlns="http://www.w3.org/2000/svg">
<path fill-rule="evenodd" clip-rule="evenodd" d="M11.207 8.98047C11.7109 8.10156 12 7.08594 12 6C12 2.6875 9.3125 0 6 0C2.6875 0 0 2.6875 0 6C0 8.08594 1.06641 9.92578 2.6875 11C3.63672 11.6328 4.77344 12 6 12C8.22656 12 10.1719 10.7852 11.207 8.98047ZM4.14062 6.83984C4.875 5.95703 6.67969 3.97266 9.18359 2.40234C9.21875 2.38281 9.58984 2.96094 9.59375 2.96094C9.61328 3.01562 9.60156 3.07812 9.55859 3.11719C7.23047 5.3125 5.40625 8.33594 4.85547 9.78125C4.83984 9.82422 4.80078 9.85547 4.73047 9.86719C4.69141 9.86719 4.65625 9.85547 4.63281 9.82812L1.20312 6.26172C1.17578 6.23438 2.21094 5.29297 2.25781 5.33203L4.14062 6.83984ZM4.73047 9.86719C4.73438 9.86719 4.74609 9.86719 4.75391 9.86719H4.73047Z" fill="#323B45"/>
</svg>
