<?xml version="1.0" encoding="UTF-8" standalone="no"?>
<svg width="19px" height="19px" viewBox="0 0 19 19" version="1.1" xmlns="http://www.w3.org/2000/svg" xmlns:xlink="http://www.w3.org/1999/xlink">
    <!-- Generator: Sketch 48.2 (47327) - http://www.bohemiancoding.com/sketch -->
    <title>Shape</title>
    <desc>Created with Sketch.</desc>
    <defs></defs>
    <g id="icons" stroke="none" stroke-width="1" fill="none" fill-rule="evenodd">
        <path d="M12.7188107,7.05099766 L12.4189823,7.34863644 C13.4781589,8.58372877 14.1223556,10.1848951 14.1223556,11.9392259 C14.1223556,15.8389457 10.9611206,19 7.06117782,19 C3.16123499,19 0,15.8389457 0,11.9392259 C0,8.03950603 3.16123499,4.87845178 7.06117782,4.87845178 C8.81560892,4.87845178 10.4157804,5.52152536 11.6509434,6.5795552 L11.9507719,6.28191641 L11.9507719,5.42158825 L17.3802744,0 L19,1.61963295 L13.5813608,7.05099766 L12.7188107,7.05099766 Z M7.06117782,7.05099766 C4.36054889,7.05099766 2.1726701,9.23875136 2.1726701,11.9392259 C2.1726701,14.6386141 4.36054889,16.8274541 7.06117782,16.8274541 C9.76072041,16.8274541 11.9496855,14.6386141 11.9496855,11.9392259 C11.9496855,9.23875136 9.76072041,7.05099766 7.06117782,7.05099766 L7.06117782,7.05099766 Z" id="Shape" stroke="#FFFFFF" fill="#7B90A1" transform="translate(9.500000, 9.500000) scale(1, -1) translate(-9.500000, -9.500000) "></path>
    </g>
</svg>