<svg width="196" height="107" viewBox="0 0 196 107" fill="none" xmlns="http://www.w3.org/2000/svg">
<path opacity="0.835389" fill-rule="evenodd" clip-rule="evenodd" d="M14.5158 6.08128C14.5157 2.72263 17.2384 1.50167e-05 20.5968 0L116.132 2.21701e-05C119.49 7.04321e-05 122.213 2.72269 122.213 6.08116C122.213 9.43981 119.49 12.1624 116.132 12.1624L108.64 12.1625C111.998 12.1625 114.721 14.8851 114.721 18.2437C114.721 21.6022 111.998 24.3249 108.64 24.3248L106.438 24.3248L105.356 24.3248L105.356 24.4341C102.91 24.9352 101.07 27.0994 101.07 29.6934C101.07 32.2874 102.91 34.4518 105.356 34.9527L105.356 35.0839L117.068 35.0839C120.427 35.0838 123.149 37.8065 123.15 41.1651C123.149 44.5236 120.427 47.2463 117.068 47.2463L106.941 47.2463C106.493 47.1311 106.024 47.0698 105.54 47.0698L91.9491 47.0698C88.8488 47.0698 86.3358 49.5831 86.3356 52.6832C86.3356 55.7834 88.8489 58.2966 91.9492 58.2967L105.356 58.2966L105.356 58.4731L108.172 58.4731C111.53 58.473 114.253 61.1957 114.253 64.5543C114.253 67.9128 111.53 70.6355 108.172 70.6355L100.644 70.6355C102.35 71.7127 103.483 73.6146 103.483 75.7812C103.483 79.1397 100.76 81.8624 97.4017 81.8624L14.0415 81.8624C10.6828 81.8623 7.96017 79.1397 7.96025 75.7812C7.96012 72.4226 10.6828 69.7 14.0413 69.6999L14.5453 69.7C12.8393 68.6229 11.706 66.7208 11.7062 64.5542C11.706 62.026 13.2487 59.8581 15.4442 58.9407L6.08122 58.9407C2.72256 58.9406 -7.57209e-05 56.218 4.55333e-09 52.8595C-0.000128567 49.5009 2.7226 46.7783 6.08102 46.7783L6.50342 46.7782L6.54988 46.7784L21.0711 46.7783L22.4813 46.7783C25.5816 46.7784 28.0949 44.2652 28.0948 41.165C28.0948 38.0648 25.5816 35.5515 22.4815 35.5516L21.071 35.5515L20.1286 35.5515C16.77 35.5514 14.0473 32.8288 14.0474 29.4704C14.0473 27.3038 15.1801 25.4018 16.8859 24.3247L11.232 24.3247C7.87336 24.3247 5.15072 21.6021 5.1508 18.2436C5.15067 14.8849 7.8734 12.1623 11.2318 12.1623L20.5485 12.1622C17.2123 12.136 14.5157 9.42358 14.5158 6.08128Z" transform="matrix(0.965826 -0.25919 0.258449 0.966025 27.2729 30.9189)" fill="url(#paint0_linear)"/>
<path opacity="0.16243" fill-rule="evenodd" clip-rule="evenodd" d="M1.93079 3.8664C2.99713 3.8664 3.86157 3.00088 3.86157 1.9332C3.86157 0.865524 2.99713 0 1.93079 0C0.864442 0 0 0.865524 0 1.9332C0 3.00088 0.864442 3.8664 1.93079 3.8664Z" transform="translate(3.86157 56.5594) scale(-1 1)" fill="url(#paint1_linear)"/>
<path opacity="0.170184" fill-rule="evenodd" clip-rule="evenodd" d="M0.965393 1.9332C1.49856 1.9332 1.93079 1.50044 1.93079 0.966601C1.93079 0.432762 1.49856 0 0.965393 0C0.432221 0 0 0.432762 0 0.966601C0 1.50044 0.432221 1.9332 0.965393 1.9332Z" transform="translate(56.4575 12.1283) scale(-1 1)" fill="url(#paint2_linear)"/>
<path opacity="0.301364" fill-rule="evenodd" clip-rule="evenodd" d="M1.93079 3.8664C2.99713 3.8664 3.86157 3.00088 3.86157 1.9332C3.86157 0.865524 2.99713 0 1.93079 0C0.864442 0 0 0.865524 0 1.9332C0 3.00088 0.864442 3.8664 1.93079 3.8664Z" transform="translate(45.8384 18.8945) scale(-1 1)" fill="url(#paint3_linear)"/>
<path opacity="0.184002" fill-rule="evenodd" clip-rule="evenodd" d="M1.93079 3.8664C2.99713 3.8664 3.86157 3.00088 3.86157 1.9332C3.86157 0.865524 2.99713 0 1.93079 0C0.864442 0 0 0.865524 0 1.9332C0 3.00088 0.864442 3.8664 1.93079 3.8664Z" transform="translate(177.633 1.8877) scale(-1 1)" fill="url(#paint4_linear)"/>
<path opacity="0.149778" fill-rule="evenodd" clip-rule="evenodd" d="M0.965393 1.9332C1.49856 1.9332 1.93079 1.50044 1.93079 0.966601C1.93079 0.432762 1.49856 0 0.965393 0C0.432221 0 0 0.432762 0 0.966601C0 1.50044 0.432221 1.9332 0.965393 1.9332Z" transform="translate(163.076 15.5557) scale(-1 1)" fill="url(#paint5_linear)"/>
<g opacity="0.364272">
<path d="M0 0.725022H5.24638" transform="matrix(0.499425 -0.866357 -0.865693 -0.500575 177.762 22.9146)" stroke="url(#paint6_linear)" stroke-width="2.8" stroke-linecap="round"/>
<path d="M0 0.725579H5.24236" transform="matrix(-0.865693 -0.500575 -0.499425 0.866357 181.077 20.9647)" stroke="url(#paint7_linear)" stroke-width="2.8" stroke-linecap="round"/>
</g>
<g opacity="0.364272">
<path d="M0 0.725022H5.24638" transform="matrix(0.499425 -0.866357 -0.865693 -0.500575 12.5137 88.5206)" stroke="url(#paint8_linear)" stroke-width="2.8" stroke-linecap="round"/>
<path d="M0 0.725579H5.24236" transform="matrix(-0.865693 -0.500575 -0.499425 0.866357 15.8289 86.5708)" stroke="url(#paint9_linear)" stroke-width="2.8" stroke-linecap="round"/>
</g>
<g opacity="0.364272">
<path d="M0 0.725022H5.24638" transform="matrix(0.499425 -0.866357 -0.865693 -0.500575 172.884 58.4512)" stroke="url(#paint10_linear)" stroke-width="2.8" stroke-linecap="round"/>
<path d="M0 0.725579H5.24236" transform="matrix(-0.865693 -0.500575 -0.499425 0.866357 176.199 56.5013)" stroke="url(#paint11_linear)" stroke-width="2.8" stroke-linecap="round"/>
</g>
<g opacity="0.364272">
<path d="M0 0.725022H5.24638" transform="matrix(0.499425 -0.866357 -0.865693 -0.500575 22.0842 67.5631)" stroke="url(#paint12_linear)" stroke-width="2.8" stroke-linecap="round"/>
<path d="M0 0.725579H5.24236" transform="matrix(-0.865693 -0.500575 -0.499425 0.866357 25.3994 65.6133)" stroke="url(#paint13_linear)" stroke-width="2.8" stroke-linecap="round"/>
</g>
<path opacity="0.223822" fill-rule="evenodd" clip-rule="evenodd" d="M3.7509 7.51119C5.82246 7.51119 7.5018 5.82975 7.5018 3.75559C7.5018 1.68144 5.82246 0 3.7509 0C1.67933 0 0 1.68144 0 3.75559C0 5.82975 1.67933 7.51119 3.7509 7.51119Z" transform="translate(35.7046 94.8296) scale(-1 1)" fill="url(#paint14_linear)"/>
<path opacity="0.223822" fill-rule="evenodd" clip-rule="evenodd" d="M3.7509 7.51119C5.82246 7.51119 7.5018 5.82975 7.5018 3.75559C7.5018 1.68144 5.82246 0 3.7509 0C1.67933 0 0 1.68144 0 3.75559C0 5.82975 1.67933 7.51119 3.7509 7.51119Z" transform="translate(169.445 28.3124) scale(-1 1)" fill="url(#paint15_linear)"/>
<path opacity="0.135378" fill-rule="evenodd" clip-rule="evenodd" d="M0.965393 1.9332C1.49856 1.9332 1.93079 1.50044 1.93079 0.966601C1.93079 0.432762 1.49856 0 0.965393 0C0.432221 0 0 0.432762 0 0.966601C0 1.50044 0.432221 1.9332 0.965393 1.9332Z" transform="translate(95.0732 101.539) scale(-1 1)" fill="url(#paint16_linear)"/>
<path opacity="0.184002" fill-rule="evenodd" clip-rule="evenodd" d="M1.93079 3.8664C2.99713 3.8664 3.86157 3.00088 3.86157 1.9332C3.86157 0.865524 2.99713 0 1.93079 0C0.864442 0 0 0.865524 0 1.9332C0 3.00088 0.864442 3.8664 1.93079 3.8664Z" transform="translate(165.806 71.1385) scale(-1 1)" fill="url(#paint17_linear)"/>
<path opacity="0.149778" fill-rule="evenodd" clip-rule="evenodd" d="M0.965393 1.9332C1.49856 1.9332 1.93079 1.50044 1.93079 0.966601C1.93079 0.432762 1.49856 0 0.965393 0C0.432221 0 0 0.432762 0 0.966601C0 1.50044 0.432221 1.9332 0.965393 1.9332Z" transform="translate(196 50.9338) scale(-1 1)" fill="url(#paint18_linear)"/>
<g filter="url(#filter0_d)">
<path fill-rule="evenodd" clip-rule="evenodd" d="M0 18C0 8.05887 8.05887 0 18 0H47C56.9411 0 65 8.05887 65 18V18C65 27.9411 56.9411 36 47 36H18C8.05887 36 0 27.9411 0 18V18Z" transform="translate(67 35)" fill="white"/>
</g>
<g filter="url(#filter1_i)">
<path fill-rule="evenodd" clip-rule="evenodd" d="M0 14.5C0 6.49187 6.49187 0 14.5 0H42.5C50.5081 0 57 6.49187 57 14.5V14.5C57 22.5081 50.5081 29 42.5 29H14.5C6.49187 29 0 22.5081 0 14.5V14.5Z" transform="translate(71 38)" fill="#FA2A00"/>
</g>
<g filter="url(#filter2_d)">
<path fill-rule="evenodd" clip-rule="evenodd" d="M10.9615 21.75C17.0154 21.75 21.9231 16.8811 21.9231 10.875C21.9231 4.8689 17.0154 0 10.9615 0C4.90765 0 0 4.8689 0 10.875C0 16.8811 4.90765 21.75 10.9615 21.75Z" transform="translate(100.231 40.9)" fill="white"/>
</g>
<defs>
<filter id="filter0_d" x="63" y="35" width="73" height="44" filterUnits="userSpaceOnUse" color-interpolation-filters="sRGB">
<feFlood flood-opacity="0" result="BackgroundImageFix"/>
<feColorMatrix in="SourceAlpha" type="matrix" values="0 0 0 0 0 0 0 0 0 0 0 0 0 0 0 0 0 0 255 0"/>
<feOffset dy="4"/>
<feGaussianBlur stdDeviation="2"/>
<feColorMatrix type="matrix" values="0 0 0 0 0 0 0 0 0 0 0 0 0 0 0 0 0 0 0.25 0"/>
<feBlend mode="normal" in2="BackgroundImageFix" result="effect1_dropShadow"/>
<feBlend mode="normal" in="SourceGraphic" in2="effect1_dropShadow" result="shape"/>
</filter>
<filter id="filter1_i" x="71" y="38" width="57" height="33" filterUnits="userSpaceOnUse" color-interpolation-filters="sRGB">
<feFlood flood-opacity="0" result="BackgroundImageFix"/>
<feBlend mode="normal" in="SourceGraphic" in2="BackgroundImageFix" result="shape"/>
<feColorMatrix in="SourceAlpha" type="matrix" values="0 0 0 0 0 0 0 0 0 0 0 0 0 0 0 0 0 0 255 0" result="hardAlpha"/>
<feOffset dy="4"/>
<feGaussianBlur stdDeviation="2"/>
<feComposite in2="hardAlpha" operator="arithmetic" k2="-1" k3="1"/>
<feColorMatrix type="matrix" values="0 0 0 0 0 0 0 0 0 0 0 0 0 0 0 0 0 0 0.25 0"/>
<feBlend mode="normal" in2="shape" result="effect1_innerShadow"/>
</filter>
<filter id="filter2_d" x="97.2307" y="38.9" width="27.9231" height="27.75" filterUnits="userSpaceOnUse" color-interpolation-filters="sRGB">
<feFlood flood-opacity="0" result="BackgroundImageFix"/>
<feColorMatrix in="SourceAlpha" type="matrix" values="0 0 0 0 0 0 0 0 0 0 0 0 0 0 0 0 0 0 255 0"/>
<feOffset dy="1"/>
<feGaussianBlur stdDeviation="1.5"/>
<feColorMatrix type="matrix" values="0 0 0 0 0 0 0 0 0 0 0 0 0 0 0 0 0 0 0.341967 0"/>
<feBlend mode="normal" in2="BackgroundImageFix" result="effect1_dropShadow"/>
<feBlend mode="normal" in="SourceGraphic" in2="effect1_dropShadow" result="shape"/>
</filter>
<linearGradient id="paint0_linear" x2="1" gradientUnits="userSpaceOnUse" gradientTransform="translate(21.0725) scale(152.947 101.67) rotate(60.9619)">
<stop stop-color="#F75070"/>
<stop offset="1" stop-color="#FFE194"/>
</linearGradient>
<linearGradient id="paint1_linear" x2="1" gradientUnits="userSpaceOnUse" gradientTransform="translate(-4.62343e-09 -0.861723) scale(5.28032 5.28693) rotate(65.8181)">
<stop stop-color="#F75070"/>
<stop offset="1" stop-color="#FFE194"/>
</linearGradient>
<linearGradient id="paint2_linear" x2="1" gradientUnits="userSpaceOnUse" gradientTransform="translate(-2.31171e-09 -0.430861) scale(2.64016 2.64347) rotate(65.8181)">
<stop stop-color="#F75070"/>
<stop offset="1" stop-color="#FFE194"/>
</linearGradient>
<linearGradient id="paint3_linear" x2="1" gradientUnits="userSpaceOnUse" gradientTransform="translate(-4.62343e-09 -0.861723) scale(5.28032 5.28693) rotate(65.8181)">
<stop stop-color="#F75070"/>
<stop offset="1" stop-color="#FFE194"/>
</linearGradient>
<linearGradient id="paint4_linear" x2="1" gradientUnits="userSpaceOnUse" gradientTransform="translate(-4.62343e-09 -0.861723) scale(5.28032 5.28693) rotate(65.8181)">
<stop stop-color="#F75070"/>
<stop offset="1" stop-color="#FFE194"/>
</linearGradient>
<linearGradient id="paint5_linear" x2="1" gradientUnits="userSpaceOnUse" gradientTransform="translate(-2.31171e-09 -0.430861) scale(2.64016 2.64347) rotate(65.8181)">
<stop stop-color="#F75070"/>
<stop offset="1" stop-color="#FFE194"/>
</linearGradient>
<linearGradient id="paint6_linear" x2="1" gradientUnits="userSpaceOnUse" gradientTransform="translate(-6.28145e-09 -0.323178) scale(7.17392 1.9828) rotate(65.8181)">
<stop stop-color="#F75070"/>
<stop offset="1" stop-color="#FFE194"/>
</linearGradient>
<linearGradient id="paint7_linear" x2="1" gradientUnits="userSpaceOnUse" gradientTransform="translate(-8.14346e-08 -6.19283) scale(26.6481 7.37656) rotate(69.7002)">
<stop stop-color="#F75070"/>
<stop offset="1" stop-color="#FFE194"/>
</linearGradient>
<linearGradient id="paint8_linear" x2="1" gradientUnits="userSpaceOnUse" gradientTransform="translate(-6.28145e-09 -0.323178) scale(7.17392 1.9828) rotate(65.8181)">
<stop stop-color="#F75070"/>
<stop offset="1" stop-color="#FFE194"/>
</linearGradient>
<linearGradient id="paint9_linear" x2="1" gradientUnits="userSpaceOnUse" gradientTransform="translate(-8.14346e-08 -6.19283) scale(26.6481 7.37656) rotate(69.7002)">
<stop stop-color="#F75070"/>
<stop offset="1" stop-color="#FFE194"/>
</linearGradient>
<linearGradient id="paint10_linear" x2="1" gradientUnits="userSpaceOnUse" gradientTransform="translate(-6.28145e-09 -0.323178) scale(7.17392 1.9828) rotate(65.8181)">
<stop stop-color="#F75070"/>
<stop offset="1" stop-color="#FFE194"/>
</linearGradient>
<linearGradient id="paint11_linear" x2="1" gradientUnits="userSpaceOnUse" gradientTransform="translate(-8.14346e-08 -6.19283) scale(26.6481 7.37656) rotate(69.7002)">
<stop stop-color="#F75070"/>
<stop offset="1" stop-color="#FFE194"/>
</linearGradient>
<linearGradient id="paint12_linear" x2="1" gradientUnits="userSpaceOnUse" gradientTransform="translate(-6.28145e-09 -0.323178) scale(7.17392 1.9828) rotate(65.8181)">
<stop stop-color="#F75070"/>
<stop offset="1" stop-color="#FFE194"/>
</linearGradient>
<linearGradient id="paint13_linear" x2="1" gradientUnits="userSpaceOnUse" gradientTransform="translate(-8.14346e-08 -6.19283) scale(26.6481 7.37656) rotate(69.7002)">
<stop stop-color="#F75070"/>
<stop offset="1" stop-color="#FFE194"/>
</linearGradient>
<linearGradient id="paint14_linear" x2="1" gradientUnits="userSpaceOnUse" gradientTransform="translate(6.4259e-08 1.9493) scale(8.39564 8.40614) rotate(26.6791)">
<stop stop-color="#F75070"/>
<stop offset="1" stop-color="#FFE194"/>
</linearGradient>
<linearGradient id="paint15_linear" x2="1" gradientUnits="userSpaceOnUse" gradientTransform="translate(-8.98185e-09 -1.67405) scale(10.258 10.2708) rotate(65.8181)">
<stop stop-color="#F75070"/>
<stop offset="1" stop-color="#FFE194"/>
</linearGradient>
<linearGradient id="paint16_linear" x2="1" gradientUnits="userSpaceOnUse" gradientTransform="translate(-2.31171e-09 -0.430861) scale(2.64016 2.64347) rotate(65.8181)">
<stop stop-color="#F75070"/>
<stop offset="1" stop-color="#FFE194"/>
</linearGradient>
<linearGradient id="paint17_linear" x2="1" gradientUnits="userSpaceOnUse" gradientTransform="translate(-4.62343e-09 -0.861723) scale(5.28032 5.28693) rotate(65.8181)">
<stop stop-color="#F75070"/>
<stop offset="1" stop-color="#FFE194"/>
</linearGradient>
<linearGradient id="paint18_linear" x2="1" gradientUnits="userSpaceOnUse" gradientTransform="translate(-2.31171e-09 -0.430861) scale(2.64016 2.64347) rotate(65.8181)">
<stop stop-color="#F75070"/>
<stop offset="1" stop-color="#FFE194"/>
</linearGradient>
</defs>
</svg>
