<?xml version="1.0" encoding="UTF-8"?>
<svg width="40px" height="40px" viewBox="0 0 40 40" version="1.1" xmlns="http://www.w3.org/2000/svg" xmlns:xlink="http://www.w3.org/1999/xlink">
    <!-- Generator: Sketch 49.3 (51167) - http://www.bohemiancoding.com/sketch -->
    <title>Group 4</title>
    <desc>Created with Sketch.</desc>
    <defs>
        <rect id="path-1" x="0" y="0" width="30" height="30" rx="15"></rect>
        <filter x="-25.0%" y="-25.0%" width="150.0%" height="150.0%" filterUnits="objectBoundingBox" id="filter-2">
            <feOffset dx="0" dy="0" in="SourceAlpha" result="shadowOffsetOuter1"></feOffset>
            <feGaussianBlur stdDeviation="2.5" in="shadowOffsetOuter1" result="shadowBlurOuter1"></feGaussianBlur>
            <feColorMatrix values="0 0 0 0 0.660442591   0 0 0 0 0.71505306   0 0 0 0 0.784066752  0 0 0 0.600628397 0" type="matrix" in="shadowBlurOuter1"></feColorMatrix>
        </filter>
    </defs>
    <g id="Pages" stroke="none" stroke-width="1" fill="none" fill-rule="evenodd">
        <g id="sell" transform="translate(-391.000000, -466.000000)">
            <g id="Group-3-Copy" transform="translate(396.000000, 471.000000)">
                <g id="Group-4">
                    <g id="Rectangle">
                        <use fill="black" fill-opacity="1" filter="url(#filter-2)" xlink:href="#path-1"></use>
                        <use fill="#FFFFFF" fill-rule="evenodd" xlink:href="#path-1"></use>
                    </g>
                    <path d="M18.4726688,22 C18.6141479,22 18.7427653,21.9517241 18.8456592,21.8551724 C19.0514469,21.662069 19.0514469,21.3482759 18.8456592,21.1551724 L12.2861736,15 L18.8456592,8.84482759 C19.0514469,8.65172414 19.0514469,8.33793103 18.8456592,8.14482759 C18.6398714,7.95172414 18.3054662,7.95172414 18.0996785,8.14482759 L11.1543408,14.65 C10.9485531,14.8431034 10.9485531,15.1568966 11.1543408,15.35 L18.0996785,21.8551724 C18.2025723,21.9517241 18.3311897,22 18.4726688,22 Z" id="Shape" fill="#FA2A00" fill-rule="nonzero" transform="translate(15.000000, 15.000000) scale(-1, 1) rotate(180.000000) translate(-15.000000, -15.000000) "></path>
                </g>
            </g>
        </g>
    </g>
</svg>