<svg width="18" height="15" viewBox="0 0 18 15" fill="none" xmlns="http://www.w3.org/2000/svg">
<g opacity="0.630247">
<path fill-rule="evenodd" clip-rule="evenodd" d="M18 4.57031C18 6.00912 17.2333 7.47395 15.6998 8.96484L9.44196 14.8242C9.32143 14.9414 9.17411 15 9 15C8.82589 15 8.67857 14.9414 8.55803 14.8242L2.29018 8.94531C2.22321 8.89323 2.13114 8.80859 2.01395 8.69141C1.89676 8.57422 1.71094 8.361 1.45647 8.05176C1.20201 7.74251 0.974331 7.42513 0.773438 7.09961C0.572544 6.77409 0.393416 6.38021 0.236049 5.91797C0.0786823 5.45573 0 5.00651 0 4.57031C0 3.13801 0.425219 2.01823 1.27567 1.21094C2.12612 0.403642 3.30133 0 4.80134 0C5.21652 0 5.64006 0.0699863 6.07199 0.209961C6.50391 0.349936 6.90569 0.538736 7.27734 0.776367C7.649 1.014 7.96875 1.23698 8.23661 1.44531C8.50447 1.65365 8.75893 1.875 9 2.10938C9.24107 1.875 9.49553 1.65365 9.76339 1.44531C10.0313 1.23698 10.351 1.014 10.7227 0.776367C11.0943 0.538736 11.4961 0.349936 11.928 0.209961C12.3599 0.0699863 12.7835 0 13.1987 0C14.6987 0 15.8739 0.403642 16.7243 1.21094C17.5748 2.01823 18 3.13801 18 4.57031Z" fill="white"/>
<path fill-rule="evenodd" clip-rule="evenodd" d="M18 4.57031C18 6.00912 17.2333 7.47395 15.6998 8.96484L9.44196 14.8242C9.32143 14.9414 9.17411 15 9 15C8.82589 15 8.67857 14.9414 8.55803 14.8242L2.29018 8.94531C2.22321 8.89323 2.13114 8.80859 2.01395 8.69141C1.89676 8.57422 1.71094 8.361 1.45647 8.05176C1.20201 7.74251 0.974331 7.42513 0.773438 7.09961C0.572544 6.77409 0.393416 6.38021 0.236049 5.91797C0.0786823 5.45573 0 5.00651 0 4.57031C0 3.13801 0.425219 2.01823 1.27567 1.21094C2.12612 0.403642 3.30133 0 4.80134 0C5.21652 0 5.64006 0.0699863 6.07199 0.209961C6.50391 0.349936 6.90569 0.538736 7.27734 0.776367C7.649 1.014 7.96875 1.23698 8.23661 1.44531C8.50447 1.65365 8.75893 1.875 9 2.10938C9.24107 1.875 9.49553 1.65365 9.76339 1.44531C10.0313 1.23698 10.351 1.014 10.7227 0.776367C11.0943 0.538736 11.4961 0.349936 11.928 0.209961C12.3599 0.0699863 12.7835 0 13.1987 0C14.6987 0 15.8739 0.403642 16.7243 1.21094C17.5748 2.01823 18 3.13801 18 4.57031Z" fill="#FA2A00"/>
</g>
</svg>
