<svg width="15" height="14" viewBox="0 0 15 14" fill="none" xmlns="http://www.w3.org/2000/svg">
<path fill-rule="evenodd" clip-rule="evenodd" d="M15 4.05272C15 5.32858 14.3611 6.62751 13.0831 7.94956L7.8683 13.1454C7.76786 13.2493 7.64509 13.3012 7.5 13.3012C7.35491 13.3012 7.23214 13.2493 7.1317 13.1454L1.90848 7.93224C1.85268 7.88606 1.77595 7.81101 1.67829 7.70709C1.58064 7.60317 1.42578 7.41411 1.21373 7.13988C1.00167 6.86566 0.811943 6.58422 0.644531 6.29557C0.47712 6.00691 0.327847 5.65764 0.196708 5.24775C0.0655686 4.83786 0 4.43952 0 4.05272C0 2.78263 0.354349 1.78966 1.06306 1.0738C1.77177 0.357929 2.75111 0 4.00112 0C4.3471 0 4.70005 0.0620602 5.05999 0.186183C5.41992 0.310305 5.75474 0.477723 6.06445 0.688442C6.37416 0.899162 6.64062 1.09689 6.86384 1.28163C7.08705 1.46637 7.29911 1.66265 7.5 1.87048C7.70089 1.66265 7.91295 1.46637 8.13616 1.28163C8.35938 1.09689 8.62584 0.899162 8.93555 0.688442C9.24526 0.477723 9.58008 0.310305 9.94001 0.186183C10.2999 0.0620602 10.6529 0 10.9989 0C12.2489 0 13.2282 0.357929 13.9369 1.0738C14.6457 1.78966 15 2.78263 15 4.05272Z" fill="#FA2A00"/>
</svg>
