<svg width="20" height="17" viewBox="0 0 20 17" fill="none" xmlns="http://www.w3.org/2000/svg">
<path opacity="0.630247" fill-rule="evenodd" clip-rule="evenodd" d="M19 5.57031C19 7.00912 18.2333 8.47395 16.6998 9.96484L10.442 15.8242C10.3214 15.9414 10.1741 16 10 16C9.82589 16 9.67857 15.9414 9.55803 15.8242L3.29018 9.94531C3.22321 9.89323 3.13114 9.80859 3.01395 9.69141C2.89676 9.57422 2.71094 9.361 2.45647 9.05176C2.20201 8.74251 1.97433 8.42513 1.77344 8.09961C1.57254 7.77409 1.39342 7.38021 1.23605 6.91797C1.07868 6.45573 1 6.00651 1 5.57031C1 4.13801 1.42522 3.01823 2.27567 2.21094C3.12612 1.40364 4.30133 1 5.80134 1C6.21652 1 6.64006 1.06999 7.07199 1.20996C7.50391 1.34994 7.90569 1.53874 8.27734 1.77637C8.649 2.014 8.96875 2.23698 9.23661 2.44531C9.50447 2.65365 9.75893 2.875 10 3.10938C10.2411 2.875 10.4955 2.65365 10.7634 2.44531C11.0313 2.23698 11.351 2.014 11.7227 1.77637C12.0943 1.53874 12.4961 1.34994 12.928 1.20996C13.3599 1.06999 13.7835 1 14.1987 1C15.6987 1 16.8739 1.40364 17.7243 2.21094C18.5748 3.01823 19 4.13801 19 5.57031Z" fill="#323B45" fill-opacity="0.5" stroke="white" stroke-width="0.5"/>
</svg>
