<svg height="45" viewBox="0 0 50 45" width="50" xmlns="http://www.w3.org/2000/svg" xmlns:xlink="http://www.w3.org/1999/xlink"><filter id="a" height="130%" width="125.4%" x="-12.7%" y="-15%"><feOffset dx="0" dy="0" in="SourceAlpha" result="shadowOffsetOuter1"/><feGaussianBlur in="shadowOffsetOuter1" result="shadowBlurOuter1" stdDeviation="2.5"/><feColorMatrix in="shadowBlurOuter1" result="shadowMatrixOuter1" type="matrix" values="0 0 0 0 0.660442591   0 0 0 0 0.71505306   0 0 0 0 0.784066752  0 0 0 1 0"/><feMerge><feMergeNode in="shadowMatrixOuter1"/><feMergeNode in="SourceGraphic"/></feMerge></filter><g fill="none" fill-rule="evenodd" filter="url(#a)" transform="translate(-6 -3)"><g transform="translate(11 8)"><path d="m11.530191 29.5979755c-.6229071.3547684-11.530191 6.0541984-11.530191 6.0541984s3.34669107-6.9200854 4.89754731-10.0821508c.05398977-.1100764-.01012308-.2271639-.0290195-.2460943-.21190986-.2075324-.42651921-.4108581-.63505471-.6204939-2.12854681-2.1552526-3.5788471-4.6799971-4.0006422-7.7873748-.32528839-2.3936345.0290195-4.6785948 1.03997801-6.8324451 1.29845404-2.76663194 3.33184388-4.86088678 5.8092996-6.49941158.71873886-.47466037 1.48944287-.8693927 2.25069868-1.27113626.45958794-.24258861.94752051-.42768512 1.42330541-.63942431.2625253-.12199543 1.2437894-.47956823 1.5690778-.57351873 2.0968278-.6085749 4.2213254-1.02574317 6.4126353-1.08603976 2.1946843-.06029659 4.3738465.06099772 6.4996938.59875917 1.4982162.37930762 2.9950827.85887585 4.4042158 1.50180578 3.2569331 1.48497882 6.0029879 3.65986283 7.8966792 6.8668001.8172702 1.38191369 1.3585177 2.88091499 1.6203681 4.46895889.1882893 1.138624.1727672 2.2905694.0053989 3.4544338-.2348555 1.6350192-.7342609 3.1522497-1.5312849 4.572024-.797024 1.4204755-1.8073077 2.6649691-2.9971073 3.7432965-2.449786 2.2197559-5.2815496 3.6745864-8.42038 4.53206-1.6534368.4515233-3.3250952.7775456-5.0264479.8189119-1.5670532.0371595-3.1415299-.0238382-4.7058836-.1402247-.9218754-.0680089-1.8316031-.3204132-2.7440302-.5062109-.4136967-.0841348-1.0703473-.302184-1.4226306-.4389031-.2328309-.0904448-.538548-.034355-.786226.1121797" fill="#fefefe"/><g fill="#00ad5e"><path d="m10.343124 14.7679766c-.76717476-.1957915-1.32094045-.4201505-1.64482819-.6654125-.27722594-.2111204-.40691828-.4494147-.40691828-.7511148 0-.3595318.12488892-.6417224.38084257-.8625976.27036392-.2320234.68139942-.3490802 1.22212726-.3490802.58121384 0 1.02450084.1414437 1.31819564.4194537.29095.2766165.4323078.6326644.4323078 1.0911371 0 .1923077.1537094.3483835.3431014.3483835h1.2035998c.1475336 0 .2916362-.1351728.338298-.2773132.010293-.0327481.0164689-.0661929.0171551-.1003345.0247033-.8507525-.3067327-1.6046544-.9833287-2.2414994-.666303-.6270903-1.5645425-.9448161-2.66932904-.9448161-1.02381464 0-1.87607856.2766165-2.53140227.8221851-.6759098.5622909-1.01901122 1.2750836-1.01901122 2.1195652 0 .8089465.32114293 1.4889911.95313575 2.0206243.59082064.4974916 1.41426405.8765329 2.44699932 1.127369.75619556.1832497 1.27839586.4034281 1.55424946.6542642.2456606.2229655.3657461.4919175.3657461.8221851 0 .3539576-.131751.615942-.4137803.822185-.3108499.2271461-.7513921.3421126-1.31064745.3421126-.57297937 0-1.05537997-.1386566-1.43416394-.4103957-.34653243-.2494426-.51465212-.6089744-.51465212-1.1001951 0-.1930045-.15370944-.3483835-.34310142-.3483835h-1.20359978c-.14753361 0-.29163621.134476-.338298.2766165-.01029304.032748-.01646887.0668896-.01784128.101728-.0240171.9768673.37466675 1.7683946 1.18575851 2.3508918.77060579.553233 1.6681591.8340301 2.66589803.8340301 1.06086955 0 1.93920925-.257107 2.61168805-.7650501.7033579-.5309365 1.0601833-1.2430324 1.0601833-2.1188685 0-.8082497-.2957534-1.495262-.8783396-2.0429208-.5530795-.5197882-1.3573092-.9148551-2.3900445-1.1747492"/><path d="m24.4673719 10.4347826h-1.6361654c-.1433646 0-.2714183.0901586-.3236142.2268276l-2.7086159 7.098915-2.7079199-7.098915c-.0521958-.136669-.1809456-.2268276-.3236142-.2268276h-1.6368614c-.1920806 0-.3479722.1602819-.3479722.3577722v9.7192383c0 .1974902.1558916.3577721.3479722.3577721h1.279146c.1927766 0 .3479722-.1602819.3479722-.3577721v-3.8574994l-.062635-2.0106795 2.3522923 6.0019856c.0535877.1352379.1809456.2239654.3229182.2239654h.8504442c.1426686 0 .2700264-.0887275.3229182-.2232498l2.3634274-6.0191587-.0668106 2.0393013v3.8453351c0 .1974902.1558915.3577721.3479722.3577721h1.2791459c.1920807 0 .3479723-.1602819.3479723-.3577721v-9.7192383c0-.1974903-.1558916-.3577722-.3479723-.3577722"/><path d="m31.8636033 15.9423967c-.5530795-.519126-1.3573092-.9142193-2.3900445-1.1748276-.7671748-.1958046-1.3209405-.4194817-1.6448282-.6654569-.277226-.2104377-.4069183-.4487479-.4069183-.751165 0-.3588589.1248889-.6417652.3815288-.8619583.2696777-.2320389.6807132-.3498004 1.221441-.3498004.5812138 0 1.0245009.1414531 1.3181957.4201786.29095.2759381.4323078.6327066.4323078 1.0905131 0 .1923206.1537094.3484068.3431014.3484068h1.2035998c.1475336 0 .2916362-.134485.338298-.2773318.010293-.0320534.0164689-.0655005.0178413-.0996443.0240171-.8515062-.3074189-1.6054584-.9840149-2.242346-.666303-.6264353-1.5645425-.9441823-2.6693291-.9441823-1.0238146 0-1.8760785.2759382-2.5314022.8215432-.6759098.5623285-1.0190112 1.2751687-1.0190112 2.1197067 0 .8096973.3211429 1.4890905.9531357 2.0214561.5908206.4975248 1.414264.8765914 2.4476855 1.1267474.7555093.1839588 1.2777097.4034551 1.5535633.654308.2463468.2236771.3657461.4919503.3657461.8222399 0 .3546781-.131751.61668-.4137803.8229368-.3108499.2264644-.7513922.3414386-1.3106475.3414386-.5729793 0-1.0553799-.1379691-1.4341639-.4104231-.3465324-.2487625-.5146521-.6090151-.5146521-1.1002686 0-.1923205-.1537095-.3484068-.3431015-.3484068h-1.2035997c-.1475336 0-.2916362.134485-.338298.276635-.0102931.0327502-.0164689.0668941-.0178413.1017348-.0240171.9769325.3746667 1.7685127 1.1857585 2.3510488.7706058.5539668 1.6681591.8340858 2.665898.8340858 1.0608696 0 1.9392093-.2571242 2.611688-.7644044.7033579-.5309719 1.0601834-1.2438122 1.0601834-2.11901 0-.8090005-.2957534-1.4960586-.8783396-2.0437541"/></g></g></g></svg>