<svg height="52" viewBox="0 0 50 52" width="50" xmlns="http://www.w3.org/2000/svg" xmlns:xlink="http://www.w3.org/1999/xlink"><filter id="a" height="130%" width="125.4%" x="-12.7%" y="-15%"><feOffset dx="0" dy="0" in="SourceAlpha" result="shadowOffsetOuter1"/><feGaussianBlur in="shadowOffsetOuter1" result="shadowBlurOuter1" stdDeviation="2.5"/><feColorMatrix in="shadowBlurOuter1" result="shadowMatrixOuter1" type="matrix" values="0 0 0 0 0.660442591   0 0 0 0 0.71505306   0 0 0 0 0.784066752  0 0 0 1 0"/><feMerge><feMergeNode in="shadowMatrixOuter1"/><feMergeNode in="SourceGraphic"/></feMerge></filter><g fill="#fefefe" fill-rule="evenodd" filter="url(#a)" transform="translate(-5)"><g transform="translate(10 5)"><path d="m35.5349162 25.8635423c-.6421908 2.574423-3.9391973 5.7753297-6.5577429 6.3664881-3.4278626.6610882-6.883461.9436907-10.3355036.8463659-.0689839-.0021628-.1351232.0245114-.1827719.0749762-.4892883.508973-3.213799 3.3450916-3.213799 3.3450916l-3.4193285 3.5570437c-.2496223.2638585-.6891283.0843482-.6891283-.2804398v-7.2964813c0-.1203944-.085341-.2234867-.2019737-.2458354l-.0021335-.0007209c-2.61854567-.5911584-5.91270739-3.7920651-6.5563206-6.3664881-1.07174044-4.9801494-1.07174044-10.0295076 0-15.0103779.64361321-2.57442296 3.93777493-5.77460873 6.5563206-6.36576717 5.9880919-1.15492174 12.0586801-1.15492174 18.0446385 0 2.619968.59115844 5.9155521 3.79134421 6.5577429 6.36576717 1.0724516 4.9808703 1.0724516 10.0302285 0 15.0103779m3.4840454-15.8098837-.01209-.047581c-.9636418-3.9463431-5.3032305-8.18033521-9.2907877-9.06130548l-.0440928-.00937202c-6.448222-1.24720013-12.9860521-1.24720013-19.4321406 0l-.0462263.00937202c-3.98471251.88097027-8.32572356 5.11496238-9.28936543 9.06130548l-.01137879.047581c-1.19050664 5.5114711-1.19050664 11.0993602 0 16.6093895l.01137879.0490229c.92310491 3.7769257 4.93982024 7.8162681 8.77731952 8.9272134v4.4048513c0 1.593965 1.91732731 2.3768895 3.00613591 1.2262933l4.4021721-4.638431c.9551078.0540694 1.9109267.0843482 2.8660345.0843482 3.2458018 0 6.493026-.3114395 9.7160703-.9343187l.0440928-.0100929c3.9875572-.8802494 8.3271459-5.1149624 9.2907877-9.0598636l.01209-.0490229c1.1897955-5.5100293 1.1897955-11.0979184 0-16.6093895"/><path d="m25.9817797 30.9090909c-.4006088-.1289886-.7814343-.2152311-1.1347048-.3712173-3.6690672-1.615358-7.0449198-3.6994247-9.7184708-6.8941438-1.5211827-1.8163402-2.7109976-3.8674099-3.7178185-6.038469-.4769151-1.0289095-.8789369-2.0983154-1.2887307-3.160972-.37376016-.9689148.1773418-1.9700767.7559988-2.7005125.5447431-.6854397 1.2442186-1.2096436 2.0016305-1.5966096.5920814-.30147347 1.1749776-.1267388 1.6073807.4049644.9347537 1.1511488 1.7924944 2.3607924 2.4863176 3.6934252.4267508.8211778.3101715 1.8238396-.4634908 2.3817905-.1886465.1357381-.3603359.2954741-.5355581.4484606-.1533194.1342382-.2981603.2699763-.4034349.4514603-.1928857.3337207-.2020707.7259362-.0777195 1.0874044.9552434 2.785255 2.5640371 4.9510646 5.2043807 6.117212.423218.1859837.8471426.4034646 1.3339493.3434698.8153483-.1012411 1.0795946-1.0506576 1.6511862-1.5471139.5581674-.4837075 1.2717737-.4904569 1.8730401-.0862424.6019729.4042144 1.1855757.8376763 1.7649393 1.2763877.5687654.4304622 1.1354113.8511752 1.6603712 1.342382.5051768.4717085.6789859 1.091154.3949564 1.7308478-.5207207 1.1728968-1.2781326 2.148561-2.3697384 2.7710063-.3087584.1754845-.6768662.2324795-1.0244843.3464695-.4006088-.1289886.3476181-.11399 0 0"/><path d="m19.9505665 8.18360301c4.7682895.1424374 8.6841709 3.50351239 9.5232382 8.50970209.1432383.8538786.1944951 1.7264008.2576884 2.5914656.0266817.3639238-.1671113.7099497-.5378456.71517-.3812666.0052202-.5532929-.3348398-.5785702-.6995093-.0484483-.7203902-.0828536-1.4437633-.1762393-2.1581875-.4936103-3.7734723-3.3260768-6.8936716-6.8620959-7.56409678-.5315263-.10142139-1.0763934-.12752248-1.6149412-.18792787-.3412441-.03803302-.7871083-.05965964-.8622382-.50859844-.0638955-.37734723.2359219-.67788267.5736552-.69727205.0919815-.00522022.184665-.00074575.2773486-.00074575 4.7682895.1424374-.0926836 0 0 0"/><path d="m27.0953437 18.3113444c-.0075796.0645218-.0117139.2155785-.0454776.3590445-.1247188.5161739-.836512.5814547-1.0005069.0599673-.0489229-.1548522-.0558134-.3324767-.0565025-.4987151-.0013781-1.092315-.2170521-2.1823527-.7166165-3.1319608-.5140346-.9769349-1.2981785-1.7982586-2.2187551-2.2946965-.557445-.2998362-1.1589894-.4865697-1.7694916-.5981544-.265975-.047822-.5360843-.0781851-.8041264-.1191754-.3245446-.0500992-.4974973-.2763048-.4830271-.6300358.0151592-.3301994.2335894-.5677912.5608902-.5472961 1.0735467.066799 2.1112626.3226087 3.0656029.8797728 1.9410661 1.1325462 3.0504436 2.9209368 3.3742992 5.3074819.0144701.1085483.037898.2155785.0461666.3241268.0179154.267955.0289403.5359099.0475448.8896408-.0075796.0645218-.0186045-.3537309 0 0"/><path d="m24.8464263 18.180143c-.4436217.0077444-.681053-.2362035-.7271334-.6389112-.032022-.2811209-.0562337-.5668885-.1241828-.8402651-.1335551-.5390087-.422534-1.0385212-.879433-1.3692061-.2155626-.155662-.4608041-.26873-.71698-.3423016-.324906-.0929325-.6630894-.0673761-.9879953-.1471432-.3530229-.0851881-.5482789-.3678579-.4920451-.696994.0499855-.2981586.3428695-.5312644.6716806-.5072568 2.0564361.1463687 3.5271043 1.2011531 3.7356377 3.6019105.0156205.1688274.032803.3477226-.0054672.5095801-.064825.2780232-.2717963.4158731-.4740815.4305874-.4436217.0077444.2022852-.0147143 0 0"/></g></g></svg>