<svg height="44" viewBox="0 0 49 44" width="49" xmlns="http://www.w3.org/2000/svg" xmlns:xlink="http://www.w3.org/1999/xlink"><filter id="a" height="130%" width="125.4%" x="-12.7%" y="-15%"><feOffset dx="0" dy="0" in="SourceAlpha" result="shadowOffsetOuter1"/><feGaussianBlur in="shadowOffsetOuter1" result="shadowBlurOuter1" stdDeviation="2.5"/><feColorMatrix in="shadowBlurOuter1" result="shadowMatrixOuter1" type="matrix" values="0 0 0 0 0.660442591   0 0 0 0 0.71505306   0 0 0 0 0.784066752  0 0 0 1 0"/><feMerge><feMergeNode in="shadowMatrixOuter1"/><feMergeNode in="SourceGraphic"/></feMerge></filter><g fill="#fefefe" fill-rule="evenodd" filter="url(#a)" transform="translate(-3 -3)"><path d="m32.2251702 6.876231-16.6706304 15.2883642c-.166548.1523583-.2723028.363821-.297.5923584l-.642128 5.9163605c-.0208977.1937315-.2818018.2186867-.3368956.0334926l-2.6413371-8.824302c-.1203198-.4045374.0373625-.8419107.383757-1.0645377l19.6874921-12.66281091c.4521493-.29092548.9156973.35462701.516742.72107491m4.4993288-6.74251009-35.89077497 14.50424449c-1.16266961.4702091-1.09237749 2.2006576.10512154 2.5671055l9.12024383 2.7917025 3.403785 11.2009596c.3552601 1.1702692 1.7845332 1.5242394 2.612207.6481794l4.7152712-4.9930169 9.2525957 7.0432864c1.132273.8616122 2.7445588.2206568 3.0320599-1.2037617l6.1280795-30.38234024c.299533-1.4887767-1.1113754-2.72800106-2.4785887-2.17635905" transform="translate(8 8)"/></g></svg>