<svg height="121" viewBox="0 0 217 121" width="217" xmlns="http://www.w3.org/2000/svg" xmlns:xlink="http://www.w3.org/1999/xlink"><linearGradient id="a"><stop offset="0" stop-color="#f75070"/><stop offset="1" stop-color="#ffe194"/></linearGradient><linearGradient id="b" x1="0%" x2="56.0135%" xlink:href="#a" y1="-22.287448%" y2="102.453866%"/><filter id="c" height="112.7%" width="113.9%" x="-6.9%" y="-4.5%"><feOffset dx="0" dy="2" in="SourceAlpha" result="shadowOffsetOuter1"/><feGaussianBlur in="shadowOffsetOuter1" result="shadowBlurOuter1" stdDeviation="2"/><feColorMatrix in="shadowBlurOuter1" result="shadowMatrixOuter1" type="matrix" values="0 0 0 0 0   0 0 0 0 0   0 0 0 0 0  0 0 0 0.5 0"/><feMerge><feMergeNode in="shadowMatrixOuter1"/><feMergeNode in="SourceGraphic"/></feMerge></filter><linearGradient id="d" x1="50%" x2="50%" y1="0%" y2="100%"><stop offset="0" stop-color="#f72648"/><stop offset="1" stop-color="#fccb3c"/></linearGradient><linearGradient id="e" x1="50%" x2="50%" y1="0%" y2="100%"><stop offset="0" stop-color="#ed6b23"/><stop offset="1" stop-color="#d6390f"/></linearGradient><linearGradient id="f" x1="0%" x2="101.999998%" y1="0%" y2="100.999999%"><stop offset="0" stop-color="#47f15a"/><stop offset="1" stop-color="#0de8e8"/></linearGradient><linearGradient id="g" x1="23.154194%" x2="79.438108%" y1="112.649629%" y2="0%"><stop offset="0" stop-color="#fde869"/><stop offset="1" stop-color="#0eb4bc"/><stop offset="1" stop-color="#00b1c1"/></linearGradient><linearGradient id="h" x1="0%" x2="101.999998%" xlink:href="#a" y1="0%" y2="100.999999%"/><linearGradient id="i" x1="0%" x2="176.353804%" xlink:href="#a" y1="-426.75101%" y2="50%"/><linearGradient id="j" x1="0%" x2="100%" xlink:href="#a" y1="25.951973%" y2="76.201046%"/><g fill="none" fill-rule="evenodd" transform="translate(0 2)"><path d="m125.843488 80.799714v.1936799h3.103214c3.686252 0 6.67455 2.9882978 6.67455 6.6745499 0 3.6862522-2.988298 6.67455-6.67455 6.67455h-8.277487c1.872254 1.182233 3.115797 3.2697421 3.115797 5.6476961 0 3.6862521-2.988298 6.6745501-6.67455 6.6745501h-91.6331999c-3.6862521 0-6.6745499-2.988298-6.6745499-6.6745501s2.9882978-6.6745499 6.6745499-6.6745499h.5582001c-1.8722543-1.182233-3.1157971-3.2697421-3.1157971-5.6476962 0-2.7748275 1.6932684-5.1541711 4.1028976-6.161123h-10.2938255c-3.6862522 0-6.67455-2.9882978-6.67455-6.6745499 0-3.6862522 2.9882978-6.67455 6.67455-6.67455h16.4833102 1.5581637c3.4026943 0 6.1611231-2.7584288 6.1611231-6.161123 0-3.4026943-2.7584288-6.1611231-6.1611231-6.1611231h-2.0805321-.5223684c-3.6862521 0-6.6745499-2.9882978-6.6745499-6.6745499 0-2.3779541 1.2435427-4.4654632 3.1157971-5.6476962h-6.2190104c-3.6862521 0-6.6745499-2.9882978-6.6745499-6.6745499 0-3.6862522 2.9882978-6.67455 6.6745499-6.67455h10.2923824c-3.6862522 0-6.67455-2.9882978-6.67455-6.6745499 0-3.6862522 2.9882978-6.67455 6.67455-6.67455h105.0132972c3.686252 0 6.67455 2.9882978 6.67455 6.67455 0 3.6862521-2.988298 6.6745499-6.67455 6.6745499h-8.233906c3.686252 0 6.67455 2.9882978 6.67455 6.67455 0 3.6862521-2.988298 6.6745499-6.67455 6.6745499h-3.617833v.1185949c-2.687787.5473318-4.710335 2.9243635-4.710335 5.7737867 0 2.8494231 2.022548 5.2264549 4.710335 5.7737867v.1426509h12.880977c3.686252 0 6.67455 2.9882978 6.67455 6.67455 0 3.6862521-2.988298 6.6745499-6.67455 6.6745499h-11.132525c-.49181-.1264377-1.007372-.1936798-1.538639-.1936798h-14.952567c-3.402694 0-6.161123 2.7584287-6.161123 6.161123s2.758429 6.161123 6.161123 6.161123z" fill="url(#b)" opacity=".835389" transform="matrix(.96592583 -.25881905 .25881905 .96592583 17.669012 22.22086)"/><g filter="url(#c)" transform="translate(62)"><path d="m67.4888937 54s-3.6159243-20.6792324-8.4888937-31.5347498c0 0 8.3257974-3.8241261 16.1523458-4.4652502 0 0 4.1678787 22.7021247 4.8476542 34.6013708z" fill="#53770c"/><path d="m82 67.1450112-8.909839 2.8549888-2.1774762-7.363263c-3.9265829-.744251-6.7876903-5.0898382-7.9126848-10.1599695l8.5925436-7.3179789-.4011251-3.3619181c-.6706376-3.0885368 2.2093316-3.3942038 2.6766821-2.0088487l.6517759 1.6981502 1.8341937 4.7690765c3.7241341 2.531292 6.3060886 8.4953631 3.1700198 13.682478z" fill="#ffaf57"/><path d="m74.5923669 73 8.4076331-6.3012425-1.0910608-3.6987575-9.9089392 4.8465895z" fill="#97e3f7"/><path d="m66.5728042 54.9074771s-1.6009834-20.9919961-5.5728042-32.3632603c0 0 9.1786155-2.8135172 17.4919678-2.523201 0 0 1.9649368 23.0669753 1.4089313 34.9789842z" fill="#61a30a"/><path d="m64 27.9987578s3.4035363 14.5605617 3.5269155 21.9873355c0 0 2.9603144.7446027 2.5548134 4.0139067l5.1390962-.1531898s-.5394891-3.4480253 1.7791749-3.9218254c0 0-.9151277-19.930993-1.7536346-23.6121515 0 0-2.2188605-.0246945-2.5206287-3.3128333 0 0-4.7909626.5616958-6.5229862.9739688 0 0 .8294695 3.0633768-2.2027505 4.024789" fill="#8ac133"/><path d="m76.9562269 39.5878451c-.3255654 2.1841764-2.3598253 3.6919788-4.5428314 3.3684592-2.185101-.3256149-3.6935121-2.3585081-3.3696227-4.5435226.3264034-2.1854335 2.3577303-3.693236 4.5432504-3.3688783 2.184682.3235196 3.6930931 2.3580891 3.3692037 4.5439417" fill="#53770c"/><path d="m68.336402 43.6873945-5.665636-4.2795831c-1.7492231-1.3228042.2822895-4.3893048 1.993037-3.0963449l5.665231 4.2808998c1.748008 1.3201709-.2778345 4.3914992-1.992632 3.0950282" fill="#ffc278"/><path d="m70.4913542 43.6767462c-.2221287.3420598-.6598428.4258221-.9783996.1878192l-1.2112043-.9055176c-.3189011-.2376339-.3977654-.7081045-.1752922-1.0494264l.3815792-.5867046c.2221288-.3416909.6619092-.4250841.980466-.1881883l1.2115486.9055177c.3182124.2383718.3953548.7081045.1728816 1.0494264z" fill="#ffd9b0"/><path d="m68.336402 48.6879512-5.665636-4.2809143c-1.7492231-1.3222342.2822895-4.3884309 1.993037-3.0955992l5.665231 4.2809144c1.748008 1.32004-.2778345 4.3906251-1.992632 3.0955991" fill="#ffc278"/><path d="m70.4913542 47.6767953c-.2221287.3424521-.6598428.425851-.9783996.187094l-1.2112043-.9044721c-.3189011-.238019-.3977654-.7085216-.1752922-1.0491286l.3815792-.5871135c.2221288-.3417141.6619092-.425851.980466-.187832l1.2115486.9059482c.3182124.2369119.3953548.7070455.1728816 1.0483905z" fill="#ffd9b0"/><path d="m68.336402 52.6877604-5.665636-4.2805964c-1.7492231-1.3227104.2822895-4.3885548 1.993037-3.0956865l5.665231 4.2801575c1.748008 1.3209549-.2778345 4.3916267-1.992632 3.0961254" fill="#ffc278"/><path d="m70.4913542 52.6772052c-.2221287.3414133-.6598428.4259361-.9783996.1863932l-1.2112043-.904284c-.3189011-.2380666-.3977654-.7079251-.1752922-1.0497075l.3815792-.5868618c.2221288-.3417825.6619092-.425198.980466-.1871315l1.2115486.9053913c.3182124.2376975.3953548.7086633.1728816 1.0497075z" fill="#ffd9b0"/><path d="m68.336402 57.687974-5.665636-4.2793708c-1.7492231-1.3239194.2822895-4.3899535 1.993037-3.0971903l5.665231 4.2798097c1.748008 1.3212864-.2778345 4.3917087-1.992632 3.0967514" fill="#ffc278"/><path d="m70.4913542 56.6767402c-.2221287.3418036-.6598428.4259626-.9783996.1878812l-1.2112043-.9043401c-.3189011-.2391887-.3977654-.7094455-.1752922-1.0505109l.3815792-.5872674c.2221288-.3414346.6619092-.4248553.980466-.1871431l1.2115486.9054475c.3182124.2384505.3953548.7083382.1728816 1.0486654z" fill="#ffd9b0"/><path d="m46.4884787 70s-3.6175843-20.6792936-8.4884787-31.5350591c0 0 8.3241374-3.8225684 16.1523458-4.4649409 0 0 4.1682937 22.7026434 4.8476542 34.6021613z" fill="#53770c"/><path d="m59.7897215 84.552658-8.1430212 1.447342-.7014478-7.7614797c-3.941909-.732534-6.8141838-5.0036564-7.9452525-9.9887623l8.6256611-7.1963114-.4018492-3.3048536c-.6740968-3.0364914 2.2196381-3.3353587 2.6862881-1.9733484l2.4977767 6.3561853c3.7390909 2.4894612 6.3311233 8.3530308 3.1807099 13.4523246z" fill="#ffaf57"/><path d="m46.5710619 70.9066572s-1.5990173-20.9910312-5.5710619-32.361173c0 0 9.1795439-2.815499 17.4937759-2.5243681 0 0 1.964225 23.066778 1.406543 34.9788839z" fill="#61a30a"/><path d="m44 44.0000135s3.4045935 14.559306 3.5283469 21.9864983c0 0 2.9590813.7458584 2.552463 4.0134882l5.1402841-.1531898s-.5417649-3.4488625 1.778906-3.9218254c0 0-.9145966-19.9301559-1.7533696-23.6121515 0 0-2.2185252-.0246945-2.5222121-3.3128333 0 0-4.7906317.5625329-6.5223935.9735503 0 0 .8289513 3.0637953-2.2020248 4.0264632" fill="#8ac133"/><path d="m55.9562709 55.5876443c-.3243932 2.183781-2.3587661 3.6921485-4.5444386 3.3686875-2.1856725-.326813-3.6919634-2.3593382-3.3679893-4.5439572s2.3583469-3.6921485 4.5440194-3.3686875c2.1852534.326394 3.6919634 2.3601762 3.3684085 4.5439572" fill="#53770c"/><path d="m47.3362971 59.6878974-5.6651209-4.28035c-1.7499991-1.3232088.2818791-4.3878744 1.9925933-3.0967035l5.6655259 4.2812277c1.7475691 1.3205756-.2782341 4.3909466-1.9929983 3.0958258" fill="#ffc278"/><path d="m49.4919017 58.6773261c-.2221117.34214-.6615141.4248146-.9800464.1871252l-1.2111113-.9049917c-.3188767-.2380586-.3956688-.7079014-.1749345-1.0493032l.3829274-.5872112c.2224561-.3414018.6601366-.4262909.9783246-.1863869l1.2114557.9042535c.3185323.2376895.3973905.7067941.1752788 1.0496723z" fill="#ffd9b0"/><path d="m47.3362971 63.6883117-5.6651209-4.2810768c-1.7499991-1.3218456.2818791-4.3881586 1.9925933-3.0961555l5.6655259 4.280638c1.7475691 1.3200901-.2782341 4.3907917-1.9929983 3.0965943" fill="#ffc278"/><path d="m49.4919017 63.6767221c-.2221117.3420853-.6615141.4258538-.9800464.1878333l-1.2111113-.9055851c-.3188767-.2380205-.3956688-.7074192-.1749345-1.0491355l.3829274-.5871173c.2224561-.3409782.6601366-.4258538.9783246-.1867262l1.2114557.9055851c.3185323.2369135.3973905.7066811.1752788 1.0480284z" fill="#ffd9b0"/><path d="m47.3362971 68.6880791-5.6651209-4.2799454c-1.7499991-1.3232194.2818791-4.3887873 1.9925933-3.0971672l5.6655259 4.281262c1.7475691 1.3201472-.2782341 4.3905428-1.9929983 3.0958506" fill="#ffc278"/><path d="m49.4919017 67.678005c-.2221117.341762-.6615141.4236963-.9800464.1867511l-1.2111113-.904968c-.3188767-.2384214-.3956688-.7078828-.1749345-1.0496448l.3829274-.5871958c.2224561-.3413929.6601366-.4259107.9783246-.1871202l1.2114557.9045989c.3185323.2387905.3973905.708621.1752788 1.0492758z" fill="#ffd9b0"/><path d="m47.3362971 72.6879218-5.6651209-4.2791231c-1.7499991-1.3241143.2818791-4.389722 1.9925933-3.0976462l5.6655259 4.2808786c1.7475691 1.3201644-.2782341 4.3910387-1.9929983 3.0958907" fill="#ffc278"/><path d="m49.4919017 72.6782688c-.2221117.3406163-.6615141.4240175-.9800464.186361l-1.2111113-.9052349c-.3188767-.2383945-.3956688-.7081719-.1749345-1.0495263l.3829274-.5871295c.2224561-.3413544.6601366-.4258626.9783246-.186361l1.2114557.9048658c.3185323.2380255.3973905.7070649.1752788 1.0487883z" fill="#ffd9b0"/><path d="m71 69.5880668s4.4199074 19.0369076 22.4186644 25.2799287c2.5466407-1.2161097 4.1873474-2.2650081 4.9221199-3.1466952.8823674-1.0587928 1.6673707-2.9206143 2.3550097-5.5854643 0 0-12.5020919-6.4157-17.4998131-22.135836z" fill="url(#d)"/><path d="m76 74c0 .5515497-.4488376 1-1.0001582 1-.5529021 0-.9998418-.4484503-.9998418-1 0-.5521822.4469397-1 .9998418-1 .5513206 0 1.0001582.4478178 1.0001582 1" fill="#bfe0e2"/><path d="m33.5113535 36s3.6176558-20.6802298 8.4886465-31.53521207c0 0-8.3243019-3.82284872-16.152665-4.46478793 0 0-4.1683761 22.7014542-4.847335 34.6005643z" fill="#53770c"/><path d="m19 49.1437716 8.9088563 2.8562284 2.1772361-7.3632159c3.9261498-.7450848 6.7873608-5.0893864 7.9139076-10.1594852l-8.5911768-7.3187708.4002426-3.3627351c.6709827-3.0889364-2.2111834-3.392505-2.6759678-2.0071587l-2.4882099 6.4663467c-3.7233043 2.5316951-6.3053932 8.4957281-3.1671557 13.6823906z" fill="#ffaf57"/><path d="m26.4078924 55-8.4078924-6.3010226 1.0911828-3.6989774 9.9088172 4.8457703z" fill="#97e3f7"/><path d="m34.4288469 36.9070665s1.5994548-20.992274 5.5711531-32.3630548c0 0-9.1796942-2.81473292-17.4932398-2.52277377 0 0-1.9650797 23.06723997-1.4069773 34.97876207z" fill="#61a30a"/><path d="m35 10.9995274s-3.4048835 14.5603651-3.5266689 21.9866201c0 0-2.961349.7450112-2.5539573 4.0138525l-5.1401287-.1540248s.5413557-3.4475603-1.7792451-3.9217725c0 0 .9145689-19.9294683 1.7537095-23.61183265 0 0 2.2204224-.0238571 2.5197788-3.31237005 0 0 4.7908797.56210677 6.5218035.97311857 0 0-.826962 3.06333543 2.2047082 4.02640883" fill="#8ac133"/><path d="m25.0438331 22.5875904c.3235546 2.1853164 2.3583443 3.6921999 4.5440143 3.3686977 2.1860891-.3251785 3.6919592-2.3592198 3.3684046-4.5445363-.3243929-2.1840592-2.3587634-3.6921999-4.5440143-3.3678596-2.18567.3251784-3.6923783 2.3588008-3.3684046 4.5436982" fill="#53770c"/><path d="m32.6635332 26.6878182 5.6655375-4.280205c1.7495976-1.3237386-.2822846-4.3890536-1.9930024-3.0960384l-5.6655374 4.2793272c-1.7471677 1.3224219.2782346 4.3921259 1.9930023 3.0969162" fill="#ffc278"/><path d="m30.5080927 25.6773893c.2224476.3417311.661489.4251341.9800093.1867343l1.2114099-.9048863c.3185203-.2380308.3953095-.7078188.1749279-1.0495499l-.3836017-.5871427c-.2221033-.340624-.6597673-.4258722-.9779432-.1863652l-1.21141.9048862c-.3188646.2380308-.3973755.7070807-.1749278 1.0484428z" fill="#ffd9b0"/><path d="m32.6635332 30.6878177 5.6655375-4.2801838c1.7495976-1.3228542-.2822846-4.3885929-1.9930024-3.0964619l-5.6655374 4.2801838c-1.7471677 1.3219763.2782346 4.3916652 1.9930023 3.0964619" fill="#ffc278"/><path d="m30.5080927 30.6776317c.2224476.3413829.661489.4247911.9800093.1867457l1.2114099-.9053107c.3185203-.2387836.3953095-.7082313.1749279-1.0499833l-.3836017-.5871787c-.2221033-.3402758-.6597673-.4244221-.9779432-.1867457l-1.21141.9049416c-.3188646.2384145-.3973755.7086003-.1749278 1.0496142z" fill="#ffd9b0"/><path d="m32.6635332 35.6878146 5.6655375-4.2802547c1.7495976-1.3224372-.2822846-4.3891046-1.9930024-3.0960744l-5.6655374 4.2793769c-1.7471677 1.3224372.2782346 4.3921769 1.9930023 3.0969522" fill="#ffc278"/><path d="m30.5080927 34.6777288c.2224476.341371.661489.4247763.9800093.1863701l1.2114099-.9049099c.3185203-.2384061.3953095-.7078374.1749279-1.0495774l-.3836017-.5875272c-.2221033-.3410019-.6597673-.4247762-.9779432-.186001l-1.21141.9052789c-.3188646.2380371-.3973755.7078374-.1749278 1.0492084z" fill="#ffd9b0"/><path d="m32.6635332 39.6882919 5.6655375-4.2804718c1.7495976-1.3228076-.2822846-4.389316-1.9930024-3.0963528l-5.6655374 4.2800329c-1.7471677 1.3201742.2782346 4.3910715 1.9930023 3.0967917" fill="#ffc278"/><path d="m30.5080927 38.6775056c.2224476.3410037.661489.4255166.9800093.1863711l1.2114099-.9052838c.3185203-.2380384.3953095-.706734.1749279-1.0484759l-.3836017-.5878993c-.2221033-.3402657-.6597673-.4251475-.9779432-.1867402l-1.21141.9049148c-.3188646.2380383-.3973755.7078411-.1749278 1.049583z" fill="#ffd9b0"/><path d="m30 51.5887494s-4.3884146 19.3153002-22.38753725 25.5585767c-1.61011757-.4690431-2.70834365-.8523785-3.29467824-1.150006-1.38842554-.7047745-2.21026494-1.6035338-2.71947357-2.2625042-.51285726-.663692-1.12014764-1.6937577-1.34313887-3.1702759-.08415676-.5572371-.08415676-1.5366816 0-2.9383336.5541001 0 12.55237823-5.906051 17.54944143-21.6262064z" fill="url(#e)"/><path d="m25 56.0004748c0 .552619.4469397.9995252.9998418.9995252.5516369 0 1.0001582-.4469062 1.0001582-.9995252 0-.5529356-.4485213-1.0004748-1.0001582-1.0004748-.5529021 0-.9998418.4475392-.9998418 1.0004748" fill="#bfe0e2"/><path d="m50 84h11v-4h-11z" fill="url(#f)"/><path d="m49 107.758267c3.3193424 1.078729 5.7687571 1.583088 7.3482441 1.513077 1.5794869-.070012 3.7967389-.574371 6.6517559-1.513077v-25.758267h-14z" fill="url(#g)"/><path d="m52 86c-.5514078 0-1-.4478887-1-1.0001582 0-.5513205.4485922-.9998418 1-.9998418s1 .4485213 1 .9998418c0 .5522695-.4485922 1.0001582-1 1.0001582z" fill="url(#h)"/></g><g transform="matrix(-1 0 0 1 217 7)"><g fill="url(#b)"><ellipse cx="214.12221" cy="62.12161" opacity=".16243" rx="2.12221" ry="2.12161"/><ellipse cx="155.250677" cy="12.299464" opacity=".170184" rx="1.061105" ry="1.060805"/><ellipse cx="167.983937" cy="20.785903" opacity=".301364" rx="2.12221" ry="2.12161"/><ellipse cx="23.12221" cy="2.12161" opacity=".184002" rx="2.12221" ry="2.12161"/><ellipse cx="38.061105" cy="16.060805" opacity=".149778" rx="1.061105" ry="1.060805"/></g><g opacity=".364272" stroke-linecap="round" stroke-width="2.8" transform="matrix(-.5 -.8660254 .8660254 -.5 18.777743 25.062178)"><path d="m.67949192 3.59194033h5.7598936" stroke="url(#b)"/><path d="m.69872981 1.11710587h5.75989359" stroke="url(#i)" transform="matrix(0 1 -1 0 4.675009 .01089)"/></g><g opacity=".364272" stroke-linecap="round" stroke-width="2.8" transform="matrix(-.5 -.8660254 .8660254 -.5 200.408827 97.062178)"><path d="m.67949192 3.59194033h5.7598936" stroke="url(#b)"/><path d="m.69872981 1.11710587h5.75989359" stroke="url(#i)" transform="matrix(0 1 -1 0 4.675009 .01089)"/></g><g opacity=".364272" stroke-linecap="round" stroke-width="2.8" transform="matrix(-.5 -.8660254 .8660254 -.5 24.138871 64.062178)"><path d="m.67949192 3.59194033h5.7598936" stroke="url(#b)"/><path d="m.69872981 1.11710587h5.75989359" stroke="url(#i)" transform="matrix(0 1 -1 0 4.675009 .01089)"/></g><g opacity=".364272" stroke-linecap="round" stroke-width="2.8" transform="matrix(-.5 -.8660254 .8660254 -.5 189.889451 74.062178)"><path d="m.67949192 3.59194033h5.7598936" stroke="url(#b)"/><path d="m.69872981 1.11710587h5.75989359" stroke="url(#i)" transform="matrix(0 1 -1 0 4.675009 .01089)"/></g><ellipse cx="181.122776" cy="106.12161" fill="url(#j)" opacity=".223822" rx="4.122776" ry="4.12161"/><ellipse cx="34.122776" cy="33.12161" fill="url(#b)" opacity=".223822" rx="4.122776" ry="4.12161"/><ellipse cx="112.806477" cy="110.423908" fill="url(#b)" opacity=".135378" rx="1.061105" ry="1.060805"/><ellipse cx="36.12221" cy="78.12161" fill="url(#b)" opacity=".184002" rx="2.12221" ry="2.12161"/><ellipse cx="1.873437" cy="54.886948" fill="url(#b)" opacity=".149778" rx="1.061105" ry="1.060805"/></g></g></svg>