<svg width="18" height="11" viewBox="0 0 18 11" fill="none" xmlns="http://www.w3.org/2000/svg">
<path d="M0.679245 1.26327H17.3208C17.6957 1.26327 18 0.980297 18 0.631635C18 0.282972 17.6957 0 17.3208 0H0.679245C0.304302 0 0 0.282972 0 0.631635C0 0.980297 0.304302 1.26327 0.679245 1.26327Z" transform="translate(0 0.0560913)" fill="#323B45"/>
<path d="M0.679245 1.26327H17.3208C17.6957 1.26327 18 0.980297 18 0.631635C18 0.282972 17.6957 0 17.3208 0H0.679245C0.304302 0 0 0.282972 0 0.631635C0 0.980297 0.304302 1.26327 0.679245 1.26327Z" transform="translate(0 4.79327)" fill="#323B45"/>
<path d="M0.679245 1.26327H17.3208C17.6957 1.26327 18 0.980297 18 0.631634C18 0.282972 17.6957 0 17.3208 0H0.679245C0.304302 0 0 0.282972 0 0.631634C0 0.980297 0.304302 1.26327 0.679245 1.26327Z" transform="translate(0 9.5307)" fill="#323B45"/>
</svg>
