<svg enable-background="new 0 0 511.999 511.999" viewBox="0 0 511.999 511.999" xmlns="http://www.w3.org/2000/svg"><path d="m372.29 50.758h-343.459c-15.898 0-28.831 12.933-28.831 28.83v206.056c0 15.897 12.933 28.831 28.831 28.831h22.271v76.71c0 4.884 2.942 9.289 7.456 11.159 1.494.62 3.064.92 4.62.92 3.144 0 6.232-1.228 8.543-3.538l85.251-85.25h17.104c6.671 0 12.078-5.407 12.078-12.078 0-6.672-5.409-12.079-12.078-12.079 0 0-22.69.016-22.927.04-2.812.191-5.572 1.349-7.722 3.498l-68.169 68.169s-.021-60.392-.06-60.705c-.545-6.166-5.717-11.002-12.024-11.002h-34.343c-2.578 0-4.674-2.097-4.674-4.674v-206.057c0-2.578 2.097-4.674 4.674-4.674h343.459c2.578 0 4.674 2.097 4.674 4.674v79.055c0 6.671 5.409 12.078 12.078 12.078s12.078-5.407 12.078-12.078v-79.055c0-15.897-12.933-28.83-28.83-28.83z"/><path d="m483.169 198.492h-240.415c-15.897 0-28.831 12.933-28.831 28.831v140.57c0 15.897 12.933 28.831 28.831 28.831h150.514l60.98 60.98c2.311 2.311 5.4 3.538 8.543 3.538 1.556 0 3.126-.301 4.62-.92 4.512-1.87 7.456-6.273 7.456-11.159v-52.44h8.301c15.897 0 28.831-12.933 28.831-28.831v-140.57c.001-15.897-12.932-28.83-28.83-28.83zm4.675 169.401c0 2.577-2.097 4.674-4.674 4.674h-20.376c-6.356 0-11.554 4.912-12.031 11.147-.031.264-.051 36.29-.051 36.29l-43.854-43.855c-.046-.046-.094-.089-.14-.135-.172-.168-.335-.314-.489-.445-2.126-1.864-4.903-3.003-7.951-3.003h-155.524c-2.578 0-4.674-2.097-4.674-4.674v-140.57c0-2.578 2.097-4.674 4.674-4.674h240.416c2.577 0 4.674 2.097 4.674 4.674z"/><path d="m362.964 285.53c-6.667 0-12.078 5.411-12.078 12.078s5.411 12.078 12.078 12.078c6.668 0 12.078-5.411 12.078-12.078s-5.411-12.078-12.078-12.078z"/><path d="m310.472 130.611h-219.822c-6.67 0-12.078 5.407-12.078 12.078s5.409 12.078 12.078 12.078h219.822c6.67 0 12.078-5.407 12.078-12.078s-5.408-12.078-12.078-12.078z"/><path d="m174.075 210.465h-83.425c-6.67 0-12.078 5.407-12.078 12.078s5.409 12.078 12.078 12.078h83.425c6.671 0 12.078-5.407 12.078-12.078s-5.408-12.078-12.078-12.078z"/><path d="m306.837 285.53c-6.666 0-12.078 5.411-12.078 12.078s5.412 12.078 12.078 12.078c6.668 0 12.078-5.411 12.078-12.078s-5.41-12.078-12.078-12.078z"/><path d="m419.079 285.53c-6.667 0-12.078 5.411-12.078 12.078s5.411 12.078 12.078 12.078c6.668 0 12.078-5.411 12.078-12.078s-5.411-12.078-12.078-12.078z"/></svg>