<svg height="36" viewBox="0 0 51 36" width="51" xmlns="http://www.w3.org/2000/svg" xmlns:xlink="http://www.w3.org/1999/xlink"><defs><linearGradient id="a"><stop offset="0" stop-color="#b4ec51"/><stop offset="1" stop-color="#429321"/></linearGradient><linearGradient id="b" x1="9.127921%" x2="79.72078%" xlink:href="#a" y1="18.591015%" y2="97.743813%"/><path id="c" d="m24.8426541 30.1068483c2.0884657 0 5.4399527-.1134568 7.3579053-.4489538.6269717-.1096727 2.2365416.9370001 3.7836242 1.8993121 1.2901408.8024897 2.4284361 1.6280763 2.9137441 1.4878557.3541225-.1023171-.4522461-1.4201992-1.1047241-2.7530576-.5545374-1.132789-1.0008188-2.14094-.8367811-2.2094157 6.3467518-2.6493823 12.1208784-6.9762821 12.1208784-12.0291649 0-7.7614918-11.8647692-14.0534241-24.2346468-14.0534241-12.3698777 0-22.39764476 6.2919323-22.39764476 14.0534241 0 7.7614919 10.02776706 14.0534242 22.39764476 14.0534242z"/><filter id="d" height="109.7%" width="106.4%" x="-3.2%" y="-4.8%"><feOffset dx="0" dy="0" in="SourceAlpha" result="shadowOffsetOuter1"/><feGaussianBlur in="shadowOffsetOuter1" result="shadowBlurOuter1" stdDeviation=".5"/><feColorMatrix in="shadowBlurOuter1" type="matrix" values="0 0 0 0 0   0 0 0 0 0   0 0 0 0 0  0 0 0 0.5 0"/></filter><linearGradient id="e" x1="50%" x2="50%" xlink:href="#a" y1="0%" y2="100%"/></defs><g fill="none" fill-rule="evenodd" transform=""><path d="m25.5 32c2.3777445 0 4.6794792-.2041953 6.8630924-.5861628 1.3090788-.22899 7.5535029 4.2113466 8.7686019 3.8602665.9475374-.2737731-3.1140565-5.3161544-2.2334876-5.6580079 7.2630777-2.8196639 12.1017933-7.8633253 12.1017933-13.6160958 0-8.836556-11.4167389-16-25.5-16s-25.5 7.163444-25.5 16 11.4167389 16 25.5 16z" fill="url(#b)"/><use fill="#000" filter="url(#d)" xlink:href="#c"/><use fill="#fff" fill-rule="evenodd" xlink:href="#c"/><path d="m29.0200057 15.6134278 9.8493382-13.55645096c.8322407-1.14548105 2.4355009-1.39941253 3.580982-.56717183 1.145481.8322407 1.3994125 2.43550096.5671718 3.58098201l-15.1645672 20.87223618c-.8322407 1.145481-2.435501 1.3994125-3.580982.5671718-.1707981-.1240921-.3217747-.2653259-.4522847-.419628-.0515611-.0462866-.1015855-.0951446-.1499024-.1465688-.0059995-.0063854-.0119645-.012803-.0178947-.0192527l-9.9735844-10.8472994c-.9483954-1.0314776-.881044-2.6364817.1504336-3.5848771.0064876-.0059651.0130064-.0118964.0195558-.0177936 1.0524004-.9475854 2.6735831-.8631166 3.6218077.1887079l6.9102994 7.6652961c.3585013.3187428.6255169.4781142.801047.4781142.4333134 0 .9504552-.6500777 1.2314379-.9849981.1754143-.2090869 1.0444616-1.2785762 2.607142-3.2084677z" fill="url(#e)" fill-rule="evenodd"/><path d="m28.623188 15.3089497 9.8416474-13.54586548c.9945531-1.36888493 2.9104982-1.67234082 4.2793831-.67778771 1.3688849.99455312 1.6723408 2.91049821.6777877 4.27938314l-15.1645672 20.87223615c-.9945531 1.3688849-2.9104982 1.6723408-4.2793831.6777877-.2011808-.1461664-.382063-.3143355-.4924018-.4520646-.0623542-.0559755-.1224946-.1147623-.1802838-.1762679-.0108264-.0115644-.0108264-.0115644-.0215693-.0232063l-9.9735845-10.8472994c-1.1352992-1.2347546-1.0546746-3.1560629.1800801-4.291362.0116679-.0106908.0116679-.0106908.0234098-.0213003 1.257526-1.13228141 3.194697-1.0313486 4.3277421.2254894l6.8711559 7.6264212c.2703276.2403477.4570246.35178.4688214.35178.0051254 0 .0388949-.0115429.093981-.0447395.1180922-.0711661.2630669-.2014473.4291538-.3827465.0941115-.1027314.0459264-.0459263.3252534-.3788731.1721657-.2052148 1.0399184-1.2730991 2.5933741-3.1915848z" stroke="#fff"/></g></svg>