<svg fill="none" height="16" viewBox="0 0 16 16" width="16" xmlns="http://www.w3.org/2000/svg"><path d="m6.99957 14c-3.85982 0-6.99957-3.1394-6.99957-6.99851 0-3.86079 3.13975-7.00149 6.99957-7.00149 3.86023 0 7.00043 3.1407 7.00043 7.00149-.0004 3.85911-3.1406 6.99851-7.00043 6.99851z" stroke="#5c6979" stroke-width=".5" transform="translate(1 1)"/><path d="m.302621 8.75c-.067849 0-.13691-.02033-.193248-.06152-.1284286-.09415-.1466024-.26265-.0393769-.3766l2.8242139-3.0117v-5.03271c0-.147644.13569-.26747.30289-.26747s.3029.119826.3029.26747v5.129c0 .06205-.02484.1225-.06967.17064l-2.893873 3.0866c-.059973.06366-.146602.09629-.233836.09629z" fill="#323b45" transform="translate(5.375 2.75)"/></svg>