<svg fill="none" height="9" viewBox="0 0 9 9" width="9" xmlns="http://www.w3.org/2000/svg"><g fill="#fa2a00"><path d="m.321429 0c-.17764 0-.321429.0958594-.321429.214286v3.428574c0 .11842.143789.21428.321429.21428.177639 0 .321428-.09586.321428-.21428v-3.428574c0-.1184266-.143789-.214286-.321428-.214286z" transform="translate(4.17859 1.92857)"/><path clip-rule="evenodd" d="m4.8898.237576 4.04993 7.406844c.08044.14698.08044.32816 0 .47515-.08045.14698-.22888.23757-.38965.23757h-8.100098c-.160767 0-.309204-.09059-.3896487-.23757-.0804444-.14699-.0804444-.32817 0-.47515l4.0500467-7.406844c.08032-.1469808.22888-.237576.38965-.237576s.30933.0905952.38977.237576zm-.38977.237428-4.049926 7.406816h8.099856z" fill-rule="evenodd"/><path d="m.321429.642857c.17752 0 .321428-.143908.321428-.321428 0-.177521-.143908-.321429-.321428-.321429-.177521 0-.321429.143908-.321429.321429 0 .17752.143908.321428.321429.321428z" transform="translate(4.17859 6.42857)"/></g></svg>