<svg width="176" height="120" viewBox="0 0 176 120" fill="none" xmlns="http://www.w3.org/2000/svg">
<path d="M140.676 112.566H135.297" stroke="#504B46" stroke-linecap="round"/>
<path d="M0.8125 112.566H129.918" stroke="#504B46" stroke-linecap="round"/>
<path fill-rule="evenodd" clip-rule="evenodd" d="M111.098 116.602C110.778 116.602 110.452 116.572 110.127 116.516L98.206 114.334C97.9558 114.289 97.7111 114.224 97.4717 114.146C89.529 111.502 84.1953 104.1 84.1953 95.7243V88.3599C84.1953 85.3931 86.6107 82.9805 89.5747 82.9805C92.5415 82.9805 94.9541 85.3931 94.9541 88.3599V95.7243C94.9541 99.3581 97.2484 102.629 100.659 103.866L112.058 105.929C113.475 106.19 114.702 106.983 115.52 108.164C116.335 109.348 116.644 110.776 116.386 112.188C115.915 114.749 113.693 116.602 111.098 116.602Z" fill="url(#paint0_linear)"/>
<path fill-rule="evenodd" clip-rule="evenodd" d="M111.098 116.602C110.778 116.602 110.452 116.572 110.127 116.516L98.206 114.334C97.9558 114.289 97.7111 114.224 97.4717 114.146C89.529 111.502 84.1953 104.1 84.1953 95.7243V88.3599C84.1953 85.3931 86.6107 82.9805 89.5747 82.9805C92.5415 82.9805 94.9541 85.3931 94.9541 88.3599V95.7243C94.9541 99.3581 97.2484 102.629 100.659 103.866L112.058 105.929C113.475 106.19 114.702 106.983 115.52 108.164C116.335 109.348 116.644 110.776 116.386 112.188C115.915 114.749 113.693 116.602 111.098 116.602V116.602Z" stroke="#504A45"/>
<path fill-rule="evenodd" clip-rule="evenodd" d="M41.1595 93.7341V112.562H84.1947V93.7341H97.6432V92.3892C97.6432 77.534 85.6014 65.4922 70.7462 65.4922H54.608C39.7527 65.4922 27.7109 77.534 27.7109 92.3892V93.7341H41.1595Z" fill="url(#paint1_linear)"/>
<path fill-rule="evenodd" clip-rule="evenodd" d="M97.6432 92.3892C97.6432 77.534 85.6014 65.4922 70.7462 65.4922H54.608C39.7527 65.4922 27.7109 77.534 27.7109 92.3892V95.0789C27.7109 80.2237 39.7527 76.251 54.608 76.251H70.7462C85.6014 76.251 97.6432 80.2237 97.6432 95.0789V92.3892Z" fill="url(#paint2_linear)"/>
<path fill-rule="evenodd" clip-rule="evenodd" d="M62.6751 81.6304C70.1014 81.6304 76.1236 75.6082 76.1236 68.1819V66.0328C74.3861 65.6805 72.5866 65.4922 70.7442 65.4922H54.606C52.7635 65.4922 50.9641 65.6805 49.2266 66.0328V68.1819C49.2266 75.6082 55.2488 81.6304 62.6751 81.6304Z" fill="#FFE086"/>
<path d="M76.1236 66.8398V68.1847C76.1236 75.611 70.1014 81.6332 62.6751 81.6332C55.2488 81.6332 49.2266 75.611 49.2266 68.1847V66.8398" stroke="#504B46" stroke-linecap="round" stroke-linejoin="round"/>
<path d="M84.1953 87.0089V85.6641" stroke="#504B46" stroke-linecap="round" stroke-linejoin="round"/>
<path d="M41.1562 91.043V112.561H84.1915V91.043" stroke="#504B46" stroke-linecap="round" stroke-linejoin="round"/>
<path d="M84.1947 93.7341V93.7341H97.6432V92.3892C97.6432 77.534 85.6014 65.4922 70.7462 65.4922H54.608C39.7527 65.4922 27.7109 77.534 27.7109 92.3892V93.7341H41.1595" stroke="#504B46" stroke-linecap="round" stroke-linejoin="round"/>
<path d="M41.1562 96.4241V93.7344" stroke="#504B46" stroke-linecap="round" stroke-linejoin="round"/>
<path fill-rule="evenodd" clip-rule="evenodd" d="M70.7437 67.9006C70.7437 70.5984 69.3962 73.1186 67.1502 74.6141C64.439 76.4216 60.9101 76.4216 58.1989 74.6141C55.953 73.1186 54.6055 70.5984 54.6055 67.9006V56.082H70.7437V67.9006Z" fill="#FFD4C3"/>
<path fill-rule="evenodd" clip-rule="evenodd" d="M70.7437 67.9006C70.7437 70.5984 69.3962 73.1186 67.1502 74.6141C64.439 76.4216 60.9101 76.4216 58.1989 74.6141C55.953 73.1186 54.6055 70.5984 54.6055 67.9006V56.082H70.7437V67.9006V67.9006Z" stroke="#504B46" stroke-linecap="round" stroke-linejoin="round"/>
<path fill-rule="evenodd" clip-rule="evenodd" d="M70.7437 67.9006C70.7437 70.5984 69.3962 73.1186 67.1502 74.6141C64.439 76.4216 60.9101 76.4216 58.1989 74.6141C55.953 73.1186 54.6055 70.5984 54.6055 67.9006V56.082H70.7437V67.9006V67.9006Z" stroke="#504B46" stroke-linecap="round" stroke-linejoin="round"/>
<path d="M41.1562 87.0089V85.6641" stroke="#504B46" stroke-linecap="round" stroke-linejoin="round"/>
<path fill-rule="evenodd" clip-rule="evenodd" d="M30.3984 112.562H41.1573V93.7344H30.3984V112.562Z" fill="url(#paint3_linear)"/>
<path fill-rule="evenodd" clip-rule="evenodd" d="M30.3984 112.562H41.1573V93.7344H30.3984V112.562Z" stroke="#504B46" stroke-linecap="round" stroke-linejoin="round"/>
<path fill-rule="evenodd" clip-rule="evenodd" d="M121.849 116.6C121.849 118.085 120.644 119.29 119.159 119.29H108.401C106.916 119.29 105.711 118.085 105.711 116.6V92.3928C105.711 90.9081 106.916 89.7031 108.401 89.7031H119.159C120.644 89.7031 121.849 90.9081 121.849 92.3928V116.6Z" fill="#E3ECF0"/>
<path fill-rule="evenodd" clip-rule="evenodd" d="M121.849 116.6C121.849 118.085 120.644 119.29 119.159 119.29H108.401C106.916 119.29 105.711 118.085 105.711 116.6V92.3928C105.711 90.9081 106.916 89.7031 108.401 89.7031H119.159C120.644 89.7031 121.849 90.9081 121.849 92.3928V116.6V116.6Z" stroke="#504B46" stroke-linecap="round" stroke-linejoin="round"/>
<path fill-rule="evenodd" clip-rule="evenodd" d="M112.436 95.0792C112.436 95.8216 111.833 96.4241 111.091 96.4241C110.349 96.4241 109.746 95.8216 109.746 95.0792C109.746 94.3369 110.349 93.7344 111.091 93.7344C111.833 93.7344 112.436 94.3369 112.436 95.0792Z" fill="#504B46"/>
<path fill-rule="evenodd" clip-rule="evenodd" d="M124.33 115.255H116.201C112.635 115.255 109.746 112.364 109.746 108.8V105.572C109.746 102.009 112.635 99.1172 116.201 99.1172H124.33C126.401 104.298 126.401 110.075 124.33 115.255Z" fill="#FFD4C3"/>
<path fill-rule="evenodd" clip-rule="evenodd" d="M124.999 113.324C124.663 114.467 123.612 115.255 122.42 115.255H116.201C112.638 115.255 109.746 112.364 109.746 108.8V105.572C109.746 102.006 112.638 99.1172 116.201 99.1172H122.42C123.614 99.1172 124.663 99.9026 124.999 101.046C126.18 105.053 126.18 109.317 124.999 113.324V113.324Z" stroke="#504B46" stroke-linecap="round" stroke-linejoin="round"/>
<g filter="url(#filter0_dd)">
<path fill-rule="evenodd" clip-rule="evenodd" d="M171.608 58.1731C171.608 61.6106 168.821 64.3971 165.384 64.3971H144.404L127.284 79.9597L127.287 64.3971H113.279C109.841 64.3971 107.055 61.6106 107.055 58.1731V17.9271C107.055 14.4897 109.841 11.7031 113.279 11.7031H165.384C168.821 11.7031 171.608 14.4897 171.608 17.9271V58.1731Z" fill="white"/>
</g>
<path fill-rule="evenodd" clip-rule="evenodd" d="M140.194 55.9816C140.194 55.9816 158.411 47.6839 158.411 34.343C158.411 20.9967 142.249 19.9692 140.194 33.3155C138.139 19.9665 121.977 20.994 121.977 35.3677C121.977 49.7388 140.194 55.9816 140.194 55.9816Z" fill="url(#paint4_linear)"/>
<path fill-rule="evenodd" clip-rule="evenodd" d="M140.194 55.9816C140.194 55.9816 158.411 47.6839 158.411 34.343C158.411 20.9967 142.249 19.9692 140.194 33.3155C138.139 19.9665 121.977 20.994 121.977 35.3677C121.977 49.7388 140.194 55.9816 140.194 55.9816V55.9816Z" stroke="#504B46" stroke-linejoin="round"/>
<path fill-rule="evenodd" clip-rule="evenodd" d="M88.2294 34.5622C88.2294 32.0581 86.5107 29.9736 84.1948 29.3738V27.8379C84.1948 15.9548 74.5603 6.32031 62.6772 6.32031C50.7941 6.32031 41.1596 15.9548 41.1596 27.8379V29.3738C38.8437 29.9736 37.125 32.0581 37.125 34.5622C37.125 37.0878 38.8706 39.1912 41.2187 39.7695C41.832 51.1039 51.1895 60.1144 62.6772 60.1144C74.1649 60.1144 83.5224 51.1039 84.1356 39.7695C86.4838 39.1912 88.2294 37.0878 88.2294 34.5622Z" fill="url(#paint5_linear)"/>
<path fill-rule="evenodd" clip-rule="evenodd" d="M88.2294 34.5622C88.2294 32.0581 86.5106 29.9736 84.1948 29.3738V27.8379C84.1948 15.9548 74.5603 6.32031 62.6772 6.32031C50.7941 6.32031 41.1596 15.9548 41.1596 27.8379V29.3738C38.8437 29.9736 37.125 32.0581 37.125 34.5622C37.125 37.0878 38.8706 39.1912 41.2187 39.7695C41.832 51.1039 51.1895 60.1144 62.6772 60.1144C74.1649 60.1144 83.5224 51.1039 84.1356 39.7695C86.4838 39.1912 88.2294 37.0878 88.2294 34.5622V34.5622Z" stroke="#504B46" stroke-linecap="round" stroke-linejoin="round"/>
<path fill-rule="evenodd" clip-rule="evenodd" d="M75.7194 14.9763V18.6074C75.7194 21.6145 78.4952 24.054 81.5023 24.054V29.5007C81.5023 31.5072 83.1269 33.1318 85.1334 33.1318H89.5714V17.2814C89.5714 11.2645 85.2894 5.89853 79.2725 5.89853V6.31006C79.2725 3.346 76.8706 0.941406 73.9039 0.941406H49.1667C44.7798 0.941406 41.224 4.49719 41.224 8.8841V10.0192C38.2169 10.0192 35.7773 12.4587 35.7773 15.4658V33.1318H41.224C43.2305 33.1318 45.1913 31.5072 45.1913 29.5007V24.054C56.0846 27.6851 75.7194 22.2385 75.7194 14.9763Z" fill="url(#paint6_linear)"/>
<path fill-rule="evenodd" clip-rule="evenodd" d="M76.1229 14.3899C75.8647 17.0796 74.423 24.054 81.5023 24.054V29.5007C81.5023 31.5072 83.1269 33.1318 85.1334 33.1318H89.5714V17.0796C89.5714 11.0628 85.2894 5.89853 79.2725 5.89853C79.2725 8.58823 80.0445 0.941406 73.9039 0.941406H49.1667C45.2693 0.941406 41.224 3.49662 41.224 10.3554C38.2169 10.3554 35.7773 12.4587 35.7773 15.4658V33.1318H41.224C43.2305 33.1318 45.1913 31.5072 45.1913 29.5007V24.054C56.0846 27.6851 76.1229 21.6521 76.1229 14.3899V14.3899Z" stroke="#504B46" stroke-linejoin="round"/>
<path d="M58.6433 35.9124C57.8122 34.3335 56.3544 33.2227 54.6088 33.2227C52.8632 33.2227 51.4053 34.3335 50.5742 35.9124" stroke="#504B46" stroke-linecap="round" stroke-linejoin="round"/>
<path d="M74.78 35.9124C73.9489 34.3335 72.4911 33.2227 70.7455 33.2227C68.9999 33.2227 67.5421 34.3335 66.7109 35.9124" stroke="#504B46" stroke-linecap="round" stroke-linejoin="round"/>
<path d="M54.4062 48.0156C56.0658 49.5945 58.9868 50.7053 62.4754 50.7053C65.9639 50.7053 68.8849 49.5945 70.5445 48.0156" stroke="#504B46" stroke-linecap="round" stroke-linejoin="round"/>
<path fill-rule="evenodd" clip-rule="evenodd" d="M51.9185 43.9827C51.9185 45.4674 50.7135 46.6724 49.2288 46.6724C47.744 46.6724 46.5391 45.4674 46.5391 43.9827C46.5391 42.498 47.744 41.293 49.2288 41.293C50.7135 41.293 51.9185 42.498 51.9185 43.9827Z" fill="#FCCAB4"/>
<path fill-rule="evenodd" clip-rule="evenodd" d="M78.813 43.9827C78.813 45.4674 77.608 46.6724 76.1233 46.6724C74.6386 46.6724 73.4336 45.4674 73.4336 43.9827C73.4336 42.498 74.6386 41.293 76.1233 41.293C77.608 41.293 78.813 42.498 78.813 43.9827Z" fill="#FCCAB4"/>
<path fill-rule="evenodd" clip-rule="evenodd" d="M76.1229 14.3899C75.8647 17.0796 74.423 24.054 81.5023 24.054V29.5007C81.5023 31.5072 83.1269 33.1318 85.1334 33.1318H89.5714V17.0796C89.5714 11.0628 85.2894 5.89853 79.2725 5.89853C79.2725 8.58823 80.0445 0.941406 73.9039 0.941406H49.1667C45.2693 0.941406 41.224 3.49662 41.224 10.3554C38.2169 10.3554 35.7773 12.4587 35.7773 15.4658V33.1318H41.224C43.2305 33.1318 45.1913 31.5072 45.1913 29.5007V24.054C56.0846 27.6851 76.1229 21.6521 76.1229 14.3899V14.3899Z" stroke="#504B46" stroke-linejoin="round"/>
<defs>
<filter id="filter0_dd" x="103.055" y="7.70312" width="72.5529" height="80.2566" filterUnits="userSpaceOnUse" color-interpolation-filters="sRGB">
<feFlood flood-opacity="0" result="BackgroundImageFix"/>
<feColorMatrix in="SourceAlpha" type="matrix" values="0 0 0 0 0 0 0 0 0 0 0 0 0 0 0 0 0 0 127 0"/>
<feOffset dy="4"/>
<feGaussianBlur stdDeviation="2"/>
<feColorMatrix type="matrix" values="0 0 0 0 0.658824 0 0 0 0 0.713726 0 0 0 0 0.784314 0 0 0 0.4 0"/>
<feBlend mode="normal" in2="BackgroundImageFix" result="effect1_dropShadow"/>
<feColorMatrix in="SourceAlpha" type="matrix" values="0 0 0 0 0 0 0 0 0 0 0 0 0 0 0 0 0 0 127 0"/>
<feOffset/>
<feGaussianBlur stdDeviation="2"/>
<feColorMatrix type="matrix" values="0 0 0 0 0.360784 0 0 0 0 0.411765 0 0 0 0 0.47451 0 0 0 0.4 0"/>
<feBlend mode="normal" in2="effect1_dropShadow" result="effect2_dropShadow"/>
<feBlend mode="normal" in="SourceGraphic" in2="effect2_dropShadow" result="shape"/>
</filter>
<linearGradient id="paint0_linear" x1="100.335" y1="82.9805" x2="100.335" y2="116.602" gradientUnits="userSpaceOnUse">
<stop stop-color="#FFD4C3"/>
<stop offset="1" stop-color="#FFE5DB"/>
</linearGradient>
<linearGradient id="paint1_linear" x1="62.6771" y1="65.4922" x2="62.6771" y2="112.562" gradientUnits="userSpaceOnUse">
<stop stop-color="#99D56A"/>
<stop offset="1" stop-color="#69D118"/>
</linearGradient>
<linearGradient id="paint2_linear" x1="62.6771" y1="65.4922" x2="62.7311" y2="79.9097" gradientUnits="userSpaceOnUse">
<stop stop-color="#B3E090"/>
<stop offset="1" stop-color="#B3E090" stop-opacity="0"/>
</linearGradient>
<linearGradient id="paint3_linear" x1="35.7778" y1="93.7344" x2="35.7778" y2="112.562" gradientUnits="userSpaceOnUse">
<stop stop-color="#FFD4C3"/>
<stop offset="1" stop-color="#FFE5DA"/>
</linearGradient>
<linearGradient id="paint4_linear" x1="140.194" y1="23.8047" x2="140.194" y2="55.9816" gradientUnits="userSpaceOnUse">
<stop stop-color="#E05C4A"/>
<stop offset="1" stop-color="#FF2103"/>
</linearGradient>
<linearGradient id="paint5_linear" x1="62.6772" y1="6.32031" x2="62.6772" y2="60.1144" gradientUnits="userSpaceOnUse">
<stop stop-color="#FFD4C3"/>
<stop offset="1" stop-color="#FEE8DF"/>
</linearGradient>
<linearGradient id="paint6_linear" x1="62.6744" y1="0.941406" x2="62.6744" y2="33.1318" gradientUnits="userSpaceOnUse">
<stop stop-color="#F7E2BF"/>
<stop offset="1" stop-color="#FFD183"/>
</linearGradient>
</defs>
</svg>
