<svg width="24" height="25" viewBox="0 0 24 25" fill="none" xmlns="http://www.w3.org/2000/svg">
<path fill-rule="evenodd" clip-rule="evenodd" d="M23 12C23 18.0751 18.0752 23 12 23C5.9248 23 1 18.0751 1 12C1 5.92487 5.9248 1 12 1C18.0752 1 23 5.92487 23 12ZM24 12C24 18.6274 18.6274 24 12 24C5.37256 24 0 18.6274 0 12C0 5.37259 5.37256 0 12 0C18.6274 0 24 5.37259 24 12ZM16.7915 6L18 7.20856L13.2085 12L18 16.7914L16.7915 18L12 13.2086L7.2085 18L6 16.7914L10.7915 12L6 7.20856L7.2085 6L12 10.7914L16.7915 6Z" transform="translate(0 0.346924)" fill="white"/>
</svg>
