<svg fill="none" height="7" viewBox="0 0 12 7" width="12" xmlns="http://www.w3.org/2000/svg"><path clip-rule="evenodd" d="m5.99994 0c-2.29273 0-4.37183 1.22754-5.9060069 3.22131-.1252441.16333-.1252441.39161 0 .55494 1.5341769 1.99621 3.6132769 3.22375 5.9060069 3.22375 2.29272 0 4.37186-1.22754 5.90596-3.22131.1253-.16333.1253-.39161 0-.55494-1.5341-1.99621-3.61324-3.22375-5.90596-3.22375zm.16455 5.9646c-1.52197.09375-2.77881-1.13379-2.68311-2.62561.07862-1.22986 1.09717-2.22681 2.35401-2.30371 1.52197-.09363 2.77881 1.13391 2.6831 2.62561-.08105 1.22754-1.09961 2.22449-2.354 2.30371zm-1.51978-2.55115c-.05395.80237.62354 1.46301 1.44336 1.41248.67505-.04077 1.2251-.57654 1.26929-1.24195.05396-.80224-.62353-1.46289-1.44336-1.41247-.67749.04321-1.22754.57898-1.26929 1.24194z" fill="#5c6979" fill-rule="evenodd"/></svg>