<svg width="14" height="12" viewBox="0 0 14 12" fill="none" xmlns="http://www.w3.org/2000/svg">
<path fill-rule="evenodd" clip-rule="evenodd" d="M14 3.62578C14 4.76724 13.4037 5.92934 12.2109 7.11211L7.34375 11.7605C7.25 11.8535 7.13542 11.9 7 11.9C6.86458 11.9 6.75 11.8535 6.65625 11.7605L1.78125 7.09662C1.72917 7.0553 1.65755 6.98815 1.56641 6.89518C1.47526 6.80221 1.33073 6.63306 1.13281 6.38773C0.934895 6.14239 0.757813 5.89061 0.601562 5.63236C0.445312 5.37411 0.30599 5.06163 0.183594 4.69492C0.0611973 4.32821 0 3.97183 0 3.62578C0 2.48949 0.330726 1.60113 0.992187 0.960677C1.65365 0.320223 2.5677 0 3.73437 0C4.05729 0 4.38672 0.0555225 4.72266 0.166569C5.0586 0.277616 5.37109 0.427397 5.66016 0.615918C5.94922 0.804439 6.19792 0.981336 6.40625 1.14661C6.61458 1.31189 6.8125 1.4875 7 1.67344C7.1875 1.4875 7.38542 1.31189 7.59375 1.14661C7.80208 0.981336 8.05078 0.804439 8.33984 0.615918C8.62891 0.427397 8.9414 0.277616 9.27734 0.166569C9.61328 0.0555225 9.94271 0 10.2656 0C11.4323 0 12.3464 0.320223 13.0078 0.960677C13.6693 1.60113 14 2.48949 14 3.62578Z" fill="#FA2A00"/>
</svg>
