<svg height="45" viewBox="0 0 38 45" width="38" xmlns="http://www.w3.org/2000/svg"><path d="m117.87042 55.778394c-2.098445 0-3.801073-1.6959971-3.801073-3.7919412 0-2.0934704 1.702628-3.7920081 3.801073-3.7920081 2.098578 0 3.801072 1.6985377 3.801072 3.7920081 0 2.0959441-1.702494 3.7919412-3.801072 3.7919412m-21.5394994-3.7919412c0-2.0934704 1.7026279-3.7920081 3.8010724-3.7920081 2.098578 0 3.801072 1.6985377 3.801072 3.7920081 0 2.0959441-1.702494 3.7919412-3.801072 3.7919412-2.0984445 0-3.8010724-1.6959971-3.8010724-3.7919412m12.6690794-16.7535125c-19.0054956 0-19 17.6958148-19 17.6958148v26.9972896l4.753485-6.3132384 4.7452416 6.3132384 4.7457774-6.3132384 4.746046 6.3132384 4.746113-6.3132384 4.746247 6.3132384 4.749933-6.3132384 4.767157 6.3132384v-26.9972896s.005429-17.6958148-19-17.6958148" fill="#fa2a00" fill-rule="evenodd" transform="translate(-90 -35)"/></svg>