<svg xmlns="http://www.w3.org/2000/svg" width="14" height="12" viewBox="0 0 14 12">
    <path fill="#5C6979" fill-rule="evenodd" d="M14 1.423c-.525.247-1.05.433-1.633.495.583-.372 1.05-.99 1.283-1.67-.583.37-1.167.618-1.808.742a2.755 2.755 0 0 0-2.1-.99C8.167 0 6.883 1.36 6.883 3.03c0 .248 0 .496.059.681-2.45-.123-4.55-1.36-5.95-3.216A2.92 2.92 0 0 0 .583 2.04c0 1.052.525 1.98 1.284 2.536-.467 0-.934-.123-1.284-.37v.061c0 1.485.992 2.722 2.275 2.97-.233.061-.466.123-.758.123-.175 0-.35 0-.525-.062.35 1.237 1.4 2.103 2.683 2.103-.991.804-2.216 1.299-3.558 1.299-.233 0-.467 0-.7-.062A7.831 7.831 0 0 0 4.375 12c5.308 0 8.167-4.64 8.167-8.66v-.37c.583-.434 1.05-.99 1.458-1.547z"/>
</svg>
