<svg height="15" viewBox="0 0 15 15" width="15" xmlns="http://www.w3.org/2000/svg"><g fill="none" fill-rule="evenodd"><path d="m15 13.25c0 1-.75 1.75-1.75 1.75h-11.5c-1 0-1.75-.75-1.75-1.75v-11.5c0-1 .75-1.75 1.75-1.75h11.375c1.125 0 1.875.75 1.875 1.75z" fill="#5c6979"/><g fill="#fff"><circle cx="7.5" cy="7.5" r="2.875"/><path d="m10.875 4.625h2c.25 0 .375-.125.375-.375v-2.125c0-.25-.25-.375-.375-.375h-2c-.25 0-.375.125-.375.375v2c-.125.25.125.5.375.5zm1.25 2.875c0 2.5-2 4.5-4.625 4.5-2.5 0-4.625-2-4.625-4.5 0-.375 0-.875.125-1.25h-1.25v6.5c0 .25.25.375.375.375h10.75c.25 0 .375-.125.375-.375v-6.5h-1.375c.125.5.25.875.25 1.25z"/></g></g></svg>