<svg height="20" viewBox="0 0 23 20" width="23" xmlns="http://www.w3.org/2000/svg"><path d="m24 8.484375c0 1.7265711-.8945223 3.4843661-2.6835938 5.2734375l-7.3007812 7.03125c-.1406257.1406257-.312499.2109375-.515625.2109375s-.3749993-.0703118-.515625-.2109375l-7.3125-7.0546875c-.07812539-.0625003-.18554619-.1640618-.32226562-.3046875-.13671944-.1406257-.35351415-.3964825-.65039063-.7675781s-.56249883-.7519512-.796875-1.1425782c-.23437617-.3906269-.44335846-.8632784-.62695313-1.4179687-.18359466-.55469027-.27539062-1.09374738-.27539062-1.6171875 0-1.71875859.49608879-3.06249516 1.48828125-4.03125s2.3632725-1.453125 4.11328125-1.453125c.48437742 0 .97851311.08398354 1.4824219.25195313.5039087.16796958.9726541.39452982 1.40625.6796875.4335959.28515767.806639.55273312 1.1191406.80273437s.6093736.51562359.890625.796875c.2812514-.28125141.5781234-.54687375.890625-.796875s.6855447-.5175767 1.1191406-.80273437c.4335959-.28515768.9023413-.51171792 1.40625-.6796875.5039088-.16796959.9980445-.25195313 1.4824219-.25195313 1.7500087 0 3.1210888.48437016 4.1132813 1.453125.9921924.96875484 1.4882812 2.31249141 1.4882812 4.03125z" fill="none" stroke="#323b45" transform="translate(-2 -2)"/></svg>