<svg height="11" viewBox="0 0 14 11" width="14" xmlns="http://www.w3.org/2000/svg"><path d="m27 23.546875v6.203125c0 .3437517-.1223946.6380196-.3671875.8828125s-.5390608.3671875-.8828125.3671875h-11.5c-.3437517 0-.6380196-.1223946-.8828125-.3671875s-.3671875-.5390608-.3671875-.8828125v-6.203125c.2291678.2552096.492186.4817698.7890625.6796875 1.8854261 1.2812564 3.179684 2.1796849 3.8828125 2.6953125.2968765.2187511.5377595.3893223.7226562.5117188.1848968.1223964.4309881.2473951.7382813.375.3072932.1276048.5937487.1914062.859375.1914062h.015625c.2656263 0 .5520818-.0638014.859375-.1914062.3072932-.1276049.5533845-.2526036.7382813-.375.1848967-.1223965.4257797-.2929677.7226562-.5117188.8854211-.6406282 2.1822831-1.5390567 3.890625-2.6953125.2968765-.203126.5572905-.4296862.78125-.6796875zm0-2.296875c0 .4114604-.1276029.8046856-.3828125 1.1796875s-.5729148.6953112-.953125.9609375c-1.9583431 1.3593818-3.1770809 2.2057275-3.65625 2.5390625-.0520836.0364585-.1627596.1158848-.3320313.2382813-.1692716.1223964-.3098952.2213537-.421875.296875-.1119797.0755212-.247395.1601557-.40625.2539062-.1588549.0937505-.308593.1640623-.4492187.2109375s-.2708327.0703125-.390625.0703125h-.015625c-.1197923 0-.2499993-.0234373-.390625-.0703125s-.2903638-.117187-.4492187-.2109375c-.158855-.0937505-.2942703-.178385-.40625-.2539062-.1119798-.0755213-.2526034-.1744786-.421875-.296875-.1692717-.1223965-.2799477-.2018228-.3320313-.2382813-.4739607-.333335-1.1562455-.8085907-2.046875-1.4257813-.8906295-.6171905-1.4244783-.9882806-1.6015625-1.1132812-.3229183-.2187511-.6276027-.5195293-.9140625-.9023438-.2864598-.3828144-.4296875-.7382796-.4296875-1.0664062 0-.406252.1080718-.7447903.3242188-1.015625.2161469-.2708347.5247375-.40625.9257812-.40625h11.5c.3385434 0 .6315092.1223946.8789062.3671875.2473971.2447929.3710938.5390608.3710938.8828125z" fill="#7b90a1" fill-rule="evenodd" transform="translate(-13 -20)"/></svg>