<svg height="117" viewBox="0 0 217 117" width="217" xmlns="http://www.w3.org/2000/svg" xmlns:xlink="http://www.w3.org/1999/xlink"><defs><linearGradient id="a"><stop offset="0" stop-color="#f75070"/><stop offset="1" stop-color="#ffe194"/></linearGradient><linearGradient id="b" x1="17.111273%" x2="77.394992%" xlink:href="#a" y1="0%" y2="108.584367%"/><linearGradient id="c" x1="0%" x2="56.0135%" xlink:href="#a" y1="-22.287448%" y2="102.453866%"/><linearGradient id="d" x1="0%" x2="176.353804%" xlink:href="#a" y1="-426.75101%" y2="50%"/><linearGradient id="e" x1="0%" x2="100%" xlink:href="#a" y1="25.951973%" y2="76.201046%"/><path id="f" d="m0 21h66l-33-21z"/><filter id="g" height="128.6%" width="107.6%" x="-3.8%" y="-21.4%"><feOffset dx="0" dy="-2" in="SourceAlpha" result="shadowOffsetOuter1"/><feGaussianBlur in="shadowOffsetOuter1" result="shadowBlurOuter1" stdDeviation=".5"/><feColorMatrix in="shadowBlurOuter1" type="matrix" values="0 0 0 0 0.360784314   0 0 0 0 0.411764706   0 0 0 0 0.474509804  0 0 0 0.471835371 0"/></filter></defs><g fill="none" fill-rule="evenodd"><path d="m155.843488 80.799714v.1936799h3.103214c3.686252 0 6.67455 2.9882978 6.67455 6.6745499 0 3.6862522-2.988298 6.67455-6.67455 6.67455h-8.277487c1.872254 1.182233 3.115797 3.2697421 3.115797 5.6476961 0 3.6862521-2.988298 6.6745501-6.67455 6.6745501h-91.6331999c-3.6862521 0-6.6745499-2.988298-6.6745499-6.6745501s2.9882978-6.6745499 6.6745499-6.6745499h.5582001c-1.8722543-1.182233-3.1157971-3.2697421-3.1157971-5.6476962 0-2.7748275 1.6932684-5.1541711 4.1028976-6.161123h-10.2938255c-3.6862522 0-6.67455-2.9882978-6.67455-6.6745499 0-3.6862522 2.9882978-6.67455 6.67455-6.67455h16.4833102 1.5581637c3.4026943 0 6.1611231-2.7584288 6.1611231-6.161123 0-3.4026943-2.7584288-6.1611231-6.1611231-6.1611231h-2.0805321-.5223684c-3.6862521 0-6.6745499-2.9882978-6.6745499-6.6745499 0-2.3779541 1.2435427-4.4654632 3.1157971-5.6476962h-6.2190104c-3.6862521 0-6.6745499-2.9882978-6.6745499-6.6745499 0-3.6862522 2.9882978-6.67455 6.6745499-6.67455h10.2923824c-3.6862522 0-6.67455-2.9882978-6.67455-6.6745499 0-3.6862522 2.9882978-6.67455 6.67455-6.67455h105.0132972c3.686252 0 6.67455 2.9882978 6.67455 6.67455 0 3.6862521-2.988298 6.6745499-6.67455 6.6745499h-8.233906c3.686252 0 6.67455 2.9882978 6.67455 6.67455 0 3.6862521-2.988298 6.6745499-6.67455 6.6745499h-3.617833v.1185949c-2.687787.5473318-4.710335 2.9243635-4.710335 5.7737867 0 2.8494231 2.022548 5.2264549 4.710335 5.7737867v.1426509h12.880977c3.686252 0 6.67455 2.9882978 6.67455 6.67455 0 3.6862521-2.988298 6.6745499-6.67455 6.6745499h-11.132525c-.49181-.1264377-1.007372-.1936798-1.538639-.1936798h-14.952567c-3.402694 0-6.161123 2.7584287-6.161123 6.161123s2.758429 6.161123 6.161123 6.161123z" fill="url(#b)" opacity=".835389" transform="matrix(.96592583 -.25881905 .25881905 .96592583 -12.308763 27.985432)"/><g transform="matrix(-1 0 0 1 217 2)"><g fill="url(#c)"><ellipse cx="214.12221" cy="62.12161" opacity=".16243" rx="2.12221" ry="2.12161"/><ellipse cx="155.250677" cy="12.299464" opacity=".170184" rx="1.061105" ry="1.060805"/><ellipse cx="167.983937" cy="20.785903" opacity=".301364" rx="2.12221" ry="2.12161"/><ellipse cx="23.12221" cy="2.12161" opacity=".184002" rx="2.12221" ry="2.12161"/><ellipse cx="38.061105" cy="16.060805" opacity=".149778" rx="1.061105" ry="1.060805"/></g><g opacity=".364272" stroke-linecap="round" stroke-width="2.8" transform="matrix(-.5 -.8660254 .8660254 -.5 18.777743 25.062178)"><path d="m.67949192 3.59194033h5.7598936" stroke="url(#c)"/><path d="m.69872981 1.11710587h5.75989359" stroke="url(#d)" transform="matrix(0 1 -1 0 4.675009 .01089)"/></g><g opacity=".364272" stroke-linecap="round" stroke-width="2.8" transform="matrix(-.5 -.8660254 .8660254 -.5 200.408827 97.062178)"><path d="m.67949192 3.59194033h5.7598936" stroke="url(#c)"/><path d="m.69872981 1.11710587h5.75989359" stroke="url(#d)" transform="matrix(0 1 -1 0 4.675009 .01089)"/></g><g opacity=".364272" stroke-linecap="round" stroke-width="2.8" transform="matrix(-.5 -.8660254 .8660254 -.5 24.138871 64.062178)"><path d="m.67949192 3.59194033h5.7598936" stroke="url(#c)"/><path d="m.69872981 1.11710587h5.75989359" stroke="url(#d)" transform="matrix(0 1 -1 0 4.675009 .01089)"/></g><g opacity=".364272" stroke-linecap="round" stroke-width="2.8" transform="matrix(-.5 -.8660254 .8660254 -.5 189.889451 74.062178)"><path d="m.67949192 3.59194033h5.7598936" stroke="url(#c)"/><path d="m.69872981 1.11710587h5.75989359" stroke="url(#d)" transform="matrix(0 1 -1 0 4.675009 .01089)"/></g><ellipse cx="181.122776" cy="106.12161" fill="url(#e)" opacity=".223822" rx="4.122776" ry="4.12161"/><ellipse cx="34.122776" cy="33.12161" fill="url(#c)" opacity=".223822" rx="4.122776" ry="4.12161"/><ellipse cx="112.806477" cy="110.423908" fill="url(#c)" opacity=".135378" rx="1.061105" ry="1.060805"/><ellipse cx="36.12221" cy="78.12161" fill="url(#c)" opacity=".184002" rx="2.12221" ry="2.12161"/><ellipse cx="1.873437" cy="54.886948" fill="url(#c)" opacity=".149778" rx="1.061105" ry="1.060805"/></g><g transform="translate(75 39)"><path d="m0 43h66v-43h-66z" fill="#fff"/><path d="m63.6510881 41.5103808-28.4700855-19.9499445 30.5958853-21.43956369v42.71977329l.2231121.1396173h-.2231121v.0197368l-.028166-.0197368h-65.7487219l33-20.6504636zm-63.6510881-41.5103808 30.7332731 21.4901316-30.7332731 21.4901316z" fill="#f2f4f7"/><g transform="matrix(1 0 0 -1 0 21)"><use fill="#000" filter="url(#g)" xlink:href="#f"/><use fill="#fff" fill-rule="evenodd" xlink:href="#f"/></g></g></g></svg>