<svg height="11" viewBox="0 0 9 11" width="9" xmlns="http://www.w3.org/2000/svg"><path d="m17.5 25h4v-1.5c0-.5520861-.1953105-1.0234355-.5859375-1.4140625s-.8619764-.5859375-1.4140625-.5859375-1.0234355.1953105-1.4140625.5859375-.5859375.8619764-.5859375 1.4140625zm6.5.75v4.5c0 .2083344-.0729159.3854159-.21875.53125s-.3229156.21875-.53125.21875h-7.5c-.2083344 0-.3854159-.0729159-.53125-.21875s-.21875-.3229156-.21875-.53125v-4.5c0-.2083344.0729159-.3854159.21875-.53125s.3229156-.21875.53125-.21875h.25v-1.5c0-.9583381.3437466-1.7812466 1.03125-2.46875s1.5104119-1.03125 2.46875-1.03125 1.7812466.3437466 2.46875 1.03125 1.03125 1.5104119 1.03125 2.46875v1.5h.25c.2083344 0 .3854159.0729159.53125.21875s.21875.3229156.21875.53125z" fill="#7b90a1" fill-rule="evenodd" transform="translate(-15 -20)"/></svg>