<svg width="27" height="27" viewBox="0 0 27 27" fill="none" xmlns="http://www.w3.org/2000/svg">
<mask id="mask0" mask-type="alpha" maskUnits="userSpaceOnUse" x="0" y="0" width="27" height="27">
<path fill-rule="evenodd" clip-rule="evenodd" d="M13.5 27C20.9558 27 27 20.9558 27 13.5C27 6.04416 20.9558 0 13.5 0C6.04416 0 0 6.04416 0 13.5C0 20.9558 6.04416 27 13.5 27Z" fill="white"/>
</mask>
<g mask="url(#mask0)">
<path fill-rule="evenodd" clip-rule="evenodd" d="M7.13707 0.143533C7.13707 0.143533 8.82573 -0.0196089 9.56222 0.00267888C11.2373 0.0533709 12.543 0.357263 13.4859 0.624501C15.5222 1.2016 18.2674 3.29796 18.2674 3.29796C18.2674 3.29796 15.7719 4.01887 14.7587 4.48139C12.5558 5.487 11.0896 6.67326 10.3523 7.55039C9.53887 8.51826 7.90849 10.6887 6.80993 13.9628C6.45502 15.0205 6.80993 17.955 6.80993 17.955C6.80993 17.955 5.33913 17.3825 4.94095 17.1959C4.07739 16.7913 3.52875 16.0965 3.08209 15.7901C2.10315 15.1186 0 13.0747 0 13.0747C0 13.0747 0.0126967 9.67333 0.845975 7.55039C1.05343 7.02187 1.26805 6.33227 1.7027 5.49279C2.12376 4.67955 2.78834 3.81719 3.59731 2.90997C3.98355 2.47682 4.52734 1.81301 5.4398 1.14281C5.90266 0.802835 7.13707 0.143533 7.13707 0.143533Z" transform="translate(-0.423828 1.46265)" fill="url(#paint0_linear)"/>
<path fill-rule="evenodd" clip-rule="evenodd" d="M0 0C0 0 1.87073 2.39077 2.85983 3.05936C3.84892 3.72795 6.41171 4.80057 6.41171 4.80057C6.41171 4.80057 7.0183 7.13123 7.44031 8.31373C7.86232 9.49622 9.6795 12.0187 9.6795 12.0187C9.6795 12.0187 6.32277 11.199 3.58378 8.31373C0.844784 5.42845 0 0 0 0Z" transform="translate(-0.367188 14.6682)" fill="#BA2507"/>
<path fill-rule="evenodd" clip-rule="evenodd" d="M0 5.35469C0 5.35469 3.59011 6.08801 5.08394 6.01513C6.74136 5.93426 8.39323 5.46013 9.29945 5.13947C10.3852 4.75529 11.8232 4.13062 13.3346 2.87006C14.2217 2.13022 16.0764 0 16.0764 0C16.0764 0 15.9073 5.49033 13.7824 8.24539C12.8627 9.43795 11.6758 10.7753 10.1326 11.8464C9.299 12.425 7.31441 13.3234 7.31441 13.3234C7.31441 13.3234 5.73233 13.2749 4.95798 13.1691C4.18363 13.0634 2.85166 12.7139 2.85166 12.7139C2.85166 12.7139 1.54456 10.9632 1.14513 9.99776C0.970703 9.57615 0.569761 8.79119 0.296283 7.59378C0.152261 6.96318 0 5.35469 0 5.35469Z" transform="translate(6.55469 14.1685)" fill="#5C6979"/>
<path fill-rule="evenodd" clip-rule="evenodd" d="M0 13.7754C0 21.3835 6.16797 27.551 13.7754 27.551C21.3828 27.551 27.5508 21.3835 27.5508 13.7754C27.5508 6.16748 21.3828 0 13.7754 0C6.16797 0 0 6.16748 0 13.7754ZM27 13.7756C27 21.0791 21.0781 27 13.7754 27C6.4707 27 0.550781 21.0791 0.550781 13.7756C0.550781 6.47192 6.4707 0.551025 13.7754 0.551025C21.0781 0.551025 27 6.47192 27 13.7756Z" transform="translate(-2.75488 -6.88776)" fill="white"/>
<path fill-rule="evenodd" clip-rule="evenodd" d="M3.45296 0C3.45296 0 6.05465 0.200772 7.22165 0.343712C8.38866 0.486651 9.94367 1.10454 9.94367 1.10454C9.94367 1.10454 11.1066 3.15928 11.4701 4.09919C11.9968 5.4613 12.1806 6.75905 12.2728 7.60516C12.5065 9.7501 12.6116 13.3223 9.21226 17.5194C5.81294 21.7166 0 22.5983 0 22.5983C0 22.5983 3.18542 20.4557 4.30364 19.2627C5.69805 17.7752 6.6141 16.0454 6.99569 14.556C7.22165 13.674 7.66134 12.6687 7.78458 11.1868C7.90945 9.68536 7.66127 7.69637 7.22165 6.15843C6.99402 5.36208 6.54103 4.1555 5.67339 2.81937C5.16687 2.03936 3.45296 0 3.45296 0Z" transform="translate(15.2783 4.79279)" fill="#323B45"/>
<path fill-rule="evenodd" clip-rule="evenodd" d="M0 1.41288C0 1.41288 3.40707 0.339099 4.53358 0.172714C7.12544 -0.2101 9.22783 0.130118 10.1692 0.360804C11.0201 0.56931 12.7379 1.0284 14.6025 2.31691C15.1339 2.68411 16.0043 3.28929 16.9793 4.26131C17.3437 4.62459 18.0482 5.5423 18.0482 5.5423C18.0482 5.5423 15.5703 5.05443 14.6025 4.98484C13.6347 4.91524 11.7922 4.98484 11.7922 4.98484C11.7922 4.98484 8.44515 2.59667 6.53724 1.94445C4.62934 1.29224 0 1.41288 0 1.41288Z" transform="translate(6.7002 -0.260254)" fill="#BA2507"/>
<path fill-rule="evenodd" clip-rule="evenodd" d="M0 13.7754C0 21.3835 6.16797 27.551 13.7754 27.551C21.3828 27.551 27.5508 21.3835 27.5508 13.7754C27.5508 6.16748 21.3828 0 13.7754 0C6.16797 0 0 6.16748 0 13.7754ZM27 13.7756C27 21.0791 21.0781 27 13.7754 27C6.4707 27 0.550781 21.0791 0.550781 13.7756C0.550781 6.47192 6.4707 0.551025 13.7754 0.551025C21.0781 0.551025 27 6.47192 27 13.7756Z" transform="translate(-4.4082 1.10205)" fill="white"/>
<path fill-rule="evenodd" clip-rule="evenodd" d="M0 13.7754C0 21.3835 6.16797 27.551 13.7754 27.551C21.3828 27.551 27.5508 21.3835 27.5508 13.7754C27.5508 6.16748 21.3828 0 13.7754 0C6.16797 0 0 6.16748 0 13.7754ZM27 13.7756C27 21.0791 21.0781 27 13.7754 27C6.4707 27 0.550781 21.0791 0.550781 13.7756C0.550781 6.47192 6.4707 0.551025 13.7754 0.551025C21.0781 0.551025 27 6.47192 27 13.7756Z" transform="translate(6.06152 4.40814)" fill="white"/>
</g>
<defs>
<linearGradient id="paint0_linear" x2="1" gradientUnits="userSpaceOnUse" gradientTransform="translate(11.9323 0.606304) scale(17.5909 17.29) rotate(120.439)">
<stop stop-color="#FA2A00"/>
<stop offset="1" stop-color="#9F041B"/>
</linearGradient>
</defs>
</svg>
