<svg height="20" viewBox="0 0 20 20" width="20" xmlns="http://www.w3.org/2000/svg" xmlns:xlink="http://www.w3.org/1999/xlink"><linearGradient id="a" x1="53.576%" x2="36.289%" y1="73.102%" y2="7.922%"><stop offset="0" stop-color="#5c6979"/><stop offset="1" stop-color="#8091a4"/></linearGradient><mask id="b" fill="#fff"><circle cx="10" cy="10" fill="none" r="10"/></mask><g fill="none" fill-rule="evenodd"><path d="m4.972 1.19c.834-.08 1.433-.116 1.797-.105a11.71 11.71 0 0 1 2.906.461c1.006.285 2.187.945 3.542 1.98-1.232.356-2.099.649-2.599.877-1.632.745-2.718 1.624-3.264 2.273-.602.717-1.81 2.325-2.624 4.75-.175.523-.175 1.508 0 2.957a30.125 30.125 0 0 1 -1.384-.562c-.64-.3-1.046-.814-1.377-1.041-.484-.332-1.245-1.002-2.283-2.012.006-1.68.215-3.043.626-4.092.154-.391.313-.902.635-1.524.312-.602.804-1.241 1.403-1.913.287-.32.69-.813 1.365-1.309.229-.168.648-.415 1.257-.74z" fill="url(#a)" mask="url(#b)"/><path d="m-.272 10.865c.924 1.18 1.63 1.936 2.119 2.266.488.33 1.365.76 2.63 1.29.3 1.151.554 2.019.763 2.603.208.584.76 1.498 1.658 2.744-1.657-.405-3.163-1.32-4.515-2.744-1.353-1.425-2.238-3.478-2.655-6.159z" fill="#5c6979" mask="url(#b)"/><path d="m4.856 14.462c1.773.362 3.028.525 3.765.489 1.228-.06 2.452-.411 3.123-.649a9.451 9.451 0 0 0 2.99-1.68c.437-.366 1.114-1.075 2.03-2.127-.083 2.711-.65 4.747-1.7 6.108-.68.883-1.56 1.874-2.703 2.667-.411.286-1.107.65-2.087 1.094-.782-.024-1.363-.062-1.746-.114a14.02 14.02 0 0 1 -1.56-.337c-.646-.865-1.067-1.535-1.264-2.012-.13-.312-.426-.894-.629-1.78-.071-.312-.144-.865-.22-1.66z" fill="#5c6979" mask="url(#b)"/><path d="m8.163 15.306c-5.635 0-10.204-4.568-10.204-10.204 0-5.636 4.569-10.204 10.204-10.204 5.636 0 10.204 4.568 10.204 10.204s-4.568 10.204-10.204 10.204zm0-.408c5.41 0 9.796-4.386 9.796-9.796s-4.386-9.796-9.796-9.796-9.796 4.386-9.796 9.796 4.386 9.796 9.796 9.796z" fill="#fff" fill-rule="nonzero" mask="url(#b)"/><path d="m13.875 3.55c1.285.1 2.215.184 2.792.255.576.07 1.248.258 2.016.563.574 1.015.951 1.755 1.13 2.219.39 1.009.527 1.97.595 2.597.173 1.589.251 4.235-2.267 7.344-1.679 2.072-3.953 3.326-6.824 3.762 1.573-1.058 2.636-1.882 3.188-2.471 1.033-1.102 1.712-2.383 1.994-3.487.168-.653.493-1.398.585-2.495.092-1.112-.092-2.586-.417-3.725a9.286 9.286 0 0 0 -1.147-2.473c-.25-.386-.799-1.082-1.645-2.089z" fill="#323b45" mask="url(#b)"/><path d="m4.963.854c1.683-.53 2.802-.837 3.358-.919 1.92-.283 3.477-.031 4.175.14.63.154 1.903.494 3.284 1.448.393.272 1.038.72 1.76 1.44.18.18.444.496.792.95-1.224-.241-2.074-.379-2.552-.413-.478-.035-1.172-.035-2.082 0-1.653-1.18-2.95-1.93-3.893-2.252-.942-.323-2.555-.454-4.842-.394z" fill="#5c6979" mask="url(#b)"/><g fill="#fff" fill-rule="nonzero"><path d="m6.939 21.224c-5.636 0-10.204-4.568-10.204-10.204 0-5.635 4.568-10.204 10.204-10.204 5.635 0 10.204 4.569 10.204 10.204 0 5.636-4.569 10.204-10.204 10.204zm0-.408c5.41 0 9.796-4.385 9.796-9.796 0-5.41-4.386-9.796-9.796-9.796s-9.796 4.386-9.796 9.796 4.386 9.796 9.796 9.796z" mask="url(#b)"/><path d="m14.694 23.673c-5.636 0-10.204-4.568-10.204-10.204 0-5.635 4.568-10.204 10.204-10.204 5.635 0 10.204 4.569 10.204 10.204 0 5.636-4.569 10.204-10.204 10.204zm0-.408c5.41 0 9.796-4.385 9.796-9.796 0-5.41-4.386-9.796-9.796-9.796s-9.796 4.386-9.796 9.796 4.386 9.796 9.796 9.796z" mask="url(#b)"/></g></g></svg>