<svg height="14" viewBox="0 0 19 14" width="19" xmlns="http://www.w3.org/2000/svg"><g fill="#5c6979" transform="translate(.879495 .102547)"><path d="m2.71584091 7.31818182h9.21587119c.4393031 0 .7954546-.35615152.7954546-.79545455s-.3561515-.79545454-.7954546-.79545454h-9.21587119l1.0284697-1.02841667c.31065151-.31059848.31065151-.8142803 0-1.12493182-.31054546-.31065151-.81422728-.31065151-1.12493182 0l-2.38620455 2.38620455c-.01845454.01840151-.03584848.03765151-.05239394.05780303-.0040303.00493182-.00747727.01023485-.01140151.01527273-.01214394.01543181-.02407576.03091666-.035.04725-.00318182.00477272-.0057803.0098106-.00890909.01463636-.01092424.01707576-.02163637.03431061-.03128788.05228788-.00185606.00355303-.00339394.00731818-.00525.01087121-.01002273.01946212-.01967424.03918939-.02810606.05955303-.00106061.00249242-.00180303.00514394-.00281061.00768939-.00864394.02142425-.01665151.04311364-.02343939.0654394-.00090152.0028106-.00137879.00572727-.00217424.00859091-.00641667.02190151-.01230304.04401515-.01681061.06665909-.00132576.00673485-.00190909.01368182-.00312879.0204697-.00328788.01877272-.00657576.03754545-.00843182.05668939-.00270454.02625-.0040303.05276515-.0040303.07938636s.00132576.05313637.0040303.0794394c.00185606.01940909.00525.03834091.00848485.05727272.00116667.00657576.00175.01331061.00307576.01983334.00456061.02285606.01039394.04518182.01686364.06729545.00079545.00259849.00127272.00535606.00206818.00795455.00684091.02243182.01484848.04433333.02359848.06596969.00095455.00233334.00164394.00482576.00265152.0071591.00848485.02052272.01818939.04035606.02831818.05992424.00175.00344697.00323485.00705303.00503788.0105.00975757.01808333.02052273.03547727.03160606.05271212.0029697.00466667.00551515.00959848.00859091.01415909.01097727.01638636.02301515.03197727.03510606.04746212.00387121.00498485.00731818.01023485.01129545.01511364.01659849.02009848.03399243.03940151.05239394.05780303l2.38620455 2.38620454c.15532576.15537879.35890909.23301515.56249242.23301515.20358334 0 .40716667-.07763636.5624394-.23301515.31065151-.31065151.31065151-.8142803 0-1.12493182z"/><path d="m10.9931288.01585606c-2.17127274 0-4.1914091 1.07715152-5.40394698 2.88129546-.245.36458333-.14806061.85882575.21652273 1.10387878.36463636.245.85882575.14816667 1.10393181-.21652272.91641667-1.36367425 2.44294697-2.17779546 4.08349244-2.17779546 2.7106439.00005303 4.9159621 2.20531818 4.9159621 4.91601515s-2.2053182 4.91596213-4.9159621 4.91596213c-1.63571971 0-3.15975759-.8104621-4.07686365-2.16793182-.24600757-.36405303-.74035606-.4597197-1.10446212-.21381819-.364.24595455-.45977273.74040909-.21381818 1.10440911 1.21338636 1.7960303 3.23023485 2.86825 5.39514395 2.86825 3.5878712 0 6.5068712-2.918947 6.5068712-6.50687123 0-3.58792424-2.919-6.50687121-6.5068712-6.50687121z"/></g></svg>