<svg enable-background="new 0 0 512 512" viewBox="0 0 512 512" xmlns="http://www.w3.org/2000/svg"><g transform="translate(1 1)"><path d="m319 70.68-73.387 52.907c-11.947 8.533-21.333 11.947-33.28 11.947-5.12 0-8.533 3.413-8.533 8.533s3.413 8.533 8.533 8.533c15.36 0 28.16-4.267 42.667-15.36l73.387-52.907c3.413-2.56 4.267-7.68 2.56-11.947-2.56-3.413-8.534-4.266-11.947-1.706z"/><path d="m374.467 144.067h-8.533v-80.214c0-17.067-13.653-30.72-30.72-30.72h-13.654c-5.973 0-12.8 1.707-17.92 5.973l-78.507 57.174c-5.12 3.413-10.24 5.12-16.213 5.12h-167.253c-23.894 0-42.667 18.773-42.667 42.667v102.4c0 23.893 18.773 42.667 42.667 42.667h73.27l-56.204 176.64c0 2.56 0 5.12 1.707 7.68 1.707 1.707 4.267 3.413 6.827 3.413h68.267c3.413 0 6.827-2.56 8.533-5.973l17.105-53.76h42.628c5.12 0 8.533-3.413 8.533-8.533v-68.267c0-5.12-3.413-8.533-8.533-8.533h-15.476l13.576-42.667h5.314c5.12 0 11.093 1.707 15.36 5.12l81.067 57.173c5.12 4.267 11.093 5.973 17.92 5.973h13.653c17.067 0 30.72-13.653 30.72-30.72v-80.213h8.533c28.16 0 51.2-23.04 51.2-51.2s-23.04-51.2-51.2-51.2zm-179.2 204.8v51.2h-28.664l16.291-51.2zm-25.689-14.122c-.774.878-1.337 1.905-1.617 3.028l-21.333 68.267c-.203.61-.354 1.22-.449 1.829l-16.619 51.931h-50.347l54.613-170.667h50.347zm179.289-8.065c0 7.68-5.973 13.653-13.653 13.653h-13.654c-2.56 0-5.12-.853-7.68-2.56l-81.067-57.173c-7.68-5.973-16.213-8.533-25.6-8.533h-11.947-68.266-85.333c-14.507 0-25.6-11.093-25.6-25.6v-102.4c0-14.507 11.093-25.6 25.6-25.6h168.107c9.387 0 17.92-3.413 25.6-8.533l78.506-57.174c1.707-1.707 5.12-2.56 7.68-2.56h13.653c7.68 0 13.653 5.973 13.653 13.653v88.747 85.333 88.747zm25.6-97.28h-8.533v-68.267h8.533c18.773 0 34.133 15.36 34.133 34.133s-15.36 34.134-34.133 34.134z"/><path d="m135.533 144.067h-85.333c-5.12 0-8.533 3.413-8.533 8.533v85.333c0 5.12 3.413 8.533 8.533 8.533h85.333c5.12 0 8.533-3.413 8.533-8.533v-85.333c.001-5.12-3.413-8.533-8.533-8.533zm-8.533 85.333h-68.267v-68.267h68.267z"/><path d="m429.08 70.68c-4.267-1.707-9.387 0-11.093 4.267s0 9.387 4.267 11.093c43.52 18.773 71.68 61.44 71.68 109.227s-28.16 90.453-71.68 109.227c-4.267 1.707-5.973 6.827-4.267 11.093.853 3.413 4.267 5.12 7.68 5.12h3.413c49.493-22.187 81.92-70.827 81.92-125.44s-32.427-103.254-81.92-124.587z"/><path d="m420.547 256.707c-3.413 2.56-4.267 8.533-1.707 11.947 1.707 2.56 4.267 3.413 6.827 3.413 1.707 0 3.413-.853 5.12-1.707 23.893-17.92 37.547-45.227 37.547-75.093 0-29.013-13.653-57.173-37.547-75.093-3.413-2.56-9.387-1.707-11.947 1.707s-1.707 9.387 1.707 11.947c19.627 14.507 30.72 36.693 30.72 61.44 0 24.745-11.094 46.932-30.72 61.439z"/></g></svg>