<svg fill="none" height="30" viewBox="0 0 30 30" width="30" xmlns="http://www.w3.org/2000/svg"><path d="m0 15c0-8.28427 6.71573-15 15-15 8.2843 0 15 6.71573 15 15 0 8.2843-6.7157 15-15 15-8.28427 0-15-6.7157-15-15z" fill="#fff"/><path d="m0 15c0-8.28427 6.71573-15 15-15 8.2843 0 15 6.71573 15 15 0 8.2843-6.7157 15-15 15-8.28427 0-15-6.7157-15-15z" stroke="#979797"/><path d="m7.47267 14c.14148 0 .2701-.0483.37299-.1448.20579-.1931.20579-.5069 0-.7l-6.55949-6.1552 6.55949-6.155172c.20579-.193104.20579-.506897 0-.7-.20579-.1931039-.54019-.1931039-.74598 0l-6.945339 6.505172c-.2057879.1931-.2057879.5069 0 .7l6.945339 6.5052c.10289.0965.23151.1448.37299.1448z" fill="#5c6979" transform="matrix(1 0 0 -1 11 22)"/></svg>