<svg viewBox="0 0 164.4 148.5" xmlns="http://www.w3.org/2000/svg"><g fill="#5c6979"><path d="m152.6 148.7c-21.1 0-42.2 0-63.4 0-18.9 0-37.9 0-56.8 0-4.1 0-5.8-1.7-5.8-5.7 0-3.2 0-6.5 0-9.7 0-.4.3-5.7.3-6.6-.1-30.4-.2-60.8-.3-91.2 0-.8 0-1.6.2-2.4.6-2.3 2.4-3.6 4.8-3.6h127.6c2.3 0 4.9 2 4.9 4.9-.1 12.2 0 84.2 0 105.6 0 1.4 0 2.8-.1 4.1-.1 3-2.3 4.7-5.6 4.6-1.3-.1-5.2 0-5.8 0zm-57.2-9.3h59.6c1.8 0 1.8 0 1.8-1.8 0-33 0-66 0-99 0-1.8 0-1.8-1.8-1.8-10.9 0-21.8 0-32.6 0-23.1 0-46.2 0-69.2 0-2.9 0-5.8-.2-8.7-.2s-5.7.1-8.6.2c-1.8 0-1.8 0-1.8 1.8v98.9c0 1.9 0 1.9 1.9 1.9z"/><path d="m21.7 140.5c-.1.6-.9.6-1 0-3.8-20.3-15.4-81-16.3-85.8-.8-4.4-1.6-8.7-2.4-13-.6-3.2-1.3-6.3-1.9-9.5-.2-1.1-.5-2.3-.6-3.4-.3-3.1 1.1-5 4.3-5.6 4.6-.9 9.3-1.7 13.9-2.6 4.3-.8 8.7-1.7 13-2.6 4.7-.9 9.4-1.7 14.1-2.6 4.2-.8 8.3-1.6 12.4-2.4 3.1-.6 6.3-1.1 9.4-1.7s6.3-1.3 9.4-1.9c3-.6 6-1.1 9.1-1.7 3.4-.6 6.7-1.3 10.1-1.9 3-.6 6-1.1 8.9-1.6 3.3-.6 6.7-1.3 10-1.9 2.2-.4 4.3-.8 6.5-1.2 2.5-.5 5-.9 7.5-1.4 3.1-.6 5.9 1.4 6.5 4.4.6 3.3 1.3 6.5 1.9 9.7.6 3.4 1.2 6.8 1.9 10.2.1.6 0 1-.8 1-1.9 0-3.8 0-5.6 0-.5 0-.9-.4-1-.9-.8-4.1-1.6-8.1-2.3-12.2-.2-1.3-.5-2.5-.7-3.8-.1-.8-.6-.9-1.3-.8-6.1 1.1-12.2 2.3-18.2 3.4-3.2.6-6.3 1.3-9.5 1.9-3.1.6-6.2 1.1-9.3 1.6-3.2.6-6.3 1.3-9.5 1.9-3 .6-6 1.1-8.9 1.7-3.3.6-6.6 1.3-9.9 1.9-3 .6-6 1.1-9.1 1.7-3.4.6-6.7 1.3-10.1 2-3 .6-6 1.1-8.9 1.6-3.3.6-6.7 1.3-10 1.9-2.9.6-5.9 1.1-8.8 1.7-2.1.4-4.2.8-6.2 1.2-.7.1-1 .5-.8 1.3 1 4.9 1.9 9.9 2.8 14.8.8 4.2 3.5 18.8 4.1 21.9.6 3.2 1.3 6.4 1.9 9.6.6 3.1 1.1 6.2 1.7 9.3.6 3 1.2 6 1.7 8.9.6 3.3 1.2 6.7 1.9 10 1.2 5.8.5 11.7.5 17.6 0 1.2 0 2.4.1 3.7 0 1.3.2 9.9-.5 13.6z"/><path d="m38.1 135.3c0-.6-.1-1-.1-1.4 0-11.2 0-22.5 0-33.7 0-.9.3-1.5 1-2 9.5-7.8 18.9-15.6 28.4-23.3 1.4-1.1 2.7-2.2 4-3.4 1.6-1.5 4.8-1.5 6.3.3 2.5 3.1 5.1 6.1 7.7 9.1 4.7 5.6 9.4 11.2 14.1 16.8.5.6 1 .8 1.8.2 5.7-4 11.5-7.9 17.3-11.9 1.6-1.1 3.3-1.1 5.1-.2 4.1 2.1 8.3 4.1 12.4 6.2l10.8 5.4c1.6.8 3.2 1.5 4.8 2.4.4.2.8.9.8 1.4 0 11 0 21.9.1 32.9 0 1.3-.7 1.2-1.5 1.2-17.4 0-34.7 0-52.1 0-19.8 0-39.5 0-59.3 0-.5 0-.9 0-1.6 0z"/><path d="m136 54.1c.1 5.3-3.7 10.1-9.8 10.3-5.4.2-10-3.7-10.3-9.6-.2-5.4 3.8-10.2 9.8-10.3 5.3-.2 10 3.7 10.3 9.6z"/></g></svg>