<svg fill="none" height="19" viewBox="0 0 14 19" width="14" xmlns="http://www.w3.org/2000/svg"><g fill="#adb4bc"><path clip-rule="evenodd" d="m1.58203 14.2725c-.50976 0-.927733-.4014-.949218-.9102l-.632812-13.3623h12.0273l-.6328 13.3623c-.0215.5088-.4394.9102-.9472.9102zm6.82227-11.33939c-.21289 0-.38477.17285-.38477.38574v7.63425c0 .2129.17188.3853.38477.3853h.61718c.2129 0 .38672-.1724.38672-.3853v-7.63425c0-.21289-.17382-.38574-.38672-.38574zm-3.08399.38574c0-.21289.17188-.38574.38477-.38574h.61719c.21289 0 .38671.17285.38671.38574v7.63425c0 .2129-.17382.3853-.38671.3853h-.61719c-.21289 0-.38477-.1724-.38477-.3853zm-2.31445-.38574c-.21289 0-.38477.17285-.38477.38574v7.63425c0 .2129.17188.3853.38477.3853h.61719c.21289 0 .38672-.1724.38672-.3853v-7.63425c0-.21289-.17383-.38574-.38672-.38574z" fill-rule="evenodd" transform="translate(.986328 4.55908)"/><path d="m13.4068.952219h-4.07123v-.757413c0-.1075619-.08861-.194806-.19796-.194806h-4.27522c-.1093 0-.19792.0872441-.19792.194806v.757367h-4.071271c-.327639 0-.593199.261367-.593199.583787v1.83389h14v-1.83385c0-.32241-.2656-.583781-.5932-.583781z"/></g></svg>