<svg width="18" height="17" viewBox="0 0 18 17" version="1.1" xmlns="http://www.w3.org/2000/svg" xmlns:xlink="http://www.w3.org/1999/xlink">
<title>&#239;&#135;&#158;</title>
<desc>Created using Figma</desc>
<g id="Canvas" transform="translate(604 -6157)">
<g id="&#239;&#135;&#158;">
<use xlink:href="#path0_fill" transform="translate(-604 6157.71)" fill="#DC0000"/>
</g>
</g>
<defs>
<path id="path0_fill" fill-rule="evenodd" d="M 3.92857 12.8569L 3.92857 14.2855L 0 14.2855L 0 12.8569L 3.92857 12.8569ZM 7.85713 11.4287C 8.05059 11.4287 8.218 11.4994 8.35937 11.6408C 8.50074 11.7821 8.57142 11.9495 8.57142 12.143L 8.57142 15.0001C 8.57142 15.1936 8.50074 15.361 8.35937 15.5024C 8.218 15.6437 8.05059 15.7144 7.85713 15.7144L 4.99999 15.7144C 4.80654 15.7144 4.63913 15.6437 4.49776 15.5024C 4.35639 15.361 4.28571 15.1936 4.28571 15.0001L 4.28571 12.143C 4.28571 11.9495 4.35639 11.7821 4.49776 11.6408C 4.63913 11.4994 4.80654 11.4287 4.99999 11.4287L 7.85713 11.4287ZM 9.64286 7.14307L 9.64286 8.57164L 0 8.57164L 0 7.14307L 9.64286 7.14307ZM 2.5 1.42871L 2.5 2.85728L 0 2.85728L 0 1.42871L 2.5 1.42871ZM 17.1429 12.8569L 17.1429 14.2855L 8.92859 14.2855L 8.92859 12.8569L 17.1429 12.8569ZM 6.42854 0C 6.622 0 6.78941 0.0706838 6.93078 0.212054C 7.07215 0.353423 7.14283 0.520832 7.14283 0.714286L 7.14283 3.57143C 7.14283 3.76488 7.07215 3.93229 6.93078 4.07366C 6.78941 4.21503 6.622 4.28571 6.42854 4.28571L 3.5714 4.28571C 3.37795 4.28571 3.21054 4.21503 3.06917 4.07366C 2.9278 3.93229 2.85712 3.76488 2.85712 3.57143L 2.85712 0.714286C 2.85712 0.520832 2.9278 0.353423 3.06917 0.212054C 3.21054 0.0706838 3.37795 0 3.5714 0L 6.42854 0ZM 13.5714 5.71436C 13.7649 5.71436 13.9323 5.78504 14.0737 5.92641C 14.215 6.06778 14.2857 6.23519 14.2857 6.42864L 14.2857 9.28578C 14.2857 9.47924 14.215 9.64665 14.0737 9.78802C 13.9323 9.92939 13.7649 10.0001 13.5714 10.0001L 10.7143 10.0001C 10.5208 10.0001 10.3534 9.92939 10.2121 9.78802C 10.0707 9.64665 10 9.47924 10 9.28578L 10 6.42864C 10 6.23519 10.0707 6.06778 10.2121 5.92641C 10.3534 5.78504 10.5208 5.71436 10.7143 5.71436L 13.5714 5.71436ZM 17.1429 7.14307L 17.1429 8.57164L 14.6429 8.57164L 14.6429 7.14307L 17.1429 7.14307ZM 17.1429 1.42871L 17.1429 2.85728L 7.5 2.85728L 7.5 1.42871L 17.1429 1.42871Z"/>
</defs>
</svg>
