<svg height="17" viewBox="0 0 20 17" width="20" xmlns="http://www.w3.org/2000/svg"><path d="m19.176 5.057c0 1.592-.816 3.213-2.448 4.862l-6.657 6.483a.636.636 0 0 1 -.47.195.636.636 0 0 1 -.47-.195l-6.67-6.505a3.544 3.544 0 0 1 -.294-.28c-.124-.13-.322-.366-.593-.708a9.564 9.564 0 0 1 -.727-1.054 6.58 6.58 0 0 1 -.571-1.307 4.78 4.78 0 0 1 -.251-1.491c0-1.585.452-2.824 1.357-3.717.906-.893 2.156-1.34 3.751-1.34.442 0 .893.077 1.353.232s.887.364 1.282.627.736.51 1.02.74c.285.23.556.476.813.735.256-.26.527-.504.812-.735.285-.23.625-.477 1.02-.74a5.446 5.446 0 0 1 1.283-.627c.46-.155.91-.232 1.352-.232 1.595 0 2.846.447 3.75 1.34.905.893 1.358 2.132 1.358 3.717z" fill="#f2f4f7" fill-rule="evenodd"/></svg>