<svg fill="none" height="15" viewBox="0 0 15 15" width="15" xmlns="http://www.w3.org/2000/svg"><g fill="#5c6979"><path d="m4.66854 0h-4.66854v.51871h4.66854z" transform="translate(4.3877 9.02295)"/><path d="m4.66854 0h-4.66854v.51871h4.66854z" transform="translate(4.3877 7.87231)"/><path d="m4.66854 0h-4.66854v.518711h4.66854z" transform="translate(4.3877 6.7218)"/><path d="m4.66854 0h-4.66854v.51871h4.66854z" transform="translate(4.3877 10.2397)"/><path d="m7.5 0c-4.14213 0-7.5 3.35787-7.5 7.5 0 4.1421 3.35787 7.5 7.5 7.5 4.1421 0 7.5-3.3579 7.5-7.5 0-4.14213-3.3578-7.5-7.5-7.5zm2.5823 10.5979v.9112c0 .5033-.40801.9113-.91107.9113h-4.89849c-.50331 0-.91127-.408-.91127-.9113v-6.72085c0-.50331.40786-.91127.91127-.91127h4.89844c.50331 0 .91122.40796.91102.91142.0001 0 .0001.91111.0001.91111zm1.1672-1.16721v.91091c0 .4118-.2733.7596-.6485.8725v-.6163-4.89844-.91111c0-.78847-.64145-1.42998-1.42977-1.42998h-4.60369c.11295-.37516.46051-.64857.87252-.64857h4.89844c.5031 0 .911.40811.9109.91142v.91117h.0001z"/><path d="m4.66854 0h-4.66854v.51871h4.66854z" transform="translate(4.3877 5.57104)"/></g></svg>