<svg width="157" height="157" viewBox="0 0 157 157" fill="none" xmlns="http://www.w3.org/2000/svg">
<g filter="url(#filter0_d)">
<mask id="mask0" mask-type="alpha" maskUnits="userSpaceOnUse" x="4" y="0" width="149" height="149">
<circle cx="78.5" cy="74.5" r="74.5" fill="#C4C4C4"/>
</mask>
<g mask="url(#mask0)">
<circle cx="102.461" cy="92.4205" r="103.696" fill="#A8B6C8"/>
<path d="M176.956 53.0972H139.759V162.134H176.956V53.0972Z" fill="#76B8D9"/>
<path d="M176.956 53.0972H139.759V56.769H176.956V53.0972Z" fill="#366E91"/>
<path d="M176.955 92.4759H139.758V96.1477H176.955V92.4759Z" fill="#366E91"/>
<path d="M176.955 121.744H139.758V125.416H176.955V121.744Z" fill="#366E91"/>
<path d="M35.9887 68.2635L-3.33691 80.4497L9.64746 117.647L37.2659 115.731L35.9887 68.2635Z" fill="url(#paint0_linear)"/>
<path d="M105.7 119.935C105.7 123.447 103.039 126.321 99.6864 126.321H36.3609C33.0616 126.321 30.3477 123.447 30.3477 119.935V74.0106C30.3477 70.4984 33.0084 67.6248 36.3609 67.6248H99.7396C103.039 67.6248 105.753 70.4984 105.753 74.0106V119.935H105.7Z" fill="#44484C"/>
<path d="M225.487 114.826H-0.356445V162.028H225.487V114.826Z" fill="#8E4F20"/>
<path d="M225.487 114.826H-0.356445V133.664H225.487V114.826Z" fill="#AD6B2A"/>
<path d="M225.487 114.826H-0.356445V127.385H225.487V114.826Z" fill="#F2B25F"/>
<path d="M131.829 119.349C131.829 120.786 127.306 121.904 121.718 121.904C116.131 121.904 111.607 120.733 111.607 119.349C111.607 117.913 116.131 116.795 121.718 116.795C127.306 116.742 131.829 117.913 131.829 119.349Z" fill="url(#paint1_linear)"/>
<path d="M135.287 101.895C135.287 102.853 130.498 103.598 124.591 103.598C118.684 103.598 113.895 102.853 113.895 101.895C113.895 100.937 118.684 100.192 124.591 100.192C130.498 100.192 135.287 100.99 135.287 101.895Z" fill="#808080"/>
<path d="M129.753 93.4337C129.753 101.788 126.879 106.152 123.314 106.152C119.749 106.152 116.875 102.746 116.875 93.4337C116.875 86.4094 119.27 80.7154 123.633 80.7154C123.953 80.7154 129.753 80.4494 129.753 93.4337Z" fill="#91D177"/>
<path d="M132.254 97.9038C132.254 102.587 130.657 105.035 128.635 105.035C126.613 105.035 125.017 103.119 125.017 97.9038C125.017 93.9659 126.347 90.773 128.795 90.773C129.008 90.773 132.254 90.6134 132.254 97.9038Z" fill="#37B843"/>
<path d="M113.948 101.682C113.948 101.682 112.83 107.802 118.365 119.615C118.365 119.615 119.003 120.733 125.017 120.839C129.433 120.946 131.775 119.562 131.775 119.562C131.775 119.562 135.181 109.984 135.287 101.629C135.287 101.682 123.793 105.514 113.948 101.682Z" fill="#726454"/>
<path d="M131.775 119.615C131.775 119.615 135.18 110.037 135.287 101.682C135.287 101.682 133.478 102.267 130.657 102.8C130.817 105.248 131.03 113.123 127.305 120.786C129.753 120.573 131.775 119.615 131.775 119.615Z" fill="#665A4F"/>
<path d="M67.4922 116.582V121.691L92.1838 118.338L92.7692 117.061L67.4922 116.582Z" fill="url(#paint2_linear)"/>
<path d="M60.4148 27.0221C60.4148 27.0221 58.233 64.432 55.4658 75.7667L72.6542 73.6381C72.6542 73.6381 79.2528 29.6828 77.0178 24.0421L60.4148 27.0221Z" fill="#CB6A00"/>
<path d="M100.006 28.9907C100.006 28.9907 99.4742 67.0392 102.241 78.374L86.5962 75.8729C86.5962 75.8729 79.9976 31.9175 82.2326 26.2768L100.006 28.9907Z" fill="#CB6A00"/>
<path d="M107.297 108.387C107.297 108.387 102.827 103.385 102.295 99.8197C101.071 91.4117 102.933 65.8687 102.933 65.8687C102.933 65.8687 91.1195 60.7069 87.3412 57.7801L70.8979 57.2479C70.8979 57.2479 51.2617 63.6869 47.2706 66.188C43.9713 68.2634 36.5212 98.2764 34.8184 104.236C34.8184 104.236 49.2927 110.675 52.6453 114.773H99.7935L100.272 107.908C101.869 108.387 104.423 109.026 107.297 108.387Z" fill="#F1F1F1"/>
<path d="M53.3903 101.257C53.3903 101.257 49.0267 104.184 47.6963 105.94C47.6963 105.94 53.2838 90.5073 55.1463 82.5251C54.0288 93.1149 53.3903 101.257 53.3903 101.257Z" fill="#E2E3E3"/>
<path d="M87.3412 61.4519L78.9333 69.9131L74.7826 65.7091L70.5254 61.3987C72.6008 54.2147 71.8558 49.4786 71.8558 49.4786L86.543 49.0529C86.4366 50.3833 86.4366 51.6072 86.3834 52.6715C86.3834 59.1105 87.3412 61.4519 87.3412 61.4519Z" fill="#FCC79A"/>
<path opacity="0.4" d="M86.5962 49.0529C86.4898 50.3833 86.4898 51.6072 86.4366 52.6715C84.0951 54.0551 77.7094 58.4719 74.7826 65.7091L70.5254 61.3987C72.6008 54.2147 71.8558 49.4786 71.8558 49.4786L86.5962 49.0529Z" fill="#F7B884"/>
<path d="M93.8332 60.8666L88.831 78.321C88.831 78.321 84.7335 71.7224 78.9863 69.8599C78.9863 69.8599 85.6914 62.197 86.7025 57.7802C86.8621 56.8755 93.8332 60.8666 93.8332 60.8666Z" fill="#366E91"/>
<path d="M62.9688 60.0683L68.8224 78.1613C68.8224 78.1613 74.0906 70.9773 79.0396 69.913C79.0396 69.913 71.4831 63.1016 71.4831 57.2479C71.4831 56.4497 62.9688 60.0683 62.9688 60.0683Z" fill="#4189A5"/>
<path d="M76.4316 67.199C74.2498 64.6979 71.4294 60.76 71.4294 57.1946C71.4294 56.3964 62.8086 59.7489 62.8086 59.7489L68.8219 78.0548C69.8861 72.893 74.4626 68.8486 76.4316 67.199Z" fill="#366E91"/>
<path d="M111.926 102.268C111.128 104.982 109.691 107.323 108.946 108.015C107.083 109.824 102.613 106.312 100.432 94.1791C98.3562 82.6847 102.613 62.676 102.879 51.3413C102.933 48.6805 102.188 47.563 102.188 45.1684C102.134 42.2416 105.114 40.6451 104.582 37.0265C104.103 33.5144 103.944 30.7472 106.179 31.6518C111.341 33.7272 113.469 41.124 112.405 43.5187C111.181 46.1262 108.627 48.7337 108.52 53.1506C108.467 57.5674 112.777 78.0018 113.682 86.6226C114.267 91.9441 113.256 98.0105 111.926 102.268Z" fill="#FCC79A"/>
<path d="M109 108.015C109.638 107.43 110.809 105.567 111.607 103.332C104.742 103.013 104.104 61.7715 105.062 52.8314C105.381 49.9046 102.561 49.3725 104.317 39.847C103.625 41.7096 102.188 43.1464 102.241 45.1685C102.295 47.5632 103.04 48.6275 102.933 51.3414C102.667 62.6761 98.4099 82.6849 100.485 94.1792C102.028 102.694 104.636 106.951 106.765 108.121C107.244 108.334 107.669 108.441 108.042 108.441C108.414 108.441 108.734 108.281 109 108.015Z" fill="#F7B884"/>
<path d="M70.419 79.8644C70.419 79.8644 65.3104 106.472 61 115.465L92.0241 116.583C92.0241 116.583 99.9531 95.7224 102.507 85.1859C102.507 85.1859 75.7405 84.973 70.419 79.8644Z" fill="#E2E3E3"/>
<path d="M70.9507 80.6629C70.9507 80.6629 65.7357 107.696 61.4785 116.689L92.5027 117.807C92.5027 117.807 99.9527 97.6916 102.507 87.2083C102.507 87.1551 76.2722 85.7183 70.9507 80.6629Z" fill="white"/>
<path d="M35.3504 102.693C35.3504 102.693 33.9668 104.556 33.9668 108.121C33.9668 110.09 35.0843 112.006 36.6275 113.709C36.6275 113.709 43.9712 114.773 54.6673 115.358L55.4655 107.802C55.5187 107.802 40.0333 100.991 35.3504 102.693Z" fill="#F7B884"/>
<path d="M55.0396 107.642C55.0396 107.642 52.911 111.261 54.2946 115.359C54.401 115.731 65.8422 122.968 72.1215 115.784C73.6115 114.081 74.2501 106.897 71.6958 106.685C70.0461 106.525 66.3743 108.547 63.6604 108.068L64.8311 103.917C64.8843 103.971 56.2635 105.62 55.0396 107.642Z" fill="#F7B884"/>
<path d="M62.4891 28.6177C62.4891 28.6177 60.2541 27.2341 58.1787 28.4048C56.1034 29.5756 56.9016 33.6199 59.243 35.9613C61.7973 38.5689 63.5534 42.7196 65.5223 37.9303C66.5334 35.4824 62.4891 28.6177 62.4891 28.6177Z" fill="#F7B884"/>
<path d="M100.751 28.2984C98.6753 44.6353 86.3295 52.0854 81.3273 54.4801C79.9969 55.1186 79.1987 55.3847 79.1987 55.3847C59.9882 46.6043 62.0104 26.0634 62.0104 26.0634C61.7443 20.1566 72.8662 7.59794 84.4138 7.91723C86.2763 7.97044 88.1388 8.34295 89.9481 9.14117C103.039 14.9948 100.751 28.2984 100.751 28.2984Z" fill="#FCC79A"/>
<path d="M84.3598 7.91723C72.8654 7.59794 61.6904 20.1566 61.9564 26.0634C61.9564 26.0634 60.0407 45.6996 77.8676 54.7994C78.1337 38.6221 80.1559 22.4448 88.4573 8.66224C87.0738 8.18331 85.6902 7.97044 84.3598 7.91723Z" fill="#F7B884"/>
<path d="M91.2248 3.92609C91.2248 3.92609 87.4466 14.0901 88.5641 16.4847C89.9477 19.4116 96.4931 31.5445 100.484 30.2141C100.484 30.2141 106.231 10.5779 91.2248 3.92609Z" fill="#CB6A00"/>
<path d="M101.123 27.0213C102.027 21.1676 102.453 8.87505 91.1716 3.92609C91.1716 3.92609 89.6283 11.6422 89.043 15.4737C91.1183 20.3694 96.972 26.7552 101.123 27.0213Z" fill="#E17B1E"/>
<path d="M91.2255 3.97942C91.2255 3.97942 90.9062 15.0481 88.6712 16.272C86.4361 17.4959 65.3631 31.1189 60.1481 28.3517C60.1481 28.3517 56.9552 7.59802 76.2189 1.31869C88.6179 -2.77884 91.2255 3.97942 91.2255 3.97942Z" fill="#CB6A00"/>
<path d="M76.0049 44.1565L84.8385 44.6354C84.8385 44.6354 79.7831 53.4158 76.0049 44.1565Z" fill="white"/>
<path d="M80.7947 38.9407C80.7947 38.9407 79.9432 38.0893 79.6239 38.1425C79.3046 38.2489 79.4111 38.9407 79.9432 39.2068C80.4754 39.4728 81.1139 38.9939 80.7947 38.9407Z" fill="#E9B17B"/>
<path d="M79.7822 38.0364C79.7822 38.0364 79.9419 38.1429 80.1015 38.3025C80.3144 38.4089 80.5804 38.5686 80.8465 38.5686C80.9529 38.5686 81.1126 38.5686 81.219 38.5154C81.2722 38.4622 81.3255 38.4621 81.4319 38.4621C81.4851 38.4089 81.5383 38.4089 81.5915 38.3557C81.698 38.3025 81.8044 38.2493 81.8576 38.1961C81.9108 38.1429 81.964 38.1429 81.964 38.1429C81.964 38.1429 81.964 38.1961 81.9108 38.2493C81.8576 38.3025 81.8044 38.4089 81.7512 38.5154C81.6447 38.6218 81.5383 38.7282 81.3787 38.8347C81.219 38.9411 81.0062 38.9943 80.8465 38.9411C80.7401 38.9411 80.6337 38.8879 80.5804 38.8879C80.474 38.8347 80.4208 38.7814 80.3144 38.7814C80.1547 38.675 80.0483 38.5686 79.9951 38.4621C79.7822 38.2493 79.7822 38.0364 79.7822 38.0364Z" fill="#935A31"/>
<path d="M77.0697 35.2698C75.4732 36.1744 68.5553 35.323 66.9589 33.7798C66.0543 32.9816 65.7882 28.2987 66.2139 28.0326C66.7993 27.7133 67.6507 27.5537 71.9611 28.139C76.2715 28.7776 78.9322 29.6291 79.3047 30.3741C79.624 31.0126 78.7193 34.3119 77.0697 35.2698ZM95.2159 36.4937C94.3112 37.5048 86.5419 37.5048 84.9987 36.068C83.6151 34.7377 83.2426 31.4384 83.6683 30.9062C84.2004 30.2144 86.9676 29.8419 91.3312 30.0548C95.6416 30.2676 96.493 30.5337 96.972 31.0126C97.3977 31.3319 96.3334 35.1634 95.2159 36.4937ZM98.5684 30.3741C98.3555 30.3208 95.003 29.5758 90.9587 29.4162C87.819 29.3098 83.4554 30.0548 81.5397 29.8419C79.624 29.6291 76.644 28.139 72.6529 27.6069C68.6618 27.0215 64.7771 27.0747 64.7771 27.0747C64.7771 27.0747 64.6707 27.5005 64.7239 27.6601C64.7239 27.6601 64.99 27.9794 65.0964 28.3519C65.735 30.5337 65.3625 33.1412 66.9589 34.3119C69.3536 36.068 74.8347 36.1212 76.2715 36.0148C77.7615 35.9084 78.6661 34.7909 79.4643 32.8751C80.2626 31.0126 79.9965 30.4805 81.5397 30.6933C83.0297 30.9062 82.7104 30.853 83.1362 33.3541C83.5619 36.1212 84.8922 36.7066 84.8922 36.7066C88.0851 38.2498 94.258 37.6113 95.1627 37.0791C96.1738 36.4405 96.8123 34.9505 97.238 33.7798C98.1427 31.1723 98.6216 30.9594 98.6216 30.9594C98.6216 30.7466 98.5684 30.3741 98.5684 30.3741Z" fill="#635A4B"/>
<path d="M64.8454 27.0318L59.9678 27.4552L60.0276 28.1444L64.9052 27.721L64.8454 27.0318Z" fill="#635A4B"/>
<path d="M98.2891 30.3342L98.124 31.006L100.139 31.5012L100.304 30.8294L98.2891 30.3342Z" fill="#635A4B"/>
<path d="M87.0225 33.4069C87.0225 33.4069 87.3417 33.0876 87.9271 32.7151C88.5125 32.3426 89.4171 31.9701 90.4282 31.9701C90.9071 31.9701 91.4393 32.0765 91.865 32.2894C92.0779 32.3958 92.2907 32.5022 92.4504 32.6619C92.61 32.7683 92.7696 32.928 92.8761 33.0876C93.0889 33.3537 93.3018 33.5133 93.4614 33.5665C93.6211 33.6197 93.7807 33.6198 93.7807 33.6198V33.673C93.7807 33.673 93.7275 33.673 93.6743 33.7262C93.6211 33.7262 93.5147 33.7794 93.4082 33.7794C93.3018 33.7794 93.1421 33.7794 93.0357 33.673C92.8761 33.6197 92.7164 33.5133 92.61 33.4069C92.4504 33.3004 92.3439 33.194 92.1843 33.1408C92.0246 33.0344 91.865 32.9812 91.6521 32.8747C91.2796 32.7151 90.9071 32.5555 90.4282 32.5022C89.5768 32.3958 88.6721 32.7151 88.0335 32.9812C87.395 33.1408 87.0225 33.4601 87.0225 33.4069Z" fill="#6B3B1A"/>
<path d="M86.9668 33.4601C86.9668 33.4601 87.3393 33.1408 87.9247 32.8748C88.0843 32.8216 88.244 32.7151 88.4568 32.6619C88.6165 32.6087 88.8293 32.5023 89.0422 32.4491C89.255 32.3958 89.4679 32.3426 89.734 32.3426C89.9468 32.3426 90.2129 32.2894 90.4258 32.3426C90.5322 32.3426 90.6386 32.3426 90.7983 32.3958L91.1708 32.5023C91.3836 32.5555 91.5965 32.6619 91.8093 32.7683C92.0222 32.8748 92.1818 33.0344 92.3415 33.1408C92.5011 33.2473 92.6076 33.4069 92.7672 33.5666C92.8736 33.7262 92.9801 33.8326 93.0333 33.9391C93.0865 34.0455 93.1397 34.1519 93.1929 34.2584C93.2993 34.418 93.3526 34.5244 93.3526 34.5244L93.2993 34.5776C93.2993 34.5776 93.1929 34.5244 93.0333 34.3648C92.9801 34.3116 92.8736 34.2051 92.7672 34.1519C92.6608 34.0455 92.5543 33.9923 92.4479 33.8859C92.3415 33.7794 92.1818 33.673 92.0222 33.5666C91.8625 33.4601 91.7029 33.3537 91.5433 33.2473C91.3836 33.1408 91.224 33.0344 91.0111 32.9812L90.6918 32.8748C90.5854 32.8748 90.479 32.8216 90.3725 32.8216C90.1597 32.7684 89.9468 32.7683 89.734 32.7683C89.5211 32.7683 89.3082 32.7684 89.0954 32.8216C88.6697 32.8748 88.2972 32.9812 87.9779 33.0876C87.3925 33.2473 87.02 33.4601 86.9668 33.4601Z" fill="#6B3B1A"/>
<path d="M93.7262 32.2892C93.7262 32.2892 93.7262 32.3424 93.6729 32.3957C93.6729 32.4489 93.6197 32.4489 93.5665 32.5021C93.5133 32.5553 93.4601 32.5553 93.4069 32.6085C93.3537 32.6617 93.3004 32.6617 93.194 32.715C93.1408 32.715 93.0344 32.7682 92.9279 32.7682C92.7683 32.7682 92.5554 32.8214 92.3958 32.8214C92.2362 32.8214 92.0233 32.8214 91.8636 32.8214C91.704 32.7682 91.5444 32.7149 91.4379 32.6617C91.1719 32.5553 91.0654 32.3957 91.0654 32.3957V32.3424C91.0654 32.3424 91.2783 32.2892 91.5444 32.236C91.6508 32.236 91.8104 32.236 91.9701 32.236C92.1297 32.236 92.2894 32.2892 92.449 32.3424C92.6087 32.3957 92.7683 32.3957 92.9279 32.3957C92.9812 32.3957 93.0876 32.3957 93.1408 32.3957C93.194 32.3957 93.3004 32.3957 93.3537 32.3957C93.4069 32.3957 93.4601 32.3957 93.5133 32.3424C93.5665 32.3424 93.5665 32.2892 93.6197 32.2892C93.6729 32.3425 93.7262 32.2892 93.7262 32.2892Z" fill="#6B3B1A"/>
<path d="M75.4194 32.5024C75.4194 32.5024 75.1001 32.1299 74.5147 31.7574C73.9294 31.3849 73.0779 30.9592 72.2265 30.906C71.8008 30.906 71.3751 30.9592 70.9494 31.0656C70.7365 31.1188 70.5769 31.172 70.364 31.2252C70.1511 31.2785 70.0447 31.3317 69.8851 31.4381C69.7254 31.4913 69.5658 31.5977 69.4061 31.5977C69.2465 31.651 69.0869 31.651 68.9804 31.5977C68.874 31.5977 68.7676 31.5445 68.7144 31.5445C68.6611 31.5445 68.6611 31.4913 68.6611 31.4913V31.4381C68.6611 31.4381 68.7676 31.4381 68.9804 31.4381C69.1933 31.3849 69.4061 31.2784 69.6722 31.0656C69.8319 30.9592 69.9915 30.8527 70.1511 30.7463C70.364 30.6399 70.5236 30.5334 70.7897 30.4802C71.2154 30.3206 71.7476 30.3206 72.2265 30.3738C73.2376 30.4802 74.089 31.0124 74.6212 31.4913C75.2065 32.0767 75.4726 32.4492 75.4194 32.5024Z" fill="#6B3B1A"/>
<path d="M75.4727 32.5028C75.4727 32.5028 75.1534 32.1835 74.568 31.8642C74.2487 31.7045 73.9294 31.5449 73.5037 31.3852C73.2909 31.332 73.078 31.2788 72.8651 31.2256C72.6523 31.2256 72.4394 31.1724 72.2266 31.1724C72.0137 31.1724 71.8008 31.2256 71.588 31.2256C71.3751 31.2256 71.2155 31.332 71.0026 31.3852C70.7898 31.4385 70.6301 31.5449 70.4705 31.5981C70.3108 31.6513 70.1512 31.7577 69.9915 31.811C69.8319 31.9174 69.7255 31.9706 69.619 32.0238C69.5126 32.077 69.4062 32.1835 69.2998 32.2367C69.1401 32.3431 69.0337 32.3963 69.0337 32.3963L68.9805 32.3431C68.9805 32.3431 69.0337 32.2367 69.1933 32.077C69.2465 31.9706 69.353 31.9174 69.4062 31.7577C69.5126 31.6513 69.619 31.5449 69.7787 31.4385C69.9383 31.332 70.0448 31.1724 70.2576 31.1192C70.4173 31.0127 70.6301 30.9063 70.843 30.8531C71.0558 30.7999 71.2687 30.6935 71.5348 30.6935C71.8008 30.6935 72.0137 30.6402 72.2798 30.6935C72.5459 30.6935 72.7587 30.7467 72.9716 30.7999C73.1844 30.8531 73.3973 30.9063 73.6101 31.0127C74.0359 31.1724 74.3551 31.3852 74.6744 31.5981C75.2066 32.1302 75.4727 32.5028 75.4727 32.5028Z" fill="#6B3B1A"/>
<path d="M68.9795 30.3207C68.9795 30.3207 68.9795 30.374 69.0327 30.4272C69.0859 30.4804 69.1391 30.5336 69.2456 30.5868C69.2988 30.64 69.352 30.64 69.4584 30.64C69.5116 30.64 69.5648 30.6932 69.6713 30.6932C69.8309 30.6932 69.9906 30.7465 70.1502 30.6932C70.3098 30.6932 70.4695 30.64 70.6291 30.64C70.7888 30.64 70.9484 30.64 71.0549 30.6932C71.3209 30.7465 71.4806 30.8529 71.4806 30.8529V30.9061C71.4806 30.9061 71.3209 31.0125 71.0549 31.119C70.9484 31.1722 70.7888 31.2254 70.5759 31.2254C70.4163 31.2254 70.2034 31.1722 70.0438 31.119C69.8841 31.0657 69.6713 31.0125 69.5116 30.9593C69.4052 30.9593 69.352 30.9061 69.2988 30.8529C69.2456 30.7997 69.1391 30.7997 69.0859 30.7465C68.9795 30.64 68.9263 30.5336 68.873 30.4804C68.873 30.374 68.9263 30.3207 68.9795 30.3207Z" fill="#6B3B1A"/>
<path d="M84.5729 47.9348C84.5729 47.9348 92.2358 46.6577 95.0562 43.8905C95.0562 43.8905 95.1626 44.263 94.8433 44.8484C94.2048 46.0723 89.9476 47.7752 85.0518 48.5734C83.1361 48.9459 84.5729 47.9348 84.5729 47.9348Z" fill="#44484C"/>
<path d="M84.7856 48.4669C84.892 49.478 83.7745 50.3826 82.3909 50.4891C81.0073 50.5955 79.7834 49.8505 79.6769 48.8394C79.5705 47.8283 80.688 46.9237 82.0716 46.8173C83.5084 46.7108 84.6791 47.4558 84.7856 48.4669Z" fill="#44484C"/>
<path d="M100.484 30.2143C100.484 30.2143 97.5577 40.4315 94.6309 43.6244C94.6309 43.6244 100.804 47.8816 104.05 38.6754C107.19 29.6289 100.484 30.2143 100.484 30.2143Z" fill="#44484C"/>
<path d="M61.4246 28.5647C62.3825 25.8508 68.0764 7.97063 83.9876 9.35421C100.484 10.8442 100.484 30.7465 100.484 30.7465C100.484 30.7465 101.229 31.6512 101.921 30.6401C101.868 29.3097 103.092 9.35421 84.0408 6.85312C70.5243 5.09703 61.531 17.4961 60.1475 27.9793C60.1475 28.0326 60.6264 29.2033 61.4246 28.5647Z" fill="#44484C"/>
<path d="M12.0959 117.487L0.0693359 124.937H16.4595V117.487H12.0959Z" fill="url(#paint3_linear)"/>
<path d="M62.7029 124.245C62.7029 124.777 62.3304 125.15 61.8515 125.15H16.619C16.1401 125.15 15.7676 124.724 15.7676 124.245V118.445C15.7676 117.966 16.1401 117.54 16.619 117.54H61.8515C62.3304 117.54 62.7029 117.966 62.7029 118.445V124.245Z" fill="white"/>
<path d="M63.9267 119.136C63.9267 119.243 63.5009 119.349 63.022 119.349H15.3949C14.916 119.349 14.4902 119.243 14.4902 119.136V117.753C14.4902 117.646 14.916 117.54 15.3949 117.54H62.9688C63.4477 117.54 63.8734 117.646 63.8734 117.753V119.136H63.9267Z" fill="#A5A9AA"/>
<path d="M63.9267 124.937C63.9267 125.043 63.5009 125.15 63.022 125.15H15.3949C14.916 125.15 14.4902 125.043 14.4902 124.937V123.5C14.4902 123.393 14.916 123.287 15.3949 123.287H62.9688C63.4477 123.287 63.8734 123.393 63.8734 123.5V124.937H63.9267Z" fill="#A5A9AA"/>
<path d="M63.2351 116.582C63.2351 117.114 62.8626 117.487 62.3837 117.487H17.1512C16.6723 117.487 16.2998 117.061 16.2998 116.582V110.782C16.2998 110.249 16.6723 109.877 17.1512 109.877H62.3837C62.8626 109.877 63.2351 110.303 63.2351 110.782V116.582Z" fill="white"/>
<path d="M64.4584 111.527C64.4584 111.633 64.0327 111.74 63.5538 111.74H15.9798C15.5009 111.74 15.0752 111.633 15.0752 111.527V110.143C15.0752 110.037 15.5009 109.93 15.9798 109.93H63.5538C64.0859 109.93 64.4584 110.037 64.4584 110.143V111.527Z" fill="#A5A9AA"/>
<path d="M64.4584 117.274C64.4584 117.38 64.0327 117.487 63.5538 117.487H15.9798C15.5009 117.487 15.0752 117.38 15.0752 117.274V115.837C15.0752 115.731 15.5009 115.624 15.9798 115.624H63.5538C64.0859 115.624 64.4584 115.731 64.4584 115.837V117.274Z" fill="#A5A9AA"/>
<path d="M2.99586 174.479C2.99586 174.479 -1.15488 176.342 -6.84885 176.342C-13.075 176.342 -16.6936 174.479 -16.6936 174.479L-21.3232 124.138H7.51911L2.99586 174.479Z" fill="#76B8D9"/>
<path d="M-21.2705 124.191L-20.6319 131.322C-16.1087 132.972 -7.38148 134.143 -1.58108 133.77C-1.31501 149.043 -1.95358 160.271 -3.23074 176.129C-1.68751 175.916 -0.357145 175.597 0.707148 175.278C2.14394 174.852 2.99538 174.479 2.99538 174.479L6.88005 132.28L7.62505 124.138H-21.2705V124.191Z" fill="#519ABD"/>
<path d="M-22.4941 123.234V129.087C-22.4941 130.577 -15.4698 131.748 -6.84903 131.748C1.82496 131.748 8.79608 130.577 8.79608 129.087V123.234H-22.4941Z" fill="#76B8D9"/>
<path d="M8.84882 123.234C8.84882 124.724 1.82448 125.894 -6.79629 125.894C-15.4703 125.894 -22.4414 124.724 -22.4414 123.234C-22.4414 121.744 -15.4171 120.573 -6.79629 120.573C1.82448 120.573 8.84882 121.797 8.84882 123.234Z" fill="#519ABD"/>
<path d="M-20.4189 124.564C-17.705 125.362 -12.6496 125.894 -6.84921 125.894C-1.04881 125.894 4.00659 125.362 6.72054 124.564C4.00659 123.766 -1.04881 123.234 -6.84921 123.234C-12.6496 123.234 -17.705 123.766 -20.4189 124.564Z" fill="#320000"/>
<path d="M-8.28601 94.1254C-8.28601 94.1254 -9.77602 94.2318 -9.93566 95.9347C-10.0421 97.6376 -9.98888 101.363 -15.0443 101.256C-20.0464 101.15 -23.7183 96.8393 -23.7715 93.9125C-23.8247 90.9857 -27.3369 88.8039 -27.0176 87.8461C-27.0176 87.8461 -22.2282 89.6021 -21.0043 89.5489C-19.7804 89.4425 -18.2904 89.9214 -17.3857 90.1875C-17.3857 90.1875 -19.2482 88.9636 -20.5254 88.7507C-21.8025 88.4846 -26.4322 85.9303 -26.5919 85.345C-26.7515 84.7596 -27.2836 81.2475 -25.2083 78.0546C-23.1861 74.8617 -22.4411 72.4138 -21.2704 71.1899C-21.2704 71.1899 -21.43 72.5735 -20.419 74.436C-19.3547 76.2985 -14.4057 82.7375 -13.501 81.8328C-12.5964 80.9282 -13.2882 80.8749 -13.6075 80.5557C-13.9268 80.2896 -20.5786 74.1699 -20.5254 70.9238C-20.5254 70.9238 -17.8114 67.252 -15.3636 66.9327C-15.3636 66.9327 -17.2793 67.997 -16.1086 70.4449C-14.9378 72.8927 -13.1818 77.0967 -11.9046 76.2453C-10.6275 75.3938 -11.4789 74.9149 -11.745 74.702C-12.0642 74.4892 -16.3214 69.8595 -14.5121 66.8795C-14.5121 66.8795 -10.2549 66.2941 -9.19066 65.5491C-9.19066 65.5491 -6.74278 66.9327 -6.37028 66.8795C-6.37028 66.8795 -6.05099 70.6045 -7.11528 71.9349C-8.17958 73.3185 -7.59422 75.0746 -6.796 74.5424C-6.05099 74.0635 -4.56098 68.2099 -5.19956 67.3584C-5.19956 67.3584 -2.16632 69.2209 -1.10203 70.4449C-1.10203 70.4449 -2.05989 76.1388 -5.67849 79.3317C-5.67849 79.3317 -6.95564 80.2896 -6.58314 80.7685C-5.67849 81.886 -5.25277 81.1942 -4.56098 80.2896C-3.86919 79.3849 -0.995598 74.3828 -0.303808 71.3495C-0.303808 71.3495 2.51657 74.9681 3.368 76.5646C4.21944 78.161 5.23052 79.0657 5.44337 83.5357C5.44337 83.5357 5.49659 84.5468 6.13517 85.7175C6.77374 86.835 3.84694 95.1897 2.30371 96.3604C0.760485 97.5311 -2.59204 100.298 -6.05099 98.0101C-9.66959 95.7218 -5.94456 94.6575 -8.28601 94.1254Z" fill="#91D177"/>
<path d="M10.0201 109.877C10.0201 109.877 11.6697 110.249 11.5101 112.165C11.3504 114.081 10.7119 118.178 16.2994 118.923C21.8869 119.615 26.6763 115.465 27.2084 112.272C27.7406 109.079 31.9977 107.163 31.8381 106.099C31.8381 106.099 26.2505 107.269 24.9202 107.003C23.5898 106.684 21.8337 106.95 20.8226 107.11C20.8226 107.11 23.0577 106.099 24.5477 105.992C25.9845 105.939 31.572 103.811 31.8381 103.225C32.1042 102.64 33.2749 98.8083 31.5188 94.9237C29.7627 91.039 29.3902 88.2186 28.2727 86.6754C28.2727 86.6754 28.2195 88.2718 26.7827 90.1343C25.2927 91.9436 18.6941 98.223 17.8426 97.1055C16.9912 95.988 17.7894 95.988 18.2151 95.7219C18.6408 95.4558 26.9955 89.8151 27.4745 86.1965C27.4745 86.1965 25.0798 81.6732 22.4191 80.9282C22.4191 80.9282 24.388 82.4182 22.6852 84.9193C20.9823 87.4204 18.3216 91.8372 17.0976 90.6665C15.8737 89.4958 16.8315 89.1233 17.2041 88.9636C17.5766 88.804 23.0577 84.334 21.6209 80.7154C21.6209 80.7154 17.0444 79.3318 15.9269 78.3739C15.9269 78.3739 13.0001 79.4914 12.5744 79.3318C12.5744 79.3318 11.6165 83.3761 12.5744 85.079C13.5322 86.7818 12.5744 88.6443 11.7762 87.9525C11.0311 87.2607 10.3394 80.5557 11.1908 79.7043C11.1908 79.7043 7.51898 81.2475 6.1354 82.4714C6.1354 82.4714 6.24183 88.9104 9.70078 93.1144C9.70078 93.1144 10.8183 94.3915 10.1797 94.6044C9.54114 94.8172 9.32828 93.9126 8.6897 92.7951C8.05113 91.6776 5.33718 86.8883 5.07111 83.3229C5.07111 83.3229 1.34608 86.835 0.175356 88.4847C-0.995367 90.1343 -2.32573 90.9326 -3.2836 95.8815C-3.2836 95.8815 -3.49646 96.999 -4.4011 98.1698C-5.30575 99.3405 -3.44324 109.026 -1.90002 110.622C-0.410005 112.165 2.88931 115.837 7.14648 113.815C11.244 111.846 7.30612 110.09 10.0201 109.877Z" fill="#37B843"/>
<path d="M10.3397 110.622C10.8186 108.813 15.5015 89.9213 15.5547 80.2363C15.5547 80.2363 12.3086 103.385 9.38184 110.515C9.38184 110.515 9.38184 110.569 9.43505 110.569C9.5947 110.569 9.9672 110.622 10.1801 110.675C10.2865 110.728 10.3397 110.728 10.3397 110.622Z" fill="#0B3E11"/>
<path d="M14.543 89.0165C14.543 89.0165 19.6516 85.664 19.8644 81.7261C19.8644 81.7261 19.3855 85.2383 14.6494 88.5376L14.543 89.0165Z" fill="#0B3E11"/>
<path d="M13.1602 95.8813C13.1602 95.8813 21.7277 93.327 24.1224 85.2384C24.1224 85.2384 21.6213 92.2627 13.4794 95.4556L13.1602 95.8813Z" fill="#0B3E11"/>
<path d="M11.8828 101.735C11.8828 101.735 21.6743 101.363 27.2086 94.3916C27.4215 94.1255 27.5811 93.9126 27.2086 94.3916C25.7718 96.0944 21.089 100.245 12.0957 101.416L11.8828 101.735Z" fill="#0B3E11"/>
<path d="M11.085 105.354C11.085 105.354 19.9718 107.057 26.8365 102.267C27.3686 101.895 27.8476 101.522 26.8365 102.214C24.4951 103.704 19.0672 106.152 11.4043 105.034L11.085 105.354Z" fill="#0B3E11"/>
<path d="M10.499 106.95C10.499 106.95 18.2151 111.314 26.1973 109.345C26.1973 109.345 19.8648 111.101 10.9247 107.003L10.499 106.95Z" fill="#0B3E11"/>
<path d="M10.8715 107.322C10.8715 107.322 5.49682 103.651 -2.69824 104.076C-2.69824 104.076 3.31501 102.639 10.7651 106.897L10.8715 107.322Z" fill="#0B3E11"/>
<path d="M10.7646 108.387C10.7646 108.387 5.81564 108.174 0.707031 111.686C0.707031 111.686 4.00634 108.387 10.5517 108.174L10.7646 108.387Z" fill="#0B3E11"/>
<path d="M10.2334 108.387C10.2334 108.387 16.832 114.294 25.0271 114.134C25.0271 114.134 18.4817 114.453 10.6591 108.493L10.2334 108.387Z" fill="#0B3E11"/>
<path d="M13.4788 94.4446C13.4788 94.4446 8.52988 90.4535 8.31702 83.4292C8.31702 83.4292 7.5188 89.336 13.266 95.03L13.4788 94.4446Z" fill="#0B3E11"/>
<path d="M12.3615 99.8725C12.3615 99.8725 5.9757 96.8392 3.47461 89.0167C3.47461 89.0167 4.5389 95.8814 12.3615 100.405V99.8725Z" fill="#0B3E11"/>
<path d="M11.6163 104.289C11.6163 104.289 2.25055 99.6065 -0.623047 92.8483C-0.623047 92.8483 0.49446 98.7019 11.776 104.768L11.6163 104.289Z" fill="#0B3E11"/>
<path d="M9.75457 109.664C9.75457 109.664 5.81668 120.413 1.13379 125.522L2.88987 125.309C2.88987 125.309 7.83884 118.923 10.4996 110.09L9.75457 109.664Z" fill="#0B3E11"/>
</g>
</g>
<defs>
<filter id="filter0_d" x="0" y="0" width="157" height="157" filterUnits="userSpaceOnUse" color-interpolation-filters="sRGB">
<feFlood flood-opacity="0" result="BackgroundImageFix"/>
<feColorMatrix in="SourceAlpha" type="matrix" values="0 0 0 0 0 0 0 0 0 0 0 0 0 0 0 0 0 0 127 0"/>
<feOffset dy="4"/>
<feGaussianBlur stdDeviation="2"/>
<feColorMatrix type="matrix" values="0 0 0 0 0 0 0 0 0 0 0 0 0 0 0 0 0 0 0.25 0"/>
<feBlend mode="normal" in2="BackgroundImageFix" result="effect1_dropShadow"/>
<feBlend mode="normal" in="SourceGraphic" in2="effect1_dropShadow" result="shape"/>
</filter>
<linearGradient id="paint0_linear" x1="2.23174" y1="101.856" x2="62.0146" y2="84.6958" gradientUnits="userSpaceOnUse">
<stop stop-color="#6CA5A5" stop-opacity="0"/>
<stop offset="1" stop-color="#44484C"/>
</linearGradient>
<linearGradient id="paint1_linear" x1="118.316" y1="123.847" x2="129.24" y2="109.341" gradientUnits="userSpaceOnUse">
<stop stop-color="#F2B25F"/>
<stop offset="1" stop-color="#3C2415"/>
</linearGradient>
<linearGradient id="paint2_linear" x1="67.4895" y1="119.147" x2="112.015" y2="119.147" gradientUnits="userSpaceOnUse">
<stop stop-color="#F2B25F"/>
<stop offset="1" stop-color="#3C2415"/>
</linearGradient>
<linearGradient id="paint3_linear" x1="2.92143" y1="121.221" x2="42.6579" y2="121.221" gradientUnits="userSpaceOnUse">
<stop stop-color="#F2B25F"/>
<stop offset="1" stop-color="#3C2415"/>
</linearGradient>
</defs>
</svg>
