<svg height="13" viewBox="0 0 18 13" width="18" xmlns="http://www.w3.org/2000/svg"><path d="m7.63158824 18.6616596v-7.8698233c0-.4373098.34497058-.7918363.77055882-.7918363h7.65441174c.4255588 0 .7705294.3545265.7705294.7918363v7.8698535c0 .1457699-.1149706.2639454-.2568529.2639454h-8.68179412c-.14188236 0-.25685294-.1181755-.25685294-.2639756zm6.18117646 2.6960334c0 .9070197-.7155588 1.642307-1.5981765 1.642307-.8826176 0-1.5981764-.7352873-1.5981764-1.642307 0-.9070498.7155588-1.6423069 1.5981764-1.6423069.8826177 0 1.5981765.7352571 1.5981765 1.6423069zm-.7991176 0c0-.4535098-.3577647-.8211535-.7990883-.8211535-.4413235 0-.7991176.3676437-.7991176.8211535s.3577941.8211837.7991176.8211837c.4413236 0 .7990883-.3676739.7990883-.8211837zm-2.1755589-1.6423372h-3.58123526c-.14185294 0-.25685294.1181755-.25685294.2639455v.8007825c0 .14577.115.2639455.25685294.2639455h2.87052946c.0749411-.5284349.3345-.995213.7107058-1.3286735zm11.3365589 1.6423372c0 .9070197-.7155589 1.642307-1.5981765 1.642307-.8826471 0-1.5981765-.7352873-1.5981765-1.642307 0-.9070498.7155294-1.6423069 1.5981765-1.6423069.8826176-.0000303 1.5981765.7352571 1.5981765 1.6423069zm-.7990589 0c0-.4535098-.3577941-.8211535-.7991176-.8211535-.441353 0-.7990882.3676437-.7990882.8211535s.3577647.8211837.7990882.8211837.7991176-.3676739.7991176-.8211837zm3.6244118-1.3783917v.8007825c0 .14577-.115.2639455-.2568529.2639455h-2.0795295c-.1487352-1.048256-1.026647-1.8565643-2.0870882-1.8565643-1.060647 0-1.9385882.8083385-2.0873235 1.8565643h-4.1874118c-.0749706-.5284047-.3345-.995213-.7107059-1.3286735h3.9704118v-7.5496613c0-.2915399.23-.5278909.5137059-.5278909h2.4248529c.6827647 0 1.3209118.3485119 1.7029412.9299898l1.5632353 2.3792566c.2292941.3489955.3518235.7604639.3518235 1.1815737v3.5867321h.6250883c.1418529 0 .2568529.1181755.2568529.2639455zm-2.6056471-4.9713199-1.2500294-1.8253127c-.0481176-.0702404-.1264706-.1120401-.2100588-.1120401h-1.9498529c-.1418236 0-.256853.1181755-.256853.2639455v1.8253127c0 .1458002.115.2639455.256853.2639455h3.1999411c.2080589 0 .3297647-.2409753.21-.4158509z" fill="#5c6979" opacity=".521003" transform="translate(-7 -10)"/></svg>