<svg height="83" viewBox="0 0 191 83" width="191" xmlns="http://www.w3.org/2000/svg"><g fill="none" fill-rule="evenodd"><path d="m77.453 44.234-9.525 25.687-1.016-5.219c-2.372-6.4-7.508-13.114-13.489-15.835l8.714 32.984 10.301-.005 15.319-37.612z" fill="#1c548e"/><path d="m85.617 81.888 6.09-37.69h9.731l-6.093 37.69z" fill="#1c548e"/><path d="m130.649 45.127c-1.923-.76-4.957-1.586-8.721-1.586-9.627 0-16.39 5.117-16.449 12.436-.062 5.421 4.836 8.445 8.518 10.246 3.8 1.843 5.069 3.026 5.057 4.675-.037 2.525-3.04 3.676-5.831 3.676-3.89 0-5.963-.568-9.152-1.97l-1.264-.601-1.362 8.435c2.277 1.05 6.48 1.96 10.849 2.007 10.216 0 16.863-5.059 16.942-12.871.041-4.3-2.559-7.555-8.179-10.242-3.392-1.747-5.49-2.905-5.459-4.676.003-1.564 1.76-3.24 5.576-3.24 3.187-.053 5.479.678 7.283 1.449l.868.432z" fill="#1c548e"/><path d="m155.608 44.237h-7.518c-2.331 0-4.078.664-5.107 3.128l-14.446 34.535h10.221s1.671-4.648 2.049-5.667c1.115 0 11.042.023 12.459.023.301 1.314 1.185 5.644 1.185 5.644h9.037zm-12.001 24.287c.808-2.163 3.877-10.535 3.877-10.535-.06.102.798-2.18 1.294-3.591l.648 3.249s1.87 8.994 2.26 10.877c-1.515 0-6.182 0-8.079 0z" fill="#1c548e"/><path d="m59.092 44.215h-15.695l-.092.649c12.203 3.121 20.255 10.785 23.607 19.848l-3.411-17.322c-.586-2.383-2.294-3.091-4.409-3.175" fill="#e79f3f"/><g fill="#1c548e"><path d="m13.958 35.107h-6.206l-7.159-32.269 6.859-1.147 4.898 25.254 12.476-24.92h6.588z"/><path d="m46.23 24.558h-14.799c-.404 4.487 1.681 6.445 5.214 6.445 2.96 0 5.564-1.099 8.366-2.865l-.022 4.487c-2.748 1.719-5.924 2.817-9.648 2.817-6.444 0-10.7-3.676-9.421-11.983 1.153-7.494 6.338-12.028 12.353-12.028 6.922 0 9.224 5.203 8.218 11.743-.073.477-.21 1.05-.261 1.384zm-8.709-9.165c-2.292 0-4.433 1.813-5.443 5.585h9.165c.169-3.581-.954-5.585-3.722-5.585z"/><path d="m55.876 21.742-2.035 13.223h-5.728l3.548-23.058h4.87l.003 4.631c1.939-2.673 4.576-4.916 8.185-5.107l.033 5.68c-3.617.239-6.871 2.148-8.876 4.631"/><path d="m64.677 34.965 3.549-23.058h5.728l-3.548 23.058zm7.056-26.924c-1.909 0-3.231-1.337-2.937-3.246.301-1.957 2.042-3.342 3.951-3.342 1.862 0 3.176 1.385 2.875 3.342-.294 1.909-2.027 3.246-3.889 3.246z"/><path d="m89.819 5.606c-1.958 0-3.14.859-3.456 2.913l-.522 3.388h4.392l-.004 4.678h-5.108l-2.829 18.38h-5.68l2.829-18.38h-3.342l.72-4.678h3.341l.61-3.962c.786-5.107 4.326-7.017 9.052-7.017 1.003 0 1.752.096 2.311.191l.043 4.678c-.559-.095-1.403-.191-2.357-.191"/><path d="m89.881 34.965 3.549-23.058h5.728l-3.548 23.058zm7.056-26.924c-1.909 0-3.231-1.337-2.937-3.246.301-1.957 2.042-3.342 3.951-3.342 1.862 0 3.177 1.385 2.876 3.342-.294 1.909-2.028 3.246-3.89 3.246z"/><path d="m121.368 24.558h-14.799c-.404 4.487 1.681 6.445 5.214 6.445 2.96 0 5.563-1.099 8.366-2.865l-.023 4.487c-2.747 1.719-5.924 2.817-9.648 2.817-6.444 0-10.699-3.676-9.421-11.983 1.154-7.494 6.339-12.028 12.354-12.028 6.922 0 9.224 5.203 8.218 11.743-.074.477-.21 1.05-.261 1.384zm-8.71-9.165c-2.292 0-4.433 1.813-5.442 5.585h9.165c.169-3.581-.955-5.585-3.723-5.585z"/><path d="m138.336 34.965.014-3.199c-1.925 1.958-4.432 3.676-7.631 3.676-4.822 0-8.136-3.58-6.939-11.362 1.322-8.592 6.636-12.411 11.982-12.411 2.197 0 3.905.382 5.215.859l1.712-11.123 5.868-.906-5.304 34.466zm1.914-17.711c-1.329-.669-2.376-1.003-4.333-1.003-3.008 0-5.578 2.435-6.357 7.496-.69 4.486.896 6.587 3.426 6.587 2.1 0 3.914-1.24 5.735-3.15z"/><path d="m160.801 35.182c-2.712 0-4.922-.435-6.98-1.157l3.768-24.48 4.444-.688-1.63 10.595c1.299-1.157 3.104-2.314 5.31-2.314 3.688 0 6.158 2.749 5.256 8.606-.99 6.436-4.96 9.438-10.168 9.438zm3.201-14.212c-1.447 0-2.899.977-4.184 2.28l-1.219 7.918c.855.325 1.447.47 2.676.47 2.748 0 4.668-1.663 5.28-5.641.518-3.363-.6-5.027-2.553-5.027z"/><path d="m181.192 35.905c-2.217 4.303-4.411 5.641-7.774 5.641-.76 0-1.182-.073-1.563-.181l-.028-3.58c.557.145 1.154.253 1.986.253 1.266 0 2.367-.578 3.105-1.844l.575-1.157-3.679-17.212 4.61-.578 2.135 12.438 5.781-12.185h4.303z"/></g></g></svg>