<?xml version="1.0" encoding="UTF-8"?>
<svg width="16px" height="16px" viewBox="0 0 16 16" version="1.1" xmlns="http://www.w3.org/2000/svg" xmlns:xlink="http://www.w3.org/1999/xlink">
    <!-- Generator: Sketch 49.1 (51147) - http://www.bohemiancoding.com/sketch -->
    <title>Shape</title>
    <desc>Created with Sketch.</desc>
    <defs></defs>
    <g id="Pages" stroke="none" stroke-width="1" fill="none" fill-rule="evenodd">
        <g id="Artboard-1-Copy-45" transform="translate(-20.000000, -625.000000)" fill="#5C6979" fill-rule="nonzero">
            <g id="auction" transform="translate(18.000000, 286.000000)">
                <path d="M17.7408293,353.366707 L9.53634146,345.162183 L11.1210366,343.580305 C11.3823293,343.81072 11.7841463,343.799451 12.0313902,343.552207 C12.2899024,343.290915 12.2899024,342.872232 12.0313902,342.610939 L8.6147561,339.197085 C8.3562439,338.935793 7.93478049,338.935793 7.67630488,339.197085 C7.4150122,339.455598 7.4150122,339.877061 7.67630488,340.135537 L7.64820732,340.107439 L3.30991463,344.442878 L3.3380122,344.473756 C3.0795,344.212463 2.65803659,344.212463 2.39956098,344.473756 C2.13826829,344.732268 2.13826829,345.153732 2.39956098,345.412244 L5.81341463,348.828878 C6.07470732,349.08739 6.49617073,349.08739 6.75468293,348.828878 C7.01319512,348.567585 7.01319512,348.148939 6.75468293,347.887683 L6.78278049,347.915707 L8.36747561,346.333829 L16.5691463,354.535537 C16.8922683,354.858659 17.4177073,354.858659 17.7408293,354.535537 C18.0639512,354.212415 18.0639512,353.689793 17.7408293,353.366707 Z" id="Shape"></path>
            </g>
        </g>
    </g>
</svg>