<svg width="15" height="16" viewBox="0 0 15 16" fill="none" xmlns="http://www.w3.org/2000/svg">
<path fill-rule="evenodd" clip-rule="evenodd" d="M7.95447 5.13903L14.798 11.9825C15.0675 12.252 15.0675 12.688 14.798 12.9575C14.5284 13.227 14.0902 13.227 13.8207 12.9575L6.97949 6.11629L5.65771 7.43578L5.63428 7.41241C5.84985 7.6303 5.84985 7.97952 5.63428 8.19747C5.41858 8.41308 5.06714 8.41308 4.84912 8.19747L2.00159 5.34759C1.78369 5.13198 1.78369 4.78042 2.00159 4.56478C2.21716 4.34686 2.56873 4.34686 2.78442 4.56478L2.76099 4.53902L6.37952 0.922783L6.39868 0.941948C6.18506 0.726036 6.18652 0.377678 6.40295 0.163445C6.61865 -0.0544815 6.97009 -0.0544815 7.18579 0.163445L10.0356 3.01098C10.2512 3.22894 10.2512 3.57818 10.0356 3.7961C9.82935 4.00234 9.49426 4.01174 9.27625 3.81954L7.95447 5.13903ZM1.12634 11.8237H8.62329C9.24512 11.8237 9.74963 12.3282 9.74963 12.9501V14.9982H0V12.9501C0 12.3282 0.504517 11.8237 1.12634 11.8237Z" transform="translate(0 0.401123)" fill="#5C6979"/>
</svg>
