<?xml version="1.0" encoding="UTF-8"?>
<svg width="19px" height="17px" viewBox="0 0 19 17" version="1.1" xmlns="http://www.w3.org/2000/svg" xmlns:xlink="http://www.w3.org/1999/xlink">
    <!-- Generator: Sketch 49.1 (51147) - http://www.bohemiancoding.com/sketch -->
    <title>icon</title>
    <desc>Created with Sketch.</desc>
    <defs></defs>
    <g id="Pages" stroke="none" stroke-width="1" fill="none" fill-rule="evenodd">
        <g id="Artboard-1-Copy-45" transform="translate(-18.000000, -188.000000)" fill="#5C6979" fill-rule="nonzero">
            <g id="icon" transform="translate(18.000000, 188.000000)">
                <path d="M2.49307143,16.2015714 C2.49307143,16.2015714 2.47678571,16.6114286 2.87714286,16.6114286 C3.37521429,16.6114286 7.49889286,16.606 7.49889286,16.606 L7.50567857,12.8188929 C7.50567857,12.8188929 7.44053571,12.1946071 8.0465,12.1946071 L9.96414286,12.1946071 C10.6807143,12.1946071 10.6366071,12.8188929 10.6366071,12.8188929 L10.6284643,16.5937857 C10.6284643,16.5937857 14.5383929,16.5937857 15.1525,16.5937857 C15.66075,16.5937857 15.6376786,16.0835 15.6376786,16.0835 L15.6376786,9.10167857 L9.26182143,3.43017857 L2.49307143,9.10167857 C2.49307143,9.10167857 2.49307143,16.2015714 2.49307143,16.2015714 Z" id="Shape"></path>
                <path d="M0,8.57375 C0,8.57375 0.57475,9.633 1.82807143,8.57375 L9.31814286,2.23725 L16.3406786,8.53439286 C17.7914643,9.58075 18.335,8.53439286 18.335,8.53439286 L9.31814286,0.366428571 L0,8.57375 Z" id="Shape"></path>
                <polygon id="Shape" points="16.1703571 2.22232143 14.364 2.22232143 14.3714643 4.41275 16.1703571 5.93885714"></polygon>
            </g>
        </g>
    </g>
</svg>