<svg width="15" height="15" viewBox="0 0 15 15" fill="none" xmlns="http://www.w3.org/2000/svg">
<path d="M7.49987 0C3.35786 0 0 3.35796 0 7.49997C0 11.6419 3.35786 15.0001 7.49987 15.0001C11.6419 15.0001 15 11.6419 15 7.49997C15 3.35796 11.6419 0 7.49987 0ZM7.50002 2.63434L11.9382 5.40189H3.0618L7.50002 2.63434ZM11.9935 9.82131H11.9931C11.9931 10.2652 11.6333 10.6249 11.1895 10.6249H3.81056C3.36666 10.6249 3.00695 10.2652 3.00695 9.82131V5.57799C3.00695 5.53104 3.01175 5.48539 3.01955 5.44054L7.26002 8.08473C7.26522 8.08798 7.27077 8.09018 7.27612 8.09318C7.28172 8.09628 7.28742 8.09928 7.29312 8.10213C7.32307 8.11758 7.35392 8.13004 7.38547 8.13819C7.38872 8.13909 7.39197 8.13949 7.39522 8.14024C7.42982 8.14839 7.46487 8.15349 7.49987 8.15349H7.50013C7.50038 8.15349 7.50062 8.15349 7.50062 8.15349C7.53563 8.15349 7.57068 8.14854 7.60528 8.14024C7.60853 8.13944 7.61178 8.13909 7.61503 8.13819C7.64653 8.13004 7.67728 8.11758 7.70738 8.10213C7.71308 8.09928 7.71878 8.09628 7.72438 8.09318C7.72968 8.09018 7.73528 8.08798 7.74048 8.08473L11.9809 5.44054C11.9887 5.48539 11.9935 5.53094 11.9935 5.57799V9.82131Z" fill="#5C6979"/>
</svg>
