<?xml version="1.0" encoding="UTF-8"?>
<svg width="17px" height="16px" viewBox="0 0 17 16" version="1.1" xmlns="http://www.w3.org/2000/svg" xmlns:xlink="http://www.w3.org/1999/xlink">
    <!-- Generator: Sketch 49.1 (51147) - http://www.bohemiancoding.com/sketch -->
    <title>newspaper</title>
    <desc>Created with Sketch.</desc>
    <defs></defs>
    <g id="Pages" stroke="none" stroke-width="1" fill="none" fill-rule="evenodd">
        <g id="Artboard-1-Copy-45" transform="translate(-18.000000, -477.000000)" fill="#5C6979" fill-rule="nonzero">
            <g id="newspaper" transform="translate(18.000000, 477.000000)">
                <path d="M13.697914,4.53669385 C13.2070837,4.53669385 6.70338427,4.53669385 6.70338427,4.53669385 C6.70338427,4.53669385 6.33096795,4.48491053 6.34214372,4.17623171 C6.3474577,4.0023643 6.44395834,3.81694397 6.70338427,3.81694397 L13.7134724,3.81694397 C13.7134724,3.81694397 14.2061105,3.77769681 14.2001665,4.17650482 C14.2001665,4.32319691 14.1887442,4.53669385 13.697914,4.53669385 Z M13.697914,6.35164997 C13.2070837,6.35164997 6.70338427,6.35164997 6.70338427,6.35164997 C6.70338427,6.35164997 6.33096795,6.30024902 6.34214372,5.99132439 C6.3474577,5.81732042 6.44395834,5.63176353 6.70338427,5.63176353 L13.7134724,5.63176353 C13.7134724,5.63176353 14.2061105,5.59251637 14.2001665,5.99184331 C14.2001665,6.13787992 14.1887442,6.35164997 13.697914,6.35164997 Z M13.6376524,8.17460847 C13.14737,8.17460847 6.64262968,8.17460847 6.64262968,8.17460847 C6.64262968,8.17460847 6.2707338,8.12334408 6.28163566,7.81428289 C6.28774399,7.64025161 6.3836968,7.45472203 6.64262968,7.45472203 L13.6532382,7.45472203 C13.6532382,7.45472203 14.1456298,7.41547487 14.1399324,7.8147745 C14.1399324,7.96124809 14.1290031,8.17460847 13.6376524,8.17460847 Z M13.6376524,9.92972427 C13.14737,9.92972427 6.64262968,9.92972427 6.64262968,9.92972427 C6.64262968,9.92972427 6.2707338,9.87794096 6.28163566,9.56980837 C6.28774399,9.39577709 6.3836968,9.20986515 6.64262968,9.20986515 L13.6532382,9.20986515 C13.6532382,9.20986515 14.1456298,9.17050873 14.1399324,9.56980837 C14.1399324,9.71584497 14.1290031,9.92972427 13.6376524,9.92972427 Z M13.6376524,11.7594288 C13.14737,11.7594288 6.64262968,11.7594288 6.64262968,11.7594288 C6.64262968,11.7594288 6.2707338,11.7089291 6.28163566,11.3994856 C6.28774399,11.2254816 6.3836968,11.0400886 6.64262968,11.0400886 L13.6532382,11.0400886 C13.6532382,11.0400886 14.1456298,11.000978 14.1399324,11.3997587 C14.1399324,11.5460684 14.1290031,11.7594288 13.6376524,11.7594288 Z M15.8227633,0 L4.66369545,0 C4.01210384,0 3.48634929,0.528239001 3.48634929,1.17416488 L3.48634929,2.22122028 L3.49297806,2.22122028 L3.49297806,11.6967754 C3.49297806,11.6967754 3.56101882,12.2169847 3.30364725,12.774502 C3.27677608,12.8345608 3.24376919,12.8957121 3.20794097,12.9568088 C3.20366788,12.9635275 3.20158612,12.9702735 3.19703911,12.9769923 C3.19599823,12.9780301 3.1950943,12.9780301 3.19353298,12.9787948 C3.03509991,13.2369467 2.78775368,13.4850205 2.39468408,13.638322 C2.67333892,13.0160756 2.67763941,12.5113794 2.67763941,11.7796123 C2.67333892,11.239438 2.67333892,5.88549087 2.67333892,3.09096699 C2.31650843,3.08695214 1.89254109,3.08695214 1.41768015,3.08321041 C0.255289802,3.07714718 0.0382934702,4.045599 0,4.49422388 L0,12.9008741 C0,12.9008741 0.00531397227,13.3361707 0.0848044234,13.6481816 C0.193357372,14.0267515 0.375812884,14.3923756 0.6483594,14.7890806 C1.07972247,15.4206405 1.89815637,15.5514097 2.10085428,15.5749526 L16.0219825,15.5749526 C16.1456008,15.5684796 16.2949399,15.547231 16.4141208,15.4908047 C16.7636925,15.2880413 16.9999999,14.9133497 16.9999999,14.4801287 L16.9999999,1.17416488 C17.0002738,0.528211689 16.4741358,0 15.8227633,0 Z" id="Shape"></path>
            </g>
        </g>
    </g>
</svg>