<svg width="15" height="15" viewBox="0 0 15 15" fill="none" xmlns="http://www.w3.org/2000/svg">
<path d="M7.50003 0C3.35817 0 0 3.35817 0 7.50003C0 11.6418 3.35817 15.0001 7.50003 15.0001C11.6419 15.0001 15 11.6418 15 7.50003C15 3.35817 11.6419 0 7.50003 0ZM11.4605 10.9434L10.86 11.544C10.7528 11.6511 10.4389 11.7179 10.4288 11.7179C8.52905 11.7344 6.69987 10.9882 5.3559 9.64413C4.00824 8.29571 3.26117 6.46001 3.28123 4.55385C3.28123 4.55299 3.34998 4.24805 3.4571 4.14195L4.05758 3.54137C4.27732 3.32061 4.69943 3.22085 4.99513 3.31978L5.12144 3.36192C5.41627 3.46075 5.72582 3.78674 5.80728 4.08708L6.10934 5.19573C6.1908 5.49693 6.08093 5.92543 5.86126 6.14517L5.4603 6.5462C5.85396 8.00357 6.99745 9.14728 8.45507 9.5419L8.85588 9.14078C9.07664 8.92002 9.50499 8.81025 9.80554 8.89158L10.914 9.19473C11.2144 9.27727 11.5404 9.58487 11.6392 9.87961L11.6813 10.0077C11.7792 10.3026 11.6803 10.7246 11.4605 10.9434Z" fill="#5C6979"/>
</svg>
