<svg width="15" height="15" viewBox="0 0 15 15" fill="none" xmlns="http://www.w3.org/2000/svg">
<path d="M7.5 0C3.35815 0 0 3.35815 0 7.5C0 11.6418 3.35815 15 7.5 15C11.6428 15 15 11.6418 15 7.5C15 3.35815 11.6428 0 7.5 0ZM9.54527 10.3958C9.17631 10.8096 8.64352 11.0532 7.94678 11.1264V12.1875H7.0587V11.1319C5.8969 11.0129 5.17819 10.3372 4.90081 9.10676L6.2741 8.74878C6.40137 9.52239 6.82251 9.90876 7.53753 9.90876C7.87169 9.90876 8.1189 9.82638 8.27637 9.66064C8.43384 9.49491 8.51256 9.29534 8.51256 9.06097C8.51256 8.81836 8.43381 8.63432 8.27637 8.5098C8.1189 8.38441 7.76824 8.22598 7.22534 8.03373C6.73737 7.86439 6.35558 7.69772 6.08092 7.53114C5.80626 7.36635 5.58287 7.13473 5.41166 6.83716C5.24045 6.53868 5.1544 6.19078 5.1544 5.79527C5.1544 5.27616 5.30821 4.80832 5.61401 4.39269C5.91981 3.97796 6.40137 3.72434 7.05873 3.63188V2.8125H7.94681V3.6319C8.93924 3.75094 9.58195 4.31215 9.87398 5.31647L8.65084 5.81818C8.41189 5.12971 8.04381 4.78547 7.54397 4.78547C7.29311 4.78547 7.09169 4.86237 6.94063 5.01618C6.78864 5.16999 6.71268 5.35676 6.71268 5.57558C6.71268 5.79896 6.78592 5.97018 6.9324 6.09012C7.07798 6.20915 7.39201 6.35654 7.87175 6.53323C8.39909 6.72551 8.81291 6.90768 9.11229 7.07889C9.41259 7.2501 9.65153 7.48723 9.83098 7.78843C10.0095 8.09057 10.0992 8.44307 10.0992 8.84681C10.0992 9.46655 9.91424 9.98291 9.54527 10.3958Z" fill="#5C6979"/>
</svg>
