<svg width="15" height="15" viewBox="0 0 15 15" fill="none" xmlns="http://www.w3.org/2000/svg">
<path d="M14.5 7.5C14.5 11.366 11.366 14.5 7.5 14.5C3.63401 14.5 0.5 11.366 0.5 7.5C0.5 3.63401 3.63401 0.5 7.5 0.5C11.366 0.5 14.5 3.63401 14.5 7.5Z" transform="translate(0 15) rotate(-90)" fill="#5C6979" stroke="#5C6979"/>
<path fill-rule="evenodd" clip-rule="evenodd" d="M4.02252 3.25002L6.34 0.932524C6.55333 0.719196 6.55333 0.373324 6.34 0.160026C6.12668 -0.0533014 5.78084 -0.0533014 5.56751 0.160026L3.24999 2.47755L0.932469 0.159996C0.719141 -0.053332 0.3733 -0.053332 0.159973 0.159996C-0.0533243 0.373324 -0.0533243 0.719196 0.159973 0.932493L2.47749 3.24998L0.159973 5.56751C-0.0533243 5.78083 -0.0533243 6.12671 0.159973 6.34C0.3733 6.55333 0.719141 6.55333 0.932469 6.34L3.24999 4.02248L5.56751 6.34C5.7808 6.55333 6.12668 6.55333 6.34 6.34C6.55333 6.12668 6.55333 5.78083 6.34 5.56751L4.02252 3.25002Z" transform="translate(3 7.5426) rotate(-44.3357)" fill="white"/>
</svg>
