<?xml version="1.0" encoding="UTF-8"?>
<svg width="15px" height="18px" viewBox="0 0 15 18" version="1.1" xmlns="http://www.w3.org/2000/svg" xmlns:xlink="http://www.w3.org/1999/xlink">
    <!-- Generator: Sketch 49.1 (51147) - http://www.bohemiancoding.com/sketch -->
    <title>sale-tag</title>
    <desc>Created with Sketch.</desc>
    <defs></defs>
    <g id="Pages" stroke="none" stroke-width="1" fill="none" fill-rule="evenodd">
        <g id="Artboard-1-Copy-47" transform="translate(-19.000000, -237.000000)" fill="#5C6979" fill-rule="nonzero">
            <g id="sale-tag" transform="translate(19.000000, 237.000000)">
                <polygon id="Shape" points="10.1802101 12.8263613 9.3857521 13.2504202 9.75807983 13.6228235"></polygon>
                <path d="M5.12204168,5.29031496 C5.0877954,4.70212341 5.00069414,4.11490139 4.85895521,3.53162003 C4.3633068,1.49132376 3.55856618,0.35622384 2.3987589,0.0613305487 C2.23863019,0.0206728673 2.08209812,0 1.93344738,0 C0.703489965,0 0.0776118715,1.4335273 0.0164376985,2.76541039 C-0.0511166029,4.23825054 0.390363267,5.75218622 1.25968705,7.02827446 C1.35914199,7.17423554 1.50841823,7.25451882 1.68011875,7.25451882 C1.87974796,7.25451882 2.0726843,7.1432106 2.16025469,6.97745236 C2.23728536,6.83167894 2.2238996,6.66939224 2.12234922,6.5203662 C1.47654886,5.57235417 1.10772114,4.52441807 1.02618685,3.40554995 C0.986748904,2.86414601 1.03231678,1.71096906 1.48708859,1.2219197 C1.62219719,1.07655285 1.77888564,1.00590231 1.96606735,1.00590231 C2.08550711,1.00590231 2.21814497,1.03577007 2.36035303,1.09453606 C2.88555645,1.31167935 3.16987875,1.86090208 3.43825072,2.45284665 C3.65836515,2.93842446 3.83350593,3.49415242 3.97371238,4.15202498 C4.06040707,4.55885199 4.11438796,4.9792837 4.13562378,5.40618935 L2.46840864,5.60228448 L1.94647184,10.0408635 C1.91073213,10.3447959 2.01612765,10.6483612 2.23252064,10.8647551 L8.66063093,17.2928912 C9.0511542,17.6834161 9.68431877,17.6834177 10.074844,17.2928947 L14.1590501,13.2087198 C14.5495755,12.8181966 14.5495773,12.1850316 14.1590542,11.7945062 C14.159053,11.7945051 14.1590518,11.7945039 14.1590507,11.7945027 L7.73092386,5.3664098 C7.51452239,5.15000923 7.21094393,5.04461432 6.90700196,5.08036455 L5.12204168,5.29031496 Z M4.09965737,6.71561689 C4.06988344,7.00291033 4.02578549,7.29010993 3.96730098,7.57540176 C3.93580691,7.72893142 3.97027212,7.87695665 4.06444156,7.99229937 C4.16483476,8.11536704 4.32809099,8.19183476 4.49040896,8.19183476 C4.71962446,8.19183476 4.8912937,8.04906374 4.93848789,7.81925402 C5.00738702,7.48304627 5.05792765,7.14590026 5.09142332,6.80837896 C5.14155737,6.84309436 5.18931451,6.88206319 5.2333499,6.92609858 C5.42581711,7.11853452 5.53183984,7.37445898 5.53183984,7.64664652 C5.53183984,7.91883406 5.42578584,8.17472725 5.2333499,8.36710064 C5.04091397,8.55947402 4.7849895,8.66559057 4.51280196,8.66559057 C4.24061442,8.66559057 3.98472123,8.55953657 3.79234785,8.36710064 C3.39509103,7.96984382 3.39509103,7.32338668 3.79234785,6.92603603 C3.88232643,6.83608873 3.98666029,6.76575094 4.09965737,6.71561689 Z" id="Shape"></path>
            </g>
        </g>
    </g>
</svg>