<?xml version="1.0" encoding="UTF-8"?>
<svg width="18px" height="18px" viewBox="0 0 18 18" version="1.1" xmlns="http://www.w3.org/2000/svg" xmlns:xlink="http://www.w3.org/1999/xlink">
    <!-- Generator: Sketch 49.1 (51147) - http://www.bohemiancoding.com/sketch -->
    <title>shopping-purse-icon</title>
    <desc>Created with Sketch.</desc>
    <defs></defs>
    <g id="Pages" stroke="none" stroke-width="1" fill="none" fill-rule="evenodd">
        <g id="Artboard-1-Copy-45" transform="translate(-18.000000, -286.000000)" fill="#5C6979" fill-rule="nonzero">
            <g id="auction" transform="translate(18.000000, 286.000000)">
                <g id="shopping-purse-icon">
                    <path d="M5.899875,7.546875 C6.313875,7.546875 6.649875,7.210875 6.649875,6.796875 L6.649875,3.871875 C6.649875,2.56425 7.71375,1.5 9.02175,1.5 C10.329375,1.5 11.393625,2.56425 11.393625,3.871875 L11.393625,6.796875 C11.393625,7.210875 11.729625,7.546875 12.143625,7.546875 C12.557625,7.546875 12.893625,7.210875 12.893625,6.796875 L12.893625,3.871875 C12.893625,1.737 11.156625,0 9.02175,0 C6.88725,0 5.15025,1.737 5.15025,3.871875 L5.15025,6.796875 C5.149875,7.210875 5.485875,7.546875 5.899875,7.546875 Z" id="Shape"></path>
                    <path d="M17.625,5.861625 L13.643625,5.861625 L13.643625,6.796875 C13.643625,7.624125 12.970875,8.296875 12.143625,8.296875 C11.31675,8.296875 10.643625,7.624125 10.643625,6.796875 L10.643625,5.861625 L7.40025,5.861625 L7.40025,6.796875 C7.40025,7.624125 6.7275,8.296875 5.90025,8.296875 C5.073,8.296875 4.40025,7.624125 4.40025,6.796875 L4.40025,5.861625 L0.375,5.861625 C0.168,5.861625 0.040125,6.02475 0.08925,6.22575 L2.713125,16.9125 C2.87175,17.51325 3.503625,18 4.125,18 L13.875,18 C14.49675,18 15.12825,17.512875 15.287625,16.9125 L17.911125,6.22575 C17.959875,6.024375 17.832375,5.861625 17.625,5.861625 Z" id="Shape"></path>
                </g>
            </g>
        </g>
    </g>
</svg>