<?xml version="1.0" encoding="UTF-8"?>
<svg width="18px" height="15px" viewBox="0 0 18 15" version="1.1" xmlns="http://www.w3.org/2000/svg" xmlns:xlink="http://www.w3.org/1999/xlink">
    <!-- Generator: Sketch 49.1 (51147) - http://www.bohemiancoding.com/sketch -->
    <title>support</title>
    <desc>Created with Sketch.</desc>
    <defs></defs>
    <g id="Pages" stroke="none" stroke-width="1" fill="none" fill-rule="evenodd">
        <g id="Artboard-1-Copy-45" transform="translate(-18.000000, -384.000000)" fill="#5C6979" fill-rule="nonzero">
            <g id="support" transform="translate(18.000000, 384.000000)">
                <path d="M16.6361096,0.00846575342 L4.30734247,0.00846575342 C3.56761644,0.00846575342 2.97583562,0.616684932 2.97583562,1.3399726 L2.97583562,9.00024658 C2.97583562,9.7399726 3.58405479,10.3317534 4.30734247,10.3317534 L12.8059726,10.3317534 L14.7292603,12.2714795 C14.8114521,12.3536712 14.9100822,12.4029863 15.0251507,12.4029863 C15.2552877,12.4029863 15.4525479,12.2221644 15.4525479,11.975589 L15.4525479,10.3317534 L16.6361096,10.3317534 C17.3758356,10.3317534 17.9676164,9.72353425 17.9676164,9.00024658 L17.9676164,1.3399726 C17.9676164,0.600246575 17.3593973,0.00846575342 16.6361096,0.00846575342 Z M6.19775342,6.60024658 C5.52378082,6.60024658 4.96487671,6.04134247 4.96487671,5.36736986 C4.96487671,4.69339726 5.52378082,4.13449315 6.19775342,4.13449315 C6.87172603,4.13449315 7.43063014,4.69339726 7.43063014,5.36736986 C7.43063014,6.04134247 6.88816438,6.60024658 6.19775342,6.60024658 Z M10.5210411,6.60024658 C9.84706849,6.60024658 9.28816438,6.04134247 9.28816438,5.36736986 C9.28816438,4.69339726 9.84706849,4.13449315 10.5210411,4.13449315 C11.1950137,4.13449315 11.7539178,4.69339726 11.7539178,5.36736986 C11.7539178,6.04134247 11.1950137,6.60024658 10.5210411,6.60024658 Z M14.8278904,6.60024658 C14.1539178,6.60024658 13.5950137,6.04134247 13.5950137,5.36736986 C13.5950137,4.69339726 14.1539178,4.13449315 14.8278904,4.13449315 C15.501863,4.13449315 16.0607671,4.69339726 16.0607671,5.36736986 C16.0607671,6.04134247 15.501863,6.60024658 14.8278904,6.60024658 Z" id="Shape"></path>
                <path d="M2.21967123,9.03312329 L2.21967123,6.41942466 L0.871726027,6.41942466 C0.395013699,6.41942466 0.000493150685,6.81394521 0.000493150685,7.29065753 L0.000493150685,12.3207945 C-0.0159452055,12.8303836 0.378575342,13.2249041 0.871726027,13.2249041 L1.64432877,13.2249041 L1.64432877,14.3098356 C1.64432877,14.4577808 1.77583562,14.5892877 1.92378082,14.5892877 C2.0059726,14.5892877 2.07172603,14.556411 2.1210411,14.5070959 L3.38679452,13.2413425 L8.97583562,13.2413425 C9.45254795,13.2413425 9.84706849,12.8468219 9.84706849,12.3701096 L9.84706849,11.1207945 L4.30734247,11.1207945 C3.15665753,11.1207945 2.21967123,10.1838082 2.21967123,9.03312329 Z" id="Shape"></path>
            </g>
        </g>
    </g>
</svg>