<svg width="13" height="7" viewBox="0 0 13 7" fill="none" xmlns="http://www.w3.org/2000/svg">
<path fill-rule="evenodd" clip-rule="evenodd" d="M6.00371 0C4.85917 0 3.76542 0.304688 2.76933 0.859375C1.76933 1.41797 0.866987 2.22266 0.0974559 3.22266C0.0193309 3.32422 -0.0119191 3.45703 0.0115184 3.58203C0.0232372 3.65234 0.0505809 3.71875 0.0974559 3.77734C1.63261 5.77344 3.71074 7 6.00371 7C7.05058 7 8.05058 6.74609 8.97636 6.28125C9.49589 6.01562 9.99589 5.68359 10.4646 5.29297C10.9842 4.85938 11.4685 4.34766 11.91 3.77734C11.9959 3.66797 12.0232 3.52734 11.992 3.39844C11.9764 3.33594 11.949 3.27734 11.91 3.22266C10.3748 1.22656 8.29667 0 6.00371 0ZM6.16777 5.96484C5.55058 6.00391 4.97636 5.82422 4.51933 5.49609C3.84746 5.01562 3.42949 4.22656 3.48417 3.33984C3.51152 2.94141 3.63261 2.56641 3.83183 2.23828C3.96464 2.02344 4.12871 1.83203 4.31621 1.66797C4.72636 1.30469 5.25761 1.07031 5.83964 1.03516C6.43339 1 6.98808 1.16406 7.4373 1.46875C8.13652 1.94141 8.58183 2.75391 8.52324 3.66016C8.47636 4.38281 8.10136 5.02734 7.54667 5.44922C7.15996 5.74609 6.68339 5.93359 6.16777 5.96484ZM5.23808 4.59766C5.47636 4.75781 5.77324 4.84375 6.08964 4.82422C6.76542 4.78516 7.31621 4.25 7.35917 3.58203C7.39433 3.08594 7.14824 2.64844 6.76152 2.39453C6.52324 2.23828 6.23027 2.15234 5.91777 2.17188C5.23808 2.21484 4.6873 2.75 4.64824 3.41406C4.61308 3.90625 4.85527 4.34375 5.23808 4.59766Z" fill="#5C6979"/>
</svg>
