<svg width="40" height="38" viewBox="0 0 40 38" fill="none" xmlns="http://www.w3.org/2000/svg">
<path fill-rule="evenodd" clip-rule="evenodd" d="M8.125 12.7969H4.875V7.99805H0V4.79882H4.875V0H8.125V4.79882H13V7.99805H8.125V12.7969ZM30.9526 8.42155H36.5C38.4248 8.42155 40 9.99655 40 11.9215V32.9215C40 34.8465 38.4248 36.4215 36.5 36.4215H8.5C6.5752 36.4215 5 34.8465 5 32.9215V15.4215H10.25V10.1715H15.5V4.92152H27.75L30.9526 8.42155ZM13.75 22.4215C13.75 27.2515 17.6699 31.1715 22.5 31.1715C27.3301 31.1715 31.25 27.2516 31.25 22.4216C31.25 17.5916 27.3301 13.6715 22.5 13.6715C17.6699 13.6715 13.75 17.5915 13.75 22.4215ZM22.5 16.1719C18.9048 16.1719 16 19.0766 16 22.6719C16 26.2672 18.9048 29.1719 22.5 29.1719C26.0952 29.1719 29 26.2672 29 22.6719C29 19.0766 26.0952 16.1719 22.5 16.1719Z" transform="translate(0 0.828125)" fill="#F2F4F7"/>
</svg>
