<svg width="45" height="42" viewBox="0 0 45 42" fill="none" xmlns="http://www.w3.org/2000/svg">
<path d="M16.4238 29.0436C16.4238 30.6763 15.1596 32 13.6002 32C12.0407 32 10.7766 30.6763 10.7766 29.0436C10.7766 27.4108 12.0407 26.0872 13.6002 26.0872C15.1597 26.0872 16.4238 27.4108 16.4238 29.0436ZM25.0332 26.0872C23.4738 26.0872 22.2096 27.4108 22.2096 29.0436C22.2096 30.6764 23.4738 32 25.0332 32C26.5926 32 27.8568 30.6764 27.8568 29.0436C27.8568 27.4108 26.5926 26.0872 25.0332 26.0872ZM33.7979 12.2086L30.3235 23.0209C30.3235 23.0209 30.0359 24.6254 28.5706 24.6254C27.1052 24.6254 12.7751 24.6254 11.0264 24.6254C9.27764 24.6254 9.20415 22.6142 9.20415 22.6142C9.20415 22.6142 7.33996 8.13335 7.24758 7.25851C7.1552 6.38367 6.08665 5.73525 6.08665 5.73525L1.48908 3.48663C-1.02803 2.10844 0.116109 -0.513861 1.48908 0.0884154C7.31895 2.96788 10.0271 4.38564 10.2014 5.51984C10.3777 6.65623 10.6842 9.39284 10.6842 9.39284V9.41042C10.7199 9.39943 10.7451 9.39284 10.7451 9.39284C10.7451 9.39284 28.6231 9.39284 32.2339 9.39284C34.8287 9.39284 33.7979 12.213 33.7979 12.2086ZM28.7721 18.2291L28.7364 18.2313H11.7276L12.0782 21.1415H27.945L28.7721 18.2291ZM30.4285 12.3602H11.0243L11.398 15.4705C15.1201 15.4705 26.0199 15.4705 29.551 15.4705L30.4285 12.3602Z" transform="translate(0 10)" fill="white"/>
<path d="M21.7374 38.1197C21.7374 40.2627 20.0642 42 18.0002 42C15.9363 42 14.2631 40.2627 14.2631 38.1197C14.2631 35.9767 15.9363 34.2394 18.0003 34.2394C20.0642 34.2394 21.7374 35.9767 21.7374 38.1197ZM33.1322 34.2394C31.0682 34.2394 29.395 35.9767 29.395 38.1197C29.395 40.2627 31.0682 42 33.1322 42C35.1961 42 36.8693 40.2627 36.8693 38.1197C36.8693 35.9767 35.1961 34.2394 33.1322 34.2394ZM44.7326 16.0237L40.1341 30.2149C40.1341 30.2149 39.7534 32.3209 37.814 32.3209C35.8746 32.3209 16.9083 32.3209 14.5938 32.3209C12.2792 32.3209 12.182 29.6812 12.182 29.6812C12.182 29.6812 9.71465 10.675 9.59238 9.5268C9.47011 8.37857 8.05586 7.52751 8.05586 7.52751L1.97084 4.5762C-1.36062 2.76733 0.153673 -0.674442 1.97084 0.116045C9.68685 3.89534 13.2712 5.75615 13.5018 7.24479C13.7352 8.73631 14.1409 12.3281 14.1409 12.3281V12.3512C14.1881 12.3368 14.2214 12.3281 14.2214 12.3281C14.2214 12.3281 37.8835 12.3281 42.6626 12.3281C46.0968 12.3281 44.7326 16.0295 44.7326 16.0237ZM38.0808 23.9257L38.0335 23.9285H15.5218L15.9858 27.7482H36.986L38.0808 23.9257ZM40.273 16.2228H14.591L15.0856 20.305C20.0119 20.305 34.4381 20.305 39.1116 20.305L40.273 16.2228Z" fill="white" fill-opacity="0.1"/>
</svg>
