<svg width="12" height="12" viewBox="0 0 12 12" fill="none" xmlns="http://www.w3.org/2000/svg">
<path d="M6 0C9.30831 0 12 2.69151 12 6C12 9.30849 9.30831 12 6 12C2.69169 12 0 9.30849 0 6C0 2.69151 2.69169 0 6 0ZM6 11.2615C8.90123 11.2615 11.2615 8.90123 11.2615 6C11.2615 3.09877 8.90123 0.738462 6 0.738462C3.09877 0.738462 0.738461 3.09877 0.738461 6C0.738461 8.90123 3.09877 11.2615 6 11.2615Z" fill="#5C6979"/>
<path d="M5.9059 4.22726C5.56484 4.22726 5.28836 3.95078 5.28836 3.60973C5.28836 3.26867 5.56484 2.99219 5.9059 2.99219C6.24696 2.99219 6.52344 3.26867 6.52344 3.60973C6.52344 3.95078 6.24696 4.22726 5.9059 4.22726Z" fill="#5C6979"/>
<path d="M6.06827 5.23047C6.27208 5.23047 6.4375 5.39588 6.4375 5.5997V8.73816C6.4375 8.94198 6.27208 9.10739 6.06827 9.10739C5.86445 9.10739 5.69904 8.94198 5.69904 8.73816V5.5997C5.69904 5.3957 5.86445 5.23047 6.06827 5.23047Z" fill="#5C6979"/>
</svg>
