<svg width="10" height="10" viewBox="0 0 10 10" fill="none" xmlns="http://www.w3.org/2000/svg">
<path d="M5 0C2.24308 0 0 2.24292 0 5C0 7.75708 2.24308 10 5 10C7.75692 10 10 7.75708 10 5C10 2.24292 7.75692 0 5 0ZM5 9.38461C2.58231 9.38461 0.615385 7.41769 0.615385 5C0.615385 2.58231 2.58231 0.615385 5 0.615385C7.41769 0.615385 9.38461 2.58231 9.38461 5C9.38461 7.41769 7.41769 9.38461 5 9.38461Z" transform="translate(10 0.000152588) scale(-1 1)" fill="#FA2A00"/>
<path d="M0.514616 1.02923C0.79883 1.02923 1.02923 0.79883 1.02923 0.514615C1.02923 0.230401 0.79883 0 0.514616 0C0.230401 0 0 0.230401 0 0.514615C0 0.79883 0.230401 1.02923 0.514616 1.02923Z" transform="translate(5.43506 2.49161) scale(-1 1)" fill="#FA2A00"/>
<path d="M0.307692 -1.45545e-07C0.137846 -1.45545e-07 -1.33808e-07 0.137846 -1.33808e-07 0.307692V2.92308C-1.33808e-07 3.09292 0.137846 3.23077 0.307692 3.23077C0.477539 3.23077 0.615385 3.09292 0.615385 2.92308V0.307692C0.615385 0.137692 0.477539 -1.45545e-07 0.307692 -1.45545e-07Z" transform="translate(5.36377 4.36026) scale(-1 1)" fill="#FA2A00"/>
</svg>
