<svg width="35" height="30" viewBox="0 0 35 30" fill="none" xmlns="http://www.w3.org/2000/svg">
<path d="M34.2928 0.950479C34.2273 0.775463 34.0765 0.65231 33.8996 0.629459C33.7232 0.606694 33.5484 0.687826 33.4449 0.841019C32.8307 1.75068 32.0247 2.05389 31.091 2.40504C30.3382 2.68832 29.5596 2.98101 28.7182 3.61911C27.5283 4.52149 26.984 5.75157 27.2554 6.91746L27.2264 6.95674C26.7295 6.19532 26.1888 5.49106 25.6183 4.8622C22.9489 1.92004 19.2189 0.151224 15.3844 0.00941413C15.2155 0.0031666 15.0438 0 14.8741 0C10.5925 0 6.49425 2.0218 3.63039 5.54686C0.781519 9.05369 -0.481197 13.6187 0.166163 18.0715C0.220285 18.4437 0.288019 18.8198 0.367663 19.1895C1.42062 24.085 4.10995 27.8091 7.74619 29.4066C8.64253 29.8004 9.54665 30 10.4331 30C12.6355 30 14.5592 28.7557 15.7111 26.5862C16.1489 25.7607 16.4314 24.907 16.5504 24.0486C16.6206 23.5419 16.5726 23.0357 16.5261 22.5452C16.4783 22.0402 16.433 21.563 16.5054 21.0826C16.6713 19.9812 17.3996 19.3236 18.4537 19.3236C18.7536 19.3236 19.06 19.3757 19.366 19.4787C19.0077 20.1727 18.6824 20.8355 18.3981 21.4498C17.7955 22.7517 17.3799 23.8298 17.1623 24.654C17.0282 25.1623 16.672 26.513 17.5407 27.1499C17.8166 27.3522 18.1663 27.4235 18.5304 27.352C18.8584 27.2876 19.8566 27.0917 22.6931 23.6808C23.4544 22.7655 24.2747 21.7063 25.1321 20.5319C27.3333 19.7488 29.0463 17.8 29.4994 15.5607C29.6129 15.0009 29.6602 14.4018 29.64 13.7796C30.4641 12.4342 31.187 11.1789 31.9144 9.82941C31.9284 9.80339 31.9421 9.77566 31.9558 9.74725C33.0115 9.4418 33.9208 8.57391 34.4546 7.36027C35.2339 5.58896 35.1764 3.31247 34.2928 0.950479ZM22.3931 9.33799C22.0112 9.97858 21.3548 10.361 20.6371 10.361C20.2474 10.361 19.8662 10.2446 19.5348 10.0241C19.0663 9.71241 18.7405 9.22673 18.6179 8.6565C18.4954 8.08626 18.59 7.49959 18.8852 7.00467C19.2671 6.36409 19.9235 5.98162 20.6413 5.98162C21.0311 5.98162 21.4122 6.09809 21.7435 6.31864C22.212 6.63016 22.5377 7.11584 22.6603 7.68616C22.7829 8.25648 22.6881 8.84307 22.3931 9.33799ZM25.0835 13.305C26.1315 11.6741 27.2397 10.0529 28.2923 8.6108C28.4629 8.77357 28.6537 8.93259 28.8604 9.08407C29.2029 9.33508 29.5611 9.52918 29.927 9.66209C29.0383 11.2674 28.0827 12.8579 26.9257 14.658C25.0247 17.6166 23.0481 20.365 21.36 22.3967C20.417 23.5315 19.5918 24.4077 18.956 24.9504C19.2014 24.1211 19.6704 22.9829 20.3232 21.6344C21.4905 19.2229 23.1811 16.2649 25.0835 13.305ZM6.68473 13.291C6.29494 13.291 5.91373 13.1745 5.58227 12.9539C5.11381 12.6423 4.78818 12.1568 4.66552 11.5864C4.54285 11.0161 4.63781 10.4294 4.93297 9.9345C5.31466 9.294 5.97109 8.91153 6.68878 8.91153C7.07866 8.91153 7.45986 9.02801 7.79124 9.24856C8.75831 9.89197 9.04966 11.2465 8.44095 12.2678C8.05885 12.9085 7.40233 13.291 6.68473 13.291ZM4.5119 18.1123C4.89375 17.4716 5.55011 17.0891 6.26788 17.0891C6.65759 17.0891 7.03871 17.2057 7.37025 17.4261C7.83872 17.7377 8.16434 18.2233 8.28701 18.7937C8.40975 19.3638 8.3148 19.9504 8.01956 20.4455C7.63786 21.0859 6.98143 21.4685 6.26374 21.4685C5.87395 21.4685 5.49266 21.352 5.16112 21.1314C4.69266 20.8197 4.36712 20.3342 4.24453 19.7639C4.12203 19.1938 4.21706 18.6071 4.5119 18.1123ZM11.1501 5.1085C11.532 4.46792 12.1884 4.08545 12.9061 4.08545C13.2957 4.08545 13.6769 4.20193 14.0083 4.42239C14.9755 5.06563 15.2668 6.42023 14.658 7.44174C14.276 8.08241 13.6196 8.46488 12.9019 8.46488C12.5122 8.46488 12.131 8.3484 11.7996 8.12785C11.3312 7.81633 11.0057 7.33074 10.883 6.76033C10.7602 6.1901 10.8551 5.60351 11.1501 5.1085Z" fill="#5C6979"/>
</svg>
