<svg width="32" height="30" viewBox="0 0 32 30" fill="none" xmlns="http://www.w3.org/2000/svg">
<path d="M25.2124 3.66448L9.65344 10.7861V15.3592L6.93919 14.1842V9.61103L22.4982 2.48947L17.2723 0.227177C16.5725 -0.0757255 15.4275 -0.0757255 14.7277 0.227177L1.85919 5.79803C0.833993 6.24184 -0.00260827 7.49866 6.11082e-06 8.59104L0.0316924 21.6507C0.034359 22.7546 0.889627 24.0128 1.93224 24.4468L14.7671 29.7887C15.4439 30.0704 16.5516 30.0704 17.2285 29.7888L30.0677 24.4468C31.1103 24.013 31.9656 22.7549 31.9683 21.651L32 8.59104C32.0027 7.49866 31.1661 6.24184 30.1408 5.79803L25.2124 3.66448ZM29.0927 14.118L28.3396 14.4582L28.3243 19.6179C28.3237 19.8434 28.1191 20.1118 27.868 20.2172L26.7405 20.6911C26.4934 20.795 26.2934 20.6987 26.2933 20.4762L26.2895 15.3843L25.56 15.7138C25.2169 15.8687 25.0021 15.6258 25.1725 15.2759L26.9162 11.6942C27.0922 11.3327 27.5335 11.1241 27.7101 11.3202L29.4994 13.3062C29.6781 13.5045 29.4513 13.9561 29.0927 14.118ZM21.7305 22.4042C21.7324 22.6202 21.5449 22.8746 21.3122 22.9724L20.2666 23.4119C20.0373 23.5082 19.8498 23.4133 19.8472 23.2001L19.7859 18.3218L19.1094 18.6273C18.7913 18.771 18.5882 18.5353 18.7431 18.2026L20.3279 14.7978C20.4878 14.4543 20.8965 14.2612 21.0632 14.4514L22.7522 16.3775C22.9208 16.5698 22.7149 16.9987 22.3829 17.1486L21.6855 17.4636L21.7305 22.4042ZM30.3373 20.9877C30.3365 21.101 30.2319 21.2354 30.1037 21.2879L18.1615 26.1725C18.05 26.2181 17.9584 26.1703 17.9568 26.0658L17.9476 25.4976C17.9459 25.3928 18.0349 25.2704 18.1466 25.2241L30.1101 20.2622C30.2384 20.209 30.3421 20.2579 30.3413 20.3715L30.3373 20.9877Z" fill="#5C6979"/>
</svg>
