<svg width="43" height="16" viewBox="0 0 43 16" fill="none" xmlns="http://www.w3.org/2000/svg">
<path fill-rule="evenodd" clip-rule="evenodd" d="M18.8242 2.54688C18.8242 2.54688 18.8242 2.54688 19.7287 2.54688C20.0582 2.54688 20.2242 2.7059 20.2242 3.06493C20.2242 3.06493 20.2242 3.06493 20.2242 4.33716C20.2242 4.33716 20.2242 4.33716 21.9959 4.33716C21.9959 4.33716 21.9959 4.33716 21.9959 3.06493C21.9959 2.7059 22.1595 2.54688 22.5312 2.54688C22.5312 2.54688 22.5312 2.54688 23.3959 2.54688C23.3959 2.54688 23.3959 2.54688 23.3959 3.38299C23.3959 3.38299 23.3959 3.38299 23.0267 3.38299L22.9846 3.42395C22.9846 3.42395 22.9846 3.42395 22.9846 7.00453C22.9846 7.00453 22.9846 7.00453 21.9959 7.00453C21.9959 7.00453 21.9959 7.00453 21.9959 5.21424C21.9959 5.21424 21.9959 5.21424 20.2242 5.21424C20.2242 5.21424 20.2242 5.21424 20.2242 7.00453C20.2242 7.00453 20.2242 7.00453 19.2355 7.00453C19.2355 7.00453 19.2355 7.00453 19.2355 3.42395C19.2355 3.42395 19.2355 3.38299 19.1934 3.38299C19.1934 3.38299 19.1934 3.38299 18.8242 3.38299C18.8242 3.38299 18.8242 3.38299 18.8242 2.54688Z" fill="#ED1C24"/>
<path fill-rule="evenodd" clip-rule="evenodd" d="M25.9903 2.46484L26.0126 2.46725V3.38529L25.9903 3.38047C25.2494 3.38047 24.672 3.97804 24.672 4.73463C24.672 5.52978 25.2494 6.1659 25.9903 6.1659L26.0126 6.16108V7.07911L25.9903 7.08152C24.672 7.08152 23.6016 6.04783 23.6016 4.73463C23.6016 3.45998 24.672 2.46484 25.9903 2.46484Z" fill="#ED1C24"/>
<path fill-rule="evenodd" clip-rule="evenodd" d="M26.0078 2.46875L26.4662 2.51212C27.554 2.71934 28.3742 3.62051 28.3742 4.73613C28.3742 5.88307 27.554 6.82038 26.4662 7.03483L26.0078 7.08061V6.16258L26.5108 6.05656C26.9965 5.8397 27.3459 5.33129 27.3459 4.73613C27.3459 4.16748 26.9965 3.69039 26.5108 3.48799L26.0078 3.38679V2.46875Z" fill="#ED1C24"/>
<path fill-rule="evenodd" clip-rule="evenodd" d="M28.5859 2.54688C28.5859 2.54688 28.5859 2.54688 29.9661 2.54688H30.6252V3.38299H30.5633C30.4815 3.38299 30.3155 3.38299 29.9859 3.38299C29.9859 3.38299 29.9859 3.38299 29.9859 4.29861C29.9859 4.29861 29.986 4.29861 30.266 4.29861H30.6252V5.09376H30.4146C30.3106 5.09376 30.1718 5.09376 29.9859 5.09376C29.9859 5.09376 29.9859 5.09376 29.9859 6.0889C29.9859 6.12986 29.9859 6.12986 30.0281 6.12986C30.0281 6.12986 30.0281 6.12986 30.3229 6.12986H30.6252V7.00453H30.5385C30.3898 7.00453 30.09 7.00453 29.4928 7.00453C29.1633 7.00453 28.9997 6.8455 28.9997 6.48647V3.38299C28.9997 3.38299 28.9997 3.38299 28.5859 3.38299C28.5859 3.38299 28.5859 3.38299 28.5859 2.54688Z" fill="#ED1C24"/>
<path fill-rule="evenodd" clip-rule="evenodd" d="M30.6211 2.54688H30.6409C31.5478 2.54688 32.0831 3.02397 32.0831 3.74201C32.0831 4.17814 31.8774 4.45764 31.6717 4.65763C32.0434 4.81666 32.2887 5.21424 32.2887 5.65036C32.2887 6.48647 31.6296 7.00453 30.683 7.00453C30.683 7.00453 30.683 7.00453 30.6657 7.00453H30.6211V6.12986H30.7227C31.0522 6.12986 31.2604 5.92987 31.2604 5.61181C31.2604 5.29375 31.0522 5.09376 30.7227 5.09376C30.7227 5.09376 30.7227 5.09376 30.631 5.09376H30.6211V4.29861H30.6409C30.9308 4.29861 31.0944 4.09862 31.0944 3.82152C31.0944 3.54202 30.9308 3.38299 30.6409 3.38299C30.6409 3.38299 30.6409 3.38299 30.631 3.38299H30.6211V2.54688Z" fill="#ED1C24"/>
<path fill-rule="evenodd" clip-rule="evenodd" d="M34.1869 2.54688C34.1869 2.54688 34.1869 2.54688 34.6032 2.54688H34.68V3.82152C34.6403 3.90104 34.5982 4.01911 34.5982 4.13958C34.5982 4.13958 34.5982 4.13958 34.2686 5.05521C34.2686 5.05521 34.2686 5.05521 34.618 5.05521H34.68V5.88891H34.457C34.3306 5.88891 34.1869 5.88891 34.0233 5.88891C34.0233 5.88891 34.0233 5.88891 33.7334 6.60695C33.6516 6.88405 33.4881 7.00453 33.1585 7.00453C33.1585 7.00453 33.1585 7.00453 32.5391 7.00453C32.5391 7.00453 32.5391 7.00453 32.5391 6.12986C32.5391 6.12986 32.5391 6.12986 32.7447 6.12986C32.829 6.12986 32.829 6.12986 32.8686 6.0889C32.8686 6.0889 32.8686 6.0889 34.1869 2.54688Z" fill="#ED1C24"/>
<path fill-rule="evenodd" clip-rule="evenodd" d="M34.6797 2.54688H35.1753C35.1753 2.54688 35.1753 2.54688 36.4935 6.0889C36.5332 6.12986 36.5332 6.12986 36.6149 6.12986C36.6149 6.12986 36.6149 6.12986 36.7809 6.12986C36.7809 6.12986 36.7809 6.12986 36.7809 7.00453C36.7809 7.00453 36.7809 7.00453 36.2036 7.00453C35.874 7.00453 35.7105 6.88405 35.6262 6.56599C35.6262 6.56599 35.6262 6.56599 35.3388 5.88891C35.3388 5.88891 35.3388 5.88891 34.7838 5.88891H34.6797V5.05521H35.091C35.091 5.05521 35.091 5.05521 34.7639 4.13958C34.7639 4.01911 34.7218 3.90104 34.6797 3.82152V2.54688Z" fill="#ED1C24"/>
<path fill-rule="evenodd" clip-rule="evenodd" d="M18.8242 8.27344C18.8242 8.27344 18.8242 8.27344 22.4073 8.27344C22.7368 8.27344 22.9425 8.43247 22.9425 8.79149C22.9425 8.79149 22.9425 8.79149 22.9425 11.8155C22.9425 11.854 22.9425 11.854 22.9846 11.854C22.9846 11.854 22.9846 11.854 23.3142 11.854C23.3142 11.854 23.3142 11.854 23.3142 12.7311C23.3142 12.7311 23.3142 12.7311 22.4494 12.7311C22.0777 12.7311 21.9142 12.5721 21.9142 12.213C21.9142 12.213 21.9142 12.213 21.9142 9.15051C21.9142 9.15051 21.9142 9.10955 21.872 9.10955C21.872 9.10955 21.872 9.10955 20.2242 9.10955C20.2242 9.10955 20.2242 9.10955 20.2242 12.7311C20.2242 12.7311 20.2242 12.7311 19.2355 12.7311C19.2355 12.7311 19.2355 12.7311 19.2355 9.10955C19.2355 9.10955 19.2355 9.10955 18.8242 9.10955C18.8242 9.10955 18.8242 9.10955 18.8242 8.27344Z" fill="#ED1C24"/>
<path fill-rule="evenodd" clip-rule="evenodd" d="M25.9076 8.19531L25.9275 8.19772V9.11576L25.9076 9.11094C25.1643 9.11094 24.5894 9.7085 24.5894 10.4651C24.5894 11.2602 25.1643 11.8964 25.9076 11.8964L25.9275 11.8915V12.8096L25.9076 12.812C24.5894 12.812 23.5586 11.7759 23.5586 10.4651C23.5586 9.19045 24.5894 8.19531 25.9076 8.19531Z" fill="#ED1C24"/>
<path fill-rule="evenodd" clip-rule="evenodd" d="M25.9258 8.19922L26.3991 8.24259C27.5067 8.44981 28.2947 9.35098 28.2947 10.4666C28.2947 11.6135 27.5067 12.5508 26.3991 12.7653L25.9258 12.8111V11.893L26.4486 11.787C26.9417 11.5702 27.2663 11.0618 27.2663 10.4666C27.2663 9.89795 26.9417 9.42086 26.4486 9.21845L25.9258 9.11725V8.19922Z" fill="#ED1C24"/>
<path fill-rule="evenodd" clip-rule="evenodd" d="M28.5 8.27344C28.5 8.27344 28.5 8.27344 29.4069 8.27344C29.7365 8.27344 29.9 8.43247 29.9 8.79149C29.9 8.79149 29.9 8.79149 29.9 11.8155C29.9 11.854 29.9 11.854 29.9421 11.854C29.9421 11.854 29.9421 11.854 31.1365 11.854C31.1365 11.854 31.1365 11.854 31.1365 8.27344C31.1365 8.27344 31.1365 8.27344 32.1252 8.27344C32.1252 8.27344 32.1252 8.27344 32.1252 11.854C32.1252 11.854 32.1252 11.854 33.3195 11.854C33.3616 11.854 33.3616 11.854 33.3616 11.8155C33.3616 11.8155 33.3616 11.8155 33.3616 8.79149C33.3616 8.43247 33.5252 8.27344 33.8547 8.27344C33.8547 8.27344 33.8547 8.27344 34.7616 8.27344C34.7616 8.27344 34.7616 8.27344 34.7616 9.10955C34.7616 9.10955 34.7616 9.10955 34.39 9.10955C34.3478 9.10955 34.3478 9.15051 34.3478 9.15051C34.3478 9.15051 34.3478 9.15051 34.3478 12.213C34.3478 12.5721 34.1843 12.7311 33.8547 12.7311C33.8547 12.7311 33.8547 12.7311 29.4466 12.7311C29.0774 12.7311 28.9113 12.5721 28.9113 12.213C28.9113 12.213 28.9113 12.213 28.9113 9.15051C28.9113 9.15051 28.9113 9.10955 28.8717 9.10955C28.8717 9.10955 28.8717 9.10955 28.5 9.10955C28.5 9.10955 28.5 9.10955 28.5 8.27344Z" fill="#ED1C24"/>
<path fill-rule="evenodd" clip-rule="evenodd" d="M35.5433 8.27344C35.5433 8.27344 35.5433 8.27344 38.6332 8.27344C39.0049 8.27344 39.1288 8.43247 39.1288 8.75053C39.1288 8.75053 39.1288 8.75053 39.1288 9.50712H38.2219C38.2219 9.50712 38.2219 9.50712 38.2219 9.15051C38.2219 9.10955 38.2219 9.10955 38.1798 9.10955C38.1798 9.10955 38.1798 9.10955 37.6049 9.10955C37.6049 9.10955 37.6049 9.10955 37.6049 12.7311C37.6049 12.7311 37.6049 12.7311 36.6137 12.7311C36.6137 12.7311 36.6137 12.7311 36.6137 9.10955C36.6137 9.10955 36.6137 9.10955 36.0389 9.10955C35.9968 9.10955 35.9968 9.10955 35.9968 9.15051C35.9968 9.15051 35.9968 9.15051 35.9968 9.50712C35.9968 9.50712 35.9968 9.50712 35.0898 9.50712C35.0898 9.50712 35.0898 9.50712 35.0898 8.75053C35.0898 8.43247 35.2137 8.27344 35.5433 8.27344Z" fill="#ED1C24"/>
<path fill-rule="evenodd" clip-rule="evenodd" d="M40.4056 8.27344C40.4056 8.27344 40.4056 8.27344 40.8219 8.27344H40.8987V9.54808C40.8566 9.6276 40.8169 9.74567 40.8169 9.86614C40.8169 9.86614 40.8169 9.86614 40.4874 10.7818C40.4874 10.7818 40.4874 10.7818 40.8343 10.7818H40.8987V11.6155H40.6757C40.5493 11.6155 40.4056 11.6155 40.2396 11.6155C40.2396 11.6155 40.2396 11.6155 39.9522 12.2926C39.8704 12.6106 39.7044 12.7311 39.3748 12.7311C39.3748 12.7311 39.3748 12.7311 38.7578 12.7311C38.7578 12.7311 38.7578 12.7311 38.7578 11.854C38.7578 11.854 38.7578 11.854 38.9635 11.854C39.0477 11.854 39.0477 11.854 39.0874 11.8155C39.0874 11.8155 39.0874 11.8155 40.4056 8.27344Z" fill="#ED1C24"/>
<path fill-rule="evenodd" clip-rule="evenodd" d="M40.8984 8.27344H41.3915C41.3915 8.27344 41.3915 8.27344 42.7123 11.8155C42.7519 11.854 42.7519 11.854 42.8362 11.854H42.9997C42.9997 11.854 42.9997 11.854 42.9997 12.7311C42.9997 12.7311 42.9997 12.7311 42.4223 12.7311C42.0928 12.7311 41.9292 12.6106 41.845 12.2926C41.845 12.2926 41.845 12.2926 41.5576 11.6155C41.5576 11.6155 41.5576 11.6155 41.0025 11.6155H40.8984V10.7818H41.3098C41.3098 10.7818 41.3098 10.7818 40.9802 9.86614C40.9802 9.74567 40.9406 9.6276 40.8984 9.54808V8.27344Z" fill="#ED1C24"/>
<path fill-rule="evenodd" clip-rule="evenodd" d="M12.4753 4.44108C12.5223 4.42662 12.5843 4.45554 12.6462 4.53505C12.6462 4.53505 12.6462 4.53505 15.4463 7.20001C15.6098 7.35904 15.6098 7.59999 15.4463 7.71806C15.4463 7.71806 15.4463 7.71806 12.6462 10.424C12.5843 10.5035 12.5223 10.5228 12.4753 10.4987C12.4282 10.4746 12.3984 10.4047 12.3984 10.3035V4.61457C12.3984 4.51578 12.4282 4.45554 12.4753 4.44108Z" fill="#ED1C24"/>
<path fill-rule="evenodd" clip-rule="evenodd" d="M7.68503 0H7.88327L8.07406 0.0771056C8.07406 0.0771056 8.07406 0.0771054 10.9559 2.86253C11.0798 3.02156 11.0376 3.14204 10.832 3.14204C10.832 3.14204 10.832 3.14204 9.63762 3.14204C9.43195 3.14204 9.26841 3.30107 9.26841 3.50106C9.26841 3.50106 9.26841 3.50106 9.26841 5.56845C9.26841 5.76844 9.10239 5.92747 8.8546 5.92747C8.8546 5.92747 8.8546 5.92747 6.75582 5.92747C6.55016 5.92747 6.38414 5.76844 6.38414 5.56845C6.38414 5.56845 6.38414 5.56845 6.38414 3.50106C6.38414 3.30107 6.2206 3.14204 6.01245 3.14204H4.73634C4.53067 3.14204 4.48855 3.02156 4.61244 2.86253C4.61244 2.86253 4.61244 2.86253 7.49672 0.0771056L7.68503 0Z" fill="#ED1C24"/>
<path fill-rule="evenodd" clip-rule="evenodd" d="M3.17047 4.3808C3.2225 4.40489 3.25472 4.47477 3.25472 4.57597V10.383C3.25472 10.4842 3.2225 10.5444 3.17047 10.5637C3.12091 10.583 3.04905 10.5637 2.9648 10.5034C2.9648 10.5034 2.9648 10.5034 0.122656 7.71801C-0.0408853 7.59995 -0.0408853 7.35899 0.122656 7.19996C0.122656 7.19996 0.122656 7.19996 2.9648 4.45549C3.04905 4.37598 3.12091 4.3567 3.17047 4.3808Z" fill="#ED1C24"/>
<path fill-rule="evenodd" clip-rule="evenodd" d="M6.7573 8.95312C6.7573 8.95312 6.7573 8.95312 8.85608 8.95312C9.10387 8.95312 9.26988 9.11215 9.26988 9.31215C9.26988 9.31215 9.26988 9.31215 9.26988 11.5C9.26988 11.7386 9.43343 11.8976 9.63909 11.8976H10.7517C10.9573 11.8976 11.0391 12.0157 10.8756 12.1361C10.8756 12.1361 10.8756 12.1361 8.07554 14.8806C7.99129 14.9601 7.8897 15.0011 7.78562 15.0011C7.68403 15.0011 7.57996 14.9601 7.49819 14.8806C7.49819 14.8806 7.49819 14.8806 4.69817 12.1361C4.53215 12.0157 4.61392 11.8976 4.81958 11.8976C4.81958 11.8976 4.81958 11.8976 6.01393 11.8976C6.22207 11.8976 6.38561 11.7386 6.38561 11.5C6.38561 11.5 6.38561 11.5 6.38561 9.31215C6.38561 9.11215 6.55163 8.95312 6.7573 8.95312Z" fill="#ED1C24"/>
</svg>
