<svg width="48" height="46" viewBox="0 0 48 46" fill="none" xmlns="http://www.w3.org/2000/svg">
<path fill-rule="evenodd" clip-rule="evenodd" d="M2.85498 0H21.6987C22.7388 0 23.6538 0.613159 24.1528 1.52429C24.2852 1.48718 24.4141 1.47534 24.5337 1.49121C24.7231 1.51514 24.9873 1.62048 25.1904 1.97632C25.6475 2.78906 25.6792 3.73096 25.71 4.64771L25.7109 4.67188L25.7124 4.72266V4.72717C25.7295 5.23181 25.7461 5.71423 25.8345 6.16833C26.1509 7.84802 26.6636 9.34509 27.3584 10.6326C27.7773 11.4056 28.2896 12.1478 28.791 12.8737L28.8555 12.9674C29.1636 13.4072 29.481 13.8654 29.7729 14.3301C30.2715 14.2285 30.7905 14.4259 31.0752 14.6558L36.21 15.1893C36.9302 15.2615 37.563 15.6992 37.8887 16.3497L45.7725 32.1104C46.2979 33.1605 45.877 34.4294 44.8296 34.9526L36.8003 38.9626C35.7593 39.4824 34.4839 39.0608 33.9653 38.0071L26.0879 22.26C25.7593 21.6028 25.792 20.8242 26.1733 20.2018L28.8506 15.8301C28.8354 15.6571 28.8218 15.2474 28.9976 14.8981C28.8926 14.7693 28.7891 14.649 28.6885 14.5414C28.4482 14.2803 28.2012 14.0227 27.9536 13.765C26.9688 12.7242 25.9463 11.6427 25.042 10.4938C24.8838 10.2935 24.7192 10.0807 24.5537 9.85669V42.8931C24.5537 44.6042 23.2686 46 21.6987 46H2.85498C1.28516 46 0 44.6016 0 42.8917V3.10693C0 1.39709 1.28516 0 2.85498 0ZM22.416 4.92725C22.4365 5.25122 22.4858 5.58582 22.5669 5.9259V40.25H1.98633V4.92725H22.416ZM24.5537 9.39185C24.7886 9.72205 25.0244 10.0305 25.248 10.3146C26.0786 11.3683 27.0078 12.3589 27.9146 13.3257L27.9189 13.3302L27.9233 13.3347L28.1431 13.569C28.248 13.6783 28.3516 13.7885 28.4551 13.8986L28.5103 13.957L28.5537 14.0034C28.6611 14.1177 28.7686 14.2318 28.8774 14.3452C28.9688 14.4432 29.062 14.5505 29.1562 14.6644C29.2148 14.6 29.2837 14.5415 29.3647 14.4916C29.4165 14.4592 29.4702 14.4316 29.5239 14.4082C29.291 14.0497 29.0454 13.6903 28.8047 13.3385L28.7983 13.3291L28.646 13.1058L28.6099 13.0535L28.605 13.0464C28.0962 12.309 27.5674 11.5425 27.1353 10.744C26.4268 9.42944 25.9009 7.90515 25.5811 6.2019C25.4966 5.76257 25.4785 5.29675 25.4609 4.8374L25.4541 4.66467L25.4517 4.59131C25.4209 3.72388 25.3896 2.8324 24.9673 2.08765C24.8452 1.87756 24.6899 1.75208 24.5005 1.72815C24.4224 1.71777 24.3423 1.72375 24.2617 1.74219C24.4487 2.15466 24.5537 2.61804 24.5537 3.10693V9.39185ZM15.291 2.2395H9.2627C9.07178 2.2395 8.91699 2.40771 8.91699 2.6167C8.91699 2.82434 9.07178 2.99268 9.2627 2.99268H15.291C15.4819 2.99268 15.6362 2.82434 15.6362 2.6167C15.6362 2.40771 15.4819 2.2395 15.291 2.2395ZM10.8491 42.8917C10.8491 43.7512 11.4883 44.4465 12.2769 44.4465C13.0654 44.4465 13.7041 43.7512 13.7041 42.8917C13.7041 42.0322 13.0654 41.3383 12.2769 41.3383C11.4883 41.3383 10.8491 42.0322 10.8491 42.8917ZM30.8799 17.7065C30.9106 17.7676 30.9883 17.788 31.0493 17.7576C31.0493 17.7576 31.0562 17.7543 31.0591 17.7272C31.1201 17.6968 31.1436 17.6088 31.1064 17.5511L31.0923 17.527L30.9995 17.3706L31.0615 17.3376C31.1064 17.3153 31.1514 17.2958 31.1973 17.2788C31.2251 17.3379 31.2524 17.3972 31.2788 17.4567C31.3062 17.5278 31.3872 17.5549 31.4478 17.5247C31.5122 17.501 31.5459 17.4164 31.5151 17.3555L31.4487 17.2128C31.7979 17.1569 32.1538 17.2434 32.4375 17.4464C32.5723 17.5605 32.6865 17.7036 32.771 17.8718C33.103 18.5359 32.8369 19.3378 32.1743 19.6686C31.7192 19.896 31.1963 19.8368 30.8071 19.564C30.6685 19.4491 30.5503 19.3047 30.4653 19.1344C30.1855 18.5762 30.3291 17.9204 30.7759 17.5291L30.8799 17.7065ZM29.479 15.0737C29.584 14.9929 29.6963 14.9222 29.8145 14.8625L29.7202 14.7122L29.667 14.6299C29.6123 14.6505 29.5591 14.6765 29.5068 14.7084C29.4336 14.7535 29.373 14.8096 29.3237 14.8723C29.3755 14.938 29.4272 15.0054 29.479 15.0737ZM29.1841 15.1339L29.2744 15.2526C29.2197 15.3068 29.1685 15.3641 29.1196 15.4246C29.1304 15.3308 29.1504 15.231 29.1841 15.1339ZM29.9258 14.5692L29.9331 14.5804L30.0479 14.7616C30.2012 14.7059 30.3613 14.6677 30.5259 14.6488C30.3457 14.5851 30.1353 14.5472 29.9258 14.5692ZM36.6572 32.0238C36.2632 31.2056 36.0732 30.5778 36.0864 30.1403C36.0967 29.6971 36.2881 29.0564 36.6602 28.218C36.8955 27.5662 37.0488 26.979 37.1206 26.4568C37.189 25.9288 37.106 25.4253 36.8711 24.9464C36.6001 24.3933 36.2383 24.0399 35.7856 23.8861C35.3364 23.7239 34.833 23.7787 34.2759 24.0504C33.7988 24.2828 33.4585 24.6115 33.2539 25.0363C33.0464 25.4553 33.0674 25.9186 33.3159 26.426L31.2998 27.4093L31.249 27.3706C30.7344 26.364 30.689 25.4077 31.1128 24.5015C31.54 23.5867 32.3105 22.8575 33.4248 22.3142C34.6309 21.7258 35.7192 21.5729 36.6904 21.8552C37.667 22.1348 38.4209 22.8163 38.9521 23.8997C39.3071 24.6238 39.4243 25.4003 39.3037 26.229C39.1865 27.0493 38.9316 27.8729 38.54 28.6998C38.3525 29.1447 38.2783 29.5162 38.3179 29.8149C38.3633 30.1107 38.5078 30.5066 38.7505 31.0027L36.6572 32.0238ZM40.5122 34.5096L38.3755 35.5518L37.3989 33.559L39.5356 32.5168L40.5122 34.5096Z" transform="translate(4 -6)" fill="white" fill-opacity="0.1"/>
<path fill-rule="evenodd" clip-rule="evenodd" d="M2.42578 0H18.4365C19.3203 0 20.0977 0.516846 20.522 1.28491C20.6348 1.25354 20.7441 1.24341 20.8457 1.25684C21.0068 1.2771 21.231 1.36584 21.4038 1.66577C21.7915 2.3501 21.8188 3.14307 21.8452 3.91492L21.8462 3.93811L21.8472 3.97266C21.8613 4.40234 21.875 4.81311 21.9512 5.19958C22.2202 6.61548 22.6553 7.87744 23.2456 8.96277C23.603 9.61633 24.0396 10.2438 24.4668 10.8575L24.5181 10.9309C24.7798 11.3016 25.0493 11.6877 25.2974 12.0796C25.7207 11.9939 26.1621 12.1603 26.4038 12.3541L30.7666 12.804C31.3789 12.8647 31.9165 13.2336 32.1929 13.782L38.8916 27.0676C39.3384 27.953 38.9805 29.0226 38.0903 29.4636L31.2681 32.8439C30.3838 33.2821 29.3003 32.9266 28.8599 32.0385L22.1665 18.7643C21.8872 18.2102 21.915 17.5538 22.2393 17.0293L24.5137 13.3445C24.501 13.1989 24.4893 12.8531 24.6387 12.5583C24.5493 12.4498 24.4614 12.3485 24.376 12.2577C24.1719 12.0376 23.9619 11.8204 23.752 11.6033C22.9146 10.726 22.0459 9.81433 21.2773 8.8457C21.1426 8.67664 21.0029 8.49719 20.8623 8.30823V36.1572C20.8623 37.5997 19.7705 38.7762 18.4365 38.7762H2.42578C1.0918 38.7762 0 37.5974 0 36.1561V2.61902C0 1.17773 1.0918 0 2.42578 0ZM19.0464 4.15344C19.064 4.42603 19.1055 4.7074 19.1743 4.99341V33.9292H1.68799V4.15344H19.0464ZM20.8623 7.91602C21.062 8.19458 21.2627 8.45496 21.4526 8.6947C22.1621 9.58667 22.9546 10.4249 23.7285 11.2433L23.9126 11.438C24.0176 11.5466 24.1211 11.6559 24.2246 11.7651C24.3281 11.8745 24.4316 11.9839 24.5366 12.0924C24.6143 12.175 24.6934 12.2654 24.7734 12.3615C24.8232 12.3071 24.8818 12.2578 24.9507 12.2157C24.9946 12.1886 25.0396 12.1653 25.0854 12.1456C24.8931 11.8518 24.6904 11.5573 24.4917 11.2686L24.3398 11.0476L24.3071 11.0002C23.874 10.3777 23.4243 9.73071 23.0562 9.05664C22.4546 7.94849 22.0073 6.6637 21.7358 5.22778C21.6641 4.85693 21.6484 4.46375 21.6333 4.07605V4.07166L21.6279 3.93201L21.626 3.87207C21.6001 3.14026 21.5732 2.38794 21.2144 1.75964C21.1108 1.58264 20.9785 1.47681 20.8174 1.45667C20.751 1.44788 20.6826 1.453 20.6143 1.46863C20.7729 1.81628 20.8623 2.20691 20.8623 2.61902V7.91602ZM12.9922 1.88782H7.87012C7.70801 1.88782 7.57666 2.02966 7.57666 2.20581C7.57666 2.38086 7.70801 2.52271 7.87012 2.52271H12.9922C13.1543 2.52271 13.2856 2.38086 13.2856 2.20581C13.2856 2.02966 13.1543 1.88782 12.9922 1.88782ZM9.21826 36.1561C9.21826 36.8806 9.76123 37.4667 10.4312 37.4667C11.1011 37.4667 11.644 36.8806 11.644 36.1561C11.644 35.4315 11.1011 34.8466 10.4312 34.8466C9.76123 34.8466 9.21826 35.4315 9.21826 36.1561ZM26.2383 14.9259C26.2642 14.9773 26.3301 14.9945 26.3818 14.9689C26.3818 14.9689 26.3877 14.9661 26.3901 14.9432C26.4419 14.9176 26.4619 14.8434 26.4302 14.7948L26.4199 14.7772L26.3394 14.6427L26.3921 14.6149C26.4302 14.5961 26.4683 14.5796 26.5073 14.5653C26.5308 14.6151 26.5542 14.665 26.5767 14.7152C26.6001 14.7751 26.6689 14.7981 26.7207 14.7725C26.7749 14.7526 26.8037 14.6813 26.7778 14.6299L26.7217 14.5096C27.019 14.4625 27.3213 14.5356 27.5625 14.707C27.6768 14.8032 27.7734 14.9236 27.8447 15.0652C28.127 15.6249 27.9009 16.3009 27.3379 16.5797C26.9502 16.7717 26.5054 16.7216 26.1748 16.491C26.0571 16.3943 25.9575 16.2727 25.8853 16.1295C25.6479 15.6588 25.77 15.1058 26.1499 14.776L26.2383 14.9259ZM25.0474 12.7064C25.1367 12.6384 25.2324 12.5789 25.3325 12.5286L25.2524 12.4016L25.207 12.3324C25.1606 12.3499 25.1152 12.3716 25.0713 12.3984C25.0088 12.4365 24.958 12.4836 24.916 12.5366C24.96 12.592 25.0034 12.6488 25.0474 12.7064ZM24.7974 12.7571L24.874 12.8572C24.8276 12.903 24.7837 12.9513 24.7422 13.0023C24.7515 12.9233 24.7686 12.8389 24.7974 12.7571ZM25.4268 12.2812L25.4331 12.2906L25.5308 12.4435C25.6611 12.3965 25.7979 12.3643 25.9375 12.3483C25.7847 12.2944 25.6055 12.2627 25.4268 12.2812ZM31.1455 26.9948C30.811 26.3051 30.6494 25.7759 30.6606 25.4071C30.6694 25.0334 30.832 24.4933 31.1479 23.7866C31.3481 23.2371 31.4785 22.7422 31.5391 22.302C31.5972 21.8569 31.5269 21.4325 31.3271 21.0288C31.0972 20.5625 30.7896 20.2646 30.4053 20.135C30.0229 19.9983 29.5952 20.0444 29.1221 20.2734C28.7173 20.4695 28.4277 20.7465 28.2539 21.1045C28.0776 21.4578 28.0952 21.8483 28.3066 22.2761L26.5938 23.105L26.5503 23.0723C26.1128 22.2239 26.0747 21.4176 26.4346 20.6537C26.7974 19.8826 27.4521 19.2681 28.3989 18.8099C29.4238 18.314 30.3486 18.1851 31.1738 18.4231C32.0039 18.6587 32.644 19.2332 33.0952 20.1464C33.397 20.7568 33.4966 21.4114 33.394 22.11C33.2944 22.8015 33.0781 23.4957 32.7451 24.1927C32.5859 24.5677 32.5229 24.881 32.5566 25.1327C32.5952 25.3821 32.7178 25.7158 32.9243 26.134L31.1455 26.9948ZM34.4209 29.0902L32.6055 29.9686L31.7759 28.2888L33.5913 27.4104L34.4209 29.0902Z" transform="translate(0.779297 6.61279)" fill="white"/>
</svg>
