<svg width="14" height="19" viewBox="0 0 14 19" fill="none" xmlns="http://www.w3.org/2000/svg">
    <path fill-rule="evenodd" clip-rule="evenodd" d="M2.56615 18.8309C2.05721 18.8309 1.63872 18.4296 1.61743 17.9211L0.984375 4.55859H13.0125L12.3795 17.9211C12.3582 18.4296 11.9397 18.8309 11.4308 18.8309H2.56615ZM9.38948 7.49194C9.17645 7.49194 9.00378 7.66463 9.00378 7.87755V15.5118C9.00378 15.7249 9.17654 15.8975 9.38948 15.8975H10.0064C10.2194 15.8975 10.3921 15.7248 10.3921 15.5118V7.87755C10.3921 7.66459 10.2193 7.49194 10.0064 7.49194H9.38948ZM6.30432 7.87755C6.30432 7.66463 6.47698 7.49194 6.68997 7.49194H7.30686C7.51975 7.49194 7.69251 7.66459 7.69251 7.87755V15.5118C7.69251 15.7248 7.51989 15.8975 7.30686 15.8975H6.68997C6.47703 15.8975 6.30432 15.7249 6.30432 15.5118V7.87755ZM3.99051 7.49194C3.77752 7.49194 3.60486 7.66463 3.60486 7.87755V15.5118C3.60486 15.7249 3.77757 15.8975 3.99051 15.8975H4.60744C4.82043 15.8975 4.99309 15.7248 4.99309 15.5118V7.87755C4.99309 7.66459 4.82038 7.49194 4.60744 7.49194H3.99051Z" fill="#ADB4BC"/>
    <path d="M13.4068 0.952219H9.33557V0.194806C9.33557 0.0872441 9.24696 0 9.13761 0H4.86239C4.75309 0 4.66447 0.0872441 4.66447 0.194806V0.952173H0.593199C0.26556 0.952173 0 1.21354 0 1.53596V3.36985H14V1.536C14 1.21359 13.7344 0.952219 13.4068 0.952219Z" fill="#ADB4BC"/>
</svg>
