<svg width="19" height="19" viewBox="0 0 19 19" fill="none" xmlns="http://www.w3.org/2000/svg">
<path fill-rule="evenodd" clip-rule="evenodd" d="M14 7C14 10.866 10.8662 14 7 14C3.13379 14 0 10.866 0 7C0 3.13403 3.13379 0 7 0C10.8662 0 14 3.13403 14 7ZM7 13C3.68555 13 1 10.3146 1 7C1 3.68665 3.68555 1 7 1C10.3135 1 13 3.68665 13 7C13 10.3146 10.3135 13 7 13ZM14.1831 12.8486C13.9038 12.5734 13.4541 12.5768 13.1787 12.8563C12.9038 13.1357 12.9072 13.5854 13.1865 13.8606L17.4604 18.0702C17.7397 18.3454 18.1895 18.342 18.4644 18.0626C18.7397 17.7831 18.7363 17.3335 18.457 17.0582L14.1831 12.8486Z" fill="white"/>
</svg>
