<svg width="62" height="67" viewBox="0 0 62 67" fill="none" xmlns="http://www.w3.org/2000/svg">
<path opacity="0.1" fill-rule="evenodd" clip-rule="evenodd" d="M13.0547 36.3479C13.0546 36.4896 13.1794 36.5997 13.3198 36.5995C13.3198 36.5995 13.3354 36.5997 13.3667 36.5522C13.5069 36.5524 13.6317 36.4108 13.6161 36.2694L13.6118 36.2111C13.607 36.1395 13.5982 36.0108 13.5851 35.8347C13.6316 35.8325 13.6785 35.8315 13.7257 35.8313C13.8305 35.8311 13.9337 35.8372 14.0353 35.8485C14.032 35.9836 14.0274 36.1187 14.0215 36.2536C14.0059 36.4109 14.1307 36.5368 14.2711 36.5366C14.4116 36.5521 14.5519 36.4265 14.5518 36.2848C14.5557 36.1766 14.5587 36.0686 14.5612 35.9603C15.265 36.1844 15.8456 36.6845 16.1791 37.3356C16.3156 37.6658 16.3908 38.029 16.3909 38.41C16.391 39.9513 15.159 41.1941 13.6306 41.1942C12.5691 41.194 11.6502 40.5871 11.1883 39.7047C11.0451 39.3694 10.9655 39.0008 10.9655 38.6155C10.9654 37.3178 11.8385 36.2319 13.0267 35.9207C13.0457 36.1854 13.0548 36.3398 13.0547 36.3479ZM12.8996 30.1579C13.1682 30.1054 13.4404 30.0788 13.7131 30.0774L13.6785 29.7096L13.6564 29.5083C13.5363 29.4959 13.4127 29.4948 13.2867 29.5056C13.1102 29.5215 12.9478 29.569 12.7991 29.6392C12.8339 29.8093 12.8675 29.9825 12.8996 30.1579ZM12.2994 29.9951C12.319 30.0959 12.3382 30.1977 12.3569 30.3003C12.2055 30.3506 12.0561 30.4096 11.9099 30.4767C12.0172 30.312 12.1465 30.1444 12.2994 29.9951ZM12.1726 29.3836C11.5239 29.8695 11.1705 30.645 11.0386 30.9804L2.05862 36.6172C0.77975 37.4195 0.00028826 38.8348 0.000118811 40.3607L9.13598e-05 76.9177C-0.015433 79.3559 1.94956 81.3221 4.35106 81.3223L22.8779 81.3224C25.2951 81.3223 27.2447 79.3557 27.2445 76.9179L27.2446 40.3293C27.2446 38.8191 26.4803 37.4195 25.2171 36.6171L16.2301 30.8622C15.918 30.1718 15.1419 29.3238 14.1286 29.0498C14.0191 27.9156 13.8566 26.7701 13.6941 25.6671L13.6618 25.4372C13.4066 23.6227 13.1457 21.7677 13.0859 19.9413C12.9923 16.9055 13.429 13.6491 14.3959 10.2358C14.6524 9.30695 15.07 8.39257 15.5066 7.43601L15.5498 7.34161L15.5728 7.29109C16.3611 5.56081 17.171 3.78312 17.078 1.85182C17.0315 1.0022 16.6414 0.561926 16.314 0.34172C15.6902 -0.083076 14.6766 -0.114692 13.6316 0.262963C12.0722 0.813616 10.5906 2.15062 9.68616 3.8023C9.17156 4.76164 8.76596 5.86298 8.51666 7.07396C7.73676 10.7393 8.3295 14.5929 8.93759 17.5347C9.5458 20.5077 10.4348 23.4649 11.2925 26.3121C11.5108 27.0197 11.7291 27.7278 11.9317 28.4357C12.0176 28.7285 12.0978 29.0473 12.1726 29.3836ZM12.682 29.0974C12.8487 29.0325 13.0293 28.9881 13.2244 28.9707C13.3507 28.959 13.4751 28.9566 13.5968 28.9633C13.4999 28.0977 13.381 27.2193 13.2643 26.3589L13.1795 25.7299L13.1628 25.6103C12.9027 23.7595 12.6324 21.835 12.5712 19.9414C12.4777 16.8425 12.9143 13.5233 13.8968 10.0628C14.1464 9.16755 14.5443 8.28416 14.9366 7.4132L15.0821 7.08962L15.1422 6.9574C15.888 5.3159 16.6547 3.62872 16.5636 1.85149C16.5325 1.34809 16.3608 0.970732 16.0333 0.750526C15.4563 0.357399 14.5206 0.48318 13.8343 0.734933C12.3842 1.25388 11.0274 2.48084 10.1853 4.03797C9.68612 4.95058 9.31182 6.00443 9.06241 7.15269C8.29824 10.7235 8.89093 14.4985 9.48358 17.3929C10.0459 20.1286 10.8488 22.8365 11.6325 25.4808L11.8228 26.1231C11.931 26.4745 12.0353 26.8256 12.1399 27.1763C12.246 27.5332 12.352 27.89 12.4621 28.2468C12.5398 28.5131 12.6132 28.7985 12.682 29.0974ZM14.1902 29.6361L14.1931 29.6626C14.2079 29.8101 14.2228 29.9582 14.2376 30.1062C14.5719 30.1452 14.9028 30.2232 15.2234 30.3403C14.9499 30.0551 14.5971 29.79 14.1902 29.6361Z" transform="matrix(0.450444 0.892805 -0.89594 0.444174 74.8589 0.00012207)" fill="white"/>
<path fill-rule="evenodd" clip-rule="evenodd" d="M11.0728 30.83C11.0729 30.95 11.1786 31.0434 11.2977 31.0434C11.2977 31.0434 11.3109 31.0435 11.3374 31.0034C11.4564 31.0033 11.5623 30.8832 11.5491 30.7632L11.5454 30.7123C11.5413 30.6513 11.5337 30.5429 11.5226 30.3951C11.5621 30.3931 11.6021 30.392 11.6422 30.392C11.7308 30.3918 11.8183 30.3971 11.9044 30.4066C11.9015 30.5212 11.8976 30.6359 11.8927 30.7501C11.8796 30.8835 11.9855 30.9902 12.1045 30.9901C12.2235 31.0036 12.3426 30.8967 12.3426 30.7768C12.3457 30.6852 12.3483 30.5933 12.3505 30.5012C12.9476 30.6913 13.4404 31.1151 13.7232 31.6676C13.839 31.9477 13.9028 32.2555 13.9028 32.5787C13.9029 33.8862 12.8579 34.9402 11.5615 34.9403C10.6609 34.9403 9.88161 34.4248 9.48972 33.6763C9.36822 33.3923 9.30088 33.0799 9.30087 32.7535C9.30095 31.6526 10.0413 30.7321 11.0489 30.4681C11.0649 30.6925 11.0727 30.8234 11.0728 30.83ZM10.9411 25.5793C11.1691 25.5347 11.4001 25.5119 11.6314 25.511L11.6018 25.1997L11.583 25.0289C11.4811 25.0186 11.3767 25.0168 11.2699 25.0263C11.12 25.0397 10.9823 25.0801 10.8561 25.1398C10.8854 25.2842 10.9138 25.4309 10.9411 25.5793ZM10.4322 25.4417C10.4489 25.5269 10.4652 25.613 10.481 25.7C10.3526 25.7428 10.2262 25.7926 10.1022 25.8496C10.1931 25.7101 10.3028 25.5679 10.4322 25.4417ZM10.3247 24.9228C9.77476 25.3351 9.47532 25.9923 9.36317 26.277L1.74626 31.0579C0.661428 31.7387 0.000138763 32.9393 5.65548e-05 34.2336L7.63534e-05 65.241C-0.0129935 67.3087 1.65357 68.9766 3.69061 68.9767L19.405 68.9765C21.4551 68.9767 23.1087 67.3087 23.1086 65.2409L23.1086 34.2069C23.1086 32.9261 22.4605 31.7387 21.389 31.0582L13.7665 26.1774C13.5016 25.5919 12.8432 24.8723 11.9836 24.6395C11.8907 23.6778 11.753 22.706 11.6151 21.7707L11.5865 21.5678C11.3706 20.0308 11.15 18.4604 11.0993 16.9138C11.0198 14.3391 11.3904 11.577 12.2104 8.68176C12.4279 7.89456 12.7817 7.11927 13.1519 6.30856L13.1891 6.22702L13.2088 6.18402C13.8774 4.71628 14.5642 3.20859 14.4855 1.57055C14.4457 0.850234 14.1151 0.476395 13.8373 0.289833C13.3082 -0.0704752 12.4485 -0.0972217 11.5622 0.222921C10.2395 0.689867 8.98295 1.82389 8.21556 3.22511C7.77908 4.03897 7.43515 4.97294 7.22355 6.00014C6.5623 9.10877 7.06472 12.3779 7.58068 14.8729C8.09651 17.3945 8.85053 19.9029 9.57803 22.3178L9.59205 22.3635C9.77255 22.9486 9.95284 23.5335 10.1205 24.1187C10.1931 24.3672 10.2613 24.6375 10.3247 24.9228ZM10.7564 24.6804C10.8979 24.6251 11.0513 24.5872 11.217 24.5724C11.3241 24.5625 11.4292 24.5608 11.5324 24.5664C11.4502 23.8329 11.3494 23.0885 11.2509 22.3588L11.1787 21.8238L11.1646 21.7241C10.9439 20.1536 10.7145 18.5211 10.6628 16.914C10.5833 14.2859 10.9538 11.4703 11.787 8.53534C11.9989 7.77537 12.3362 7.0266 12.6691 6.28765L12.7924 6.01339L12.843 5.90204C13.4758 4.50946 14.1264 3.07785 14.0489 1.57067C14.0224 1.14372 13.8771 0.82323 13.5992 0.636668C13.1098 0.302871 12.3162 0.409622 11.7341 0.623264C10.5039 1.06369 9.35316 2.1043 8.639 3.42492C8.21559 4.19903 7.89817 5.09291 7.68661 6.06672C7.03829 9.09575 7.54115 12.2975 8.04376 14.7525C8.52135 17.0745 9.20293 19.3737 9.86816 21.6184L10.0279 22.1576C10.1204 22.458 10.2097 22.758 10.2991 23.058C10.3882 23.3584 10.4773 23.6588 10.5701 23.9589C10.6359 24.1849 10.698 24.427 10.7564 24.6804ZM12.0357 25.1372L12.0383 25.1597C12.0509 25.2848 12.0636 25.4101 12.0762 25.5357C12.3599 25.5689 12.6405 25.6353 12.9127 25.7345C12.6807 25.4925 12.3811 25.2677 12.0357 25.1372Z" transform="matrix(0.450444 0.892805 -0.89594 0.444174 64.7983 12.0007)" fill="white"/>
<path d="M2.89663 9.27266V8.59301H5.0413V6.2973H5.73605V8.59301H7.85052V9.27266H5.73605V11.5533H5.0413V9.27266H2.89663ZM16.3168 5.376L15.5768 5.93482C15.3049 5.46158 14.9324 5.09407 14.4591 4.83228C13.996 4.57049 13.4774 4.43959 12.9035 4.43959C12.1382 4.43959 11.5341 4.58056 11.0911 4.86249C10.6481 5.14441 10.4265 5.55724 10.4265 6.10096C10.4265 6.51378 10.5927 6.86116 10.9249 7.14309C11.2169 7.38474 11.6096 7.58612 12.103 7.74722C12.1735 7.76736 12.3799 7.83784 12.7222 7.95867C13.0747 8.06943 13.3113 8.14494 13.4321 8.18522C13.7442 8.31611 14.001 8.42184 14.2024 8.50239C14.6957 8.70377 15.1136 8.91521 15.4559 9.13673C15.8084 9.36831 16.0752 9.65528 16.2564 9.99762C16.4477 10.3601 16.5434 10.778 16.5434 11.2512C16.5434 12.1574 16.201 12.8723 15.5164 13.3959C14.8317 13.9094 13.9053 14.1661 12.7373 14.1661C12.0426 14.1661 11.3881 14.0403 10.7739 13.7886C10.0389 13.4865 9.50523 13.0535 9.17296 12.4897C8.96151 12.1574 8.82055 11.7899 8.75007 11.3871L9.61096 11.0095C10.0238 12.5299 11.0911 13.2901 12.8129 13.2901C13.3566 13.2901 13.85 13.1995 14.293 13.0183C14.7964 12.827 15.1388 12.5148 15.32 12.0819C15.4207 11.8704 15.471 11.6036 15.471 11.2814C15.471 10.9894 15.3955 10.6722 15.2445 10.3299C15.1841 10.2191 15.0683 10.1033 14.8971 9.98251C14.7058 9.86169 14.5749 9.77107 14.5044 9.71065C14.3937 9.64017 13.996 9.469 13.3113 9.19714C13.1804 9.15687 12.9236 9.06625 12.541 8.92528C12.4705 8.91521 12.4202 8.90011 12.39 8.87997C11.9671 8.72894 11.6499 8.61315 11.4385 8.53259C11.2371 8.45204 10.9854 8.33625 10.6833 8.18522C10.3913 8.03418 10.1698 7.89322 10.0187 7.76232C9.87778 7.62136 9.74185 7.44516 9.61096 7.23371C9.49013 7.02226 9.40958 6.78564 9.3693 6.52385C9.35924 6.45337 9.3542 6.33758 9.3542 6.17648C9.3542 5.32062 9.70661 4.67118 10.4114 4.22815C11.0659 3.81532 11.8513 3.60891 12.7676 3.60891C14.3987 3.60891 15.5818 4.19794 16.3168 5.376ZM22.5787 9.81638C22.5585 8.21542 21.9191 7.41495 20.6605 7.41495C20.0161 7.41495 19.5328 7.65157 19.2106 8.1248C18.8884 8.56784 18.6971 9.13169 18.6367 9.81638H22.5787ZM22.8656 7.6566C23.3087 8.28087 23.5302 9.08135 23.5302 10.058C23.5302 10.2493 23.5251 10.3853 23.5151 10.4658H18.6216C18.6216 11.3217 18.7827 12.0114 19.1049 12.535C19.4573 13.129 19.996 13.4261 20.7209 13.4261C21.6574 13.4261 22.2615 13.0132 22.5333 12.1876L23.3036 12.3688C23.1929 12.7515 23.0016 13.0837 22.7297 13.3657C22.4679 13.6476 22.1658 13.849 21.8235 13.9698C21.5114 14.0806 21.1539 14.146 20.7512 14.1661H20.7209C19.6536 14.1661 18.8582 13.7835 18.3346 13.0183C17.8513 12.3336 17.6097 11.4626 17.6097 10.4054C17.6097 9.27769 17.8815 8.37653 18.4252 7.70191C18.979 7.01723 19.7342 6.67489 20.6907 6.67489C21.6674 6.67489 22.3924 7.00212 22.8656 7.6566ZM25.0818 14V3.66932H26.0786V14H25.0818ZM28.0338 14V3.66932H29.0306V14H28.0338Z" transform="matrix(0.895874 -0.444306 0.450578 0.892738 5.07812 45.2167)" fill="#FA2A00"/>
</svg>
