<svg width="8" height="8" viewBox="0 0 8 8" fill="none" xmlns="http://www.w3.org/2000/svg">
<path fill-rule="evenodd" clip-rule="evenodd" d="M4 8C6.20914 8 8 6.20914 8 4C8 1.79086 6.20914 0 4 0C1.79086 0 0 1.79086 0 4C0 6.20914 1.79086 8 4 8ZM2.75894 4.55788C3.24765 3.97012 4.45132 2.64758 6.12131 1.6004C6.14316 1.58671 6.36478 1.9295 6.39032 1.96906L6.39273 1.97276C6.40805 2.00904 6.39835 2.05104 6.37073 2.07778C4.81833 3.53971 3.60269 5.55542 3.23459 6.5182C3.22339 6.54875 3.198 6.56937 3.16812 6.57625C3.16214 6.57778 3.15506 6.57778 3.15057 6.57778C3.12558 6.57778 3.10242 6.56899 3.0856 6.54951L0.800354 4.17292C0.782043 4.15344 1.47089 3.52788 1.50412 3.55232L2.75894 4.55788Z" fill="#65BA67"/>
</svg>
