<svg width="16" height="14" viewBox="0 0 16 14" fill="none" xmlns="http://www.w3.org/2000/svg">
<path fill-rule="evenodd" clip-rule="evenodd" d="M10.8516 8.18277L13.3633 5.82624L9.8995 5.3343L8.34816 2.30334L6.79683 5.3343L3.33301 5.82624L5.84469 8.18277L5.2455 11.5232L8.34816 9.94422L11.4426 11.5232L10.8516 8.18277ZM15.8736 5.35935C15.8736 5.48717 15.7952 5.62659 15.6385 5.77765L12.3564 8.86254L13.1339 13.2197C13.14 13.2604 13.143 13.3185 13.143 13.394C13.143 13.6845 13.0194 13.8297 12.7723 13.8297C12.6577 13.8297 12.5372 13.7949 12.4106 13.7252L8.35086 11.6686L4.29112 13.7252C4.1585 13.7949 4.03795 13.8297 3.92945 13.8297C3.80286 13.8297 3.70792 13.7876 3.64463 13.7034C3.58134 13.6191 3.54969 13.516 3.54969 13.394C3.54969 13.3592 3.55572 13.3011 3.56778 13.2197L4.34537 8.86254L1.05417 5.77765C0.903472 5.62079 0.828125 5.48136 0.828125 5.35935C0.828125 5.1444 0.996903 5.01078 1.33446 4.95849L5.87342 4.32234L7.90781 0.35729C8.02234 0.119096 8.17002 0 8.35086 0C8.5317 0 8.67938 0.119096 8.79391 0.35729L10.8283 4.32234L15.3673 4.95849C15.7048 5.01078 15.8736 5.1444 15.8736 5.35935Z" fill="#ADB4BC"/>
</svg>
