<svg width="12" height="12" viewBox="0 0 12 12" fill="none" xmlns="http://www.w3.org/2000/svg">
<path fill-rule="evenodd" clip-rule="evenodd" d="M0 6C0 2.6875 2.6875 0 6 0C9.3125 0 12 2.6875 12 6C12 9.3125 9.3125 12 6 12C4.46094 12 3.04688 11.4102 1.98438 10.457C1.90234 10.3867 1.83594 10.3203 1.75781 10.2422C0.671875 9.15625 0 7.65625 0 6Z" fill="#323B45"/>
<path fill-rule="evenodd" clip-rule="evenodd" d="M10 4.71267C10 4.77736 9.95833 4.84793 9.875 4.92439L8.12981 6.48582L8.54327 8.69124C8.54647 8.71183 8.54808 8.74123 8.54808 8.77946C8.54808 8.92649 8.48237 9 8.35096 9C8.29006 9 8.22596 8.98236 8.15865 8.94707L6 7.90611L3.84135 8.94707C3.77083 8.98236 3.70673 9 3.64904 9C3.58173 9 3.53125 8.97868 3.4976 8.93604C3.46394 8.8934 3.44712 8.84121 3.44712 8.77946C3.44712 8.76181 3.45032 8.73241 3.45673 8.69124L3.87019 6.48582L2.12019 4.92439C2.04006 4.84499 2 4.77442 2 4.71267C2 4.60386 2.08974 4.53623 2.26923 4.50977L4.68269 4.18778L5.76442 2.18084C5.82532 2.06028 5.90385 2 6 2C6.09615 2 6.17468 2.06028 6.23558 2.18084L7.31731 4.18778L9.73077 4.50977C9.91026 4.53623 10 4.60386 10 4.71267Z" fill="white"/>
</svg>
