<svg width="16" height="14" viewBox="0 0 16 14" fill="none" xmlns="http://www.w3.org/2000/svg">
<path fill-rule="evenodd" clip-rule="evenodd" d="M15.0455 5.36228C15.0455 5.4901 14.9671 5.62952 14.8104 5.78057L11.5282 8.86547L12.3058 13.2227C12.3118 13.2633 12.3149 13.3214 12.3149 13.397C12.3149 13.519 12.2832 13.6221 12.2199 13.7063C12.1566 13.7906 12.0647 13.8327 11.9442 13.8327C11.8296 13.8327 11.7091 13.7978 11.5825 13.7281L7.52274 11.6715L3.46299 13.7281C3.33038 13.7978 3.20982 13.8327 3.10132 13.8327C2.97474 13.8327 2.8798 13.7906 2.8165 13.7063C2.75321 13.6221 2.72157 13.519 2.72157 13.397C2.72157 13.3621 2.72759 13.304 2.73965 13.2227L3.51724 8.86547L0.226044 5.78057C0.0753472 5.62371 0 5.48429 0 5.36228C0 5.14733 0.168778 5.01371 0.506338 4.96142L5.0453 4.32527L7.07969 0.36022C7.19422 0.122025 7.3419 0.00292969 7.52274 0.00292969C7.70357 0.00292969 7.85125 0.122025 7.96578 0.36022L10.0002 4.32527L14.5391 4.96142C14.8767 5.01371 15.0455 5.14733 15.0455 5.36228Z" fill="#F0C909"/>
</svg>
