<svg width="24" height="14" viewBox="0 0 24 14" fill="none" xmlns="http://www.w3.org/2000/svg">
<path d="M11.6991 12.1885C13.1147 10.9077 13.9994 9.05655 13.9994 6.99916C13.9994 4.94197 13.1147 3.09231 11.6991 1.81127C10.4606 0.685233 8.80559 0 7.00494 0C3.13293 0 0 3.13349 0 6.99916C0 10.8663 3.13293 13.9998 7.00494 13.9998C8.80541 14 10.4604 13.3133 11.6991 12.1885Z" fill="#0066CB"/>
<path d="M11.6992 12.1898C13.1148 10.9089 13.9995 9.05778 13.9995 7.00039C13.9995 4.9432 13.1148 3.09354 11.6992 1.8125" fill="#0066CB"/>
<path d="M11.6992 12.1898C13.1148 10.9089 13.9995 9.05778 13.9995 7.00039C13.9995 4.9432 13.1148 3.09354 11.6992 1.8125" stroke="#0066CB" stroke-width="0.3097"/>
<path d="M16.4035 0C14.5924 0 12.9375 0.685233 11.6989 1.81127C11.4491 2.04154 11.2096 2.28897 10.9911 2.55333H12.4067C12.6045 2.78789 12.7815 3.0353 12.9376 3.29408H10.4603C10.3146 3.53144 10.1794 3.77885 10.0544 4.03484H13.3434C13.4578 4.27517 13.5515 4.52241 13.6348 4.7769H9.76279C9.67951 5.01724 9.60667 5.26465 9.55469 5.51765H13.8431C13.9472 5.99534 13.9992 6.49148 13.9992 6.99916C13.9992 7.77662 13.8742 8.52464 13.6348 9.22273H9.76297C9.84625 9.47704 9.93997 9.72446 10.0544 9.9646H13.3434C13.2184 10.2208 13.0936 10.468 12.9375 10.7055H10.4601C10.6163 10.9643 10.8037 11.2117 10.9911 11.4465H12.4067C12.1881 11.7107 11.9487 11.9581 11.6989 12.1884C12.9375 13.3131 14.5924 13.9998 16.4035 13.9998C20.2651 13.9998 23.398 10.8663 23.398 6.99916C23.398 3.13349 20.2649 0 16.4035 0Z" fill="#CC0001"/>
<path d="M22.6586 10.8876H22.6899C22.7005 10.8876 22.7106 10.8891 22.7106 10.8846C22.7212 10.879 22.7315 10.8705 22.7315 10.8621C22.7315 10.8533 22.721 10.8449 22.7106 10.8407C22.7106 10.8364 22.6899 10.8377 22.6899 10.8377H22.6586V10.8876ZM22.6586 11.0013H22.6171V10.8023H22.7003C22.721 10.8023 22.7315 10.8023 22.7523 10.8123C22.7628 10.8237 22.773 10.8421 22.773 10.8623C22.773 10.8848 22.7626 10.9049 22.7417 10.9131L22.773 11.0014H22.721L22.7003 10.9219H22.6584V11.0013H22.6586ZM22.6899 11.0739C22.7836 11.0739 22.8669 10.9972 22.8669 10.9018C22.8669 10.8064 22.7836 10.7296 22.6899 10.7296C22.5964 10.7296 22.5234 10.8064 22.5234 10.9018C22.5234 10.9972 22.5964 11.0739 22.6899 11.0739ZM22.4609 10.9018C22.4609 10.7766 22.5651 10.6758 22.6899 10.6758C22.8149 10.6758 22.9189 10.7766 22.9189 10.9018C22.9189 11.027 22.8147 11.1278 22.6899 11.1278C22.5651 11.1278 22.4609 11.027 22.4609 10.9018Z" fill="#231F20"/>
<path d="M5.90987 8.94702H5.0251L5.54546 6.21855L4.34844 8.94702H3.61979L3.4741 6.2342L2.89134 8.94702H2.08984L2.76633 5.39844H4.15077L4.17145 7.59499L5.12906 5.39844H6.5966L5.90987 8.94702Z" fill="#231F20"/>
<path d="M15.6436 8.91162C15.4042 8.9772 15.2168 9.00552 15.0191 9.00552C14.5716 9.00552 14.332 8.78233 14.332 8.37152C14.332 8.29048 14.332 8.20384 14.3527 8.11255L14.4047 7.82974L14.4464 7.60225L14.8524 5.39844H15.7163L15.5915 6.06094H16.039L15.9141 6.76183H15.4666L15.2377 7.96611C15.2272 8.01995 15.2272 8.05852 15.2272 8.08553C15.2272 8.23476 15.3105 8.30016 15.5186 8.30016C15.6228 8.30016 15.6954 8.29178 15.758 8.27315L15.6436 8.91162Z" fill="#231F20"/>
<path d="M12.1886 6.97141C12.1886 7.33675 12.3864 7.58715 12.8546 7.77607C13.2086 7.9212 13.2708 7.96386 13.2708 8.09465C13.2708 8.27536 13.1147 8.35604 12.7611 8.35604C12.5008 8.35604 12.251 8.32083 11.97 8.24109L11.8555 8.90769L11.8868 8.91347L12.0533 8.94328C12.1053 8.95185 12.1783 8.96042 12.2823 8.9688C12.4904 8.98445 12.657 8.99321 12.7713 8.99321C13.6978 8.99321 14.1247 8.68748 14.1247 8.02926C14.1247 7.63392 13.9477 7.40085 13.5104 7.22572C13.1358 7.07929 13.0942 7.04798 13.0942 6.91309C13.0942 6.7566 13.2399 6.67705 13.521 6.67705C13.6978 6.67705 13.9373 6.69419 14.1558 6.7212L14.2808 6.05292C14.0518 6.02162 13.7083 5.99609 13.5104 5.99609C12.5217 5.99609 12.1781 6.43969 12.1886 6.97141Z" fill="#231F20"/>
<path d="M8.14073 7.66243C8.0472 7.65236 8.00547 7.64975 7.94288 7.64975C7.45382 7.64975 7.20398 7.7975 7.20398 8.08888C7.20398 8.26792 7.32881 8.38324 7.51623 8.38324C7.87003 8.38342 8.1303 8.08907 8.14073 7.66243ZM8.73393 8.94775H8.00529L8.02615 8.6478C7.79718 8.88516 7.5058 8.99749 7.11009 8.99749C6.63128 8.99749 6.30859 8.67612 6.30859 8.20979C6.30859 7.50611 6.87068 7.0966 7.83854 7.0966C7.94269 7.0966 8.06751 7.1035 8.19253 7.11915C8.22364 7.02395 8.23407 6.98277 8.23407 6.93154C8.23407 6.73964 8.07795 6.66848 7.67198 6.66848C7.42215 6.66848 7.14119 6.69977 6.94334 6.74952L6.82876 6.77932L6.74548 6.79777L6.87031 6.14961C7.30738 6.03857 7.58833 5.99609 7.91101 5.99609C8.66034 5.99609 9.05605 6.28896 9.05605 6.84341C9.05605 6.98556 9.04562 7.09363 8.98321 7.41501L8.80622 8.43857L8.7751 8.6219L8.75424 8.76834L8.73337 8.86931V8.94775" fill="#231F20"/>
<path d="M11.1692 7.16687C11.1692 7.10725 11.1796 7.0575 11.1796 7.02043C11.1796 6.78587 11.0235 6.64781 10.7632 6.64781C10.4823 6.64781 10.2844 6.83263 10.2116 7.16518L11.1692 7.16687ZM11.5958 8.88442C11.294 8.96416 11.0024 9.00236 10.7006 9.00087C9.72233 9.00087 9.22266 8.55726 9.22266 7.70864C9.22266 6.71767 9.86802 5.98828 10.7424 5.98828C11.4604 5.98828 11.9185 6.3963 11.9185 7.03738C11.9185 7.25089 11.8872 7.45676 11.8039 7.74963H10.0761C10.0657 7.7936 10.0657 7.81372 10.0657 7.84054C10.0657 8.17459 10.326 8.34525 10.8359 8.34525C11.1481 8.34525 11.4293 8.28991 11.7415 8.16323L11.5958 8.88442Z" fill="#231F20"/>
<path d="M20.0061 7.29561C20.0061 6.99417 19.8812 6.70837 19.5274 6.70837C19.0799 6.70837 18.8094 7.2345 18.8094 7.69785C18.8094 8.0889 18.9967 8.35197 19.3091 8.34601C19.4963 8.34601 19.9023 8.08871 19.9751 7.63934C19.9956 7.53575 20.0061 7.42081 20.0061 7.29561ZM20.8908 7.64083C20.7658 8.6005 20.0893 9.02584 19.1943 9.02584C18.2158 9.02584 17.8203 8.42872 17.8203 7.69654C17.8203 6.67278 18.4865 5.98047 19.5274 5.98047C20.4329 5.98047 20.9119 6.55057 20.9119 7.28294C20.9117 7.46049 20.9117 7.47315 20.8908 7.64083Z" fill="#231F20"/>
<path d="M21.182 8.50479H21.2132C21.2132 8.50479 21.2238 8.5048 21.234 8.50052C21.2443 8.49623 21.2445 8.48636 21.2445 8.47779C21.2445 8.47071 21.2445 8.46213 21.234 8.45803C21.234 8.45375 21.2132 8.45375 21.2029 8.45375H21.182V8.50479ZM21.182 8.61714H21.1403V8.41817H21.2236C21.234 8.41817 21.2549 8.41966 21.2756 8.42972C21.286 8.43959 21.2963 8.45952 21.2963 8.47946C21.2963 8.5007 21.2858 8.52212 21.2651 8.5305L21.2963 8.61732H21.2443L21.213 8.53908H21.182V8.61714ZM21.2132 8.68961C21.3071 8.68961 21.3799 8.61286 21.3799 8.51747C21.3799 8.42357 21.3071 8.34681 21.2132 8.34681C21.1196 8.34681 21.0364 8.42357 21.0364 8.51747C21.0364 8.61286 21.1196 8.68961 21.2132 8.68961ZM20.9844 8.51747C20.9844 8.39376 21.0885 8.29297 21.2133 8.29297C21.3384 8.29297 21.4423 8.39376 21.4423 8.51747C21.4423 8.64267 21.3382 8.74345 21.2133 8.74345C21.0883 8.74345 20.9844 8.64267 20.9844 8.51747Z" fill="white"/>
<path d="M6.13119 8.73999H5.25686L5.77721 6.01172L4.58019 8.73999H3.78913L3.64344 6.02885L3.12309 8.73999H2.33203L3.00851 5.19141H4.3719L4.43431 7.38946L5.40237 5.19141H6.81792L6.13119 8.73999Z" fill="white"/>
<path d="M15.8626 8.70608C15.6232 8.77147 15.4357 8.7998 15.2379 8.7998C14.7904 8.7998 14.5508 8.57529 14.5508 8.16598C14.5508 8.08475 14.5612 7.99831 14.5716 7.9072L14.6236 7.62401L14.6652 7.39504L15.0713 5.19141H15.9352L15.8104 5.85392H16.2579L16.1329 6.55629H15.6854L15.4564 7.76039C15.446 7.81311 15.446 7.8528 15.446 7.88C15.446 8.02942 15.5397 8.09332 15.7478 8.09332C15.8415 8.09332 15.9145 8.08475 15.9768 8.06612L15.8626 8.70608Z" fill="white"/>
<path d="M18.1011 6.68606L18.0804 6.59515L18.2574 6.14298C18.2155 6.1387 18.1948 6.13739 18.1948 6.1346C18.1428 6.12454 18.122 6.11894 18.1115 6.11894C18.0908 6.11317 18.0595 6.11187 18.0284 6.11187C17.737 6.11187 17.5392 6.23837 17.2685 6.57968L17.3624 6.06641H16.4568L15.9258 8.9482H16.7899C16.9043 8.287 16.9564 7.91047 17.0293 7.59748C17.1437 7.07861 17.5289 6.84256 17.8099 6.8951C17.841 6.90087 17.8619 6.90087 17.9034 6.91652L17.9554 6.93627L18.1011 6.68606Z" fill="#231F20"/>
<path d="M18.4033 5.87974C18.3305 5.85124 18.32 5.85123 18.3098 5.84844C18.2679 5.83838 18.2368 5.83279 18.2368 5.8313C18.2056 5.82702 18.1743 5.82422 18.143 5.82422C17.8621 5.82422 17.654 5.95222 17.3833 6.29353L17.4666 5.85552H16.6755L16.1445 8.74159H17.0189C17.3311 6.97727 17.4664 6.66744 17.8828 6.66744C17.9141 6.66744 17.9452 6.67024 17.9869 6.67453L18.0911 6.69577L18.4033 5.87974Z" fill="white"/>
<path d="M12.4071 6.76995C12.4071 7.13381 12.6153 7.38552 13.0838 7.57462C13.4376 7.71826 13.4898 7.76093 13.4898 7.8932C13.4898 8.07225 13.3337 8.15329 12.9901 8.15329C12.7194 8.15329 12.48 8.1177 12.199 8.03945L12.0742 8.70494L12.1158 8.71183L12.2719 8.74015C12.3239 8.75039 12.4073 8.75878 12.5113 8.76605C12.7194 8.7817 12.8755 8.79008 12.9901 8.79008C13.9267 8.79008 14.3535 8.48584 14.3535 7.82762C14.3535 7.43097 14.1767 7.19921 13.729 7.02427C13.3648 6.87783 13.3229 6.84523 13.3229 6.70997C13.3229 6.55496 13.4687 6.4754 13.7497 6.4754C13.9265 6.4754 14.1556 6.49105 14.3846 6.51807L14.5094 5.84997C14.2805 5.81867 13.9371 5.79297 13.729 5.79297C12.7507 5.79316 12.4071 6.23674 12.4071 6.76995Z" fill="white"/>
<path d="M8.32703 7.45781C8.23332 7.44794 8.19159 7.44644 8.12917 7.44644C7.63993 7.44644 7.3901 7.59418 7.3901 7.88556C7.3901 8.06479 7.50468 8.17993 7.70235 8.17993C8.05633 8.18012 8.30617 7.88427 8.32703 7.45781ZM8.96178 8.74294H8.23313L8.254 8.44448C8.03546 8.68165 7.73365 8.79269 7.33793 8.79269C6.86956 8.79269 6.54688 8.47131 6.54688 8.00498C6.54688 7.30242 7.10896 6.89181 8.07682 6.89181C8.17053 6.89181 8.29536 6.90019 8.43062 6.91454C8.45149 6.81915 8.46173 6.77946 8.46173 6.72692C8.46173 6.53633 8.30561 6.46535 7.89964 6.46535C7.64981 6.46535 7.36867 6.49516 7.18143 6.5449L7.05661 6.5762L6.98376 6.59484L7.09834 5.94499C7.53542 5.83414 7.81637 5.79297 8.13905 5.79297C8.88837 5.79297 9.28409 6.08585 9.28409 6.63899C9.28409 6.78114 9.27366 6.8892 9.22168 7.2104L9.03425 8.23564L9.00314 8.41897L8.98227 8.56539L8.97184 8.6647L8.96178 8.74294Z" fill="white"/>
<path d="M11.3566 6.96373C11.3566 6.90262 11.3566 6.85418 11.3566 6.8158C11.3566 6.58124 11.2109 6.44468 10.9507 6.44468C10.6697 6.44468 10.4719 6.62801 10.3886 6.96224L11.3566 6.96373ZM11.8148 8.6811C11.5232 8.75934 11.2318 8.79773 10.9298 8.79773C9.95152 8.79773 9.44141 8.35413 9.44141 7.50401C9.44141 6.51454 10.0866 5.78516 10.9609 5.78516C11.6791 5.78516 12.1371 6.19316 12.1371 6.83294C12.1371 7.04626 12.1058 7.25381 12.0327 7.54649H10.3051C10.2947 7.59065 10.2947 7.61058 10.2947 7.63741C10.2947 7.97164 10.5548 8.1423 11.0545 8.1423C11.3667 8.1423 11.6478 8.0853 11.9599 7.95879L11.8148 8.6811Z" fill="white"/>
<path d="M20.2144 7.06436C20.2144 6.76291 20.0896 6.47731 19.7358 6.47731C19.2882 6.47731 19.0177 7.00325 19.0177 7.46678C19.0177 7.85914 19.2052 8.12239 19.5174 8.11643C19.7048 8.11643 20.1106 7.85914 20.1834 7.40977C20.2041 7.30451 20.2144 7.18956 20.2144 7.06436ZM21.12 7.43417C20.9846 8.39365 20.3183 8.82011 19.4235 8.82011C18.4346 8.82011 18.0391 8.22151 18.0391 7.48933C18.0391 6.46706 18.7155 5.77344 19.7566 5.77344C20.6619 5.77344 21.1409 6.34353 21.1409 7.07572C21.1409 7.25476 21.1409 7.26631 21.12 7.43417Z" fill="white"/>
</svg>
