<svg width="24" height="14" viewBox="0 0 24 14" fill="none" xmlns="http://www.w3.org/2000/svg">
<path d="M23.4995 7.00004C23.5006 10.8651 20.3526 13.999 16.4683 14C12.584 14.0009 9.43463 10.8687 9.43359 7.00359C9.43359 7.00233 9.43359 7.0013 9.43359 7.00004C9.43256 3.13504 12.5806 0.00102702 16.4647 2.52348e-07C20.349 -0.00102652 23.4985 3.13141 23.4995 6.99649C23.4995 6.99767 23.4995 6.99878 23.4995 7.00004Z" fill="#FF9900"/>
<path d="M6.98766 3.51032e-05C3.12641 0.0244406 0 3.15032 0 6.99826C0 10.8612 3.15077 13.9964 7.03299 13.9964C8.85503 13.9964 10.5159 13.3055 11.7656 12.173C11.7655 12.173 11.7654 12.1729 11.7651 12.1727H11.7666C12.0225 11.9407 12.2612 11.6903 12.4805 11.4233H11.0397C10.8473 11.1921 10.6724 10.9511 10.5153 10.7024H13.0004C13.1515 10.4618 13.2883 10.2119 13.4098 9.95306H10.105C9.99239 9.7128 9.8946 9.46708 9.8111 9.21782H13.704C13.9387 8.52025 14.066 7.77394 14.066 6.99818C14.066 6.48385 14.0099 5.98239 13.9039 5.49957H9.60464C9.6579 5.25109 9.72513 5.00561 9.8053 4.7644H13.6997C13.6126 4.50771 13.5115 4.25757 13.3964 4.0151H10.1046C10.2234 3.76267 10.3579 3.51711 10.5082 3.28001H12.9914C12.8261 3.01803 12.6433 2.76773 12.4455 2.53063H11.061C11.2751 2.27994 11.5107 2.04386 11.7666 1.82374C10.5167 0.69113 8.85543 3.51032e-05 7.03299 3.51032e-05C7.01783 3.51032e-05 7.00282 -4.3879e-05 6.98766 3.51032e-05Z" fill="#CC0000"/>
<path d="M22.794 10.6562C22.8322 10.6562 22.8695 10.6661 22.9058 10.6856C22.9423 10.705 22.9704 10.733 22.9907 10.7694C23.0111 10.8054 23.0212 10.8434 23.0212 10.8828C23.0212 10.9216 23.0111 10.9592 22.9911 10.9952C22.9712 11.0312 22.9431 11.0592 22.9069 11.0792C22.8711 11.0989 22.8333 11.1088 22.7939 11.1088C22.7545 11.1088 22.7167 11.0989 22.6807 11.0792C22.6446 11.0591 22.6167 11.0313 22.5963 10.9952C22.5763 10.9592 22.5664 10.9216 22.5664 10.8828C22.5664 10.8434 22.5765 10.8054 22.5969 10.7694C22.6174 10.733 22.6456 10.7052 22.6819 10.6856C22.7186 10.6661 22.7558 10.6562 22.794 10.6562ZM22.794 10.6938C22.7621 10.6938 22.731 10.702 22.7006 10.7183C22.6705 10.7347 22.6469 10.7578 22.6299 10.7885C22.6127 10.8186 22.6041 10.8499 22.6041 10.8828C22.6041 10.9153 22.6125 10.9467 22.6291 10.9766C22.6461 11.0064 22.6696 11.0298 22.6996 11.0465C22.7298 11.0632 22.7612 11.0714 22.7939 11.0714C22.8268 11.0714 22.8582 11.0632 22.8883 11.0465C22.9183 11.0298 22.9417 11.0064 22.9584 10.9766C22.975 10.9467 22.9833 10.9154 22.9833 10.8828C22.9833 10.8499 22.9749 10.8186 22.9578 10.7885C22.9409 10.7578 22.9172 10.7347 22.8868 10.7183C22.8568 10.7019 22.8258 10.6938 22.794 10.6938ZM22.6943 11.0077V10.7643H22.7786C22.8071 10.7643 22.8279 10.7665 22.8408 10.7712C22.8537 10.7757 22.8639 10.7834 22.8716 10.7947C22.8791 10.8058 22.883 10.8177 22.883 10.8303C22.883 10.8482 22.8767 10.8637 22.8638 10.8768C22.8513 10.8899 22.8342 10.8974 22.8131 10.899C22.8218 10.9025 22.8287 10.907 22.8341 10.9119C22.844 10.9214 22.8559 10.9374 22.8702 10.9601L22.8999 11.0077H22.8518L22.8302 10.9694C22.8132 10.9392 22.7995 10.9204 22.7889 10.9127C22.7817 10.9073 22.7711 10.9044 22.7574 10.9044H22.7341V11.008H22.6944L22.6943 11.0077ZM22.7338 10.8707H22.7818C22.8046 10.8707 22.8201 10.8672 22.8284 10.8605C22.8368 10.8535 22.841 10.8447 22.841 10.8335C22.841 10.8262 22.8391 10.8197 22.8351 10.8142C22.831 10.8084 22.8254 10.8043 22.8182 10.8014C22.8111 10.7987 22.7979 10.7971 22.7787 10.7971H22.734V10.8707" fill="#FCB340"/>
<path d="M9.36877 9.00255L9.46244 8.36911C9.41124 8.36911 9.33599 8.39115 9.26948 8.39115C9.00881 8.39115 8.97627 8.25254 8.99675 8.15128L9.2536 6.8773H9.64984L9.73152 6.15832H9.35806L9.4341 5.72266H8.65289C8.63638 5.73908 8.21094 8.17284 8.21094 8.46934C8.21094 8.90809 8.45843 9.10333 8.80752 9.10025C9.08072 9.09796 9.29369 9.02269 9.36877 9.00255Z" fill="#000066"/>
<path d="M9.60938 7.79781C9.60938 8.8508 10.3078 9.10093 10.9029 9.10093C11.4523 9.10093 11.7403 8.97425 11.7403 8.97425L11.8723 8.25551C11.8723 8.25551 11.4081 8.44333 11.0308 8.44333C10.2267 8.44333 10.3676 7.8467 10.3676 7.8467L11.9125 7.85136C11.9125 7.85136 12.0109 7.36869 12.0109 7.17195C12.0109 6.68092 11.742 6.07812 10.9199 6.07812C10.1669 6.07828 9.60938 6.88556 9.60938 7.79781ZM10.9227 6.74537C11.3453 6.74537 11.2674 7.218 11.2674 7.2563H10.436C10.436 7.20733 10.5145 6.74537 10.9227 6.74537Z" fill="#000066"/>
<path d="M15.662 9.00318L15.796 8.19093C15.796 8.19093 15.4284 8.37425 15.1763 8.37425C14.6451 8.37425 14.432 7.97065 14.432 7.53696C14.432 6.65733 14.889 6.17333 15.3978 6.17333C15.7794 6.17333 16.0856 6.3865 16.0856 6.3865L16.2078 5.59723C16.2078 5.59723 15.8463 5.33746 15.4572 5.33596C14.2869 5.33138 13.6172 6.14221 13.6172 7.54391C13.6172 8.47297 14.1131 9.10523 15.0067 9.10523C15.2594 9.10523 15.662 9.00318 15.662 9.00318Z" fill="#000066"/>
<path d="M5.25097 6.08594C4.7375 6.08594 4.34396 6.25014 4.34396 6.25014L4.23521 6.89203C4.23521 6.89203 4.56009 6.76068 5.05126 6.76068C5.33011 6.76068 5.5341 6.79188 5.5341 7.01738C5.5341 7.15433 5.50918 7.20488 5.50918 7.20488C5.50918 7.20488 5.28915 7.18663 5.18723 7.18663C4.45619 7.18663 3.85938 7.46165 3.85938 8.29081C3.85938 8.94423 4.3057 9.09406 4.58232 9.09406C5.11072 9.09406 5.31987 8.76209 5.33193 8.76115L5.32582 9.03664C5.32582 9.03664 5.98511 9.03664 5.98519 9.03664L6.27935 6.98468C6.27935 6.1139 5.51608 6.08594 5.25097 6.08594ZM5.36511 7.75215C5.37948 7.87741 5.33257 8.46978 4.88156 8.46978C4.64899 8.46978 4.58859 8.29286 4.58859 8.18845C4.58859 7.98436 4.69995 7.73959 5.24859 7.73959C5.37638 7.73959 5.3436 7.74875 5.36511 7.75215Z" fill="#000066"/>
<path d="M6.98096 9.08212C7.14963 9.08212 8.1138 9.12485 8.1138 8.13481C8.1138 7.20906 7.22131 7.39206 7.22131 7.02005C7.22131 6.83508 7.3668 6.77679 7.63279 6.77679C7.73828 6.77679 8.14452 6.8102 8.14452 6.8102L8.23889 6.15228C8.23889 6.15235 7.976 6.09375 7.54802 6.09375C6.99406 6.09375 6.43177 6.31379 6.43177 7.06665C6.43177 7.91982 7.36934 7.83412 7.36934 8.19349C7.36934 8.43336 7.10741 8.45311 6.90548 8.45311C6.55615 8.45311 6.24167 8.33377 6.24056 8.33953L6.14062 8.99074C6.1588 8.99627 6.35287 9.08212 6.98096 9.08212Z" fill="#000066"/>
<path d="M21.8393 5.49219L21.7039 6.49597C21.7039 6.49597 21.4219 6.10856 20.9807 6.10856C20.1505 6.10856 19.7227 6.9318 19.7227 7.87745C19.7227 8.48798 20.0278 9.08643 20.6513 9.08643C21.0998 9.08643 21.3485 8.77516 21.3485 8.77516L21.3155 9.04094H22.044L22.6161 5.49764L21.8393 5.49219ZM21.5176 7.44313C21.5176 7.8367 21.3217 8.36248 20.9159 8.36248C20.6463 8.36248 20.52 8.1373 20.52 7.78402C20.52 7.20626 20.7807 6.82517 21.1099 6.82517C21.3793 6.82517 21.5176 7.0092 21.5176 7.44313Z" fill="#000066"/>
<path d="M1.19821 9.04166L1.65406 6.36653L1.72105 9.04166H2.23691L3.19933 6.36653L2.77301 9.04166H3.53961L4.12991 5.49362L2.91215 5.48438L2.18778 7.6567L2.16793 5.49362H1.05193L0.453125 9.04166H1.19821Z" fill="#000066"/>
<path d="M12.7378 9.04509C12.9558 7.81178 13.0334 6.83777 13.669 7.03949C13.7603 6.56213 13.9779 6.14699 14.0773 5.94496C14.0773 5.94496 14.0458 5.89844 13.8494 5.89844C13.514 5.89844 13.0663 6.57563 13.0663 6.57563L13.1332 6.15695H12.4358L11.9688 9.04501H12.7378V9.04509Z" fill="#000066"/>
<path d="M17.2354 6.08594C16.7217 6.08594 16.3282 6.25014 16.3282 6.25014L16.2195 6.89203C16.2195 6.89203 16.5446 6.76068 17.0355 6.76068C17.3144 6.76068 17.5183 6.79188 17.5183 7.01738C17.5183 7.15433 17.4935 7.20488 17.4935 7.20488C17.4935 7.20488 17.2735 7.18663 17.1716 7.18663C16.4405 7.18663 15.8438 7.46165 15.8438 8.29081C15.8438 8.94423 16.29 9.09406 16.5666 9.09406C17.0949 9.09406 17.3042 8.76209 17.3161 8.76115L17.31 9.03664H17.9695L18.2636 6.98468C18.2636 6.1139 17.5004 6.08594 17.2354 6.08594ZM17.3494 7.75215C17.3637 7.87741 17.3168 8.46978 16.8659 8.46978C16.6331 8.46978 16.5728 8.29286 16.5728 8.18845C16.5728 7.98436 16.6841 7.73959 17.2328 7.73959C17.3607 7.73959 17.328 7.74875 17.3494 7.75215Z" fill="#000066"/>
<path d="M19.0192 9.04838C19.1389 8.14103 19.3605 6.86721 19.9504 7.04278C20.0416 6.56541 19.9536 6.56668 19.7572 6.56668C19.4216 6.56668 19.3474 6.57884 19.3474 6.57884L19.4143 6.16016H18.717L18.25 9.0483H19.0192V9.04838Z" fill="#000066"/>
<path d="M9.56815 8.77607L9.66189 8.14271C9.6107 8.14271 9.53537 8.16451 9.46893 8.16451C9.20827 8.16451 9.17953 8.02661 9.19612 7.92464L9.4067 6.63233H9.80286L9.89851 5.93176H9.52497L9.60101 5.49609H8.85219C8.83568 5.51252 8.41016 7.94636 8.41016 8.2427C8.41016 8.68145 8.65773 8.87685 9.00682 8.87369C9.28018 8.8714 9.49306 8.79613 9.56815 8.77607Z" fill="white"/>
<path d="M9.80469 7.57132C9.80469 8.62431 10.5032 8.87453 11.0983 8.87453C11.6475 8.87453 11.8892 8.75234 11.8892 8.75234L12.0211 8.03368C12.0211 8.03368 11.6033 8.21684 11.226 8.21684C10.4219 8.21684 10.5627 7.62029 10.5627 7.62029H12.0845C12.0845 7.62029 12.1828 7.13747 12.1828 6.94073C12.1828 6.44977 11.9372 5.85156 11.115 5.85156C10.3621 5.85172 9.80469 6.659 9.80469 7.57132ZM11.1179 6.51888C11.5405 6.51888 11.4625 6.99143 11.4625 7.02966H10.6311C10.6311 6.98085 10.7097 6.51888 11.1179 6.51888Z" fill="white"/>
<path d="M15.8622 8.77622L15.9961 7.96388C15.9961 7.96388 15.6287 8.1472 15.3765 8.1472C14.8454 8.1472 14.6323 7.7436 14.6323 7.30999C14.6323 6.43036 15.0894 5.94644 15.5982 5.94644C15.9797 5.94644 16.2859 6.15961 16.2859 6.15961L16.4082 5.37034C16.4082 5.37034 15.9541 5.1875 15.5648 5.1875C14.7003 5.1875 13.8594 5.93372 13.8594 7.33519C13.8594 8.26449 14.3135 8.87826 15.2071 8.87826C15.4597 8.87834 15.8622 8.77622 15.8622 8.77622Z" fill="white"/>
<path d="M5.44636 5.85938C4.93289 5.85938 4.53927 6.02358 4.53927 6.02358L4.43061 6.66547C4.43061 6.66547 4.75549 6.53412 5.24658 6.53412C5.52542 6.53412 5.72941 6.56532 5.72941 6.79081C5.72941 6.92777 5.70441 6.97832 5.70441 6.97832C5.70441 6.97832 5.48446 6.95999 5.38262 6.95999C4.73501 6.95999 4.05469 7.23501 4.05469 8.06416C4.05469 8.71751 4.50101 8.86741 4.77763 8.86741C5.30595 8.86741 5.53367 8.52629 5.54582 8.52526L5.52113 8.80999H6.1805L6.47466 6.75796C6.47466 5.88741 5.71147 5.85938 5.44636 5.85938ZM5.60678 7.53017C5.62107 7.65551 5.5278 8.24306 5.07695 8.24306C4.84439 8.24306 4.7839 8.0663 4.7839 7.96172C4.7839 7.75779 4.89526 7.51295 5.44398 7.51295C5.57162 7.51311 5.58527 7.52669 5.60678 7.53017Z" fill="white"/>
<path d="M7.1762 8.85564C7.34487 8.85564 8.30911 8.89829 8.30911 7.90825C8.30911 6.98265 7.41654 7.1655 7.41654 6.79365C7.41654 6.60852 7.56204 6.55023 7.82794 6.55023C7.93351 6.55023 8.33967 6.58364 8.33967 6.58364L8.43413 5.92571C8.43413 5.92579 8.17124 5.86719 7.74325 5.86719C7.18929 5.86719 6.627 6.08723 6.627 6.84009C6.627 7.69318 7.56458 7.60756 7.56458 7.96693C7.56458 8.2068 7.30264 8.22631 7.10079 8.22631C6.75146 8.22631 6.4369 8.10705 6.43579 8.11273L6.33594 8.76402C6.35403 8.76955 6.54803 8.85564 7.1762 8.85564Z" fill="white"/>
<path d="M22.0645 5.27072L21.903 6.26802C21.903 6.26802 21.6211 5.88062 21.1799 5.88062C20.4938 5.88062 19.9219 6.70377 19.9219 7.64958C19.9219 8.26012 20.2269 8.85833 20.8505 8.85833C21.299 8.85833 21.5477 8.54714 21.5477 8.54714L21.5148 8.81291H22.2431L22.8152 5.26953L22.0645 5.27072ZM21.7168 7.21526C21.7168 7.60883 21.521 8.13453 21.115 8.13453C20.8455 8.13453 20.7192 7.90943 20.7192 7.55615C20.7192 6.97847 20.9799 6.5973 21.3089 6.5973C21.5785 6.59722 21.7168 6.78149 21.7168 7.21526Z" fill="white"/>
<path d="M1.39387 8.81374L1.84971 6.13862L1.91663 8.81374H2.43256L3.39498 6.13862L2.96866 8.81374H3.73526L4.32565 5.26562H3.14019L2.40192 7.44261L2.36351 5.26562H1.27076L0.671875 8.81374H1.39387Z" fill="white"/>
<path d="M12.933 8.81988C13.151 7.58649 13.1914 6.58499 13.7115 6.76831C13.8026 6.29094 13.8905 6.10628 13.9898 5.90425C13.9898 5.90425 13.9432 5.89453 13.8455 5.89453C13.5101 5.89453 13.2617 6.35042 13.2617 6.35042L13.3284 5.93173H12.6312L12.1641 8.81988H12.933Z" fill="white"/>
<path d="M17.5869 5.85938C17.0734 5.85938 16.6798 6.02358 16.6798 6.02358L16.5712 6.66547C16.5712 6.66547 16.8961 6.53412 17.3872 6.53412C17.666 6.53412 17.8699 6.56532 17.8699 6.79081C17.8699 6.92777 17.845 6.97832 17.845 6.97832C17.845 6.97832 17.6251 6.95999 17.5232 6.95999C16.8756 6.95999 16.1953 7.23501 16.1953 8.06416C16.1953 8.71751 16.6416 8.86741 16.9182 8.86741C17.4465 8.86741 17.6742 8.52629 17.6863 8.52526L17.6618 8.80999C17.6618 8.80999 18.3209 8.80999 18.3211 8.80999L18.6152 6.75796C18.6153 5.88741 17.852 5.85938 17.5869 5.85938ZM17.7476 7.53017C17.7618 7.65551 17.6685 8.24306 17.2175 8.24306C16.9849 8.24306 16.9246 8.0663 16.9246 7.96172C16.9246 7.75779 17.036 7.51295 17.5846 7.51295C17.7122 7.51311 17.7258 7.52669 17.7476 7.53017Z" fill="white"/>
<path d="M19.2181 8.82378C19.4362 7.59039 19.4766 6.5889 19.9965 6.77222C20.0877 6.29485 20.1757 6.11019 20.275 5.90815C20.275 5.90815 20.2284 5.89844 20.1306 5.89844C19.7953 5.89844 19.5468 6.35432 19.5468 6.35432L19.6136 5.93564H18.9163L18.4492 8.82378H19.2181Z" fill="white"/>
<path d="M22.798 8.375C22.8361 8.375 22.8735 8.38471 22.9096 8.40446C22.9461 8.42357 22.9744 8.45169 22.9947 8.4881C23.0151 8.52428 23.0251 8.56195 23.0251 8.60136C23.0251 8.6403 23.0151 8.6779 22.995 8.71383C22.9751 8.74977 22.9471 8.77797 22.911 8.79779C22.875 8.81754 22.8372 8.82749 22.798 8.82749C22.7584 8.82749 22.7206 8.81754 22.6845 8.79779C22.6485 8.77781 22.6206 8.74977 22.6006 8.71383C22.5802 8.6779 22.5703 8.6403 22.5703 8.60136C22.5703 8.56195 22.5804 8.52428 22.6008 8.4881C22.6213 8.45169 22.6497 8.42373 22.686 8.40446C22.7226 8.38471 22.76 8.375 22.798 8.375ZM22.798 8.41228C22.7662 8.41228 22.7351 8.42049 22.7047 8.437C22.6744 8.45311 22.6508 8.47641 22.6337 8.5069C22.6167 8.53699 22.6082 8.56851 22.6082 8.60121C22.6082 8.6339 22.6164 8.66518 22.633 8.69504C22.6499 8.72481 22.6734 8.74819 22.7037 8.76501C22.7337 8.78144 22.7651 8.78974 22.798 8.78974C22.8307 8.78974 22.8623 8.78144 22.8923 8.76501C22.9223 8.74819 22.9458 8.72481 22.9625 8.69504C22.9793 8.66494 22.9874 8.6339 22.9874 8.60121C22.9874 8.56851 22.9789 8.53699 22.9619 8.5069C22.945 8.47641 22.9215 8.45311 22.891 8.437C22.8608 8.42057 22.8299 8.41228 22.798 8.41228ZM22.6984 8.72631V8.48281H22.7826C22.8113 8.48281 22.8323 8.4851 22.845 8.48976C22.8578 8.49411 22.8679 8.50192 22.8757 8.51322C22.8834 8.52443 22.8873 8.5362 22.8873 8.54884C22.8873 8.56661 22.8808 8.58217 22.868 8.59528C22.8554 8.60839 22.8385 8.61597 22.8174 8.6174C22.8258 8.62103 22.8328 8.62537 22.8382 8.63027C22.848 8.63991 22.86 8.65602 22.8743 8.67853L22.9042 8.72623H22.8559L22.8344 8.68793C22.8172 8.65768 22.8035 8.63888 22.793 8.63122C22.7858 8.62561 22.7753 8.62285 22.7614 8.62285H22.7383V8.72639L22.6984 8.72631ZM22.738 8.58928H22.7859C22.8088 8.58928 22.8243 8.58588 22.8326 8.57909C22.8409 8.57246 22.8453 8.56337 22.8453 8.55208C22.8453 8.54489 22.8433 8.53841 22.8393 8.53296C22.8353 8.52712 22.8296 8.52293 22.8224 8.52001C22.8152 8.51725 22.8022 8.51583 22.7829 8.51583H22.738V8.58928" fill="white"/>
</svg>
