<svg width="41" height="14" viewBox="0 0 41 14" fill="none" xmlns="http://www.w3.org/2000/svg">
<path fill-rule="evenodd" clip-rule="evenodd" d="M11.6497 0.699219L8.39764 9.78121L8.05076 7.93596C7.2409 5.67315 5.48736 3.29933 3.44531 2.33728L6.42047 13.9992L9.93745 13.9975L15.1677 0.699219H11.6497Z" fill="#1C548E"/>
<path fill-rule="evenodd" clip-rule="evenodd" d="M14.4805 13.9992L16.6039 0.699219H19.9969L17.8724 13.9992H14.4805Z" fill="#1C548E"/>
<path fill-rule="evenodd" clip-rule="evenodd" d="M29.6498 0.570738C29.0142 0.297244 28.0112 0 26.767 0C23.5847 0 21.3491 1.8414 21.3296 4.47522C21.3091 6.42602 22.9282 7.51424 24.1453 8.16235C25.4014 8.82557 25.8209 9.25129 25.817 9.84469C25.8047 10.7533 24.8121 11.1675 23.8895 11.1675C22.6036 11.1675 21.9183 10.9631 20.8641 10.4586L20.4463 10.2423L19.9961 13.2778C20.7488 13.6556 22.1381 13.9831 23.5824 14C26.9594 14 29.1566 12.1795 29.1827 9.36824C29.1963 7.82084 28.3368 6.6495 26.4791 5.68255C25.3578 5.05388 24.6643 4.63716 24.6745 3.99985C24.6755 3.43702 25.2563 2.8339 26.5178 2.8339C27.5713 2.81483 28.3289 3.07788 28.9252 3.35534L29.2122 3.5108L29.6498 0.570738Z" fill="#1C548E"/>
<path fill-rule="evenodd" clip-rule="evenodd" d="M38.0404 0.699219H35.5189C34.7371 0.699219 34.1512 0.933698 33.8061 1.80381L28.9609 13.9992H32.389C32.389 13.9992 32.9495 12.3579 33.0762 11.998C33.4502 11.998 36.7797 12.0061 37.2549 12.0061C37.3559 12.4702 37.6524 13.9992 37.6524 13.9992H40.6833L38.0404 0.699219ZM34.0156 9.2774C34.2866 8.51358 35.316 5.55716 35.316 5.55716C35.2958 5.59318 35.5836 4.78733 35.75 4.28906L35.9673 5.43639C35.9673 5.43639 36.5945 8.61245 36.7253 9.2774C36.2172 9.2774 34.6519 9.2774 34.0156 9.2774Z" fill="#1C548E"/>
<path fill-rule="evenodd" clip-rule="evenodd" d="M5.53359 0.699219H0.0322475L0 0.920861C4.27734 1.98672 7.0997 4.60408 8.27463 7.69922L7.07902 1.78352C6.87362 0.969697 6.27493 0.727906 5.53359 0.699219Z" fill="#E79F3F"/>
</svg>
